<svg width="34" height="34" viewBox="0 0 34 34" fill="none" xmlns="http://www.w3.org/2000/svg">
<g clip-path="url(#clip0)">
<path d="M13.9843 2.16878C13.8553 1.97281 13.6365 1.85475 13.4019 1.85449H0.830279C0.444554 1.85449 0.131836 2.16721 0.131836 2.55294V31.8866C0.13177 32.2186 0.365327 32.5047 0.690551 32.571C0.736516 32.5803 0.783332 32.585 0.830213 32.585C1.10882 32.586 1.3613 32.4213 1.47274 32.1659L14.0443 2.83226C14.1379 2.6152 14.1154 2.36554 13.9843 2.16878Z" fill="#ECF2FF"/>
<path d="M17.5408 12.7664C17.434 12.5031 17.1783 12.3308 16.8941 12.3306C16.613 12.3305 16.3592 12.4989 16.2502 12.758L10.6628 26.028C10.5131 26.3836 10.68 26.7931 11.0355 26.9427C11.1213 26.9789 11.2136 26.9975 11.3067 26.9975H16.4094L18.3357 32.1322C18.4381 32.4045 18.6985 32.5848 18.9894 32.5848H24.5767C24.9625 32.5846 25.275 32.2717 25.2747 31.886C25.2747 31.7961 25.2572 31.7071 25.2234 31.6238L17.5408 12.7664Z" fill="#ECF2FF"/>
<path d="M32.9575 1.8545H20.3859C20.0002 1.85312 19.6864 2.16473 19.6851 2.55045C19.6847 2.64742 19.7046 2.74341 19.7433 2.83226L32.3149 32.1659C32.4264 32.4213 32.6789 32.586 32.9574 32.585C33.0043 32.5849 33.0511 32.5803 33.0971 32.5711C33.4223 32.5047 33.6559 32.2185 33.6558 31.8866V2.55294C33.656 2.16721 33.3432 1.8545 32.9575 1.8545Z" fill="#ECF2FF"/>
</g>
<defs>
<clipPath id="clip0">
<rect width="33.5242" height="33.5242" fill="white" transform="translate(0.131836 0.45752)"/>
</clipPath>
</defs>
</svg>
