<svg width="150" height="150" viewBox="0 0 150 150" fill="none" xmlns="http://www.w3.org/2000/svg">
<path d="M129.459 35.9908C133.838 35.9908 137.388 32.4409 137.388 28.0618C137.388 23.6827 133.838 20.1328 129.459 20.1328C125.08 20.1328 121.53 23.6827 121.53 28.0618C121.53 32.4409 125.08 35.9908 129.459 35.9908Z" fill="#EBEBEB"/>
<path d="M129.822 35.8049C134.001 35.8049 137.388 32.4174 137.388 28.2389C137.388 24.0603 134.001 20.6729 129.822 20.6729C125.644 20.6729 122.256 24.0603 122.256 28.2389C122.256 32.4174 125.644 35.8049 129.822 35.8049Z" fill="#DBDBDB"/>
<path d="M136.879 28.8209C137.201 24.9206 134.299 21.4983 130.399 21.1769C126.499 20.8556 123.077 23.7569 122.755 27.6572C122.434 31.5574 125.335 34.9797 129.235 35.3011C133.136 35.6224 136.558 32.7211 136.879 28.8209Z" fill="white"/>
<path opacity="0.5" d="M136.749 26.7358C133.524 28.6888 128.22 31.8988 125.253 33.6568C124.416 32.9495 123.754 32.0583 123.318 31.0528L133.122 21.9658C134.038 22.4477 134.838 23.1245 135.465 23.9486C136.091 24.7727 136.53 25.7241 136.749 26.7358Z" fill="#EBEBEB"/>
<path opacity="0.5" d="M136.905 28.5C136.88 29.2889 136.722 30.0679 136.437 30.804L127.599 34.983C127.213 34.8575 126.84 34.6978 126.483 34.506C129.153 32.946 134.031 30.138 136.905 28.5Z" fill="#EBEBEB"/>
<path d="M129.894 21.666H129.756V22.74H129.894V21.666Z" fill="#C7C7C7"/>
<path d="M126.597 22.5067L126.478 22.5757L127.015 23.5058L127.134 23.4368L126.597 22.5067Z" fill="#C7C7C7"/>
<path d="M124.158 24.8859L124.089 25.0054L125.019 25.5424L125.088 25.4229L124.158 24.8859Z" fill="#C7C7C7"/>
<path d="M124.326 28.1699H123.252V28.3079H124.326V28.1699Z" fill="#C7C7C7"/>
<path d="M125.024 30.923L124.094 31.46L124.163 31.5795L125.093 31.0425L125.024 30.923Z" fill="#C7C7C7"/>
<path d="M127.021 32.9724L126.484 33.9028L126.604 33.9718L127.14 33.0414L127.021 32.9724Z" fill="#C7C7C7"/>
<path d="M129.894 33.7378H129.756V34.8118H129.894V33.7378Z" fill="#C7C7C7"/>
<path d="M132.634 32.9652L132.514 33.0342L133.051 33.9643L133.171 33.8953L132.634 32.9652Z" fill="#C7C7C7"/>
<path d="M134.613 30.9215L134.544 31.041L135.474 31.578L135.543 31.4585L134.613 30.9215Z" fill="#C7C7C7"/>
<path d="M136.395 28.1699H135.321V28.3079H136.395V28.1699Z" fill="#C7C7C7"/>
<path d="M135.481 24.8886L134.551 25.4258L134.62 25.5453L135.55 25.0081L135.481 24.8886Z" fill="#C7C7C7"/>
<path d="M133.049 22.5125L132.512 23.4429L132.632 23.5118L133.168 22.5814L133.049 22.5125Z" fill="#C7C7C7"/>
<path d="M129.927 22.1519L130.161 28.7159L129.486 28.7069L129.744 22.1489L129.927 22.1519Z" fill="#C7C7C7"/>
<path d="M134.016 25.9496L129.6 28.7666L129.279 28.1786L133.929 25.7876L134.016 25.9496Z" fill="#A6A6A6"/>
<path d="M130.053 28.2388C130.053 28.2845 130.04 28.3292 130.014 28.3672C129.989 28.4051 129.953 28.4347 129.91 28.4522C129.868 28.4697 129.822 28.4743 129.777 28.4654C129.732 28.4565 129.691 28.4345 129.659 28.4022C129.626 28.3698 129.604 28.3287 129.596 28.2839C129.587 28.2391 129.591 28.1926 129.609 28.1504C129.626 28.1082 129.656 28.0721 129.694 28.0467C129.732 28.0214 129.776 28.0078 129.822 28.0078C129.883 28.0078 129.942 28.0321 129.985 28.0755C130.029 28.1188 130.053 28.1775 130.053 28.2388Z" fill="#C7C7C7"/>
<path d="M103.152 99.6927C103.152 99.6927 107.85 98.6277 110.424 96.2577C112.998 93.8877 114.435 89.6367 114.435 89.6367C112.65 89.9778 110.89 90.4399 109.167 91.0197C108.522 91.6834 107.985 92.4435 107.574 93.2727C107.535 92.7364 107.535 92.198 107.574 91.6617C106.973 91.9217 106.411 92.2629 105.903 92.6757C103.755 94.5447 103.152 99.6927 103.152 99.6927Z" fill="#DBDBDB"/>
<path d="M111.504 91.701C112.143 91.257 112.794 90.831 113.433 90.384C113.441 90.3788 113.447 90.3705 113.449 90.361C113.452 90.3514 113.45 90.3413 113.445 90.333C113.44 90.3246 113.431 90.3187 113.422 90.3164C113.412 90.3142 113.402 90.3158 113.394 90.321C112.194 91.044 110.994 91.821 109.836 92.625C109.434 92.907 109.038 93.201 108.636 93.501L108.717 93.36C108.858 93.126 109.017 92.895 109.155 92.664C109.45 92.1925 109.784 91.7469 110.154 91.332C110.154 91.317 110.154 91.293 110.13 91.311C109.764 91.731 109.398 92.148 109.065 92.595C108.906 92.808 108.765 93.03 108.618 93.255C108.546 93.372 108.474 93.489 108.408 93.609L108.336 93.729C107.736 94.206 107.136 94.704 106.575 95.229C106.227 95.555 105.89 95.891 105.564 96.237C105.747 95.67 105.906 95.094 106.116 94.536C106.116 94.532 106.114 94.5282 106.111 94.5254C106.109 94.5226 106.105 94.521 106.101 94.521C106.097 94.521 106.093 94.5226 106.09 94.5254C106.087 94.5282 106.086 94.532 106.086 94.536C105.882 95.136 105.657 95.712 105.486 96.318C105.126 96.706 104.784 97.106 104.46 97.518C104.46 97.494 104.46 97.467 104.475 97.443C104.529 97.221 104.586 96.999 104.643 96.78C104.757 96.354 104.883 95.934 105.027 95.517C105.297 94.6513 105.724 93.8428 106.287 93.132C106.302 93.117 106.287 93.096 106.266 93.111C105.385 94.2077 104.769 95.4931 104.466 96.867C104.414 97.067 104.366 97.267 104.322 97.467C104.298 97.572 104.271 97.683 104.253 97.791C104.109 97.991 103.971 98.186 103.839 98.376C103.037 99.6005 102.37 100.908 101.85 102.276C101.266 103.812 100.765 105.378 100.35 106.968C100.35 106.974 100.352 106.98 100.357 106.985C100.361 106.989 100.367 106.992 100.374 106.992C100.38 106.992 100.386 106.989 100.391 106.985C100.395 106.98 100.398 106.974 100.398 106.968C101.319 104.22 102.255 101.433 103.827 98.976C104.16 98.4583 104.518 97.9577 104.901 97.476C105.678 97.4235 106.446 97.2702 107.184 97.02C107.99 96.7485 108.759 96.3766 109.473 95.913C109.88 95.6405 110.272 95.345 110.646 95.028C110.664 95.013 110.646 94.989 110.628 95.004C109.971 95.5322 109.247 95.9701 108.474 96.306C107.714 96.6543 106.92 96.9208 106.104 97.101C105.759 97.176 105.408 97.233 105.054 97.281C105.489 96.7451 105.951 96.2324 106.44 95.745C106.599 95.586 106.761 95.445 106.926 95.283C107.473 94.9002 108.053 94.5678 108.66 94.29C109.431 93.918 110.187 93.522 110.949 93.135C111.381 92.916 111.807 92.694 112.239 92.481C112.257 92.481 112.239 92.445 112.224 92.454C111.45 92.826 110.667 93.177 109.887 93.534C109.155 93.867 108.414 94.206 107.709 94.602L107.619 94.653C108.255 94.101 108.915 93.573 109.59 93.063C110.224 92.601 110.862 92.147 111.504 91.701Z" fill="#A6A6A6"/>
<path d="M111.237 94.1217C110.853 94.2897 110.466 94.4367 110.088 94.6137C109.71 94.7907 109.329 95.0097 108.96 95.2287C108.945 95.2287 108.96 95.2587 108.975 95.2527C109.35 95.0727 109.728 94.9047 110.1 94.7187C110.472 94.5327 110.856 94.3227 111.246 94.1517C111.264 94.1457 111.255 94.1127 111.237 94.1217Z" fill="#A6A6A6"/>
<path d="M87.8999 76.0259C88.767 77.1453 89.2574 78.5106 89.3009 79.9259C89.3189 80.3459 89.2499 80.9339 89.2019 81.6239C90.3744 82.3035 91.4133 83.191 92.2679 84.2429C91.3295 83.6984 90.2521 83.4408 89.1689 83.5019C89.1951 83.9736 89.2552 84.4428 89.3489 84.9059C90.0323 84.9048 90.7091 85.0384 91.3409 85.2989C90.7226 85.2911 90.1095 85.4127 89.5409 85.6559C90.3779 88.3199 92.8679 91.0559 99.7409 92.2169C100.468 88.9501 100.038 85.5322 98.5229 82.5479C96.4649 78.4979 87.8999 76.0259 87.8999 76.0259Z" fill="#DBDBDB"/>
<path d="M102.117 103.614C102.001 102.476 101.853 101.342 101.673 100.212C101.326 97.948 100.863 95.7031 100.287 93.486C100.02 92.4451 99.6906 91.4212 99.3001 90.42C99.3211 90.2378 99.3301 90.0544 99.3271 89.871C99.3271 89.649 99.3271 89.43 99.3271 89.208C99.3271 88.77 99.3031 88.329 99.2641 87.891C99.1939 87.0219 99.0524 86.16 98.8411 85.314C98.7151 84.825 98.5711 84.342 98.4271 83.859C98.4271 83.8551 98.4255 83.8512 98.4227 83.8484C98.4199 83.8456 98.4161 83.844 98.4121 83.844C98.4081 83.844 98.4043 83.8456 98.4015 83.8484C98.3987 83.8512 98.3971 83.8551 98.3971 83.859C98.6245 84.7035 98.7939 85.5625 98.9041 86.43C99.0261 87.2854 99.1032 88.1466 99.1351 89.01C99.1351 89.247 99.1351 89.481 99.1351 89.718C99.1351 89.817 99.1351 89.919 99.1351 90.018C98.799 89.1954 98.4133 88.3939 97.9801 87.618C97.2808 86.3899 96.4938 85.2138 95.6251 84.099C95.6236 83.9693 95.6054 83.8402 95.5711 83.715C95.5381 83.562 95.5051 83.415 95.4691 83.256C95.3991 82.942 95.3211 82.63 95.2351 82.32C95.0641 81.696 94.8391 81.096 94.6351 80.481C94.6351 80.4771 94.6335 80.4732 94.6307 80.4704C94.6279 80.4676 94.6241 80.466 94.6201 80.466C94.6161 80.466 94.6123 80.4676 94.6095 80.4704C94.6067 80.4732 94.6051 80.4771 94.6051 80.481C94.7881 81.081 94.9051 81.72 95.0461 82.338C95.1151 82.638 95.1841 82.938 95.2501 83.259L95.3491 83.721C95.3479 83.732 95.3479 83.7431 95.3491 83.754C95.0701 83.403 94.7881 83.058 94.4971 82.719C93.1861 81.18 91.7461 79.761 90.2971 78.351C90.1201 78.177 89.9371 78.009 89.7571 77.838C89.7421 77.823 89.7211 77.838 89.7361 77.862C91.1191 79.305 92.4811 80.766 93.7711 82.293C94.0711 82.656 94.3711 83.025 94.6711 83.397C94.5151 83.289 94.3711 83.187 94.2031 83.097C93.8041 82.836 93.3991 82.581 92.9821 82.347C92.5651 82.113 92.1451 81.885 91.7161 81.675C91.2871 81.465 90.8161 81.276 90.3781 81.03C90.3601 81.03 90.3451 81.051 90.3631 81.057C90.7972 81.2588 91.2163 81.4914 91.6171 81.753C92.0341 82.002 92.4541 82.251 92.8621 82.512C93.2701 82.773 93.6721 83.019 94.0621 83.28C94.3981 83.499 94.7251 83.736 95.0731 83.934C95.8696 84.9588 96.6049 86.0296 97.2751 87.141C97.69 87.8405 98.0695 88.5604 98.4121 89.298L98.1661 89.19L97.5361 88.911L96.3211 88.38C95.5501 88.047 94.7671 87.738 94.0111 87.369C93.585 87.1695 93.173 86.9409 92.7781 86.685C92.7601 86.685 92.7451 86.7 92.7631 86.712C94.1701 87.684 95.7631 88.368 97.3111 89.058L97.9861 89.358C98.1721 89.439 98.3581 89.532 98.5501 89.604C99.0116 90.6364 99.3996 91.7 99.7111 92.787C100.328 94.9751 100.828 97.1942 101.211 99.435C101.604 101.679 101.871 103.935 102.078 106.209C102.102 106.491 102.129 106.776 102.159 107.058C102.159 107.082 102.169 107.105 102.185 107.122C102.202 107.139 102.225 107.148 102.249 107.148C102.273 107.148 102.296 107.139 102.313 107.122C102.33 107.105 102.339 107.082 102.339 107.058C102.357 105.9 102.237 104.76 102.117 103.614Z" fill="#A6A6A6"/>
<path d="M97.9377 84.6356C97.8117 83.9396 97.6377 83.2556 97.4367 82.5716C97.4367 82.5677 97.4352 82.5638 97.4323 82.561C97.4295 82.5582 97.4257 82.5566 97.4217 82.5566C97.4178 82.5566 97.4139 82.5582 97.4111 82.561C97.4083 82.5638 97.4067 82.5677 97.4067 82.5716C97.5807 83.2436 97.7067 83.9276 97.8297 84.6086C97.9527 85.2896 98.0727 86.0006 98.1717 86.7086H98.1897C98.1448 86.0134 98.0606 85.3213 97.9377 84.6356Z" fill="#A6A6A6"/>
<path d="M94.9766 86.5316C94.4963 86.2178 93.9951 85.9371 93.4766 85.6916C93.2246 85.5626 92.9696 85.4396 92.7176 85.3166C92.4656 85.1936 92.1836 85.0826 91.9256 84.9536C91.9076 84.9536 91.8896 84.9716 91.9106 84.9806C92.1596 85.1066 92.3996 85.2596 92.6456 85.3946L93.4076 85.8116C93.9021 86.0991 94.4107 86.3614 94.9316 86.5976C94.9403 86.6036 94.9511 86.6058 94.9615 86.6039C94.9719 86.6019 94.9811 86.5959 94.9871 86.5871C94.9931 86.5784 94.9953 86.5676 94.9933 86.5572C94.9914 86.5468 94.9853 86.5376 94.9766 86.5316Z" fill="#A6A6A6"/>
<path opacity="0.1" d="M103.239 91.5568C103.239 91.5568 107.583 90.5188 109.578 87.6028C111.486 84.8188 112.101 80.0728 112.149 79.6558C112.071 80.0398 111.174 84.1858 108.216 86.1178C105.951 87.5998 103.761 88.8178 103.239 91.5568Z" fill="#A6A6A6"/>
<path d="M107.25 84.0478C106.477 84.7586 105.921 85.674 105.648 86.6877C105.648 86.6877 105.648 86.6877 105.648 86.6877C105.968 85.6988 106.521 84.8008 107.259 84.0688C107.286 84.0568 107.265 84.0328 107.25 84.0478Z" fill="#A6A6A6"/>
<path d="M103.239 91.557C103.239 91.557 107.583 90.519 109.578 87.603C111.486 84.819 112.101 80.073 112.149 79.656C112.15 79.646 112.15 79.6359 112.149 79.626C112.149 79.626 110.049 82.59 107.874 83.346C105.699 84.102 102.6 86.715 103.239 91.557Z" fill="#DBDBDB"/>
<path d="M111.384 81.2609C110.995 82.0601 110.546 82.8283 110.04 83.5589C109.529 84.2533 108.923 84.8724 108.24 85.3979C107.64 85.8659 107.04 86.2979 106.44 86.7509L106.455 86.7299C106.566 86.5619 106.686 86.4029 106.812 86.2439C107.058 85.9259 107.331 85.6259 107.604 85.3289C108.144 84.7439 108.696 84.1679 109.179 83.5289C109.449 83.1779 109.683 82.8011 109.878 82.4039C109.878 82.3859 109.857 82.3769 109.848 82.4039C109.143 83.8739 107.733 84.8039 106.731 86.0519C106.587 86.2277 106.453 86.411 106.329 86.6009C106.229 86.7391 106.144 86.888 106.077 87.0449C105.527 87.4865 105.03 87.9898 104.595 88.5449C104.633 88.2602 104.691 87.9785 104.769 87.7019C104.87 87.3147 105.025 86.9439 105.231 86.6009C105.231 86.5829 105.213 86.5649 105.204 86.5829C104.993 86.9269 104.823 87.2944 104.697 87.6779C104.605 87.9831 104.552 88.2986 104.538 88.6169C104.324 88.9044 104.129 89.205 103.953 89.5169L104.007 89.2379C104.091 88.8059 104.187 88.3739 104.307 87.9449C104.512 87.0749 104.865 86.2467 105.351 85.4969C105.351 85.4969 105.336 85.4639 105.324 85.4789C104.827 86.2203 104.437 87.0283 104.166 87.8789C104.028 88.3049 103.917 88.7399 103.821 89.1749C103.773 89.3909 103.728 89.6039 103.689 89.8199C103.668 89.9309 103.644 90.0449 103.626 90.1589C103.195 91.1056 102.859 92.0924 102.621 93.1049C102.197 94.9174 101.889 96.7551 101.7 98.6069C101.474 100.543 101.374 102.492 101.4 104.442C101.4 104.685 101.418 104.931 101.43 105.174C101.43 105.237 101.529 105.246 101.532 105.174C101.574 104.208 101.598 103.245 101.655 102.282C101.712 101.319 101.796 100.353 101.901 99.3929C102.096 97.5046 102.396 95.6286 102.801 93.7739C103.152 92.1869 103.608 90.5849 104.478 89.1929C104.91 88.5009 105.439 87.8737 106.047 87.3299C106.647 86.7839 107.322 86.3039 107.964 85.7969C108.614 85.3029 109.205 84.7351 109.725 84.1049C110.255 83.4024 110.717 82.651 111.105 81.8609L111.405 81.2609C111.42 81.2609 111.393 81.2429 111.384 81.2609Z" fill="#A6A6A6"/>
<path d="M87.2997 89.6367C87.2997 89.6367 87.2306 95.8107 90.9236 97.5927C94.6166 99.3747 96.5936 97.8927 99.1046 98.4927C99.0086 98.3457 97.2176 95.7717 94.3676 95.0607C91.4246 94.3257 88.1786 92.2077 87.2997 89.6367Z" fill="#DBDBDB"/>
<path opacity="0.1" d="M87.2997 89.6367C87.2997 89.6367 87.2306 95.8107 90.9236 97.5927C94.6166 99.3747 96.5936 97.8927 99.1046 98.4927C97.7791 97.8599 96.3614 97.4417 94.9046 97.2537C92.5646 96.9687 88.1156 95.4507 87.2997 89.6367Z" fill="#A6A6A6"/>
<path d="M99.3391 98.5977C98.8994 98.1977 98.4043 97.8633 97.8691 97.6047C97.7911 97.5657 97.7101 97.5357 97.6291 97.5027C97.5481 97.4697 97.5481 97.4066 97.5061 97.3586C97.3951 97.2446 97.2781 97.1336 97.1581 97.0286C96.9264 96.829 96.6774 96.6503 96.4141 96.4946C95.8141 96.1346 95.1331 95.8946 94.5061 95.5496C94.4881 95.5496 94.4731 95.5676 94.5061 95.5766C94.8061 95.7356 95.1061 95.9126 95.4061 96.0896C95.7061 96.2666 96.0061 96.4226 96.2821 96.6056C96.5398 96.7697 96.7845 96.9532 97.0141 97.1546C97.0801 97.2116 97.1401 97.2746 97.2031 97.3376C96.7952 97.1983 96.3782 97.087 95.9551 97.0046C95.2801 96.8666 94.5961 96.7706 93.9211 96.6266C93.5896 96.5562 93.2622 96.4681 92.9401 96.3626C92.6401 96.1166 92.3401 95.8706 92.0401 95.6036C91.6887 95.2813 91.3683 94.9268 91.0831 94.5446C91.0831 94.5446 91.0441 94.5446 91.0561 94.5626C91.5046 95.1684 92.0121 95.7281 92.5711 96.2336C92.4121 96.1706 92.2531 96.1076 92.1001 96.0356C90.8314 95.4682 89.7428 94.5633 88.9531 93.4196C88.9531 93.4016 88.9141 93.4196 88.9261 93.4346C89.5959 94.4168 90.4622 95.2494 91.4701 95.8796C91.9747 96.1953 92.5143 96.451 93.0781 96.6417C93.7337 96.8438 94.4022 97.0011 95.0791 97.1126C95.7413 97.2211 96.395 97.3765 97.0351 97.5777C97.6238 97.7784 98.1775 98.0699 98.6761 98.4417C99.6173 99.1723 100.375 100.112 100.89 101.187C101.549 102.607 101.961 104.128 102.108 105.687C102.108 105.753 102.219 105.753 102.213 105.687C102.033 103.104 101.34 100.401 99.3391 98.5977Z" fill="#A6A6A6"/>
<path d="M95.0523 96.5997C94.8599 96.3116 94.5991 96.0756 94.2933 95.9127C93.9445 95.7293 93.6379 95.4748 93.3933 95.1657C93.3933 95.1477 93.3543 95.1657 93.3663 95.1807C93.5884 95.4637 93.8585 95.7053 94.1643 95.8947C94.5 96.0734 94.796 96.3184 95.0343 96.6147L95.0523 96.5997Z" fill="#A6A6A6"/>
<path d="M97.0139 103.158L97.1819 106.554L97.6949 116.931H105.441L105.957 106.554L106.125 103.158H97.0139Z" fill="#EBEBEB"/>
<path d="M97.0139 103.158L97.1819 106.554H105.957L106.125 103.158H97.0139Z" fill="#DBDBDB"/>
<path d="M96.4707 104.982H106.671V101.742H96.4707V104.982Z" fill="#EBEBEB"/>
<path d="M24 50.4986L22.668 53.4356L23.568 53.8406C23.6969 53.9005 23.8067 53.9951 23.8851 54.1137C23.9635 54.2324 24.0074 54.3705 24.012 54.5126C24.012 54.6716 24.036 54.8306 24.06 54.9926C24.0821 55.1317 24.0659 55.2743 24.013 55.4049C23.9602 55.5354 23.8727 55.6491 23.76 55.7336L22.956 56.3066L24.834 58.9286L25.638 58.3556C25.7534 58.2733 25.8894 58.2246 26.0308 58.2151C26.1723 58.2056 26.3136 58.2355 26.439 58.3016C26.5812 58.3765 26.7274 58.4436 26.877 58.5026C27.0096 58.5531 27.1256 58.6392 27.2124 58.7514C27.2993 58.8636 27.3534 58.9976 27.369 59.1386L27.465 60.1226L30.672 59.8046L30.576 58.8176C30.5631 58.6768 30.5896 58.5351 30.6527 58.4084C30.7157 58.2818 30.8128 58.1752 30.933 58.1006L31.131 57.9656C31.194 57.9206 31.26 57.8726 31.32 57.8216C31.429 57.732 31.5608 57.6745 31.7007 57.6554C31.8405 57.6364 31.9829 57.6565 32.112 57.7136L33.012 58.1246L34.344 55.1876L33.444 54.7796C33.3151 54.7193 33.2052 54.6247 33.1264 54.5062C33.0476 54.3877 33.0028 54.2498 32.997 54.1076C32.9909 53.9479 32.9759 53.7887 32.952 53.6306C32.9295 53.4915 32.9455 53.3488 32.9984 53.2182C33.0513 53.0876 33.139 52.9739 33.252 52.8896L34.056 52.3136L32.178 49.6916L31.374 50.2676C31.2583 50.3495 31.1221 50.3976 30.9807 50.4066C30.8393 50.4156 30.6981 50.3852 30.573 50.3186C30.4314 50.2463 30.2862 50.1812 30.138 50.1236C30.0082 50.0736 29.8946 49.989 29.8094 49.879C29.7243 49.769 29.6709 49.6378 29.655 49.4996L29.556 48.5156L26.349 48.8336L26.445 49.8176C26.4563 49.9549 26.4302 50.0927 26.3694 50.2163C26.3087 50.3399 26.2156 50.4447 26.1 50.5196C26.0317 50.5611 25.9656 50.6062 25.902 50.6546C25.836 50.6996 25.773 50.7476 25.71 50.7956C25.6011 50.8866 25.4689 50.9452 25.3283 50.9648C25.1878 50.9844 25.0446 50.9643 24.915 50.9066L24 50.4986ZM26.967 52.1636C27.391 51.8574 27.8964 51.684 28.4191 51.6652C28.9418 51.6464 29.4584 51.7831 29.9034 52.058C30.3483 52.3329 30.7017 52.7337 30.9188 53.2096C31.1358 53.6855 31.2068 54.2151 31.1228 54.7313C31.0387 55.2476 30.8033 55.7273 30.4465 56.1097C30.0896 56.4921 29.6273 56.76 29.1181 56.8795C28.6089 56.9991 28.0757 56.9648 27.5859 56.7811C27.0962 56.5974 26.672 56.2725 26.367 55.8476C25.9585 55.2791 25.7926 54.5716 25.9056 53.8808C26.0187 53.1899 26.4016 52.5723 26.97 52.1636H26.967Z" fill="#EBEBEB"/>
<path d="M130.8 80.0337L128.844 81.1617L129.189 81.7617C129.238 81.8481 129.263 81.9466 129.26 82.0463C129.257 82.1459 129.226 82.2426 129.171 82.3257C129.111 82.4187 129.054 82.5177 129.003 82.6257C128.959 82.7148 128.891 82.7899 128.806 82.8428C128.722 82.8958 128.625 82.9245 128.526 82.9257H127.833V85.1847H128.526C128.625 85.1859 128.722 85.2146 128.806 85.2675C128.891 85.3205 128.959 85.3956 129.003 85.4847C129.053 85.5877 129.109 85.6879 129.171 85.7847C129.226 85.8678 129.257 85.9645 129.26 86.0641C129.263 86.1637 129.238 86.2623 129.189 86.3487L128.844 86.9487L130.8 88.0767L131.148 87.4767C131.198 87.3911 131.272 87.3212 131.36 87.2746C131.447 87.228 131.546 87.2066 131.646 87.2127H131.811H131.979C132.077 87.2068 132.175 87.2281 132.263 87.2741C132.35 87.3201 132.423 87.3891 132.474 87.4737L132.822 88.0737L134.778 86.9457L134.433 86.3457C134.383 86.2592 134.358 86.1604 134.362 86.0607C134.366 85.9609 134.398 85.8642 134.454 85.7817C134.515 85.6849 134.571 85.5848 134.622 85.4817C134.665 85.3922 134.733 85.3167 134.817 85.2637C134.902 85.2106 134.999 85.1823 135.099 85.1817H135.789V82.9227H135.099C134.999 82.9221 134.902 82.8937 134.817 82.8407C134.733 82.7877 134.665 82.7122 134.622 82.6227C134.571 82.5237 134.514 82.4277 134.454 82.3227C134.398 82.2406 134.366 82.1444 134.363 82.0452C134.359 81.946 134.383 81.8477 134.433 81.7617L134.778 81.1617L132.822 80.0337L132.477 80.6337C132.426 80.7193 132.353 80.7892 132.265 80.8358C132.177 80.8824 132.078 80.9038 131.979 80.8977H131.811H131.646C131.546 80.9038 131.447 80.8824 131.36 80.8358C131.272 80.7892 131.198 80.7193 131.148 80.6337L130.8 80.0337ZM131.811 82.1937C132.177 82.1937 132.535 82.3023 132.839 82.5059C133.144 82.7094 133.381 82.9986 133.521 83.337C133.661 83.6754 133.698 84.0478 133.626 84.4069C133.554 84.7661 133.378 85.0959 133.119 85.3546C132.859 85.6134 132.529 85.7894 132.17 85.8605C131.811 85.9316 131.439 85.8945 131.1 85.7539C130.762 85.6134 130.473 85.3757 130.27 85.0709C130.067 84.7661 129.959 84.4079 129.96 84.0417C129.961 83.7983 130.009 83.5574 130.104 83.3329C130.198 83.1084 130.335 82.9047 130.508 82.7335C130.682 82.5623 130.887 82.4271 131.112 82.3355C131.338 82.2439 131.579 82.1977 131.823 82.1997L131.811 82.1937Z" fill="#EBEBEB"/>
<path d="M16.6709 44.7896L18.0419 46.5896L18.5909 46.1696C18.6698 46.1085 18.7644 46.0711 18.8636 46.0615C18.9629 46.0519 19.0629 46.0707 19.1519 46.1156C19.2539 46.1636 19.3589 46.2056 19.4519 46.2446C19.5457 46.2773 19.6286 46.3352 19.6916 46.4119C19.7546 46.4887 19.7952 46.5813 19.8089 46.6796L19.8989 47.3666L22.1399 47.0666L22.0499 46.3826C22.0376 46.2838 22.0529 46.1835 22.0942 46.0929C22.1355 46.0023 22.2012 45.925 22.2839 45.8696C22.3769 45.8066 22.4639 45.7376 22.5509 45.6656C22.6258 45.6003 22.7173 45.557 22.8153 45.5406C22.9133 45.5242 23.0139 45.5353 23.1059 45.5726L23.7449 45.8396L24.6119 43.7396L23.9819 43.4996C23.891 43.4602 23.8127 43.3965 23.7555 43.3156C23.6984 43.2346 23.6646 43.1395 23.6579 43.0406C23.6579 42.9836 23.6579 42.9296 23.6399 42.8726C23.6219 42.8156 23.6399 42.7646 23.6159 42.7106C23.5957 42.6132 23.6032 42.512 23.6377 42.4187C23.6722 42.3253 23.7322 42.2435 23.8109 42.1826L24.3629 41.7596L22.9919 39.9596L22.4399 40.3796C22.3608 40.44 22.2663 40.4771 22.1671 40.4867C22.068 40.4962 21.9682 40.4778 21.8789 40.4336C21.7815 40.3848 21.6814 40.3417 21.5789 40.3046C21.4852 40.2719 21.4023 40.214 21.3393 40.1373C21.2763 40.0606 21.2357 39.9679 21.2219 39.8696L21.1319 39.1826L18.8909 39.4826L18.9809 40.1696C18.993 40.2681 18.9778 40.3679 18.9371 40.4584C18.8963 40.5488 18.8316 40.6264 18.7499 40.6826C18.6572 40.7456 18.5681 40.8137 18.4829 40.8866C18.4075 40.9519 18.3154 40.9951 18.217 41.0115C18.1186 41.0279 18.0175 41.0169 17.9249 40.9796L17.2859 40.7126L16.4189 42.8126L17.0579 43.0796C17.1422 43.1166 17.2154 43.1746 17.2706 43.2482C17.3258 43.3218 17.3611 43.4084 17.3729 43.4996L17.3909 43.6646C17.3909 43.7216 17.4059 43.7756 17.4179 43.8296C17.4371 43.9273 17.4288 44.0285 17.3938 44.1217C17.3589 44.2149 17.2987 44.2966 17.2199 44.3576L16.6709 44.7896ZM18.6809 43.5056C18.6341 43.1425 18.696 42.7738 18.8588 42.4459C19.0216 42.118 19.2779 41.8457 19.5954 41.6635C19.9129 41.4813 20.2773 41.3973 20.6425 41.4222C21.0078 41.447 21.3574 41.5796 21.6473 41.8032C21.9371 42.0268 22.1542 42.3313 22.271 42.6783C22.3878 43.0252 22.3991 43.399 22.3035 43.7523C22.2079 44.1057 22.0096 44.4228 21.7338 44.6635C21.458 44.9042 21.117 45.0577 20.7539 45.1046C20.5123 45.1361 20.2669 45.1196 20.0317 45.0558C19.7965 44.9921 19.5762 44.8825 19.3836 44.7334C19.1909 44.5842 19.0296 44.3984 18.909 44.1867C18.7885 43.9749 18.7109 43.7414 18.6809 43.4996V43.5056Z" fill="#EBEBEB"/>
<path d="M10.9739 116.931L26.9819 116.856L42.9869 116.832L74.9999 116.781L107.013 116.829L123.018 116.856L139.026 116.931L123.018 117.003L107.013 117.03L74.9999 117.081L42.9869 117.03L26.9819 117.003L10.9739 116.931Z" fill="#263238"/>
<path d="M116.127 129.651C129.914 129.651 141.09 127.876 141.09 125.685C141.09 123.495 129.914 121.719 116.127 121.719C102.34 121.719 91.1641 123.495 91.1641 125.685C91.1641 127.876 102.34 129.651 116.127 129.651Z" fill="#EBEBEB"/>
<path d="M66.1201 140.778C95.5641 140.778 119.433 137.477 119.433 133.404C119.433 129.332 95.5641 126.03 66.1201 126.03C36.6762 126.03 12.8071 129.332 12.8071 133.404C12.8071 137.477 36.6762 140.778 66.1201 140.778Z" fill="#EBEBEB"/>
<path d="M115.719 19.6021H34.2332V73.4611H115.719V19.6021Z" fill="#EBEBEB"/>
<path d="M117.708 16.9619H32.2952V19.5989H117.708V16.9619Z" fill="#455A64"/>
<path d="M51.0274 26.979H38.1604V42.225H51.0274V26.979Z" fill="white"/>
<path d="M45.0572 28.0167C45.0578 28.1089 45.0309 28.1992 44.9801 28.2762C44.9292 28.3531 44.8566 28.4132 44.7715 28.4487C44.6864 28.4843 44.5927 28.4937 44.5022 28.4759C44.4117 28.4581 44.3286 28.4137 44.2634 28.3485C44.1982 28.2833 44.1538 28.2002 44.136 28.1097C44.1181 28.0192 44.1276 27.9255 44.1632 27.8404C44.1987 27.7553 44.2588 27.6827 44.3357 27.6318C44.4127 27.5809 44.503 27.5541 44.5952 27.5547C44.6559 27.5547 44.7159 27.5666 44.772 27.5899C44.828 27.6131 44.879 27.6471 44.9219 27.69C44.9648 27.7329 44.9988 27.7838 45.022 27.8399C45.0452 27.896 45.0572 27.956 45.0572 28.0167Z" fill="#455A64"/>
<path d="M40.6082 30.0329C41.9102 29.9339 43.2122 29.9279 44.5082 29.9129C45.8042 29.8979 47.1092 29.9339 48.4082 30.0329C47.1062 30.1349 45.8072 30.1409 44.5082 30.1559C43.2092 30.1709 41.9102 30.1349 40.6082 30.0329Z" fill="#EBEBEB"/>
<path d="M40.6082 31.2387C42.0184 31.0747 43.4429 31.0747 44.8532 31.2387C43.4427 31.3987 42.0186 31.3987 40.6082 31.2387Z" fill="#EBEBEB"/>
<path d="M40.6082 32.442C41.5082 32.349 42.4082 32.328 43.3082 32.322C44.2082 32.316 45.1082 32.349 46.0082 32.442C45.1082 32.538 44.2082 32.559 43.3082 32.565C42.4082 32.571 41.5142 32.538 40.6082 32.442Z" fill="#EBEBEB"/>
<path d="M40.6082 33.6481C41.7392 33.5551 42.8702 33.5311 44.0012 33.5281C45.1322 33.5251 46.2632 33.5521 47.3912 33.6481C46.2632 33.744 45.1322 33.765 44.0012 33.768C42.8702 33.771 41.7392 33.741 40.6082 33.6481Z" fill="#EBEBEB"/>
<path d="M40.6082 34.8542C41.5922 34.7582 42.5732 34.7372 43.5542 34.7312C44.5352 34.7252 45.5192 34.7582 46.5032 34.8542C45.5192 34.9472 44.5382 34.9712 43.5542 34.9742C42.5702 34.9772 41.5922 34.9472 40.6082 34.8542Z" fill="#EBEBEB"/>
<path d="M40.6082 36.0569C41.8652 35.9579 43.1222 35.9519 44.3792 35.9369C45.6362 35.9219 46.8962 35.9579 48.1532 36.0569C46.8962 36.1589 45.6392 36.1649 44.3792 36.1799C43.1192 36.1949 41.8652 36.1589 40.6082 36.0569Z" fill="#EBEBEB"/>
<path d="M40.6082 37.2631C42.228 37.0991 43.8603 37.0991 45.4802 37.2631C43.8601 37.4231 42.2282 37.4231 40.6082 37.2631Z" fill="#EBEBEB"/>
<path d="M40.6082 38.466C41.9102 38.367 43.2122 38.361 44.5082 38.346C45.8042 38.331 47.1092 38.367 48.4082 38.466C47.1062 38.568 45.8072 38.574 44.5082 38.589C43.2092 38.604 41.9102 38.568 40.6082 38.466Z" fill="#EBEBEB"/>
<path d="M40.6082 39.6718C41.9102 39.5728 43.2122 39.5668 44.5082 39.5518C45.8042 39.5368 47.1092 39.5698 48.4082 39.6718C47.1062 39.7738 45.8072 39.7798 44.5082 39.7918C43.2092 39.8038 41.9102 39.7708 40.6082 39.6718Z" fill="#EBEBEB"/>
<path d="M111.915 40.0771H101.841V52.0141H111.915V40.0771Z" fill="white"/>
<path d="M107.227 41.1209C107.227 41.1899 107.207 41.2574 107.169 41.315C107.131 41.3727 107.077 41.4177 107.014 41.4445C106.95 41.4713 106.88 41.4787 106.812 41.4656C106.745 41.4525 106.682 41.4196 106.634 41.371C106.585 41.3225 106.551 41.2605 106.537 41.1929C106.524 41.1253 106.53 41.0552 106.557 40.9914C106.583 40.9277 106.628 40.8731 106.685 40.8348C106.742 40.7964 106.81 40.7759 106.879 40.7759C106.924 40.7755 106.969 40.7841 107.011 40.8013C107.054 40.8184 107.092 40.8438 107.124 40.8759C107.157 40.9079 107.182 40.9461 107.2 40.9882C107.217 41.0302 107.227 41.0753 107.227 41.1209Z" fill="#455A64"/>
<path d="M103.455 43.3317C104.152 43.2332 104.859 43.2332 105.555 43.3317C104.859 43.4302 104.152 43.4302 103.455 43.3317Z" fill="#EBEBEB"/>
<path d="M103.455 44.184C104.364 44.08 105.282 44.08 106.191 44.184C105.282 44.284 104.365 44.284 103.455 44.184Z" fill="#EBEBEB"/>
<path d="M103.455 45.033C104.297 44.933 105.148 44.933 105.99 45.033C105.149 45.137 104.297 45.137 103.455 45.033Z" fill="#EBEBEB"/>
<path d="M103.455 45.8997C104.297 45.7997 105.148 45.7997 105.99 45.8997C105.148 45.9997 104.297 45.9997 103.455 45.8997Z" fill="#EBEBEB"/>
<path d="M103.455 46.7368C104.186 46.6327 104.927 46.6327 105.657 46.7368C104.927 46.8368 104.186 46.8368 103.455 46.7368Z" fill="#EBEBEB"/>
<path d="M103.455 47.5858C104.393 47.4857 105.338 47.4857 106.275 47.5858C105.338 47.6898 104.392 47.6898 103.455 47.5858Z" fill="#EBEBEB"/>
<path d="M103.455 48.4378C104.228 48.3378 105.011 48.3378 105.783 48.4378C105.011 48.5378 104.228 48.5378 103.455 48.4378Z" fill="#EBEBEB"/>
<path d="M103.455 49.2899C104.425 49.1859 105.402 49.1859 106.371 49.2899C105.402 49.3899 104.425 49.3899 103.455 49.2899Z" fill="#EBEBEB"/>
<path d="M103.455 50.139C104.425 50.039 105.402 50.039 106.371 50.139C105.402 50.243 104.425 50.243 103.455 50.139Z" fill="#EBEBEB"/>
<path d="M107.619 43.3318C108.539 43.2318 109.466 43.2318 110.385 43.3318C109.466 43.4318 108.539 43.4318 107.619 43.3318Z" fill="#EBEBEB"/>
<path d="M107.619 44.1839C108.221 44.08 108.836 44.08 109.437 44.1839C108.836 44.2839 108.221 44.2839 107.619 44.1839Z" fill="#EBEBEB"/>
<path d="M107.619 45.033C108.485 44.933 109.358 44.933 110.223 45.033C109.359 45.137 108.484 45.137 107.619 45.033Z" fill="#EBEBEB"/>
<path d="M107.619 45.8997C108.46 45.7997 109.31 45.7997 110.151 45.8997C109.31 45.9997 108.46 45.9997 107.619 45.8997Z" fill="#EBEBEB"/>
<path d="M107.619 46.7367C108.538 46.6327 109.466 46.6327 110.385 46.7367C109.466 46.8367 108.539 46.8367 107.619 46.7367Z" fill="#EBEBEB"/>
<path d="M107.619 47.5858C108.35 47.4857 109.091 47.4857 109.821 47.5858C109.091 47.6899 108.35 47.6899 107.619 47.5858Z" fill="#EBEBEB"/>
<path d="M107.619 48.4378C108.485 48.3378 109.358 48.3378 110.223 48.4378C109.358 48.5378 108.485 48.5378 107.619 48.4378Z" fill="#EBEBEB"/>
<path d="M107.619 49.2899C108.286 49.1859 108.965 49.1859 109.632 49.2899C108.965 49.3899 108.287 49.3899 107.619 49.2899Z" fill="#EBEBEB"/>
<path d="M107.619 50.139C108.26 50.039 108.911 50.039 109.551 50.139C108.912 50.243 108.259 50.243 107.619 50.139Z" fill="#EBEBEB"/>
<path d="M56.4331 36.375H48.6931V44.115H56.4331V36.375Z" fill="#859ED3"/>
<path d="M53.0251 37.1607C53.0251 37.2521 52.998 37.3414 52.9472 37.4174C52.8965 37.4934 52.8243 37.5526 52.7399 37.5876C52.6555 37.6225 52.5626 37.6317 52.4729 37.6138C52.3833 37.596 52.301 37.552 52.2364 37.4874C52.1718 37.4228 52.1278 37.3405 52.11 37.2509C52.0921 37.1612 52.1013 37.0683 52.1362 36.9839C52.1712 36.8995 52.2304 36.8274 52.3064 36.7766C52.3824 36.7258 52.4717 36.6987 52.5631 36.6987C52.6237 36.6987 52.6838 36.7107 52.7399 36.7339C52.7959 36.7571 52.8469 36.7911 52.8898 36.834C52.9327 36.8769 52.9667 36.9279 52.9899 36.9839C53.0131 37.04 53.0251 37.1001 53.0251 37.1607Z" fill="#455A64"/>
<path d="M115.719 19.6021H34.2332V23.0281H115.719V19.6021Z" fill="#DBDBDB"/>
<path d="M60.0603 27.2731L73.1253 27.2461L86.1933 27.2731L73.1253 27.3001L60.0603 27.2731Z" fill="#C7C7C7"/>
<path d="M60.0603 28.338L73.1253 28.311L86.1933 28.338L73.1253 28.368L60.0603 28.338Z" fill="#C7C7C7"/>
<path d="M60.0603 29.406L73.1253 29.376L86.1933 29.406L73.1253 29.433L60.0603 29.406Z" fill="#C7C7C7"/>
<path d="M60.0603 30.4709L73.1253 30.4409L86.1933 30.4709L73.1253 30.4979L60.0603 30.4709Z" fill="#C7C7C7"/>
<path d="M60.0603 31.5358L73.1253 31.5088L86.1933 31.5358L73.1253 31.5628L60.0603 31.5358Z" fill="#C7C7C7"/>
<path d="M60.0603 32.6007L73.1253 32.5737L86.1933 32.6007L73.1253 32.6307L60.0603 32.6007Z" fill="#C7C7C7"/>
<path d="M60.0603 33.6657L73.1253 33.6387L86.1933 33.6657L73.1253 33.6957L60.0603 33.6657Z" fill="#C7C7C7"/>
<path d="M60.0603 34.7341L73.1253 34.7041L86.1933 34.7341L73.1253 34.7611L60.0603 34.7341Z" fill="#C7C7C7"/>
<path d="M60.0603 35.799L73.1253 35.769L86.1933 35.799L73.1253 35.826L60.0603 35.799Z" fill="#C7C7C7"/>
<path d="M60.0603 36.8639L73.1253 36.8369L86.1933 36.8639L73.1253 36.8909L60.0603 36.8639Z" fill="#C7C7C7"/>
<path d="M60.0603 37.9289L73.1253 37.9019L86.1933 37.9289L73.1253 37.9589L60.0603 37.9289Z" fill="#C7C7C7"/>
<path d="M60.0603 38.9968L73.1253 38.9668L86.1933 38.9968L73.1253 39.0238L60.0603 38.9968Z" fill="#C7C7C7"/>
<path d="M60.0603 40.0617L73.1253 40.0317L86.1933 40.0617L73.1253 40.0887L60.0603 40.0617Z" fill="#C7C7C7"/>
<path d="M60.0603 41.1271L73.1253 41.1001L86.1933 41.1271L73.1253 41.1541L60.0603 41.1271Z" fill="#C7C7C7"/>
<path d="M60.0603 42.192L73.1253 42.165L86.1933 42.192L73.1253 42.222L60.0603 42.192Z" fill="#C7C7C7"/>
<path d="M64.806 34.7339H62.823V43.4369H64.806V34.7339Z" fill="#859ED3"/>
<path d="M68.481 31.0527H66.498V43.4367H68.481V31.0527Z" fill="white"/>
<path d="M72.159 29.3818H70.176V43.4368H72.159V29.3818Z" fill="#859ED3"/>
<path d="M75.8341 31.5601H73.8511V43.4341H75.8341V31.5601Z" fill="white"/>
<path d="M79.5123 32.208H77.5293V43.434H79.5123V32.208Z" fill="#859ED3"/>
<path d="M83.1873 38.5708H81.2043V43.4368H83.1873V38.5708Z" fill="white"/>
<path d="M60.7681 26.5259L60.8131 30.7529L60.8431 34.9799C60.8631 37.7999 60.8731 40.6179 60.8731 43.4339L60.7681 43.3319H67.1251H73.4791L79.8361 43.3679L86.1931 43.4279L79.8361 43.4909L73.4791 43.5269H67.1251H60.7681H60.6631V43.4219C60.6631 40.6039 60.6731 37.7859 60.6931 34.9679L60.7231 30.7409L60.7681 26.5259Z" fill="#C7C7C7"/>
<path d="M64.806 44.3281H62.823V44.5081H64.806V44.3281Z" fill="#C7C7C7"/>
<path d="M68.481 44.3281H66.498V44.5081H68.481V44.3281Z" fill="#C7C7C7"/>
<path d="M72.159 44.3281H70.176V44.5081H72.159V44.3281Z" fill="#C7C7C7"/>
<path d="M75.8341 44.3281H73.8511V44.5081H75.8341V44.3281Z" fill="#C7C7C7"/>
<path d="M79.5123 44.3281H77.5293V44.5081H79.5123V44.3281Z" fill="#C7C7C7"/>
<path d="M83.1873 44.3281H81.2043V44.5081H83.1873V44.3281Z" fill="#C7C7C7"/>
<path d="M49.431 66.687H41.562V67.362H49.431V66.687Z" fill="#C7C7C7"/>
<path d="M52.194 68.0967H41.562V68.7717H52.194V68.0967Z" fill="#C7C7C7"/>
<path d="M47.205 69.5098H41.562V70.1848H47.205V69.5098Z" fill="#C7C7C7"/>
<path d="M39.8073 66.687H38.1663V68.328H39.8073V66.687Z" fill="#859ED3"/>
<path d="M100.245 27.2432H92.3762V27.9182H100.245V27.2432Z" fill="#C7C7C7"/>
<path d="M103.008 28.6528H92.3762V29.3278H103.008V28.6528Z" fill="#C7C7C7"/>
<path d="M98.0192 30.0659H92.3762V30.7409H98.0192V30.0659Z" fill="#C7C7C7"/>
<path d="M90.6215 27.2432H88.9805V28.8842H90.6215V27.2432Z" fill="#859ED3"/>
<path d="M101.73 32.7061H92.3762V33.3811H101.73V32.7061Z" fill="#C7C7C7"/>
<path d="M99.7742 34.1157H92.3762V34.7907H99.7742V34.1157Z" fill="#C7C7C7"/>
<path d="M103.008 35.5288H92.3762V36.2038H103.008V35.5288Z" fill="#C7C7C7"/>
<path d="M90.6215 32.7061H88.9805V34.3471H90.6215V32.7061Z" fill="white"/>
<path d="M73.4284 49.353H38.1604V64.779H73.4284V49.353Z" fill="#DBDBDB"/>
<path d="M71.5564 51.2998H40.0354V52.6318H71.5564V51.2998Z" fill="white"/>
<path d="M56.1514 51.2998H40.0354V52.6318H56.1514V51.2998Z" fill="#859ED3"/>
<path d="M71.5564 53.8501H40.0354V55.1821H71.5564V53.8501Z" fill="white"/>
<path d="M68.9494 53.8501H40.0354V55.1821H68.9494V53.8501Z" fill="#859ED3"/>
<path d="M71.5564 56.3999H40.0354V57.7319H71.5564V56.3999Z" fill="white"/>
<path d="M49.3624 56.3999H40.0354V57.7319H49.3624V56.3999Z" fill="#859ED3"/>
<path d="M71.5564 58.9497H40.0354V60.2817H71.5564V58.9497Z" fill="white"/>
<path d="M64.8064 58.9497H40.0354V60.2817H64.8064V58.9497Z" fill="#859ED3"/>
<path d="M71.5564 61.5H40.0354V62.832H71.5564V61.5Z" fill="white"/>
<path d="M58.2484 61.5H40.0354V62.832H58.2484V61.5Z" fill="#859ED3"/>
<path d="M96.2819 57.7588C96.1723 59.2347 95.7003 60.6608 94.9079 61.9108L92.5979 60.5758C93.1499 59.7287 93.4952 58.7638 93.6059 57.7588H96.2819Z" fill="#455A64"/>
<path d="M96.2999 57.0628C96.2999 57.1618 96.2999 57.2578 96.2999 57.3628H93.6299C93.6299 57.2668 93.6299 57.1708 93.6299 57.0628C93.6306 55.9982 93.3664 54.9502 92.861 54.0133C92.3556 53.0763 91.6249 52.2799 90.7349 51.6958L92.0729 49.3828C93.3676 50.203 94.434 51.3371 95.173 52.6798C95.912 54.0225 96.2996 55.5302 96.2999 57.0628Z" fill="#A6A6A6"/>
<path d="M91.7373 49.1731L90.4053 51.4861C89.4903 50.9616 88.4596 50.672 87.4053 50.6431V47.9761C88.9271 48.0037 90.4172 48.4155 91.7373 49.1731Z" fill="#455A64"/>
<path d="M87.0154 47.9761V50.6431C85.9312 50.6766 84.8733 50.9845 83.9404 51.538C83.0076 52.0915 82.2303 52.8725 81.6814 53.8081L79.3684 52.4761C80.1517 51.1346 81.2661 50.0164 82.6049 49.2285C83.9437 48.4407 85.4623 48.0094 87.0154 47.9761Z" fill="#859ED3"/>
<path d="M81.4864 54.1621C81.0454 55.0269 80.8093 55.9815 80.7964 56.9521H78.1294C78.1413 55.5133 78.4994 54.0984 79.1734 52.8271L81.4864 54.1621Z" fill="#A6A6A6"/>
<path d="M83.6376 62.4L82.3026 64.713C81.0617 63.9177 80.0334 62.8319 79.3068 61.5496C78.5801 60.2673 78.1771 58.8272 78.1326 57.354H80.7996C80.8439 58.3587 81.1239 59.3389 81.6169 60.2154C82.1099 61.092 82.8021 61.8403 83.6376 62.4Z" fill="#455A64"/>
<path d="M94.6835 62.2468C93.3807 64.1246 91.4183 65.4428 89.1873 65.9387C86.9562 66.4346 84.6202 66.0719 82.6445 64.9228L83.9795 62.6128C85.3442 63.4124 86.9559 63.6804 88.5059 63.3654C90.0559 63.0505 91.4352 62.1746 92.3795 60.9058L94.6835 62.2468Z" fill="#DBDBDB"/>
<path d="M91.9712 57.354C91.9704 58.1815 91.7262 58.9904 91.269 59.6802C90.8119 60.3699 90.1619 60.9099 89.4002 61.233L87.7532 57.354H91.9712Z" fill="#859ED3"/>
<path d="M87.2189 57.0659L88.8629 60.9449C88.7339 60.9959 88.6049 61.0469 88.4759 61.0859C88.0708 61.2113 87.6491 61.275 87.2249 61.2749C86.8009 61.2743 86.3793 61.2106 85.9739 61.0859C85.1098 60.8256 84.3526 60.294 83.8143 59.5696C83.276 58.8453 82.9854 57.9669 82.9854 57.0644C82.9854 56.162 83.276 55.2836 83.8143 54.5592C84.3526 53.8349 85.1098 53.3032 85.9739 53.0429C86.7889 52.791 87.661 52.791 88.4759 53.0429C89.1282 53.2444 89.7216 53.6019 90.2046 54.0844C90.6876 54.5669 91.0457 55.1599 91.2479 55.8119C91.3722 56.2174 91.4359 56.6389 91.4369 57.0629L87.2189 57.0659Z" fill="#859ED3"/>
<path d="M87.2194 57.066L88.8633 60.945C88.7343 60.996 88.6054 61.047 88.4764 61.086C88.0712 61.2114 87.6495 61.2751 87.2254 61.275C86.3267 61.2765 85.4512 60.9897 84.7276 60.4567C84.004 59.9237 83.4705 59.1727 83.2054 58.314C82.9495 57.4996 82.9495 56.6264 83.2054 55.812C83.471 54.9539 84.0048 54.2035 84.7283 53.6711C85.4519 53.1387 86.327 52.8523 87.2254 52.854C88.3393 52.854 89.4075 53.2965 90.1952 54.0842C90.9829 54.8718 91.4253 55.9401 91.4253 57.054L87.2194 57.066Z" fill="#DBDBDB"/>
<path d="M87.2189 57.066L84.4739 60.258C83.9444 59.7972 83.5387 59.211 83.2942 58.5529C83.0496 57.8949 82.9738 57.1861 83.0739 56.4912C83.1739 55.7964 83.4465 55.1377 83.8667 54.5754C84.287 54.013 84.8415 53.565 85.4795 53.2723C86.1176 52.9795 86.8188 52.8514 87.5192 52.8995C88.2195 52.9477 88.8967 53.1707 89.4886 53.548C90.0806 53.9254 90.5685 54.4451 90.9078 55.0596C91.2471 55.6742 91.427 56.364 91.4309 57.066H87.2189Z" fill="#A6A6A6"/>
<path d="M99.2822 67.1099H93.4112L86.1392 59.8379L86.2472 59.7329L93.4742 66.9599H99.2822V67.1099Z" fill="#263238"/>
<path d="M86.6039 59.376H85.7849V60.195H86.6039V59.376Z" fill="#263238"/>
<path d="M99.2821 61.4848H92.6671L89.5261 58.3438L89.6311 58.2358L92.7271 61.3348H99.2821V61.4848Z" fill="#263238"/>
<path d="M89.9854 57.8818H89.1694V58.7008H89.9854V57.8818Z" fill="#263238"/>
<path d="M99.2821 55.917H89.2771V56.067H99.2821V55.917Z" fill="#263238"/>
<path d="M89.58 55.584H88.761V56.403H89.58V55.584Z" fill="#263238"/>
<path d="M109.728 55.1729H101.859V55.8479H109.728V55.1729Z" fill="#DBDBDB"/>
<path d="M112.491 56.583H101.859V57.258H112.491V56.583Z" fill="#DBDBDB"/>
<path d="M107.502 57.9961H101.859V58.6711H107.502V57.9961Z" fill="#DBDBDB"/>
<path d="M100.104 55.1729H98.4631V56.8139H100.104V55.1729Z" fill="#859ED3"/>
<path d="M111.213 60.6357H101.859V61.3107H111.213V60.6357Z" fill="#DBDBDB"/>
<path d="M109.257 62.0459H101.859V62.7209H109.257V62.0459Z" fill="#DBDBDB"/>
<path d="M112.491 63.459H101.859V64.134H112.491V63.459Z" fill="#DBDBDB"/>
<path d="M100.104 60.6357H98.4631V62.2767H100.104V60.6357Z" fill="#A6A6A6"/>
<path d="M111.213 66.0991H101.859V66.7741H111.213V66.0991Z" fill="#DBDBDB"/>
<path d="M109.257 67.5088H101.859V68.1838H109.257V67.5088Z" fill="#DBDBDB"/>
<path d="M112.491 68.9219H101.859V69.5969H112.491V68.9219Z" fill="#DBDBDB"/>
<path d="M100.104 66.0991H98.4631V67.7401H100.104V66.0991Z" fill="#C7C7C7"/>
<path d="M76.7761 101.586L77.3581 105.087L81.3151 126.444H81.9512L79.0741 105.087L78.6511 101.586H76.7761Z" fill="#DBDBDB"/>
<path d="M78.6512 101.586H76.7761L77.3581 105.087H79.0742L78.6512 101.586Z" fill="#A6A6A6"/>
<path d="M64.3557 126.444H64.9947L68.9487 105.087L69.5337 101.586H67.6587L67.2327 105.087L64.3557 126.444Z" fill="#DBDBDB"/>
<path d="M67.6587 101.586L67.2327 105.087H68.9487L69.5337 101.586H67.6587Z" fill="#A6A6A6"/>
<path d="M52.4968 126.444H53.1328L57.0868 105.087L57.6718 101.586H55.7968L55.3708 105.087L52.4968 126.444Z" fill="#DBDBDB"/>
<path d="M55.3708 105.087H57.0868L57.6718 101.586H55.7968L55.3708 105.087Z" fill="#A6A6A6"/>
<path d="M53.5049 103.233H82.4819V100.179H71.6369L67.9889 78.9692H54.6119L53.5049 103.233Z" fill="#DBDBDB"/>
<path d="M53.5049 103.233H55.0859L56.1149 78.9692H54.6119L53.5049 103.233Z" fill="#A6A6A6"/>
<path d="M119.355 119.295C120.405 119.121 121.68 119.31 122.466 120.072C122.496 120.102 122.466 120.144 122.418 120.132C121.427 119.788 120.401 119.551 119.358 119.427C119.341 119.427 119.324 119.421 119.311 119.409C119.299 119.396 119.291 119.38 119.291 119.362C119.29 119.345 119.297 119.328 119.309 119.315C119.321 119.303 119.338 119.295 119.355 119.295Z" fill="#263238"/>
<path d="M118.59 119.733C119.64 119.559 120.918 119.748 121.701 120.51C121.731 120.54 121.701 120.582 121.653 120.57C120.661 120.227 119.635 119.991 118.593 119.865C118.584 119.865 118.576 119.863 118.568 119.86C118.56 119.857 118.552 119.853 118.546 119.847C118.54 119.841 118.535 119.833 118.531 119.825C118.528 119.817 118.526 119.809 118.526 119.8C118.525 119.792 118.527 119.783 118.53 119.775C118.533 119.767 118.538 119.759 118.544 119.753C118.55 119.747 118.557 119.742 118.565 119.738C118.573 119.735 118.581 119.733 118.59 119.733Z" fill="#263238"/>
<path d="M117.825 120.171C118.875 120 120.153 120.186 120.936 120.948C120.966 120.978 120.936 121.02 120.891 121.011C119.899 120.665 118.872 120.427 117.828 120.3C117.813 120.297 117.8 120.289 117.79 120.278C117.781 120.266 117.775 120.252 117.775 120.237C117.774 120.222 117.779 120.207 117.788 120.195C117.798 120.183 117.811 120.175 117.825 120.171Z" fill="#263238"/>
<path d="M113.265 124.92C113.82 125.091 129.585 124.68 130.176 124.284C130.404 124.137 130.476 121.836 130.476 119.055V118.965L120.3 119.118V119.289C120.3 119.289 114.336 122.145 113.733 122.649C113.13 123.153 112.71 124.749 113.265 124.92Z" fill="#37474F"/>
<path d="M130.5 118.965V119.055C130.5 121.836 130.416 124.137 130.2 124.284C129.984 124.431 126.516 124.647 122.823 124.779C118.404 124.935 113.592 125.013 113.289 124.92C112.734 124.749 113.181 123.153 113.778 122.649C114.375 122.145 120.345 119.289 120.345 119.289V119.118L123.738 119.067L130.5 118.965Z" fill="#37474F"/>
<path d="M113.427 124.302C116.085 124.167 126.81 123.879 129.444 123.948C129.465 123.948 129.465 123.948 129.444 123.948C126.816 124.14 116.088 124.344 113.43 124.332C113.373 124.347 113.373 124.305 113.427 124.302Z" fill="#263238"/>
<path d="M123.705 119.067C123.456 120.771 123.078 123.282 122.805 124.767C118.386 124.923 113.574 125.001 113.271 124.908C112.716 124.737 113.163 123.141 113.76 122.637C114.357 122.133 120.327 119.277 120.327 119.277V119.106L123.705 119.067Z" fill="#263238"/>
<path d="M131.824 119.1L119.938 119.208C119.938 119.208 116.767 77.1542 119.587 66.1382H128.116C128.116 66.1382 130.408 70.8152 129.097 76.0802L131.824 119.1Z" fill="#455A64"/>
<path d="M131.001 117.114C130.69 117.074 130.376 117.049 130.062 117.042C129.714 117.018 129.366 116.994 129.015 116.979C128.346 116.952 127.674 116.94 127.002 116.937C125.649 116.937 124.302 116.937 122.94 116.982C122.169 117.006 121.398 117.036 120.63 117.078C120.624 117.078 120.618 117.081 120.613 117.085C120.609 117.09 120.606 117.096 120.606 117.102C120.606 117.108 120.609 117.114 120.613 117.119C120.618 117.123 120.624 117.126 120.63 117.126C121.974 117.174 123.33 117.192 124.659 117.219C125.988 117.246 127.359 117.27 128.688 117.243C129.072 117.243 129.456 117.243 129.843 117.213C130.23 117.183 130.62 117.213 130.995 117.159C131.019 117.156 131.028 117.12 131.001 117.114Z" fill="#263238"/>
<path d="M120.82 106.86C120.685 103.788 120.589 100.716 120.502 97.6409C120.334 91.4969 120.29 85.3489 120.37 79.1969C120.415 75.7469 120.505 72.2969 120.61 68.8499C120.61 68.8109 120.55 68.8139 120.547 68.8499C120.22 75.0209 120.097 81.2069 120.091 87.3899C120.085 93.5729 120.211 99.6899 120.514 105.831C120.685 109.278 120.895 112.731 121.219 116.163C121.219 116.193 121.267 116.193 121.267 116.163C121.129 113.064 120.952 109.962 120.82 106.86Z" fill="#263238"/>
<path d="M109.833 120.633C110.883 120.459 112.161 120.648 112.944 121.41C112.974 121.44 112.944 121.482 112.896 121.47C111.905 121.126 110.879 120.89 109.836 120.765C109.819 120.766 109.802 120.759 109.789 120.747C109.777 120.735 109.769 120.718 109.769 120.701C109.768 120.683 109.775 120.666 109.787 120.654C109.799 120.641 109.816 120.634 109.833 120.633Z" fill="#263238"/>
<path d="M109.069 121.071C110.119 120.9 111.397 121.086 112.18 121.848C112.21 121.878 112.18 121.92 112.135 121.908C111.142 121.564 110.115 121.327 109.072 121.2C109.057 121.197 109.043 121.189 109.034 121.178C109.024 121.166 109.018 121.152 109.018 121.137C109.018 121.122 109.023 121.107 109.032 121.095C109.041 121.083 109.054 121.074 109.069 121.071Z" fill="#263238"/>
<path d="M108.3 121.5C109.35 121.329 110.625 121.515 111.408 122.277C111.438 122.307 111.408 122.352 111.363 122.34C110.37 121.999 109.343 121.766 108.3 121.644C108.281 121.644 108.263 121.637 108.249 121.623C108.236 121.61 108.228 121.591 108.228 121.572C108.228 121.553 108.236 121.535 108.249 121.521C108.263 121.508 108.281 121.5 108.3 121.5Z" fill="#263238"/>
<path d="M103.743 126.258C104.298 126.429 120.063 126.018 120.654 125.622C120.882 125.475 120.954 123.174 120.954 120.393V120.3L110.778 120.45V120.621C110.778 120.621 104.814 123.477 104.211 123.981C103.608 124.485 103.2 126.087 103.743 126.258Z" fill="#37474F"/>
<path d="M103.905 125.64C106.563 125.508 117.288 125.217 119.922 125.286C119.943 125.286 119.943 125.301 119.922 125.301C117.294 125.493 106.566 125.697 103.908 125.685C103.851 125.7 103.851 125.643 103.905 125.64Z" fill="#263238"/>
<path d="M122.919 77.0699C122.919 77.0699 122.082 94.1279 122.052 94.5329C122.052 94.6889 121.662 121.011 121.662 121.011L109.779 121.119C109.779 121.119 111.405 96.4439 111.579 94.0349C111.6 93.7559 112.272 77.1659 115.092 66.1499H127.866C127.866 66.1499 127.755 71.9189 125.133 76.0919C124.377 76.376 123.638 76.7025 122.919 77.0699Z" fill="#455A64"/>
<path d="M121.996 77.4002C122.626 77.0582 123.268 76.7492 123.928 76.4672C124.588 76.1852 125.26 75.9302 125.917 75.6392C125.941 75.6392 125.962 75.6632 125.938 75.6752C125.293 76.0082 124.66 76.3652 124.006 76.6802C123.364 76.9888 122.703 77.2535 122.026 77.4722C122.016 77.4761 122.005 77.4762 121.996 77.4722C121.986 77.4683 121.979 77.4607 121.975 77.4512C121.971 77.4416 121.971 77.4309 121.975 77.4213C121.979 77.4117 121.986 77.4041 121.996 77.4002Z" fill="#263238"/>
<path d="M122.871 77.052C122.871 77.028 122.913 77.034 122.91 77.052C122.481 80.25 121.902 118.257 121.803 119.166C121.803 119.18 121.798 119.194 121.788 119.204C121.777 119.214 121.764 119.22 121.749 119.22C121.735 119.22 121.721 119.214 121.711 119.204C121.701 119.194 121.695 119.18 121.695 119.166C121.674 117.558 121.749 87.687 122.871 77.052Z" fill="#263238"/>
<path d="M117 67.3591C116.673 69.0031 116.445 70.6591 116.199 72.3271C115.953 73.9951 115.716 75.6511 115.494 77.3161C115.056 80.5921 114.666 83.8731 114.324 87.1591C113.636 93.8091 113.136 100.475 112.824 107.157C112.646 110.913 112.538 114.673 112.5 118.437C112.5 118.467 112.548 118.464 112.548 118.437C112.776 111.753 113.1 105.072 113.607 98.4031C114.114 91.7341 114.78 85.1011 115.593 78.4771C115.819 76.6411 116.055 74.8071 116.301 72.9751C116.556 71.1091 116.856 69.2491 117.072 67.3771C117.063 67.3321 117 67.3141 117 67.3591Z" fill="#263238"/>
<path d="M121.018 119.37C120.706 119.328 120.393 119.303 120.079 119.295C119.731 119.271 119.383 119.247 119.035 119.232C118.363 119.205 117.694 119.193 117.022 119.193C115.666 119.193 114.322 119.193 112.957 119.238C112.189 119.262 111.418 119.292 110.647 119.334C110.617 119.334 110.62 119.379 110.647 119.379C111.988 119.427 113.332 119.448 114.676 119.472C116.02 119.496 117.361 119.523 118.702 119.499C119.089 119.499 119.473 119.499 119.857 119.466C120.241 119.433 120.637 119.466 121.012 119.412C121.036 119.4 121.045 119.373 121.018 119.37Z" fill="#263238"/>
<path d="M112.155 63.1832C113.4 62.5562 118.26 60.2792 118.455 59.9282C118.65 59.5772 120.522 52.7972 121.023 51.5462C121.524 50.2952 123.009 50.9852 123 52.9592C122.991 54.9332 123.126 61.7672 122.841 62.8592C122.556 63.9512 117.225 68.2592 116.241 69.1832C115.5 69.9182 111.459 63.5312 112.155 63.1832Z" fill="#FFC4C0"/>
<path d="M117.234 68.268C116.553 68.9489 115.827 69.5842 115.062 70.17C114.441 70.608 112.614 71.817 112.062 71.178C111.687 70.743 112.662 69.909 113.361 69.3C113.724 68.982 114.093 68.361 113.874 68.133C113.496 67.734 112.572 68.58 112.002 69.24C110.895 70.515 109.551 72.585 108.468 72.174C108.06 72.018 108.264 71.409 108.642 70.752C107.952 71.604 107.172 72.375 106.71 72.219C106.59 72.1796 106.49 72.0951 106.43 71.9832C106.371 71.8713 106.357 71.7407 106.392 71.619C106.299 71.7084 106.182 71.7681 106.055 71.7906C105.927 71.813 105.796 71.7971 105.678 71.745C105.291 71.544 105.279 71.055 105.435 70.494C105.38 70.5069 105.322 70.5063 105.267 70.4922C105.211 70.4781 105.16 70.4509 105.117 70.413C104.199 69.699 106.317 66.015 107.283 65.409C109.218 64.25 111.302 63.3627 113.478 62.772C115.026 63.333 117.237 68.265 117.234 68.268Z" fill="#FFC4C0"/>
<path d="M111.723 66.9451C111.026 67.3074 110.417 67.8197 109.941 68.4451C109.389 69.1861 109.041 70.0531 108.576 70.8451C108.576 70.8661 108.6 70.8871 108.609 70.8631C108.825 70.4701 109.08 70.0921 109.308 69.7051C109.536 69.3181 109.746 68.9401 109.995 68.5801C110.445 67.9184 111.039 67.3676 111.732 66.9691C111.732 66.9691 111.732 66.9421 111.723 66.9451Z" fill="#263238"/>
<path d="M110.7 65.8349C109.945 66.3097 109.241 66.8616 108.6 67.4819C107.919 68.1809 107.511 69.0839 107.1 69.9569C106.854 70.4829 106.621 71.0129 106.401 71.5469C106.401 71.5709 106.422 71.5889 106.434 71.5649C106.845 70.6649 107.28 69.7649 107.742 68.9099C108.167 68.0974 108.748 67.3767 109.452 66.7889C109.857 66.4559 110.283 66.1499 110.712 65.8499C110.718 65.8439 110.7 65.8289 110.7 65.8349Z" fill="#263238"/>
<path d="M109.449 64.989C108.725 65.3564 108.074 65.8513 107.526 66.45C106.922 67.2375 106.418 68.0971 106.026 69.009C105.807 69.495 105.606 69.987 105.411 70.485C105.411 70.503 105.438 70.518 105.447 70.485C105.906 69.3868 106.437 68.3195 107.034 67.29C107.311 66.7954 107.662 66.3462 108.075 65.958C108.506 65.5949 108.965 65.2678 109.449 64.98C109.449 64.98 109.452 64.986 109.449 64.989Z" fill="#263238"/>
<path d="M112.998 62.1148L119.031 68.1838C119.031 68.1838 122.685 64.6528 123.078 62.8708C123.471 61.0888 123.483 54.2338 123.078 52.1698C122.673 50.1058 121.341 49.4278 120.447 52.2718C119.553 55.1158 118.467 59.5708 118.383 59.7358C118.299 59.9008 112.998 62.1148 112.998 62.1148Z" fill="#859ED3"/>
<path d="M120.082 66.3C119.703 65.8714 119.303 65.4628 118.882 65.0759C118.474 64.6739 118.054 64.2899 117.631 63.9029C116.785 63.1319 115.915 62.3819 115.024 61.6619C114.997 61.6379 114.955 61.6619 114.982 61.7009C115.783 62.5319 116.614 63.3419 117.46 64.1249C117.88 64.5119 118.303 64.8959 118.738 65.2679C119.154 65.6498 119.591 66.0093 120.046 66.345C120.076 66.354 120.103 66.315 120.082 66.3Z" fill="#263238"/>
<path d="M119.367 53.4272C120.057 53.4812 121.533 52.2272 122.127 51.1712C122.108 50.569 122.058 49.9683 121.977 49.3712C121.926 48.7952 121.884 48.1532 121.89 47.5712C121.89 47.4482 121.476 47.6672 121.476 47.6672L120.714 47.8472L118.188 48.4472C118.394 49.1854 118.508 49.9461 118.527 50.7122C118.525 50.7928 118.516 50.873 118.5 50.9522C118.5 50.9522 118.5 50.9762 118.5 50.9942C118.416 51.4382 118.29 53.3432 119.367 53.4272Z" fill="#FFC4C0"/>
<path d="M118.501 50.9402C118.501 50.9402 118.501 50.9642 118.501 50.9822C118.627 50.9987 118.754 51.0057 118.882 51.0032C121.369 50.9672 121.705 47.8052 121.705 47.8052L120.721 47.8412L118.195 48.4412C118.4 49.1794 118.514 49.9401 118.534 50.7062C118.529 50.7849 118.518 50.8632 118.501 50.9402Z" fill="#263238"/>
<path d="M121.992 42.57C122.538 43.827 122.292 47.67 121.449 48.612C120.249 49.98 118.062 50.346 116.844 48.849C115.665 47.4 116.091 42.402 117.039 41.523C118.434 40.227 121.2 40.713 121.992 42.57Z" fill="#FFC4C0"/>
<path d="M116.284 43.623C116.284 43.623 115.984 45.063 115.684 46.494L116.17 46.431L116.059 47.079C116.233 47.1184 116.414 47.1206 116.589 47.0854C116.764 47.0503 116.93 46.9786 117.076 46.875L116.284 43.623Z" fill="#FFC4C0"/>
<path d="M116.805 45.186C116.805 45.186 116.826 45.186 116.823 45.21C116.787 45.468 116.79 45.768 117.015 45.879C116.73 45.822 116.73 45.423 116.805 45.186Z" fill="#263238"/>
<path d="M117.066 44.94C117.483 44.94 117.426 45.789 117.039 45.777C116.652 45.765 116.715 44.931 117.066 44.94Z" fill="#263238"/>
<path d="M117.42 44.6398C117.309 44.6038 117.21 44.5498 117.12 44.5048C117.001 44.4723 116.896 44.4017 116.82 44.3038C116.803 44.2688 116.798 44.2291 116.807 44.191C116.815 44.1529 116.835 44.1187 116.865 44.0938C116.931 44.0511 117.007 44.027 117.085 44.0238C117.163 44.0206 117.241 44.0386 117.309 44.0758C117.459 44.129 117.584 44.2359 117.66 44.3758C117.679 44.4102 117.687 44.4496 117.682 44.4885C117.677 44.5274 117.66 44.5639 117.634 44.5929C117.608 44.6219 117.573 44.642 117.535 44.6504C117.496 44.6588 117.456 44.6551 117.42 44.6398Z" fill="#263238"/>
<path d="M117.147 46.8271C117.038 46.954 116.897 47.049 116.739 47.1019C116.58 47.1547 116.41 47.1634 116.247 47.1271C116.229 47.1271 116.22 47.1031 116.226 47.1031C116.549 47.0968 116.863 46.9922 117.126 46.8031C117.156 46.8001 117.165 46.8001 117.147 46.8271Z" fill="#263238"/>
<path d="M116.571 42.393C115.701 42.132 115.095 40.212 115.398 39.501C115.701 38.79 116.415 39.912 116.415 39.912C116.415 39.912 116.487 39.24 116.793 39.165C117.099 39.09 117.669 40.014 117.669 40.014C117.669 40.014 120.591 40.2 121.215 40.425C121.839 40.65 122.028 41.49 122.028 41.49C122.288 41.6054 122.52 41.7764 122.707 41.991C122.894 42.2055 123.032 42.4585 123.111 42.732C123.411 43.704 122.445 47.355 121.842 47.85C121.239 48.345 119.568 45.567 119.568 45.567C119.568 45.567 119.118 45.627 118.932 44.727C118.659 43.392 118.584 42.543 117.921 42.408C117.473 42.3578 117.02 42.3528 116.571 42.393Z" fill="#263238"/>
<path d="M119.43 45.7259C119.43 45.7259 120.168 44.4299 120.75 44.6819C121.332 44.9339 120.855 46.7579 120.228 47.0609C120.15 47.1053 120.065 47.1336 119.976 47.1441C119.887 47.1545 119.797 47.1469 119.711 47.1217C119.626 47.0964 119.546 47.0541 119.477 46.9973C119.408 46.9405 119.351 46.8703 119.31 46.7909L119.43 45.7259Z" fill="#FFC4C0"/>
<path d="M120.6 45.2012C120.6 45.2012 120.615 45.2012 120.6 45.2192C120.401 45.3426 120.23 45.5065 120.098 45.7003C119.966 45.8941 119.877 46.1135 119.835 46.3442C119.857 46.2958 119.889 46.2528 119.93 46.2181C119.97 46.1834 120.017 46.1579 120.068 46.1433C120.12 46.1287 120.173 46.1255 120.226 46.1338C120.278 46.142 120.328 46.1616 120.372 46.1912V46.2182C120.29 46.1996 120.204 46.2073 120.127 46.2401C120.049 46.273 119.984 46.3293 119.94 46.4012C119.866 46.5209 119.806 46.6487 119.76 46.7822C119.742 46.8272 119.667 46.8122 119.676 46.7612C119.607 46.1732 119.982 45.3182 120.6 45.2012Z" fill="#263238"/>
<path d="M119.205 54.69C116.907 59.112 112.842 64.08 108.879 65.934C106.464 67.059 104.679 66.453 103.962 65.556C102.921 64.269 104.949 55.998 106.512 53.505C107.022 52.698 114.576 54.816 114.069 55.701C113.562 56.586 115.869 53.937 118.362 51.948C120.921 49.893 120.6 52.02 119.205 54.69Z" fill="#FFC4C0"/>
<path d="M108.93 49.0947C109.83 48.4227 110.829 47.5767 111.969 47.2497C113.109 46.9227 114.51 48.1317 114.642 48.5577C114.774 48.9837 115.167 51.7947 114.042 52.1427C112.917 52.4907 112.962 50.2257 112.842 50.0037C112.722 49.7817 112.59 49.4937 112.383 49.5807C112.176 49.6677 108.975 52.5807 108.975 52.5807L108.93 49.0947Z" fill="#FFC4C0"/>
<path d="M109.05 49.2302C109.113 49.2122 111.783 47.0792 112.926 46.7522C114.069 46.4252 115.467 47.6342 115.599 48.0632C115.731 48.4922 116.124 51.2972 114.999 51.6452C113.874 51.9932 113.919 49.7282 113.799 49.5062C113.679 49.2842 113.55 48.9962 113.343 49.0862C113.136 49.1762 109.935 52.0862 109.935 52.0862L109.05 49.2302Z" fill="#FFC4C0"/>
<path d="M114.561 51.621C114.38 51.4582 114.244 51.2516 114.165 51.021C114.067 50.7861 114.006 50.537 113.985 50.283C113.985 50.0599 113.967 49.8372 113.931 49.617C113.865 49.4076 113.747 49.2179 113.589 49.065C113.451 48.933 113.289 49.038 113.175 49.134C112.988 49.2779 112.811 49.4343 112.644 49.602L112.098 50.13C111.904 50.306 111.722 50.4944 111.552 50.694C111.552 50.709 111.552 50.733 111.576 50.721C111.749 50.585 111.914 50.4397 112.071 50.286C112.255 50.118 112.441 49.953 112.629 49.791C112.803 49.638 112.971 49.476 113.148 49.326C113.211 49.272 113.331 49.152 113.421 49.143C113.511 49.134 113.622 49.338 113.661 49.401C113.772 49.5895 113.824 49.8068 113.811 50.025C113.813 50.2459 113.837 50.4661 113.883 50.682C113.925 50.8859 114.002 51.0809 114.111 51.258C114.235 51.4087 114.376 51.5445 114.531 51.663C114.552 51.672 114.582 51.636 114.561 51.621Z" fill="#263238"/>
<path d="M106.476 53.5922C106.476 53.5922 107.829 50.3252 109.11 48.7142C110.241 47.2862 111.696 46.1462 112.92 45.7562C114.144 45.3662 117.18 48.5462 116.172 49.0562C115.11 49.5842 113.694 47.9642 113.256 48.3662C112.767 48.8162 112.194 49.5662 112.425 50.1962C112.656 50.8262 113.625 51.7982 114.66 51.4442C115.695 51.0902 115.587 49.6802 116.505 49.2122C117.423 48.7442 117.66 50.3792 117.291 51.6122C116.878 52.8258 116.129 53.8972 115.131 54.7022C114.324 55.3232 111.87 57.4022 111.87 57.4022L106.476 53.5922Z" fill="#FFC4C0"/>
<path d="M115.774 49.1581C115.374 49.1736 114.977 49.0814 114.625 48.8911C114.285 48.7032 113.935 48.5368 113.575 48.3931C113.539 48.3801 113.502 48.3752 113.464 48.3788C113.427 48.3825 113.391 48.3945 113.359 48.4141C113.285 48.465 113.217 48.5233 113.155 48.5881C113.022 48.7258 112.902 48.8743 112.795 49.0321C112.591 49.3321 112.393 49.7131 112.495 50.0401C112.607 50.3951 112.815 50.7125 113.095 50.9581C113.368 51.2162 113.715 51.3811 114.088 51.4291C114.273 51.4402 114.459 51.4178 114.637 51.3631C114.815 51.2967 114.979 51.1947 115.117 51.0631C115.395 50.7893 115.609 50.4573 115.744 50.0911C115.646 50.4806 115.458 50.8414 115.195 51.1441C115.051 51.2922 114.877 51.4078 114.685 51.4831C114.493 51.556 114.29 51.5917 114.085 51.5881C113.668 51.5557 113.275 51.3834 112.969 51.0991C112.647 50.8333 112.406 50.4833 112.273 50.0881C112.217 49.8735 112.235 49.6463 112.324 49.4431C112.401 49.2516 112.502 49.0703 112.624 48.9031C112.74 48.7374 112.871 48.5819 113.014 48.4381C113.09 48.3629 113.173 48.2955 113.263 48.2371C113.317 48.2098 113.376 48.1936 113.437 48.1895C113.498 48.1854 113.559 48.1934 113.617 48.2131C113.807 48.2853 113.99 48.3768 114.163 48.4861L114.673 48.7861C115.003 49.0007 115.381 49.1287 115.774 49.1581Z" fill="#263238"/>
<path d="M105.561 53.8829L114.234 55.4999L114.114 55.7729C114.114 55.7729 117.669 52.0859 119.214 50.9248C121.014 49.5688 120.924 51.4978 120.075 53.4839C119.226 55.4699 114.075 64.4579 109.314 66.9059C107.652 67.7579 104.082 66.6449 103.686 65.3789C102.966 63.1109 105.561 53.8829 105.561 53.8829Z" fill="#859ED3"/>
<path d="M114.136 55.7248C113.742 56.0285 113.368 56.3572 113.017 56.7088C112.555 57.1438 112.102 57.5848 111.649 58.0288C110.743 58.9108 109.843 59.8038 108.949 60.7078C108.838 60.8218 108.73 60.9388 108.622 61.0528C108.433 61.1368 108.253 61.2358 108.07 61.3288C107.887 61.4218 107.632 61.5568 107.407 61.6648C107.402 61.6682 107.399 61.673 107.398 61.6784C107.397 61.6838 107.398 61.6894 107.4 61.6943C107.402 61.6992 107.407 61.7032 107.412 61.7054C107.417 61.7077 107.422 61.7082 107.428 61.7068C107.65 61.6108 107.875 61.5178 108.091 61.4068C108.215 61.3468 108.338 61.2838 108.46 61.2178C108.124 61.5658 107.788 61.9138 107.458 62.2678C107.44 62.2888 107.458 62.3188 107.494 62.3008C109.351 60.6178 111.151 58.8628 112.894 57.0598C113.143 56.8018 113.935 56.0368 114.151 55.7518C114.175 55.7398 114.157 55.7098 114.136 55.7248Z" fill="#263238"/>
<path d="M112.68 56.916C112.134 56.7485 111.579 56.6093 111.018 56.499C110.46 56.37 109.899 56.259 109.338 56.154C108.213 55.938 107.079 55.755 105.945 55.605C105.906 55.605 105.891 55.653 105.945 55.662C107.061 55.962 108.192 56.205 109.323 56.43C109.884 56.541 110.445 56.649 111.012 56.73C111.566 56.8378 112.126 56.9159 112.689 56.964C112.707 56.973 112.707 56.925 112.68 56.916Z" fill="#263238"/>
<path d="M119.178 55.2539C117.873 57.3059 116.544 59.3399 115.11 61.3049C114.69 61.8779 114.282 62.4599 113.856 63.0329C113.856 63.0569 113.871 63.0899 113.892 63.0659C115.453 61.1812 116.872 59.1838 118.137 57.0899C118.506 56.4899 118.863 55.8899 119.196 55.2659L119.178 55.2539Z" fill="#263238"/>
<path d="M130.026 71.433C129.987 71.475 113.622 71.79 113.469 71.625C113.256 71.391 115.932 54.984 118.533 51.408C119.184 50.508 121.506 49.908 122.472 50.808C125.274 53.439 125.862 55.647 126.591 57.453C127.302 59.4033 127.897 61.3937 128.373 63.414C129.351 67.272 130.158 71.277 130.026 71.433Z" fill="#859ED3"/>
<path d="M117.327 54.2341C116.847 55.4851 116.427 56.7631 116.04 58.0471C115.653 59.3311 115.308 60.6031 115.053 61.9081C114.981 62.2771 114.912 62.6461 114.849 63.0151C114.786 63.3841 114.735 63.7831 114.639 64.1581C114.639 64.1881 114.678 64.1971 114.684 64.1581C114.801 63.5033 114.957 62.8561 115.152 62.2201C115.323 61.5661 115.503 60.9151 115.668 60.2581C115.986 58.9681 116.337 57.6871 116.709 56.4121C116.925 55.6831 117.153 54.9601 117.378 54.2341C117.387 54.2131 117.339 54.2041 117.327 54.2341Z" fill="#263238"/>
<path d="M42.8521 106.356L43.4851 110.166L47.79 133.407H48.483L45.354 110.166L44.8921 106.356H42.8521Z" fill="#DBDBDB"/>
<path d="M44.892 106.356H42.8521L43.485 110.166H45.354L44.892 106.356Z" fill="#A6A6A6"/>
<path d="M29.3369 133.407H30.0299L34.3349 110.166L34.9679 106.356H32.9279L32.4659 110.166L29.3369 133.407Z" fill="#DBDBDB"/>
<path d="M32.9278 106.356L32.4658 110.166H34.3348L34.9678 106.356H32.9278Z" fill="#A6A6A6"/>
<path d="M16.4309 133.407H17.1239L21.4259 110.166L22.0619 106.356H20.0219L19.5599 110.166L16.4309 133.407Z" fill="#DBDBDB"/>
<path d="M19.5598 110.166H21.4258L22.0618 106.356H20.0218L19.5598 110.166Z" fill="#A6A6A6"/>
<path d="M17.5288 108.147H49.0618V104.823H37.2568L33.2908 81.7437H18.7318L17.5288 108.147Z" fill="#DBDBDB"/>
<path d="M17.5288 108.147H19.2478L20.3698 81.7437H18.7318L17.5288 108.147Z" fill="#A6A6A6"/>
<path d="M82.7791 130.731C82.1941 130.932 65.4781 130.989 64.8391 130.587C64.5931 130.437 64.4431 128.001 64.3471 125.055L55.7341 114.93L68.5501 114.858L75.1261 124.986C75.1261 124.986 81.5341 127.827 82.1911 128.343C82.8481 128.859 83.3611 130.536 82.7791 130.731Z" fill="#EB9481"/>
<path d="M82.7786 130.731C82.1936 130.932 65.4776 130.989 64.8386 130.587C64.6196 130.455 64.4786 128.529 64.3826 126.042C65.9876 126.321 79.5326 128.649 80.1746 128.292C80.8166 127.935 78.7766 126.648 78.7766 126.648H78.8006C80.3606 127.368 81.8876 128.103 82.1906 128.34C82.8386 128.856 83.3606 130.536 82.7786 130.731Z" fill="#263238"/>
<path d="M73.854 127.833C73.854 127.833 75.573 125.838 78.777 126.648L73.854 127.833Z" fill="#263238"/>
<path d="M76.2419 124.872L69.7289 125.511L63.2999 126.144C63.2999 126.144 50.3999 107.805 49.6169 107.004C47.8169 105.204 33.3299 102.282 29.4209 98.397C25.2809 94.284 27.0869 89.082 27.0869 89.082H37.8869C37.8869 89.082 39.2549 92.55 39.8309 92.73C46.0679 94.668 54.3749 97.104 57.0749 99.486C61.9169 103.767 76.2419 124.872 76.2419 124.872Z" fill="#263238"/>
<path d="M74.2135 122.886C72.3805 123.057 72.9025 122.982 71.0755 123.186C70.1755 123.279 64.2985 123.906 63.4795 124.143C63.4585 124.143 63.4795 124.179 63.4795 124.179C64.3315 124.221 70.1995 123.492 71.0935 123.381C72.9205 123.15 72.3925 123.198 74.2165 122.949C74.2249 122.948 74.2327 122.945 74.2384 122.938C74.244 122.932 74.2469 122.924 74.2465 122.916C74.2461 122.907 74.2424 122.9 74.2363 122.894C74.2301 122.888 74.2219 122.885 74.2135 122.886Z" fill="#455A64"/>
<path d="M63.6451 123.039C61.5271 120.144 59.3611 117.153 57.1951 114.291L53.9461 109.998C53.4021 109.28 52.8581 108.565 52.3141 107.853C51.8565 107.211 51.3392 106.613 50.7691 106.068C50.1755 105.57 49.5099 105.166 48.7951 104.868C48.0421 104.532 47.2681 104.244 46.4881 103.968C44.8681 103.41 43.2181 102.957 41.5771 102.468C38.5321 101.568 35.4481 100.581 32.8261 98.7449C30.4681 97.0919 28.5001 94.6379 27.9391 91.7609C27.8697 91.3958 27.8316 91.0254 27.8251 90.6539C27.8251 90.6475 27.8226 90.6414 27.8181 90.6369C27.8136 90.6324 27.8075 90.6299 27.8011 90.6299C27.7947 90.6299 27.7886 90.6324 27.7841 90.6369C27.7796 90.6414 27.7771 90.6475 27.7771 90.6539C27.8361 92.0511 28.1985 93.4188 28.8391 94.6619C29.5114 95.9346 30.4137 97.0717 31.5001 98.0159C33.8401 100.089 36.8011 101.286 39.7471 102.216C41.3791 102.729 43.0471 103.173 44.6701 103.671C45.5011 103.926 46.3231 104.193 47.1361 104.493C47.9157 104.763 48.6746 105.088 49.4071 105.468C50.1197 105.854 50.7545 106.368 51.2791 106.986C51.8341 107.637 52.3261 108.345 52.8391 109.029C53.9191 110.463 55.0021 111.895 56.0881 113.325C58.2691 116.208 60.4351 119.106 62.6491 121.965C62.9251 122.322 63.2041 122.673 63.4801 123.027C63.5551 123.141 63.7351 123.162 63.6451 123.039Z" fill="#455A64"/>
<path d="M55.2178 134.202C54.6328 134.391 37.9168 134.175 37.2868 133.761C37.0438 133.611 39.6028 117.33 39.6028 117.33L50.7868 117.441L47.6638 128.334C47.6638 128.334 54.0238 131.277 54.6688 131.805C55.3138 132.333 55.7998 134.016 55.2178 134.202Z" fill="#EB9481"/>
<path d="M55.2179 134.202C54.6329 134.391 37.9169 134.175 37.2869 133.761C37.2089 133.713 37.4219 131.979 37.7489 129.654C38.4299 124.8 39.5999 117.33 39.5999 117.33L50.7839 117.441L47.6609 128.334C47.6609 128.334 49.6379 129.249 51.4979 130.149C52.9739 130.863 54.3749 131.568 54.6599 131.802C55.3109 132.33 55.7999 134.016 55.2179 134.202Z" fill="#EB9481"/>
<path d="M55.2179 134.202C54.6329 134.391 37.9169 134.175 37.2869 133.761C37.2089 133.713 37.4219 131.979 37.7489 129.654C39.3989 129.936 43.3409 130.605 46.7969 131.13L47.1989 131.19C50.1389 131.628 52.6349 131.943 52.8989 131.79C53.5619 131.418 51.6119 130.212 51.5039 130.149C52.9799 130.863 54.3809 131.568 54.6659 131.802C55.3109 132.33 55.7999 134.016 55.2179 134.202Z" fill="#263238"/>
<path d="M46.584 131.337C46.584 131.337 48.303 129.339 51.504 130.137L46.584 131.337Z" fill="#263238"/>
<path d="M48.4258 128.187L36.6958 128.13C36.6958 128.13 42.1888 107.346 41.9248 105.777C41.8018 105.051 28.7698 106.143 24.0898 101.235C20.0638 97.0108 23.7718 89.0998 23.7718 89.0998L36.3238 88.7998C36.3238 88.7998 35.1658 92.1958 34.3768 94.3018C34.3768 94.3018 51.5878 95.5168 53.5198 99.2908C55.5808 103.323 48.4258 128.187 48.4258 128.187Z" fill="#263238"/>
<path d="M35.9999 89.6337C35.8739 90.2997 35.7659 90.9687 35.6129 91.6287C35.5409 91.9287 35.4749 92.2557 35.3819 92.5617C35.3532 92.6964 35.2791 92.8172 35.1719 92.9037C35.045 92.9748 34.9 93.0071 34.7549 92.9967C34.6882 93.0063 34.6202 93.0004 34.556 92.9796C34.4919 92.9588 34.4334 92.9236 34.3851 92.8767C34.3367 92.8298 34.2997 92.7724 34.277 92.7089C34.2542 92.6455 34.2463 92.5776 34.2539 92.5107C34.2539 91.8927 34.6679 89.7867 34.6919 89.6127C34.6919 89.5797 34.5839 89.5647 34.5749 89.6127C34.2749 90.9357 33.8639 92.6127 34.1159 92.9457C34.2522 93.1121 34.4437 93.2242 34.6556 93.2616C34.8675 93.2991 35.0858 93.2593 35.2709 93.1497C35.4305 93.02 35.5372 92.8365 35.5709 92.6337C35.6459 92.3337 35.6909 92.0337 35.7449 91.7547C35.8709 91.0587 36.0059 90.3657 36.0959 89.6547C36.0928 89.6452 36.0873 89.6368 36.0799 89.6301C36.0726 89.6234 36.0636 89.6188 36.0539 89.6167C36.0442 89.6146 36.0341 89.615 36.0246 89.618C36.0152 89.621 36.0066 89.6264 35.9999 89.6337Z" fill="#455A64"/>
<path d="M34.56 93.2398C34.5384 93.3238 34.5214 93.4089 34.509 93.4948C34.491 93.5818 34.473 93.6658 34.452 93.7498C34.431 93.8338 34.413 93.9208 34.389 94.0078C34.365 94.0948 34.353 94.1758 34.335 94.2628C34.3346 94.27 34.3365 94.2771 34.3404 94.2831C34.3444 94.2891 34.3503 94.2937 34.3571 94.296C34.3639 94.2984 34.3713 94.2985 34.3781 94.2963C34.385 94.2941 34.3909 94.2897 34.395 94.2838C34.4343 94.2057 34.4694 94.1256 34.5 94.0438C34.527 93.9568 34.554 93.8728 34.578 93.7858C34.602 93.6988 34.62 93.6148 34.638 93.5278C34.6637 93.4409 34.6788 93.3513 34.683 93.2608C34.683 93.2008 34.581 93.1768 34.56 93.2398Z" fill="#455A64"/>
<path d="M43.9858 105.21C43.7458 104.562 43.0588 104.472 42.4558 104.433C41.5918 104.377 40.7288 104.304 39.8668 104.214C38.1448 104.034 36.4308 103.786 34.7248 103.47C33.1025 103.202 31.4992 102.83 29.9248 102.357C28.4704 101.935 27.1266 101.199 25.9888 100.2C24.9227 99.26 24.219 97.9768 23.9998 96.5727C23.9192 95.7171 23.9424 94.8548 24.0688 94.0047C24.1678 93.1497 24.2908 92.3007 24.4618 91.4577C24.5488 91.0407 24.6448 90.6297 24.7618 90.2217C24.7601 90.2171 24.757 90.2131 24.753 90.2103C24.749 90.2076 24.7442 90.2061 24.7393 90.2061C24.7344 90.2061 24.7296 90.2076 24.7256 90.2103C24.7215 90.2131 24.7185 90.2171 24.7168 90.2217C24.2823 91.8627 23.9813 93.5362 23.8168 95.2257C23.7422 95.9985 23.8041 96.7784 23.9998 97.5297C24.1952 98.1765 24.4996 98.7853 24.8998 99.3297C26.6758 101.79 29.7328 102.681 32.5588 103.29C34.2508 103.656 35.9508 103.956 37.6588 104.19C38.4898 104.301 39.3238 104.4 40.1578 104.49C40.9918 104.58 41.8468 104.616 42.6898 104.691C42.8697 104.685 43.0488 104.717 43.2157 104.785C43.3825 104.853 43.5334 104.954 43.6588 105.084C43.7494 105.234 43.8096 105.4 43.8359 105.574C43.8621 105.747 43.8539 105.924 43.8118 106.095C43.7488 106.488 43.6318 106.875 43.5358 107.262C43.4398 107.649 43.3288 108.087 43.2358 108.498C42.8038 110.216 42.3748 111.937 41.9488 113.661C41.0998 117.09 40.2298 120.519 39.4378 123.963C39.3388 124.389 39.2428 124.815 39.1528 125.244C39.1508 125.252 39.152 125.26 39.1562 125.267C39.1605 125.274 39.1673 125.279 39.1753 125.281C39.1832 125.283 39.1916 125.282 39.1987 125.278C39.2057 125.273 39.2108 125.267 39.2128 125.259C39.7108 123.558 40.1128 121.83 40.5598 120.111C41.0068 118.392 41.4358 116.673 41.8648 114.954C42.2938 113.235 42.7228 111.537 43.1458 109.827C43.3458 108.965 43.5578 108.104 43.7818 107.244C43.9288 106.611 44.2228 105.843 43.9858 105.21Z" fill="#455A64"/>
<path d="M48.5519 126.195C47.1929 126.111 45.8309 126.078 44.4689 126.033C43.1069 125.988 41.7509 125.97 40.3919 125.994C39.6179 125.994 38.8469 126.06 38.0729 126.072C38.0429 126.072 38.0459 126.117 38.0729 126.117C39.4349 126.117 40.7939 126.225 42.1559 126.231C43.5179 126.237 44.8739 126.231 46.2329 126.231C47.0039 126.231 47.7779 126.258 48.5519 126.252C48.5999 126.246 48.5999 126.198 48.5519 126.195Z" fill="#455A64"/>
<path d="M29.5949 90.9327C29.5781 90.9921 29.555 91.0494 29.5259 91.1037C29.5225 91.108 29.5206 91.1133 29.5206 91.1187C29.5206 91.1242 29.5225 91.1295 29.5259 91.1337C29.2469 92.0637 28.8959 93.0207 28.0799 93.6087C27.6607 93.9063 27.1941 94.1305 26.6999 94.2717C26.1239 94.4397 25.5239 94.4877 24.9449 94.6467C24.9322 94.6525 24.9219 94.6624 24.9154 94.6747C24.909 94.687 24.9067 94.7011 24.9091 94.7148C24.9115 94.7285 24.9184 94.741 24.9287 94.7504C24.9389 94.7598 24.952 94.7656 24.9659 94.7667C25.6161 94.7955 26.267 94.7288 26.8979 94.5687C27.4419 94.4466 27.9534 94.2093 28.3979 93.8727C29.2979 93.1437 29.5529 92.0457 29.6729 90.9387C29.6699 90.8997 29.6069 90.8997 29.5949 90.9327Z" fill="#455A64"/>
<path d="M53.172 98.6669C52.629 97.9379 51.8309 97.5449 50.9849 97.2689C45.2849 95.3969 38.2979 94.5689 34.4849 94.2539C34.4549 94.2539 34.4429 94.2959 34.4849 94.2989C38.6069 94.9199 49.158 96.3329 52.1399 98.1119C53.4179 98.8739 53.979 100.701 53.622 103.707C53.337 106.107 53.0219 108.687 52.6289 111.06C52.6289 111.144 52.6709 111.138 52.6889 111.06C53.142 108.918 53.5319 106.575 53.8079 104.403C54.0299 102.525 54.384 100.293 53.172 98.6669Z" fill="#455A64"/>
<path d="M29.9308 64.7337C28.5808 66.4467 28.4308 69.0147 28.4308 69.0147C28.4308 69.0147 27.2668 71.7147 27.8308 73.0437C27.9869 73.4208 28.2323 73.7544 28.5458 74.0156C28.8594 74.2769 29.2317 74.4582 29.6308 74.5437L29.4148 73.7997C29.4148 73.7997 30.0148 74.7177 31.7218 74.9127C33.4288 75.1077 35.5378 74.3367 36.6028 73.6257C37.2394 73.2097 37.7564 72.6347 38.1028 71.9577L37.8028 73.1127C38.3323 72.988 38.8227 72.7342 39.2304 72.3741C39.6381 72.014 39.9505 71.5587 40.1398 71.0487C40.8838 69.2307 37.8598 67.1127 37.5658 66.6147C37.2718 66.1167 36.5128 62.3127 32.5528 63.4617C32.5498 63.4647 30.8608 63.5577 29.9308 64.7337Z" fill="#263238"/>
<path d="M29.0579 74.5168C28.5658 74.3178 28.1469 73.9721 27.8579 73.5268C27.5496 73.096 27.3953 72.5739 27.4199 72.0448C27.4933 71.4163 27.6803 70.8063 27.9719 70.2448C28.2359 69.6448 28.5419 69.0778 28.7939 68.4808C28.7939 68.4478 28.7579 68.4268 28.7369 68.4538C28.4308 68.9195 28.1513 69.4023 27.8999 69.8998C27.6332 70.3571 27.4218 70.8445 27.2699 71.3518C27.132 71.8208 27.132 72.3197 27.2699 72.7888C27.3876 73.171 27.5979 73.5183 27.8819 73.7998C28.2338 74.1014 28.623 74.3565 29.0399 74.5588C29.0639 74.5678 29.0999 74.5258 29.0579 74.5168Z" fill="#263238"/>
<path d="M40.2659 69.258C39.6119 67.902 38.2319 67.158 37.3109 66.021C36.8099 65.403 36.3959 64.704 35.7809 64.191C35.7809 64.176 35.7419 64.191 35.7569 64.218C36.2274 64.7133 36.6438 65.2574 36.9989 65.841C37.4131 66.3942 37.8825 66.9038 38.3999 67.362C39.3179 68.226 40.4129 69.246 40.3919 70.611C40.3919 71.244 40.0919 71.973 39.4919 72.243C39.4679 72.243 39.4919 72.294 39.5129 72.279C39.7514 72.1482 39.9607 71.9701 40.1278 71.7555C40.295 71.5408 40.4165 71.2943 40.4849 71.031C40.6286 70.433 40.5508 69.8031 40.2659 69.258Z" fill="#263238"/>
<path d="M40.371 69.6327C40.3523 69.089 40.1646 68.5647 39.834 68.1327C39.4775 67.7307 39.0385 67.4105 38.547 67.1937C38.001 66.9177 37.431 66.6657 37.047 66.1707C37.047 66.1497 37.002 66.1707 37.017 66.1977C37.635 67.0137 38.652 67.3077 39.396 67.9677C40.248 68.7237 40.395 69.9537 39.996 70.9677C39.7388 71.5964 39.3369 72.1555 38.823 72.5997C38.823 72.5997 38.823 72.6207 38.823 72.5997C39.714 71.8917 40.44 70.8297 40.371 69.6327Z" fill="#263238"/>
<path d="M36.5399 78.2998C38.7659 80.3098 46.6979 86.4449 49.6049 85.7369C51.5099 85.2719 58.1519 81.2098 58.5509 78.9748C58.7249 78.0028 55.4039 73.4218 54.5729 74.0728C53.7419 74.7238 48.5099 78.1798 47.7269 78.3148C46.9439 78.4498 38.9189 75.0148 36.2819 74.4928C31.7339 73.5688 35.3429 77.2168 36.5399 78.2998Z" fill="#EB9481"/>
<path d="M55.4579 71.871C56.4239 71.271 57.4859 70.53 58.6529 70.308C59.8199 70.086 61.1039 71.418 61.1969 71.856C61.2899 72.294 61.4249 75.126 60.2609 75.369C59.0969 75.612 59.3609 73.362 59.2679 73.131C59.1749 72.9 59.0639 72.6 58.8509 72.669C58.6379 72.738 55.1819 75.369 55.1819 75.369L55.4579 71.871Z" fill="#EB9481"/>
<path d="M55.5657 72.0148C55.6317 72.0148 58.4847 70.1218 59.6517 69.8998C60.8187 69.6778 62.1027 71.0098 62.1927 71.4508C62.2827 71.8918 62.4207 74.7178 61.2597 74.9608C60.0987 75.2038 60.3597 72.9538 60.2637 72.7228C60.1677 72.4918 60.0627 72.1918 59.8467 72.2608C59.6307 72.3298 56.1807 74.9608 56.1807 74.9608L55.5657 72.0148Z" fill="#EB9481"/>
<path d="M60.834 74.8977C60.6679 74.7155 60.5521 74.4932 60.498 74.2527C60.4215 74.0101 60.383 73.7571 60.384 73.5027C60.402 73.28 60.402 73.0563 60.384 72.8337C60.3345 72.6185 60.2313 72.4193 60.084 72.2547C59.961 72.1077 59.802 72.2007 59.664 72.2817C59.4658 72.4102 59.2755 72.5505 59.094 72.7017C58.893 72.8577 58.698 73.0197 58.494 73.1787C58.2838 73.3363 58.0835 73.5066 57.894 73.6887C57.894 73.7037 57.894 73.7307 57.915 73.7187C58.104 73.6047 58.272 73.4607 58.449 73.3287C58.626 73.1967 58.848 73.0287 59.049 72.8877C59.25 72.7467 59.418 72.6057 59.61 72.4707C59.676 72.4257 59.808 72.3147 59.91 72.3147C60.012 72.3147 60.09 72.5247 60.126 72.5937C60.2188 72.792 60.2501 73.0135 60.216 73.2297C60.1985 73.4496 60.2036 73.6708 60.231 73.8897C60.25 74.099 60.3091 74.3027 60.405 74.4897C60.5146 74.6518 60.6424 74.8008 60.786 74.9337C60.822 74.9457 60.855 74.9157 60.834 74.8977Z" fill="#263238"/>
<path d="M52.521 75.8338C52.521 75.8338 55.122 72.2338 55.671 71.5048C56.769 70.0558 61.947 66.5578 62.718 66.3088C63.489 66.0598 64.113 67.6168 60.618 70.1008C58.776 71.4118 58.659 72.6478 58.818 73.2808C58.977 73.9138 59.856 74.9848 60.918 74.7298C61.98 74.4748 62.364 72.7498 63.318 72.3658C64.272 71.9818 63.999 73.9408 63.519 75.1378C62.9974 76.309 62.1536 77.3078 61.086 78.0177C60.225 78.5637 57.594 80.4177 57.594 80.4177L52.521 75.8338Z" fill="#EB9481"/>
<path d="M62.1328 73.689C61.7938 74.088 61.4158 74.589 60.8848 74.727C60.3538 74.865 59.9008 74.58 59.5498 74.181C59.1737 73.7973 58.959 73.2841 58.9498 72.747C58.9765 72.2537 59.1453 71.7786 59.4358 71.379C59.7916 70.8932 60.216 70.4617 60.6958 70.098C60.6987 70.0966 60.7013 70.0945 60.7033 70.0919C60.7053 70.0893 60.7066 70.0863 60.7072 70.0831C60.7079 70.0799 60.7077 70.0766 60.7069 70.0735C60.706 70.0704 60.7044 70.0675 60.7022 70.0651C60.7001 70.0626 60.6974 70.0608 60.6943 70.0596C60.6913 70.0584 60.688 70.0579 60.6848 70.0582C60.6816 70.0585 60.6784 70.0595 60.6756 70.0612C60.6729 70.0629 60.6705 70.0652 60.6688 70.068C60.2158 70.392 58.8028 71.352 58.7788 72.783C58.7918 73.3305 59.014 73.8523 59.3998 74.241C59.7298 74.622 60.1648 74.964 60.6988 74.898C61.3468 74.814 61.7878 74.181 62.1658 73.698C62.1868 73.674 62.1508 73.668 62.1328 73.689Z" fill="#263238"/>
<path d="M52.2867 74.7388L56.0997 82.1998C56.0997 82.1998 51.0657 85.8958 48.2577 86.1298C44.8497 86.4298 36.4767 79.1788 35.2167 77.9368C33.1527 75.8968 32.7597 74.2828 34.2987 74.0368C34.8987 73.9378 35.7987 74.0368 36.9987 74.4238C38.2497 74.8168 45.6987 77.6608 47.7747 77.9068C48.9147 78.0418 52.2867 74.7388 52.2867 74.7388Z" fill="#455A64"/>
<path d="M52.2839 74.7391L56.0999 82.2001C56.0999 82.2001 55.2659 82.8001 54.0839 83.5531C52.3649 84.6331 49.9199 85.989 48.2579 86.127C44.8529 86.427 36.4739 79.1761 35.2169 77.9341C33.7169 76.4581 33.1169 75.2041 33.4619 74.5321C33.552 74.3886 33.6748 74.2687 33.8204 74.1821C33.9659 74.0955 34.1299 74.0448 34.2989 74.0341C34.8989 73.9381 35.7989 74.0341 36.9989 74.4241C38.2499 74.8171 45.6989 77.6611 47.7749 77.9071C48.9149 78.0421 52.2839 74.7391 52.2839 74.7391Z" fill="#455A64"/>
<path d="M56.0998 82.2001C56.0998 82.2001 55.2658 82.8001 54.0838 83.5531C53.3308 84.0241 52.4458 84.549 51.5428 85.002C50.3788 85.584 49.1938 86.049 48.2428 86.127C44.8378 86.427 36.4588 79.1761 35.2018 77.9341C33.7018 76.4581 33.1018 75.2041 33.4468 74.5321C33.4892 74.4488 33.5485 74.3752 33.6208 74.3161C33.8098 74.1598 34.0401 74.0619 34.2838 74.0341C34.8838 73.9381 35.7838 74.0341 36.9838 74.4241C38.2348 74.8171 45.6838 77.6611 47.7598 77.9071C48.9148 78.0451 52.2838 74.7421 52.2838 74.7421L56.0998 82.2001Z" fill="#455A64"/>
<path d="M54.543 82.5566C53.943 81.4706 51.669 76.9436 51.243 75.9296C51.213 75.8606 51.243 75.8246 51.291 75.8936C53.157 79.1006 54.054 81.4376 54.591 82.5326C54.6 82.5596 54.558 82.5836 54.543 82.5566Z" fill="#263238"/>
<path d="M51.5401 84.999C50.3761 85.581 49.1911 86.046 48.2401 86.124C44.8351 86.424 36.4561 79.173 35.1991 77.931C33.6991 76.455 33.0991 75.201 33.4441 74.529C33.4865 74.4457 33.5458 74.3722 33.6181 74.313L51.5401 84.999Z" fill="#263238"/>
<path d="M22.4189 92.364C23.6189 92.538 26.4839 92.796 29.5349 93.054C34.4009 93.456 39.765 93.846 39.765 93.846L38.865 84.546C38.865 84.546 40.11 82.746 39.882 81.003C39.618 79.035 36.474 74.988 36.138 74.676C35.001 73.617 33.36 72.987 31.7879 73.833C31.4592 74.012 31.1564 74.2351 30.8879 74.496C30.8685 74.5125 30.8504 74.5306 30.8339 74.55C30.7469 74.634 30.6539 74.724 30.5669 74.823C26.6579 79.044 22.4189 92.364 22.4189 92.364Z" fill="#455A64"/>
<path d="M29.4509 75.8696C26.2409 80.2376 22.0619 88.3766 23.5289 89.6696C26.7389 92.5076 33.4289 95.8586 36.6599 96.1346C37.6049 96.2156 39.3599 90.0326 38.7209 89.2346C38.0819 88.4366 30.0209 86.1896 29.9489 85.5746C29.9009 85.2236 30.9539 81.3326 31.8599 77.5766C32.9069 73.2656 30.3689 74.6186 29.4509 75.8696Z" fill="#EB9481"/>
<path d="M37.0619 88.7818C37.0619 88.7818 39.9509 88.7008 41.8409 88.7368C42.8939 88.7578 44.6999 88.9528 45.4679 89.3218C46.6169 89.8738 51.0659 92.9218 50.3519 94.0138C49.7039 95.0038 46.2119 91.9138 46.2119 91.9138C46.2119 91.9138 50.0129 94.7278 49.0139 95.7808C48.0149 96.8338 44.5379 92.8018 44.5379 92.8018C44.5379 92.8018 48.3779 95.7838 47.1749 96.7018C46.2749 97.3978 42.9119 93.9268 42.9119 93.9268C42.9119 93.9268 46.1999 96.5068 45.2999 97.2628C44.2949 98.0998 40.9949 95.0998 40.9949 95.0998C38.3759 96.6358 36.4949 96.2998 35.1989 95.8948C34.8839 95.7838 37.0619 88.7818 37.0619 88.7818Z" fill="#EB9481"/>
<path d="M44.961 90.8457C45.42 91.1607 45.885 91.4757 46.314 91.8297C46.743 92.1837 47.16 92.5527 47.553 92.9457C48.0777 93.4496 48.5436 94.0111 48.942 94.6197C48.1177 93.6443 47.2037 92.7484 46.212 91.9437C45.786 91.5897 45.375 91.2147 44.946 90.8607L44.961 90.8457Z" fill="#263238"/>
<path d="M43.6531 92.3699C44.2231 92.7989 44.8021 93.2009 45.3511 93.6539C45.9001 94.1069 46.3771 94.5779 46.8901 95.0639C46.9291 95.1029 46.8901 95.1119 46.8541 95.0639C46.3231 94.5989 45.7921 94.2089 45.2551 93.7499C44.7181 93.2909 44.1961 92.8079 43.6411 92.3699C43.6351 92.3759 43.6441 92.3639 43.6531 92.3699Z" fill="#263238"/>
<path d="M42.3 93.4769C43.1859 94.1113 44.0042 94.8352 44.7421 95.6369C44.7811 95.6759 44.7421 95.6819 44.6971 95.6369C43.8961 94.9049 43.275 94.3229 42.279 93.5009C42.258 93.4949 42.276 93.4649 42.3 93.4769Z" fill="#263238"/>
<path d="M33.4409 96.141L37.7999 88.437C37.7999 88.437 30.3569 85.836 30.1709 85.596C29.9849 85.356 31.4669 80.496 32.0909 77.298C32.7149 74.1 31.2689 73.338 28.8989 76.356C26.5289 79.374 22.1669 87.354 22.8989 89.298C23.6309 91.242 33.4409 96.141 33.4409 96.141Z" fill="#455A64"/>
<path d="M36.2158 88.3591C36.0394 88.5966 35.88 88.8462 35.7388 89.1061L35.2408 89.9221C34.9048 90.4771 34.5808 91.0381 34.2628 91.6021C33.6358 92.7211 33.0148 93.8461 32.3848 94.9621C32.3848 94.9891 32.4088 95.0101 32.4268 94.9861C33.1168 93.9001 33.7978 92.8141 34.4548 91.7071C34.7818 91.1611 35.0968 90.6091 35.3938 90.0481C35.5438 89.7661 35.6938 89.4841 35.8378 89.2021C35.9909 88.9358 36.1252 88.6591 36.2398 88.3741C36.2458 88.3591 36.2248 88.3501 36.2158 88.3591Z" fill="#263238"/>
<path d="M33.411 96.0841C32.046 95.3611 30.711 94.5841 29.367 93.8041C28.023 93.0241 26.667 92.2381 25.398 91.3591C25.038 91.1101 24.675 90.8641 24.321 90.6061C23.967 90.3481 23.643 90.0661 23.277 89.8411C23.25 89.8231 23.226 89.8621 23.247 89.8801C23.5166 90.1557 23.8086 90.4086 24.12 90.6361C24.42 90.8821 24.744 91.1221 25.062 91.3591C25.662 91.8181 26.319 92.2591 26.967 92.6581C28.269 93.4921 29.625 94.2391 31.002 94.9411C31.794 95.3431 32.601 95.7181 33.402 96.1261C33.4063 96.125 33.4103 96.1227 33.4133 96.1194C33.4164 96.1162 33.4186 96.1122 33.4195 96.1078C33.4204 96.1035 33.4201 96.0989 33.4186 96.0947C33.4171 96.0905 33.4145 96.0868 33.411 96.0841Z" fill="#263238"/>
<path d="M37.8 88.3827C37.128 88.1217 30.5369 85.6107 30.2639 85.5597C30.2639 85.3557 30.8459 83.0007 30.9749 82.4547C31.0049 82.3257 31.0319 82.1997 31.0589 82.0737C31.1579 81.8247 31.2539 81.5727 31.3589 81.3207C31.4941 80.9793 31.6504 80.6467 31.8269 80.3247C31.8301 80.3191 31.831 80.3125 31.8293 80.3063C31.8276 80.3002 31.8235 80.2949 31.8179 80.2917C31.8124 80.2885 31.8058 80.2877 31.7996 80.2894C31.7934 80.2911 31.7881 80.2951 31.7849 80.3007C31.6139 80.6307 31.4399 80.9637 31.2839 81.2997L31.2029 81.4767L31.3469 80.8467C31.4699 80.2887 31.6139 79.7277 31.6949 79.1607C31.6931 79.1554 31.6897 79.1508 31.6851 79.1476C31.6805 79.1443 31.6751 79.1426 31.6694 79.1426C31.6638 79.1426 31.6584 79.1443 31.6538 79.1476C31.6492 79.1508 31.6458 79.1554 31.6439 79.1607C31.4429 79.7247 31.3019 80.3097 31.1429 80.8857C30.9839 81.4617 30.0689 85.6137 30.1019 85.6407C30.3449 85.8207 37.146 88.1967 37.797 88.4397C37.8 88.4367 37.818 88.3917 37.8 88.3827Z" fill="#263238"/>
<path d="M49.8961 97.1787H34.4761V97.8717H49.8961V97.1787Z" fill="#859ED3"/>
<path opacity="0.1" d="M49.8958 97.1787H42.1348V97.8717H49.8958V97.1787Z" fill="black"/>
<path d="M42.9717 97.8686H57.9987L59.9637 87.6626H44.9337L42.9717 97.8686Z" fill="#859ED3"/>
<path d="M50.553 92.7657C50.5425 92.8809 50.5563 92.9971 50.5936 93.1067C50.6309 93.2162 50.6908 93.3167 50.7694 93.4015C50.8481 93.4864 50.9437 93.5538 51.0501 93.5993C51.1565 93.6448 51.2713 93.6674 51.387 93.6657C51.6336 93.661 51.8702 93.5673 52.0533 93.4019C52.2363 93.2365 52.3534 93.0106 52.383 92.7657C52.3953 92.6491 52.3828 92.5313 52.3461 92.4199C52.3095 92.3085 52.2497 92.2062 52.1705 92.1197C52.0914 92.0332 51.9948 91.9645 51.8872 91.9181C51.7795 91.8718 51.6632 91.8488 51.546 91.8507C51.2972 91.8553 51.0587 91.951 50.8757 92.1196C50.6927 92.2882 50.5779 92.5181 50.553 92.7657Z" fill="white"/>
<path d="M32.256 74.0996C32.349 74.3366 33.756 75.7586 34.857 75.5456C35.217 75.4736 34.923 73.4846 34.923 73.4846V73.3316L35.088 71.2046L32.445 70.0046L32.064 69.8486C32.064 69.8486 32.064 70.4336 32.064 71.1626V71.2676C32.064 71.3066 32.064 71.3456 32.064 71.3846C32.064 71.4926 32.064 71.6036 32.064 71.7146C32.064 71.8256 32.064 71.8826 32.064 71.9696C32.064 72.0566 32.064 72.1466 32.064 72.2336C32.0872 72.8592 32.1514 73.4825 32.256 74.0996Z" fill="#EB9481"/>
<path d="M32.0701 71.1566C32.3607 71.7057 32.7677 72.1847 33.2625 72.5604C33.7573 72.936 34.3281 73.1992 34.9351 73.3316L35.1001 71.2046L32.4571 70.0046L32.0761 69.8486C32.0761 69.8486 32.0701 70.4276 32.0701 71.1566Z" fill="#263238"/>
<path d="M37.4339 67.4998C38.3009 71.1418 36.2159 72.0718 35.4299 72.2578C34.7159 72.4258 32.2679 72.9118 31.0289 69.3778C29.7899 65.8438 31.2089 64.2778 32.8289 63.8158C34.4489 63.3538 36.5669 63.8638 37.4339 67.4998Z" fill="#EB9481"/>
<path d="M36.9418 66.8996C36.8559 66.904 36.7698 66.904 36.6838 66.8996C36.5923 66.9077 36.5006 66.8856 36.4228 66.8366C36.4014 66.8168 36.3871 66.7905 36.3822 66.7617C36.3773 66.7329 36.3821 66.7034 36.3958 66.6776C36.4302 66.6317 36.4759 66.5956 36.5286 66.573C36.5812 66.5503 36.6389 66.5419 36.6958 66.5486C36.817 66.5461 36.9346 66.5889 37.0258 66.6686C37.0421 66.6876 37.0531 66.7106 37.0576 66.7352C37.0621 66.7598 37.0599 66.7852 37.0514 66.8087C37.0428 66.8322 37.0282 66.853 37.0089 66.869C36.9897 66.885 36.9665 66.8955 36.9418 66.8996Z" fill="#263238"/>
<path d="M34.5842 67.3466C34.6658 67.3201 34.746 67.289 34.8242 67.2536C34.9138 67.2334 34.9941 67.1838 35.0522 67.1126C35.0666 67.0866 35.0718 67.0564 35.0669 67.0269C35.062 66.9975 35.0473 66.9706 35.0252 66.9506C34.9768 66.9174 34.9205 66.8977 34.8619 66.8934C34.8034 66.8892 34.7448 66.9007 34.6922 66.9266C34.5781 66.9649 34.4813 67.0426 34.4192 67.1456C34.4062 67.1702 34.4008 67.1981 34.4035 67.2257C34.4063 67.2533 34.4172 67.2795 34.4349 67.301C34.4525 67.3225 34.4761 67.3383 34.5026 67.3464C34.5292 67.3545 34.5576 67.3546 34.5842 67.3466Z" fill="#263238"/>
<path d="M35.229 68.1987C35.229 68.1987 35.214 68.1987 35.214 68.2257C35.271 68.4747 35.292 68.7687 35.082 68.8947C35.355 68.8167 35.322 68.4267 35.229 68.1987Z" fill="#263238"/>
<path d="M34.9558 67.9799C34.5478 68.0249 34.6558 68.8409 35.0488 68.7959C35.4418 68.7509 35.2978 67.9409 34.9558 67.9799Z" fill="#263238"/>
<path d="M34.8 68.0457C34.737 68.1027 34.68 68.1957 34.593 68.2167C34.506 68.2377 34.41 68.1656 34.332 68.0936C34.353 68.2497 34.437 68.3937 34.608 68.3937C34.779 68.3937 34.851 68.2377 34.866 68.0756C34.86 68.0636 34.83 68.0247 34.8 68.0457Z" fill="#263238"/>
<path d="M36.5999 67.8896C36.5999 67.8896 36.6209 67.8896 36.6209 67.9076C36.6479 68.1626 36.7229 68.4477 36.9629 68.5077C36.6899 68.5137 36.5999 68.1326 36.5999 67.8896Z" fill="#263238"/>
<path d="M36.7948 67.593C37.1968 67.506 37.3438 68.316 36.9718 68.397C36.5998 68.478 36.4588 67.668 36.7948 67.593Z" fill="#263238"/>
<path d="M36.9751 67.617C37.0471 67.647 37.1251 67.713 37.2001 67.704C37.2751 67.695 37.3411 67.596 37.3831 67.5C37.4161 67.653 37.3831 67.824 37.2511 67.881C37.1191 67.938 36.9961 67.818 36.9331 67.668C36.9331 67.65 36.9451 67.605 36.9751 67.617Z" fill="#263238"/>
<path d="M35.4569 70.1549C35.5259 70.2089 35.5949 70.2839 35.6879 70.2809C35.7813 70.2701 35.8713 70.2394 35.9519 70.1909C35.9519 70.1909 35.9699 70.1909 35.9519 70.1909C35.9221 70.2439 35.8784 70.2878 35.8256 70.3179C35.7727 70.348 35.7127 70.3632 35.6519 70.3619C35.5988 70.3538 35.5494 70.3301 35.5098 70.2938C35.4703 70.2574 35.4425 70.2101 35.4299 70.1579C35.4299 70.1549 35.4479 70.1489 35.4569 70.1549Z" fill="#263238"/>
<path d="M36.3628 69.0748C36.4191 69.2542 36.4661 69.4365 36.5038 69.6208C36.5038 69.6388 36.4648 69.6508 36.4048 69.6658C36.257 69.718 36.0976 69.7285 35.9442 69.6962C35.7907 69.6639 35.6491 69.5901 35.5348 69.4828C35.5198 69.4678 35.5348 69.4468 35.5588 69.4558C35.8098 69.5724 36.0914 69.606 36.3628 69.5518C36.3628 69.5008 36.1498 68.9278 36.1768 68.9218C36.3164 68.912 36.4567 68.9211 36.5938 68.9488C36.3838 68.1748 36.0478 67.4488 35.8498 66.6718C35.8493 66.6667 35.8505 66.6616 35.8531 66.6572C35.8557 66.6529 35.8596 66.6495 35.8643 66.6474C35.8689 66.6454 35.8741 66.645 35.8791 66.6461C35.884 66.6472 35.8885 66.6499 35.8918 66.6538C36.2716 67.4277 36.5731 68.2378 36.7918 69.0718C36.8248 69.1678 36.4408 69.0958 36.3628 69.0748Z" fill="#263238"/>
<path d="M36.3691 69.5309C36.3072 69.6962 36.2039 69.8428 36.0691 69.9569C35.9909 70.0154 35.8967 70.0489 35.7991 70.0528C35.5861 70.0528 35.5291 69.8729 35.5231 69.7078C35.5202 69.6193 35.5272 69.5308 35.5441 69.4438C35.8033 69.5583 36.0918 69.5887 36.3691 69.5309Z" fill="#263238"/>
<path d="M36.0541 69.957C35.9758 70.0155 35.8817 70.049 35.7841 70.053C35.5711 70.053 35.5141 69.873 35.5081 69.708C35.6138 69.6818 35.7253 69.6922 35.8244 69.7374C35.9235 69.7826 36.0045 69.86 36.0541 69.957Z" fill="#FFA2BE"/>
<path d="M31.0588 69.3988C31.4788 69.3058 32.3878 67.9618 32.0848 65.9128C32.0848 65.9128 32.2288 67.7698 32.1358 68.0608C32.0428 68.3518 32.6428 67.3048 32.4208 65.6608C33.0009 65.9477 33.6192 66.1497 34.2568 66.2608C35.0698 66.3508 35.5438 66.2608 35.5888 66.2008C35.6338 66.1408 34.4338 65.9608 34.0648 65.6548C34.0648 65.6548 36.2908 66.2758 37.2568 66.1918C37.3678 66.1918 37.1278 63.8938 35.4928 63.1738C33.8578 62.4538 31.6978 63.8788 31.1698 64.5868C31.1698 64.5868 30.4498 64.8148 29.8288 66.0358C29.2078 67.2568 30.5998 69.5008 31.0588 69.3988Z" fill="#263238"/>
<path d="M36.4439 68.0999C36.3149 67.4729 36.5459 66.8999 36.9629 66.8039C37.3799 66.7079 37.8239 67.1579 37.9559 67.7879C38.0879 68.4179 37.8539 68.9879 37.4369 69.0869C37.0199 69.1859 36.5759 68.7149 36.4439 68.0999ZM36.5969 68.0699C36.7109 68.6129 37.0739 68.9999 37.4039 68.9339C37.7339 68.8679 37.9139 68.3639 37.8029 67.8179C37.6919 67.2719 37.3259 66.8879 36.9929 66.9569C36.6599 67.0259 36.4859 67.4999 36.5999 68.0549L36.5969 68.0699Z" fill="#859ED3"/>
<path d="M33.5758 68.682C33.5469 68.4711 33.5802 68.2563 33.6717 68.0641C33.7632 67.8719 33.9089 67.7106 34.0908 67.6001C34.2728 67.4896 34.483 67.4346 34.6958 67.4421C34.9086 67.4495 35.1145 67.519 35.2883 67.6419C35.4621 67.7648 35.5962 67.9359 35.674 68.134C35.7519 68.3322 35.7701 68.5488 35.7265 68.7571C35.6829 68.9655 35.5793 69.1566 35.4285 69.3068C35.2778 69.4571 35.0863 69.5601 34.8778 69.603C34.5831 69.6534 34.2803 69.5847 34.0362 69.412C33.792 69.2393 33.6264 68.9767 33.5758 68.682ZM33.7288 68.649C33.7797 68.8229 33.8802 68.9783 34.018 69.0961C34.1557 69.2139 34.3248 69.289 34.5046 69.3123C34.6844 69.3355 34.867 69.3059 35.0302 69.227C35.1934 69.1482 35.3301 69.0235 35.4236 68.8682C35.5171 68.7129 35.5633 68.5337 35.5566 68.3526C35.55 68.1715 35.4907 67.9962 35.386 67.8482C35.2814 67.7002 35.1358 67.5859 34.9673 67.5193C34.7987 67.4527 34.6144 67.4366 34.4368 67.473C34.1876 67.5361 33.9734 67.695 33.8408 67.9153C33.7082 68.1355 33.668 68.3992 33.7288 68.649Z" fill="#859ED3"/>
<path d="M35.6337 68.1477C36.1647 67.8267 36.4617 67.9617 36.4647 67.9617L36.5337 67.8237C36.5337 67.8237 36.1647 67.6437 35.5527 68.0127L35.6337 68.1477Z" fill="#859ED3"/>
<path d="M33.6297 68.5649V68.3999C33.5277 68.3999 31.7937 68.4239 31.5297 68.4629C31.2657 68.5019 30.7077 68.9819 30.6477 69.0359L30.7497 69.1529C30.9832 68.9333 31.2506 68.753 31.5417 68.6189C31.7547 68.5949 32.7627 68.5859 33.6297 68.5649Z" fill="#859ED3"/>
<path d="M31.674 69.5276C31.674 69.5276 30.693 68.4926 30.213 68.8586C29.733 69.2246 30.585 70.8086 31.236 70.9586C31.3179 70.9825 31.4039 70.9894 31.4886 70.9791C31.5734 70.9687 31.6551 70.9412 31.7289 70.8983C31.8027 70.8554 31.867 70.7979 31.9179 70.7294C31.9688 70.6608 32.0052 70.5827 32.025 70.4996L31.674 69.5276Z" fill="#EB9481"/>
<path d="M30.4678 69.3001C30.4678 69.3001 30.4678 69.3001 30.4678 69.3181C30.6807 69.3873 30.8768 69.5006 31.0432 69.6505C31.2096 69.8003 31.3427 69.9835 31.4338 70.1881C31.4024 70.1484 31.3628 70.116 31.3177 70.0932C31.2726 70.0704 31.223 70.0576 31.1724 70.0559C31.1219 70.0542 31.0716 70.0635 31.025 70.0833C30.9784 70.103 30.9367 70.1326 30.9028 70.1701C30.9028 70.1701 30.9028 70.1941 30.9028 70.1911C30.975 70.1549 31.0567 70.1423 31.1364 70.1553C31.2161 70.1682 31.2897 70.2059 31.3468 70.2631C31.4413 70.3537 31.5258 70.4543 31.5988 70.5631C31.6258 70.5991 31.6918 70.5631 31.6708 70.5241C31.6108 69.9811 31.0678 69.2731 30.4678 69.3001Z" fill="#263238"/>
<path d="M34.941 73.4726L34.545 75.5126L32.163 73.4336L31.5 74.2376C31.5 74.2376 34.254 77.8376 34.236 77.6546L34.701 75.8726L36.045 76.7906L35.46 74.2256L34.941 73.4726Z" fill="#EBEBEB"/>
<path d="M35.4838 74.2467C35.4838 74.2317 35.4478 74.2287 35.4508 74.2467C35.5018 74.6847 35.8618 76.2207 35.9428 76.6467C35.8858 76.6047 34.7068 75.8487 34.7008 75.8667C34.5808 76.1667 34.2388 77.4567 34.2208 77.5707C33.7378 77.0367 32.0158 74.7237 31.4728 74.2347C31.4694 74.2331 31.4656 74.2325 31.462 74.2332C31.4583 74.2338 31.4549 74.2356 31.4523 74.2382C31.4497 74.2408 31.4479 74.2442 31.4473 74.2479C31.4467 74.2515 31.4472 74.2553 31.4488 74.2587C31.8928 74.8347 34.2148 77.8227 34.2418 77.8077C34.4368 77.1899 34.598 76.562 34.7248 75.9267C35.1735 76.2846 35.6456 76.6123 36.1378 76.9077C36.0628 76.4367 35.6278 74.6997 35.4838 74.2467Z" fill="#263238"/>
</svg>
