<svg width="126" height="106" viewBox="0 0 126 106" fill="none" xmlns="http://www.w3.org/2000/svg">
<path d="M125.459 68.205L115.934 58.6797C114.674 57.4202 113 56.7262 111.218 56.7262C109.911 56.7262 108.661 57.1012 107.591 57.7979L99.4595 49.667L102.279 46.8482C105.284 43.839 105.284 38.9429 102.277 35.932C100.979 34.6373 99.303 33.8599 97.4989 33.7039C98.2766 31.0773 97.6311 28.1138 95.5622 26.043C94.3543 24.8351 92.8153 24.0774 91.1485 23.8537C91.4945 22.969 91.6754 22.0181 91.6754 21.0394C91.6754 18.9776 90.8721 17.0396 89.4145 15.5835C88.0708 14.2398 86.3509 13.4964 84.5906 13.3529C85.3384 10.7426 84.6865 7.81134 82.6346 5.75744C81.1768 4.29959 79.238 3.49658 77.1755 3.49658C75.6564 3.49658 74.2047 3.93414 72.9621 4.74748L72.4549 3.78377C71.2744 1.54112 68.7953 0.267586 66.2841 0.618762L54.6483 2.24052C53.2823 1.02457 51.5409 0.358887 49.6964 0.358887C47.7023 0.358887 45.8273 1.13556 44.4165 2.54666C43.0736 3.89107 42.3525 5.62529 42.2504 7.38905C41.7343 7.27781 41.2032 7.219 40.6628 7.219C38.6687 7.219 36.7942 7.99542 35.3844 9.40529V9.40554C33.3428 11.4471 32.7354 14.3862 33.5581 16.9638C31.9558 17.1563 30.4044 17.8638 29.1774 19.0908C29.1774 19.0908 29.1774 19.0908 29.1774 19.091C27.2578 21.0106 26.605 23.7243 27.2177 26.1847C25.5094 26.3203 23.8391 27.0382 22.5353 28.3417V28.342C19.625 31.2523 19.625 35.9876 22.5353 38.8982L25.4432 41.806C25.7638 42.1267 26.1076 42.4097 26.4676 42.6597C26.7905 44.7987 27.6393 46.8214 28.9313 48.5448L18.4098 59.068C15.8265 57.3926 12.3293 57.6854 10.0667 59.9483L0.54265 69.4733C-0.623343 70.6396 0.218052 72.6243 1.84768 72.6243C2.31994 72.6243 2.79244 72.4442 3.15272 72.0839L12.678 62.5586C13.8391 61.3975 15.7281 61.397 16.8892 62.5586L22.8154 68.4848C23.5362 69.2053 24.7049 69.2053 25.4254 68.4848C26.1462 67.7637 26.1462 66.5953 25.4254 65.8745L21.1252 61.5742L32.7548 49.9426C33.4757 49.2218 33.4754 48.0533 32.7548 47.3328C31.8 46.3779 31.0725 45.2336 30.6067 43.9861C30.6453 43.9866 30.684 43.9888 30.7226 43.9888C32.6343 43.9888 34.5457 43.2612 36.0011 41.806C37.2539 40.5531 38.0053 38.9331 38.1573 37.1885C38.7696 37.3483 39.4058 37.4322 40.0552 37.4322C42.0491 37.4322 43.9236 36.6557 45.3334 35.2456C46.526 34.0531 47.2291 32.5539 47.4442 30.9995C48.2356 31.2798 49.0775 31.4263 49.9418 31.4263C51.9356 31.4263 53.8101 30.6498 55.22 29.2397C57.7961 26.6636 58.0902 22.6584 56.1059 19.754C57.4351 19.438 58.655 18.7618 59.6455 17.7712C59.6684 17.7484 59.6891 17.7233 59.7117 17.7001C60.0518 17.675 60.3926 17.6352 60.7335 17.5756L65.0101 16.829C65.5375 16.8545 66.058 16.6569 66.4315 16.2684L66.465 16.2349C66.4653 16.2346 66.4655 16.2344 66.4658 16.2341L68.2605 14.4394L73.7218 8.97832C73.7405 8.95986 73.7587 8.94091 73.7765 8.92147L74.3299 8.36825C75.0906 7.60733 76.1015 7.18848 77.1765 7.18848C78.2529 7.18848 79.2646 7.60733 80.0248 8.36752C81.5939 9.93833 81.5941 12.4925 80.0255 14.0611L78.5022 15.5842C77.7814 16.305 77.7814 17.4737 78.5022 18.1943C79.2233 18.9153 80.3917 18.9151 81.1125 18.1945L81.1187 18.1884C82.689 16.6252 85.2383 16.6274 86.8061 18.195C87.5663 18.9547 87.9852 19.9649 87.9852 21.0401C87.9852 22.1155 87.5663 23.1267 86.8056 23.8874L84.6607 26.0326C84.6565 26.0368 84.6526 26.0407 84.6486 26.0447C83.9288 26.7662 83.9298 27.9342 84.6508 28.6543C85.3717 29.3741 86.5396 29.3738 87.2604 28.6535L87.2676 28.6464C88.0233 27.8921 89.0313 27.4764 90.107 27.4764C91.1837 27.4764 92.1944 27.8943 92.9526 28.6528C94.5217 30.2236 94.5219 32.7778 92.9531 34.3466L91.3658 35.934C90.6452 36.6545 90.645 37.8225 91.3653 38.5435C92.0853 39.2641 93.2535 39.2651 93.9749 38.5455C94.7365 37.7856 95.748 37.367 96.8226 37.367C97.8973 37.367 98.9088 37.7856 99.6682 38.5435C101.237 40.1141 101.237 42.6698 99.669 44.2396L95.5658 48.3425C95.559 48.3491 95.5513 48.3548 95.5447 48.3617C95.5378 48.3686 95.5321 48.376 95.5255 48.3829L71.8365 72.0696C70.2283 73.6778 68.0905 74.5635 65.8168 74.5635C63.5434 74.5635 61.4066 73.6781 59.7991 72.0696L59.4644 71.7349C58.7436 71.0144 57.5749 71.0144 56.8543 71.7349L44.0707 84.5185L30.6741 71.1219C29.9533 70.4014 28.7846 70.4014 28.0641 71.1219C27.3432 71.843 27.3432 73.0114 28.0641 73.7322L43.0861 88.7543C44.2472 89.9154 44.2472 91.8044 43.0861 92.9652L33.5603 102.49C32.8395 103.211 32.8395 104.38 33.5603 105.101C33.9206 105.461 34.3931 105.641 34.8653 105.641C35.3376 105.641 35.8101 105.461 36.1704 105.101L45.6957 95.5753C47.9583 93.3127 48.2511 89.8157 46.5762 87.2327L58.2123 75.5966C60.3651 77.3193 63.0187 78.2547 65.8161 78.2547C69.0758 78.2547 72.1407 76.9851 74.4456 74.6799L96.8497 52.2778L104.878 60.3058L81.9342 83.2494L77.1477 78.4629C76.4269 77.7423 75.2582 77.7423 74.5376 78.4629C73.8168 79.1839 73.8168 80.3524 74.5376 81.0732L79.4275 85.9631C78.7301 87.0341 78.3548 88.2835 78.3548 89.5917C78.3548 91.373 79.0485 93.0476 80.3083 94.3074L89.8336 103.833C90.5546 104.554 91.7231 104.554 92.4437 103.833C93.1645 103.112 93.1645 101.943 92.4437 101.223L82.9184 91.6971C82.356 91.1348 82.0462 90.3871 82.0462 89.5917C82.0462 88.7964 82.356 88.0485 82.9184 87.4862L109.114 61.291C109.676 60.7284 110.424 60.4186 111.219 60.4186C112.015 60.4186 112.762 60.7284 113.325 61.291L122.85 70.8163C123.571 71.5368 124.74 71.5368 125.46 70.8163C126.18 70.0945 126.18 68.926 125.459 68.205ZM47.0283 5.15648C47.6888 4.49597 48.5518 4.11452 49.4767 4.06137C49.4462 4.09951 49.4132 4.13495 49.3841 4.17432C48.745 5.03713 48.4854 6.09656 48.6535 7.15673L48.9727 9.17175C49.4011 11.8773 50.8646 14.2442 53.0933 15.8367C53.27 15.963 53.4503 16.0813 53.6329 16.1955C52.905 16.0525 52.2356 15.6979 51.6991 15.1604L49.1307 12.5934L47.0192 10.482C45.5596 9.00957 45.5625 6.62369 47.0283 5.15648ZM33.391 39.1954C31.9198 40.6666 29.5261 40.6668 28.0547 39.1954L25.1469 36.2878C23.6757 34.8164 23.6757 32.4227 25.1469 30.9513V30.9515C26.617 29.4811 29.0088 29.4806 30.48 30.9483L32.3074 32.7758L33.391 33.8594C34.1037 34.5721 34.4962 35.5193 34.4962 36.5273C34.4962 37.5355 34.1037 38.4827 33.391 39.1954ZM42.7231 32.6353C42.0104 33.348 41.063 33.7403 40.055 33.7403C39.0472 33.7403 38.0995 33.3478 37.3868 32.6351L34.9175 30.1658L33.0932 28.3412C33.0913 28.3393 33.089 28.3373 33.0871 28.3353L31.7887 27.0369C30.3175 25.5655 30.3175 23.1718 31.7887 21.7004V21.7006C33.2593 20.23 35.6519 20.2295 37.1233 21.6989L42.7241 27.2995C44.194 28.7711 44.194 31.1644 42.7231 32.6353ZM52.6097 26.6294C51.897 27.3421 50.9493 27.7344 49.9415 27.7344C48.9338 27.7344 47.9861 27.3418 47.2734 26.6291L45.3344 24.6904C45.3339 24.6899 45.3334 24.6894 45.3329 24.6889L39.7346 19.0906C39.7318 19.0879 39.7289 19.0854 39.7262 19.0827L37.9952 17.3517C36.524 15.8803 36.524 13.4865 37.9952 12.0151V12.0154C39.4663 10.544 41.8601 10.544 43.3315 12.0154L44.3993 13.0832C44.4057 13.0896 44.4116 13.0965 44.418 13.1029L46.4426 15.1262L52.6097 21.2931C54.0806 22.7645 54.0806 25.1582 52.6097 26.6294ZM68.8504 8.62862L64.2657 13.2114L60.0978 13.9393C58.3826 14.2391 56.6562 13.8463 55.2387 12.8336C53.8212 11.8207 52.8905 10.3153 52.6181 8.59466L52.2989 6.5794C52.2839 6.4849 52.3183 6.41427 52.3498 6.37194C52.3813 6.32937 52.4387 6.27596 52.5336 6.26268L66.794 4.27547C66.9016 4.26021 67.0086 4.25307 67.1152 4.25307C67.9745 4.25307 68.7815 4.72951 69.189 5.50372L70.1498 7.329L68.8504 8.62862Z" fill="url(#paint0_linear)"/>
<defs>
<linearGradient id="paint0_linear" x1="104.003" y1="105.641" x2="29.2576" y2="105.641" gradientUnits="userSpaceOnUse">
<stop stop-color="#77216B"/>
<stop offset="1" stop-color="#2A2FA9"/>
</linearGradient>
</defs>
</svg>
