<svg width="67" height="67" viewBox="0 0 67 67" fill="none" xmlns="http://www.w3.org/2000/svg">
<path d="M21.374 26.6768H26.5429L29.1838 35.1956L31.6398 26.6768H36.4696L31.3932 40.3542C30.8177 41.9162 30.2217 42.9643 29.6257 43.509C28.7728 44.2797 27.478 44.6701 25.7311 44.6701C24.6315 44.6393 23.5423 44.5366 22.453 44.3824L22.0728 40.9605C22.8435 41.1968 23.6348 41.2996 24.4363 41.2893C24.9295 41.3099 25.4228 41.1763 25.8338 40.8886C26.1935 40.6214 26.4915 40.1487 26.7381 39.4602L21.374 26.6768Z" fill="white"/>
<path d="M44.5467 26.6767H46.8897V30.2733H44.5467V39.4807H39.6348V30.2733H37.8057V26.6767H39.6348V26.1012C39.6451 25.5258 39.6965 24.9503 39.7992 24.3748C39.8814 23.8199 40.0972 23.2958 40.4363 22.8437C40.7857 22.4224 41.2276 22.0833 41.7414 21.8778C42.2963 21.6311 43.1184 21.5078 44.1974 21.5078C45.451 21.5386 46.6944 21.6414 47.9378 21.8058L47.4035 24.7756C46.9308 24.6934 46.4581 24.642 45.9751 24.6317C45.5332 24.6317 45.2147 24.7037 45.0194 24.8578C44.8037 25.0428 44.6598 25.2894 44.6084 25.5669C44.557 25.9368 44.5365 26.3067 44.5467 26.6767Z" fill="white"/>
<path d="M63.7111 34.2915H53.8769C53.9694 35.0827 54.1749 35.6685 54.5141 36.0487C54.9662 36.5933 55.6547 36.9016 56.374 36.8811C56.857 36.8811 57.3297 36.7577 57.751 36.5214C58.0799 36.3056 58.3779 36.0384 58.6039 35.7096L63.4337 36.1515C62.6938 37.436 61.7998 38.3608 60.7619 38.9157C59.7137 39.4706 58.2237 39.7584 56.2713 39.7584C54.5757 39.7584 53.2398 39.522 52.2739 39.0493C51.2668 38.5355 50.4242 37.7442 49.859 36.768C49.2219 35.7301 48.9033 34.5073 48.9033 33.0995C48.9033 31.0956 49.5404 29.4823 50.8249 28.2389C52.1095 27.0057 53.8769 26.3789 56.1377 26.3789C57.9668 26.3789 59.4157 26.6564 60.4742 27.2113C61.5121 27.7456 62.3547 28.5883 62.8993 29.6159C63.4542 30.664 63.7214 32.0307 63.7214 33.716V34.2915H63.7111ZM58.717 31.9383C58.6245 30.9929 58.3676 30.3044 57.9565 29.9036C56.97 29.0199 55.4492 29.1021 54.5654 30.0886C54.5243 30.1297 54.4935 30.1708 54.4524 30.2222C54.1544 30.6126 53.9694 31.1778 53.8872 31.9485L58.717 31.9383Z" fill="white"/>
<path d="M14.4374 32.2466C14.201 33.3666 13.8105 34.2196 13.2762 34.8053C12.7418 35.391 11.9505 35.689 10.9127 35.689C9.83368 35.689 9.00132 35.3294 8.4053 34.5998C7.8915 33.9729 7.60377 32.9556 7.53184 31.3525H2.05469C2.14717 33.2433 2.58904 34.7642 3.35975 35.9973C4.24349 37.4051 5.29165 38.3814 6.50423 38.9466C7.71681 39.5117 9.28905 39.7892 11.2107 39.7892C12.7932 39.7892 14.0983 39.5631 15.1156 39.1007C16.1329 38.6486 17.0167 37.9498 17.6949 37.066C18.4348 36.0693 18.9486 34.9183 19.2157 33.7058L14.4374 32.2466Z" fill="white"/>
<path d="M7.52161 30.0364C7.58326 28.7314 7.81961 27.7757 8.25121 27.1386C8.8575 26.1624 9.94676 25.5766 11.0977 25.6177C11.6115 25.6075 12.115 25.7205 12.5774 25.9466C13.0193 26.1726 13.4098 26.5015 13.6975 26.9022C13.9339 27.2619 14.1188 27.6627 14.2319 28.084L19.0411 27.0153C18.4245 25.145 17.4688 23.768 16.1946 22.8637C14.9204 21.9594 13.1734 21.5176 10.9435 21.5176C8.09706 21.5176 5.89798 22.3499 4.3463 23.9222C2.90765 25.3711 2.13694 27.4366 2.03418 30.0467H7.52161V30.0364Z" fill="white"/>
</svg>
