<svg width="126" height="126" viewBox="0 0 126 126" fill="none" xmlns="http://www.w3.org/2000/svg">
<path d="M125.951 61.3326C124.791 36.2075 103.483 16.7795 78.3577 17.9395C54.8564 19.0244 36.0492 37.8313 34.9646 61.3326H28.5156L22.4258 51.5112C22.0428 50.8935 21.3677 50.5179 20.6408 50.5179H2.11268C0.952979 50.5176 0.0127256 51.4579 0.0124632 52.6176C0.0124632 53.0087 0.121661 53.3922 0.327718 53.7245L6.39028 63.4977L0.327718 73.273C-0.283368 74.2586 0.0200755 75.553 1.00574 76.1643C1.33806 76.3704 1.72156 76.4796 2.11268 76.4796H20.6406C21.3674 76.4796 22.0425 76.104 22.4255 75.4863L28.5973 65.5325H34.9643C36.124 90.6577 57.4322 110.086 82.5574 108.926C107.683 107.766 127.11 86.458 125.951 61.3326ZM19.4709 72.2797H5.87999L9.9833 65.6648H23.5679L19.4709 72.2797ZM9.9896 61.3326L5.87999 54.7178H19.4709L23.5742 61.3326H9.9896ZM80.5632 104.779C58.5242 104.807 40.3371 87.5432 39.2188 65.5325H47.7971C48.9568 83.5877 64.5338 97.2843 82.5889 96.1244C100.644 94.9644 114.341 79.3878 113.181 61.3326C112.021 43.2775 96.4441 29.5808 78.389 30.7408C61.9508 31.7968 48.8529 44.8945 47.7971 61.3326H39.2188C40.3434 39.3682 58.4623 22.1257 80.4556 22.0908C103.289 22.0612 121.824 40.5473 121.853 63.3809C121.883 86.2144 103.397 104.749 80.5632 104.779ZM80.4535 61.3326H78.3031C79.4628 60.1391 81.3706 60.1115 82.5642 61.2712C83.7578 62.4309 83.7853 64.3387 82.6256 65.5325C81.4659 66.7264 79.5581 66.7537 78.3643 65.5937C78.3436 65.5735 78.3231 65.553 78.3031 65.5325H80.4535C81.6132 65.5325 82.5534 64.5923 82.5534 63.4326C82.5534 62.2729 81.6132 61.3326 80.4535 61.3326ZM82.5978 70.3315C86.4079 69.1718 88.5564 65.1427 87.3965 61.3329C86.2368 57.5228 82.2077 55.3743 78.3979 56.5342C76.0984 57.2341 74.2991 59.0337 73.5992 61.3329H64.8214C65.9811 52.6913 73.9268 46.6259 82.5687 47.7856C91.2105 48.9453 97.2757 56.891 96.116 65.5328C94.9563 74.1746 87.0106 80.2398 78.3688 79.0801C71.3161 78.1336 65.768 72.5858 64.8214 65.5328H73.5992C74.7589 69.3426 78.788 71.4912 82.5978 70.3315ZM82.5563 83.3094C93.5338 82.1497 101.493 72.3104 100.333 61.3326C99.1735 50.3551 89.3342 42.3961 78.3564 43.5558C68.9796 44.5464 61.5702 51.9556 60.5795 61.3326H51.997C53.1567 45.6024 66.8489 33.7907 82.5789 34.9507C98.3089 36.1106 110.121 49.8026 108.961 65.5325C107.801 81.2625 94.1089 93.0745 78.379 91.9148C64.2621 90.874 53.0378 79.6495 51.997 65.5325H60.5795C61.7392 76.5103 71.5786 84.4691 82.5563 83.3094Z" fill="white"/>
<path d="M37.7991 0.00146484H20.9995V4.20137H37.7991V0.00146484Z" fill="white"/>
<path d="M54.5989 14.7012H37.7993V18.9011H54.5989V14.7012Z" fill="white"/>
<path d="M16.7995 0.00146484H12.5996V4.20137H16.7995V0.00146484Z" fill="white"/>
<path d="M25.1995 39.9004H8.3999V44.1003H25.1995V39.9004Z" fill="white"/>
<path d="M4.1999 39.9004H0V44.1003H4.1999V39.9004Z" fill="white"/>
<path d="M29.3995 86.0991H16.7998V90.299H29.3995V86.0991Z" fill="white"/>
<path d="M12.5998 86.0991H8.3999V90.299H12.5998V86.0991Z" fill="white"/>
<path d="M46.1989 104.999H41.999V109.199H46.1989V104.999Z" fill="white"/>
<path d="M25.1995 121.798H8.3999V125.998H25.1995V121.798Z" fill="white"/>
<path d="M4.1999 121.798H0V125.998H4.1999V121.798Z" fill="white"/>
</svg>
