<svg width="124" height="88" viewBox="0 0 124 88" fill="none" xmlns="http://www.w3.org/2000/svg">
<path d="M68.0894 22.8252H51.8511C50.7378 22.8252 49.8213 23.7358 49.8213 24.8417V33.4127L68.0894 44.0002L77.2233 47.8293L86.3573 44.0002V33.4127L68.0894 22.8252Z" fill="#EBEBEB"/>
<path fill-rule="evenodd" clip-rule="evenodd" d="M49.8213 33.4126H68.0894V44.0001H49.8213V33.4126Z" fill="#A6A6A6"/>
<path d="M84.3271 22.8252H68.0889V33.4127H86.3567V24.8417C86.3567 23.7358 85.4402 22.8252 84.3271 22.8252Z" fill="white"/>
<path d="M68.0894 44H49.8213V63.1585C49.8213 64.2644 50.7378 65.175 51.8511 65.175H84.3276C85.4408 65.175 86.3573 64.2644 86.3573 63.1585V54.5875L68.0894 44Z" fill="#DBDBDB"/>
<path fill-rule="evenodd" clip-rule="evenodd" d="M68.0889 44H86.3567V54.5875H68.0889V44Z" fill="#A6A6A6"/>
<path d="M63.0149 30.3877H49.8213V59.1252H63.0149C64.1269 59.1221 65.0414 58.2135 65.0445 57.1087V32.4042C65.0414 31.2994 64.1269 30.3908 63.0149 30.3877Z" fill="black" fill-opacity="0.094118"/>
<path d="M61.4926 31.9004H49.8213V60.6379H61.4926C62.6046 60.6348 63.5191 59.7262 63.5222 58.6214V33.9169C63.5191 32.8121 62.6046 31.9035 61.4926 31.9004Z" fill="black" fill-opacity="0.2"/>
<path d="M61.4926 31.9004H49.8213V57.6129H61.4926C62.6046 57.6098 63.5191 56.7012 63.5222 55.5964V33.9169C63.5191 32.8121 62.6046 31.9035 61.4926 31.9004Z" fill="black" fill-opacity="0.2"/>
<path d="M59.9703 31.9004H49.8213V57.6129H59.9703C61.0823 57.6098 61.9968 56.7012 61.9999 55.5964V33.9169C61.9968 32.8121 61.0823 31.9035 59.9703 31.9004Z" fill="black" fill-opacity="0.2"/>
<path d="M39.6722 31.9004H59.9701C61.0832 31.9004 61.9997 32.811 61.9997 33.9169V54.0839C61.9997 55.1898 61.0835 56.1004 59.9701 56.1004H39.6722C38.5591 56.1004 37.6426 55.1898 37.6426 54.0839V33.9169C37.6426 32.811 38.5591 31.9004 39.6722 31.9004Z" fill="#A6A6A6"/>
<path d="M43.0215 51.5625L47.9474 43.9789L43.4356 36.4375H47.0663L49.5293 41.2575C49.7556 41.7149 49.9112 42.0561 49.9963 42.2809H50.0281C50.1907 41.9155 50.3607 41.5602 50.5379 41.2155L53.1704 36.4375H56.504L51.8753 43.9366L56.6207 51.5625H53.0748L50.2296 46.2678C50.0957 46.0427 49.9821 45.806 49.89 45.5611H49.8477C49.7644 45.8011 49.6542 46.031 49.5184 46.2464L46.5885 51.5625H43.0215Z" fill="white"/>
</svg>
