<svg width="24" height="24" viewBox="0 0 24 24" fill="none" xmlns="http://www.w3.org/2000/svg">
<g clip-path="url(#clip0)">
<path d="M20.7668 0H3.23505C1.44896 0 0.000976562 1.44792 0.000976562 3.23407V20.766C0.000976562 22.5521 1.4489 24.0001 3.23505 24.0001H11.8816L11.8964 15.4237H9.66826C9.3787 15.4237 9.14368 15.1896 9.14257 14.9L9.13188 12.1355C9.13077 11.8444 9.36649 11.6078 9.65763 11.6078H11.8817V8.93657C11.8817 5.83665 13.7749 4.14872 16.5403 4.14872H18.8094C19.0998 4.14872 19.3352 4.38409 19.3352 4.67448V7.00552C19.3352 7.29579 19.0999 7.5311 18.8097 7.53127L17.4172 7.53192C15.9133 7.53192 15.6221 8.24655 15.6221 9.29529V11.6078H18.9266C19.2415 11.6078 19.4858 11.8828 19.4487 12.1955L19.121 14.96C19.0897 15.2245 18.8653 15.4239 18.599 15.4239H15.6368L15.6221 24.0002H20.767C22.5531 24.0002 24.001 22.5523 24.001 20.7662V3.23407C24.0009 1.44792 22.553 0 20.7668 0Z" fill="white"/>
</g>
<defs>
<clipPath id="clip0">
<rect width="24" height="24" fill="white"/>
</clipPath>
</defs>
</svg>
