<svg width="23" height="33" viewBox="0 0 23 33" fill="none" xmlns="http://www.w3.org/2000/svg">
<g clip-path="url(#clip0)">
<path d="M5.95602 32.9821C8.9726 32.9821 11.4208 30.5334 11.4208 27.5162V22.0503H5.95602C2.93945 22.0503 0.491211 24.499 0.491211 27.5162C0.491211 30.5334 2.93945 32.9821 5.95602 32.9821Z" fill="#ECF2FF"/>
<path d="M0.491211 16.5841C0.491211 13.5669 2.93945 11.1182 5.95602 11.1182H11.4208V22.05H5.95602C2.93945 22.05 0.491211 19.6012 0.491211 16.5841Z" fill="#ECF2FF"/>
<path d="M0.492676 5.65243C0.492676 2.63525 2.94091 0.186523 5.95749 0.186523H11.4223V11.1183H5.95749C2.94091 11.1183 0.492676 8.6696 0.492676 5.65243Z" fill="#ECF2FF"/>
<path d="M11.4209 0.186523H16.8857C19.9023 0.186523 22.3505 2.63525 22.3505 5.65243C22.3505 8.6696 19.9023 11.1183 16.8857 11.1183H11.4209V0.186523Z" fill="#ECF2FF"/>
<path d="M22.3505 16.5841C22.3505 19.6012 19.9023 22.05 16.8857 22.05C13.8691 22.05 11.4209 19.6012 11.4209 16.5841C11.4209 13.5669 13.8691 11.1182 16.8857 11.1182C19.9023 11.1182 22.3505 13.5669 22.3505 16.5841Z" fill="#ECF2FF"/>
</g>
<defs>
<clipPath id="clip0">
<rect width="21.8636" height="32.7954" fill="white" transform="translate(0.489258 0.186523)"/>
</clipPath>
</defs>
</svg>
