<svg width="400" height="85" viewBox="0 0 400 85" fill="none" xmlns="http://www.w3.org/2000/svg">
<path d="M86.728 32.816H89.968V50H86.728V32.816ZM96.7191 39.776H96.9111C97.2791 39.184 97.7751 38.72 98.3991 38.384C99.0231 38.032 99.7351 37.856 100.535 37.856C101.271 37.856 101.919 37.976 102.479 38.216C103.039 38.456 103.495 38.8 103.847 39.248C104.215 39.68 104.487 40.208 104.663 40.832C104.855 41.44 104.951 42.12 104.951 42.872V50H101.807V43.256C101.807 42.408 101.615 41.784 101.231 41.384C100.863 40.968 100.319 40.76 99.5991 40.76C99.1671 40.76 98.7831 40.856 98.4471 41.048C98.1271 41.224 97.8471 41.472 97.6071 41.792C97.3831 42.096 97.2071 42.464 97.0791 42.896C96.9671 43.312 96.9111 43.76 96.9111 44.24V50H93.7671V38.24H96.7191V39.776ZM113.575 55.568C112.743 55.568 111.999 55.456 111.343 55.232C110.703 55.024 110.143 54.744 109.663 54.392C109.183 54.056 108.783 53.68 108.463 53.264C108.143 52.848 107.911 52.432 107.767 52.016L110.767 50.816C110.991 51.44 111.359 51.92 111.871 52.256C112.383 52.608 112.951 52.784 113.575 52.784C114.567 52.784 115.351 52.472 115.927 51.848C116.503 51.24 116.791 50.384 116.791 49.28V48.464H116.599C116.231 48.976 115.743 49.384 115.135 49.688C114.543 49.976 113.839 50.12 113.023 50.12C112.319 50.12 111.631 49.976 110.959 49.688C110.303 49.4 109.719 48.992 109.207 48.464C108.695 47.92 108.279 47.272 107.959 46.52C107.639 45.768 107.479 44.928 107.479 44C107.479 43.072 107.639 42.232 107.959 41.48C108.279 40.712 108.695 40.064 109.207 39.536C109.719 38.992 110.303 38.576 110.959 38.288C111.631 38 112.319 37.856 113.023 37.856C113.839 37.856 114.543 38.008 115.135 38.312C115.743 38.6 116.231 39 116.599 39.512H116.791V38.24H119.791V49.16C119.791 50.152 119.639 51.04 119.335 51.824C119.031 52.624 118.607 53.296 118.063 53.84C117.519 54.4 116.863 54.824 116.095 55.112C115.343 55.416 114.503 55.568 113.575 55.568ZM113.695 47.288C114.079 47.288 114.455 47.216 114.823 47.072C115.207 46.928 115.543 46.72 115.831 46.448C116.119 46.16 116.351 45.816 116.527 45.416C116.703 45 116.791 44.528 116.791 44C116.791 43.472 116.703 43 116.527 42.584C116.351 42.168 116.119 41.824 115.831 41.552C115.543 41.264 115.207 41.048 114.823 40.904C114.455 40.76 114.079 40.688 113.695 40.688C113.311 40.688 112.935 40.76 112.567 40.904C112.199 41.048 111.871 41.264 111.583 41.552C111.295 41.84 111.063 42.192 110.887 42.608C110.711 43.008 110.623 43.472 110.623 44C110.623 44.528 110.711 45 110.887 45.416C111.063 45.816 111.295 46.16 111.583 46.448C111.871 46.72 112.199 46.928 112.567 47.072C112.935 47.216 113.311 47.288 113.695 47.288ZM134.21 47.168C133.666 48.128 132.93 48.904 132.002 49.496C131.09 50.088 129.97 50.384 128.642 50.384C127.746 50.384 126.914 50.232 126.146 49.928C125.394 49.608 124.738 49.168 124.178 48.608C123.618 48.048 123.178 47.392 122.858 46.64C122.554 45.872 122.402 45.032 122.402 44.12C122.402 43.272 122.554 42.472 122.858 41.72C123.162 40.952 123.586 40.288 124.13 39.728C124.674 39.152 125.314 38.696 126.05 38.36C126.802 38.024 127.626 37.856 128.522 37.856C129.466 37.856 130.306 38.016 131.042 38.336C131.778 38.64 132.394 39.072 132.89 39.632C133.386 40.176 133.762 40.824 134.018 41.576C134.274 42.328 134.402 43.144 134.402 44.024C134.402 44.136 134.402 44.232 134.402 44.312C134.386 44.408 134.378 44.496 134.378 44.576C134.362 44.656 134.354 44.744 134.354 44.84H125.498C125.562 45.32 125.69 45.736 125.882 46.088C126.09 46.424 126.338 46.712 126.626 46.952C126.93 47.176 127.258 47.344 127.61 47.456C127.962 47.552 128.322 47.6 128.69 47.6C129.41 47.6 130.002 47.44 130.466 47.12C130.946 46.784 131.322 46.368 131.594 45.872L134.21 47.168ZM131.354 42.608C131.338 42.4 131.266 42.168 131.138 41.912C131.026 41.656 130.85 41.416 130.61 41.192C130.386 40.968 130.098 40.784 129.746 40.64C129.41 40.496 129.002 40.424 128.522 40.424C127.85 40.424 127.258 40.616 126.746 41C126.234 41.384 125.874 41.92 125.666 42.608H131.354ZM140.082 39.776H140.274C140.642 39.184 141.138 38.72 141.762 38.384C142.386 38.032 143.098 37.856 143.898 37.856C144.634 37.856 145.282 37.976 145.842 38.216C146.402 38.456 146.858 38.8 147.21 39.248C147.578 39.68 147.85 40.208 148.026 40.832C148.218 41.44 148.314 42.12 148.314 42.872V50H145.17V43.256C145.17 42.408 144.978 41.784 144.594 41.384C144.226 40.968 143.682 40.76 142.962 40.76C142.53 40.76 142.146 40.856 141.81 41.048C141.49 41.224 141.21 41.472 140.97 41.792C140.746 42.096 140.57 42.464 140.442 42.896C140.33 43.312 140.274 43.76 140.274 44.24V50H137.13V38.24H140.082V39.776ZM153.383 36.536C153.111 36.536 152.847 36.488 152.591 36.392C152.351 36.28 152.135 36.136 151.943 35.96C151.767 35.768 151.623 35.552 151.511 35.312C151.415 35.072 151.367 34.808 151.367 34.52C151.367 34.232 151.415 33.968 151.511 33.728C151.623 33.488 151.767 33.28 151.943 33.104C152.135 32.912 152.351 32.768 152.591 32.672C152.847 32.56 153.111 32.504 153.383 32.504C153.943 32.504 154.423 32.704 154.823 33.104C155.223 33.488 155.423 33.96 155.423 34.52C155.423 35.08 155.223 35.56 154.823 35.96C154.423 36.344 153.943 36.536 153.383 36.536ZM151.823 50V38.24H154.967V50H151.823ZM169.581 47.168C169.037 48.128 168.301 48.904 167.373 49.496C166.461 50.088 165.341 50.384 164.013 50.384C163.117 50.384 162.285 50.232 161.517 49.928C160.765 49.608 160.109 49.168 159.549 48.608C158.989 48.048 158.549 47.392 158.229 46.64C157.925 45.872 157.773 45.032 157.773 44.12C157.773 43.272 157.925 42.472 158.229 41.72C158.533 40.952 158.957 40.288 159.501 39.728C160.045 39.152 160.685 38.696 161.421 38.36C162.173 38.024 162.997 37.856 163.893 37.856C164.837 37.856 165.677 38.016 166.413 38.336C167.149 38.64 167.765 39.072 168.261 39.632C168.757 40.176 169.133 40.824 169.389 41.576C169.645 42.328 169.773 43.144 169.773 44.024C169.773 44.136 169.773 44.232 169.773 44.312C169.757 44.408 169.749 44.496 169.749 44.576C169.733 44.656 169.725 44.744 169.725 44.84H160.869C160.933 45.32 161.061 45.736 161.253 46.088C161.461 46.424 161.709 46.712 161.997 46.952C162.301 47.176 162.629 47.344 162.981 47.456C163.333 47.552 163.693 47.6 164.061 47.6C164.781 47.6 165.373 47.44 165.837 47.12C166.317 46.784 166.693 46.368 166.965 45.872L169.581 47.168ZM166.725 42.608C166.709 42.4 166.637 42.168 166.509 41.912C166.397 41.656 166.221 41.416 165.981 41.192C165.757 40.968 165.469 40.784 165.117 40.64C164.781 40.496 164.373 40.424 163.893 40.424C163.221 40.424 162.629 40.616 162.117 41C161.605 41.384 161.245 41.92 161.037 42.608H166.725ZM172.501 38.24H175.453V39.872H175.645C175.789 39.584 175.981 39.32 176.221 39.08C176.461 38.84 176.725 38.632 177.013 38.456C177.317 38.28 177.637 38.144 177.973 38.048C178.325 37.952 178.669 37.904 179.005 37.904C179.421 37.904 179.773 37.944 180.061 38.024C180.365 38.104 180.621 38.208 180.829 38.336L179.989 41.192C179.797 41.096 179.581 41.024 179.341 40.976C179.117 40.912 178.837 40.88 178.501 40.88C178.069 40.88 177.677 40.968 177.325 41.144C176.973 41.304 176.669 41.536 176.413 41.84C176.173 42.144 175.981 42.504 175.837 42.92C175.709 43.32 175.645 43.76 175.645 44.24V50H172.501V38.24ZM183.475 35.888L184.483 32.624H188.155L185.995 35.888H183.475ZM183.187 50V38.24H186.331V50H183.187ZM197.056 48.752H196.864C196.496 49.2 196.048 49.584 195.52 49.904C195.008 50.224 194.344 50.384 193.528 50.384C192.92 50.384 192.344 50.28 191.8 50.072C191.272 49.88 190.808 49.608 190.408 49.256C190.008 48.904 189.696 48.48 189.472 47.984C189.248 47.488 189.136 46.944 189.136 46.352C189.136 45.744 189.256 45.2 189.496 44.72C189.736 44.224 190.072 43.8 190.504 43.448C190.936 43.096 191.44 42.832 192.016 42.656C192.608 42.464 193.248 42.368 193.936 42.368C194.704 42.368 195.336 42.432 195.832 42.56C196.328 42.672 196.736 42.792 197.056 42.92V42.56C197.056 41.936 196.808 41.424 196.312 41.024C195.816 40.608 195.2 40.4 194.464 40.4C193.376 40.4 192.456 40.856 191.704 41.768L189.424 40.208C190.672 38.64 192.376 37.856 194.536 37.856C196.36 37.856 197.752 38.288 198.712 39.152C199.672 40 200.152 41.264 200.152 42.944V50H197.056V48.752ZM197.056 45.224C196.688 45.048 196.304 44.912 195.904 44.816C195.52 44.704 195.096 44.648 194.632 44.648C193.88 44.648 193.296 44.816 192.88 45.152C192.48 45.472 192.28 45.872 192.28 46.352C192.28 46.832 192.472 47.216 192.856 47.504C193.256 47.792 193.712 47.936 194.224 47.936C194.64 47.936 195.024 47.864 195.376 47.72C195.728 47.56 196.024 47.36 196.264 47.12C196.52 46.864 196.712 46.576 196.84 46.256C196.984 45.92 197.056 45.576 197.056 45.224ZM209.75 32.816H215.558C216.918 32.816 218.142 33.024 219.23 33.44C220.318 33.856 221.246 34.448 222.014 35.216C222.782 35.968 223.366 36.872 223.766 37.928C224.182 38.984 224.39 40.144 224.39 41.408C224.39 42.688 224.182 43.856 223.766 44.912C223.366 45.968 222.782 46.872 222.014 47.624C221.246 48.376 220.318 48.96 219.23 49.376C218.142 49.792 216.918 50 215.558 50H209.75V32.816ZM215.414 46.928C216.358 46.928 217.19 46.8 217.91 46.544C218.63 46.272 219.23 45.896 219.71 45.416C220.19 44.936 220.55 44.36 220.79 43.688C221.03 43 221.15 42.24 221.15 41.408C221.15 40.576 221.03 39.824 220.79 39.152C220.55 38.464 220.19 37.88 219.71 37.4C219.23 36.92 218.63 36.552 217.91 36.296C217.19 36.024 216.358 35.888 215.414 35.888H212.99V46.928H215.414ZM229.088 36.536C228.816 36.536 228.552 36.488 228.296 36.392C228.056 36.28 227.84 36.136 227.648 35.96C227.472 35.768 227.328 35.552 227.216 35.312C227.12 35.072 227.072 34.808 227.072 34.52C227.072 34.232 227.12 33.968 227.216 33.728C227.328 33.488 227.472 33.28 227.648 33.104C227.84 32.912 228.056 32.768 228.296 32.672C228.552 32.56 228.816 32.504 229.088 32.504C229.648 32.504 230.128 32.704 230.528 33.104C230.928 33.488 231.128 33.96 231.128 34.52C231.128 35.08 230.928 35.56 230.528 35.96C230.128 36.344 229.648 36.536 229.088 36.536ZM227.528 50V38.24H230.672V50H227.528ZM239.573 55.568C238.741 55.568 237.997 55.456 237.341 55.232C236.701 55.024 236.141 54.744 235.661 54.392C235.181 54.056 234.781 53.68 234.461 53.264C234.141 52.848 233.909 52.432 233.765 52.016L236.765 50.816C236.989 51.44 237.357 51.92 237.869 52.256C238.381 52.608 238.949 52.784 239.573 52.784C240.565 52.784 241.349 52.472 241.925 51.848C242.501 51.24 242.789 50.384 242.789 49.28V48.464H242.597C242.229 48.976 241.741 49.384 241.133 49.688C240.541 49.976 239.837 50.12 239.021 50.12C238.317 50.12 237.629 49.976 236.957 49.688C236.301 49.4 235.717 48.992 235.205 48.464C234.693 47.92 234.277 47.272 233.957 46.52C233.637 45.768 233.477 44.928 233.477 44C233.477 43.072 233.637 42.232 233.957 41.48C234.277 40.712 234.693 40.064 235.205 39.536C235.717 38.992 236.301 38.576 236.957 38.288C237.629 38 238.317 37.856 239.021 37.856C239.837 37.856 240.541 38.008 241.133 38.312C241.741 38.6 242.229 39 242.597 39.512H242.789V38.24H245.789V49.16C245.789 50.152 245.637 51.04 245.333 51.824C245.029 52.624 244.605 53.296 244.061 53.84C243.517 54.4 242.861 54.824 242.093 55.112C241.341 55.416 240.501 55.568 239.573 55.568ZM239.693 47.288C240.077 47.288 240.453 47.216 240.821 47.072C241.205 46.928 241.541 46.72 241.829 46.448C242.117 46.16 242.349 45.816 242.525 45.416C242.701 45 242.789 44.528 242.789 44C242.789 43.472 242.701 43 242.525 42.584C242.349 42.168 242.117 41.824 241.829 41.552C241.541 41.264 241.205 41.048 240.821 40.904C240.453 40.76 240.077 40.688 239.693 40.688C239.309 40.688 238.933 40.76 238.565 40.904C238.197 41.048 237.869 41.264 237.581 41.552C237.293 41.84 237.061 42.192 236.885 42.608C236.709 43.008 236.621 43.472 236.621 44C236.621 44.528 236.709 45 236.885 45.416C237.061 45.816 237.293 46.16 237.581 46.448C237.869 46.72 238.197 46.928 238.565 47.072C238.933 47.216 239.309 47.288 239.693 47.288ZM250.942 36.536C250.67 36.536 250.406 36.488 250.15 36.392C249.91 36.28 249.694 36.136 249.502 35.96C249.326 35.768 249.182 35.552 249.07 35.312C248.974 35.072 248.926 34.808 248.926 34.52C248.926 34.232 248.974 33.968 249.07 33.728C249.182 33.488 249.326 33.28 249.502 33.104C249.694 32.912 249.91 32.768 250.15 32.672C250.406 32.56 250.67 32.504 250.942 32.504C251.502 32.504 251.982 32.704 252.382 33.104C252.782 33.488 252.982 33.96 252.982 34.52C252.982 35.08 252.782 35.56 252.382 35.96C251.982 36.344 251.502 36.536 250.942 36.536ZM249.382 50V38.24H252.526V50H249.382ZM257.299 40.928H255.235V38.24H257.299V34.64H260.443V38.24H263.323V40.928H260.443V45.488C260.443 45.76 260.467 46.016 260.515 46.256C260.579 46.48 260.691 46.672 260.851 46.832C261.075 47.088 261.395 47.216 261.811 47.216C262.083 47.216 262.299 47.192 262.459 47.144C262.619 47.08 262.771 47 262.915 46.904L263.803 49.664C263.435 49.84 263.035 49.968 262.603 50.048C262.187 50.144 261.723 50.192 261.211 50.192C260.619 50.192 260.083 50.104 259.603 49.928C259.139 49.736 258.747 49.48 258.427 49.16C257.675 48.44 257.299 47.416 257.299 46.088V40.928ZM273.37 48.752H273.178C272.81 49.2 272.362 49.584 271.834 49.904C271.322 50.224 270.658 50.384 269.842 50.384C269.234 50.384 268.658 50.28 268.114 50.072C267.586 49.88 267.122 49.608 266.722 49.256C266.322 48.904 266.01 48.48 265.786 47.984C265.562 47.488 265.45 46.944 265.45 46.352C265.45 45.744 265.57 45.2 265.81 44.72C266.05 44.224 266.386 43.8 266.818 43.448C267.25 43.096 267.754 42.832 268.33 42.656C268.922 42.464 269.562 42.368 270.25 42.368C271.018 42.368 271.65 42.432 272.146 42.56C272.642 42.672 273.05 42.792 273.37 42.92V42.56C273.37 41.936 273.122 41.424 272.626 41.024C272.13 40.608 271.514 40.4 270.778 40.4C269.69 40.4 268.77 40.856 268.018 41.768L265.738 40.208C266.986 38.64 268.69 37.856 270.85 37.856C272.674 37.856 274.066 38.288 275.026 39.152C275.986 40 276.466 41.264 276.466 42.944V50H273.37V48.752ZM273.37 45.224C273.002 45.048 272.618 44.912 272.218 44.816C271.834 44.704 271.41 44.648 270.946 44.648C270.194 44.648 269.61 44.816 269.194 45.152C268.794 45.472 268.594 45.872 268.594 46.352C268.594 46.832 268.786 47.216 269.17 47.504C269.57 47.792 270.026 47.936 270.538 47.936C270.954 47.936 271.338 47.864 271.69 47.72C272.042 47.56 272.338 47.36 272.578 47.12C272.834 46.864 273.026 46.576 273.154 46.256C273.298 45.92 273.37 45.576 273.37 45.224ZM279.686 50V32.816H282.83V50H279.686ZM289.314 48.512C289.314 48.96 289.154 49.344 288.834 49.664C288.53 49.984 288.146 50.144 287.682 50.144C287.234 50.144 286.85 49.984 286.53 49.664C286.21 49.344 286.05 48.96 286.05 48.512C286.05 48.048 286.21 47.664 286.53 47.36C286.85 47.04 287.234 46.88 287.682 46.88C288.146 46.88 288.53 47.04 288.834 47.36C289.154 47.664 289.314 48.048 289.314 48.512ZM294.748 50H292.54V38.24H294.652V39.872H294.748C295.084 39.296 295.596 38.816 296.284 38.432C296.988 38.048 297.684 37.856 298.372 37.856C299.236 37.856 299.996 38.056 300.652 38.456C301.308 38.856 301.788 39.408 302.092 40.112C303.068 38.608 304.42 37.856 306.148 37.856C307.508 37.856 308.556 38.272 309.292 39.104C310.028 39.936 310.396 41.12 310.396 42.656V50H308.188V42.992C308.188 41.888 307.988 41.096 307.588 40.616C307.188 40.12 306.516 39.872 305.572 39.872C304.724 39.872 304.012 40.232 303.436 40.952C302.86 41.672 302.572 42.52 302.572 43.496V50H300.364V42.992C300.364 41.888 300.164 41.096 299.764 40.616C299.364 40.12 298.692 39.872 297.748 39.872C296.9 39.872 296.188 40.232 295.612 40.952C295.036 41.672 294.748 42.52 294.748 43.496V50ZM319.172 44.024L323.372 50H320.78L317.876 45.656L315.02 50H312.428L316.58 44.024L312.524 38.24H315.02L317.924 42.392L320.684 38.24H323.276L319.172 44.024Z" fill="white"/>
<path d="M10.2246 73.7297C10.2246 52.6754 10.2246 31.6212 10.2246 10.5669C31.2789 10.5669 52.3331 10.5669 73.3874 10.5669C73.3874 31.6212 73.3874 52.6754 73.3874 73.7297C52.3331 73.7297 31.2789 73.7297 10.2246 73.7297ZM47.0203 70.6786C47.0288 70.6529 47.0373 70.6274 47.0458 70.6017C46.9812 70.5331 46.9183 70.4627 46.8516 70.396C45.5435 69.087 44.2301 67.7835 42.9316 66.4648C42.7339 66.264 42.5379 66.1941 42.2649 66.1945C34.2485 66.2048 26.232 66.2084 18.2156 66.2118C17.6851 66.212 17.7522 66.2632 17.752 65.7496C17.7507 58.5225 17.7512 51.2955 17.751 44.0685C17.751 43.7232 17.75 43.7227 17.4066 43.7229C16.1523 43.7234 14.8982 43.7242 13.644 43.7251C13.541 43.7251 13.4378 43.7251 13.313 43.7251C13.3053 43.8475 13.2941 43.9416 13.2941 44.0358C13.2933 52.8065 13.2945 61.5773 13.288 70.3479C13.2878 70.6072 13.3679 70.667 13.6159 70.667C24.6583 70.6668 35.7006 70.6731 46.7428 70.6786C46.8351 70.6786 46.9276 70.6786 47.0203 70.6786ZM70.3167 40.6744C70.3167 40.5051 70.3167 40.3671 70.3167 40.229C70.3167 31.7125 70.3167 23.1962 70.3167 14.6797C70.3167 14.4165 70.3065 14.1529 70.3198 13.8906C70.3297 13.6973 70.2662 13.6315 70.0673 13.6337C69.2517 13.6425 68.436 13.6354 67.6204 13.6351C57.3762 13.6298 47.1318 13.6247 36.8876 13.6206C36.782 13.6206 36.6766 13.6347 36.5143 13.6463C36.6268 13.7661 36.6895 13.8368 36.7563 13.9037C38.0706 15.2189 39.3883 16.531 40.6961 17.8526C40.8652 18.0234 41.0354 18.0874 41.2724 18.0868C45.4558 18.0758 49.6393 18.0712 53.8226 18.0681C57.7343 18.0653 61.6462 18.0654 65.5579 18.0653C65.6509 18.0653 65.7437 18.0758 65.8554 18.0826C65.8554 18.2325 65.8554 18.3544 65.8554 18.4763C65.8554 25.7649 65.8568 33.0533 65.8502 40.3419C65.85 40.6 65.9057 40.6877 66.1816 40.6841C67.4533 40.6678 68.725 40.6754 69.9968 40.6746C70.0908 40.6744 70.1846 40.6744 70.3167 40.6744ZM68.061 70.6449C68.079 70.6124 68.0972 70.58 68.1152 70.5475C68.0236 70.4802 67.9213 70.4236 67.8417 70.344C63.7733 66.2751 59.7079 62.203 55.636 58.1375C55.4535 57.9553 55.3771 57.7756 55.3775 57.5184C55.3843 53.0275 55.3826 48.5364 55.3822 44.0455C55.3822 43.6635 55.3812 43.6628 55.0162 43.6628C48.6834 43.6623 42.3505 43.6622 36.0175 43.6618C35.9142 43.6618 35.811 43.6618 35.6864 43.6618C35.6768 43.8133 35.6629 43.9337 35.6627 44.0542C35.6612 45.3348 35.6615 46.6154 35.6619 47.896C35.6621 48.3018 35.6627 48.3023 36.059 48.3025C40.8044 48.3032 45.5496 48.3033 50.295 48.3045C50.8094 48.3047 50.7378 48.2724 50.738 48.7341C50.7397 52.2164 50.7399 55.6987 50.7366 59.1808C50.7365 59.3642 50.7691 59.5097 50.9094 59.6495C54.5244 63.254 58.1352 66.8626 61.7436 70.4737C61.8764 70.6065 62.009 70.6731 62.2026 70.6723C64.0709 70.6634 65.9392 70.6639 67.8075 70.6607C67.892 70.6605 67.9765 70.6504 68.061 70.6449ZM15.5507 13.6471C15.5369 13.6759 15.5233 13.7046 15.5096 13.7333C15.6024 13.812 15.7015 13.8844 15.7872 13.9701C19.85 18.0333 23.9103 22.0988 27.9777 26.1573C28.1628 26.3419 28.2285 26.5241 28.2281 26.7784C28.2217 31.2787 28.2239 35.7789 28.222 40.2792C28.2218 40.4847 28.2062 40.6391 28.512 40.6387C34.8896 40.6311 41.2671 40.6338 47.6447 40.6411C47.8798 40.6414 47.9403 40.5676 47.9386 40.3402C47.9289 39.0069 47.934 37.6734 47.9338 36.3401C47.9338 35.9974 47.9332 35.9957 47.5842 35.9948C45.8825 35.9904 44.1806 35.9843 42.4789 35.9838C39.391 35.9829 36.3031 35.9856 33.2152 35.9865C32.872 35.9867 32.8718 35.9856 32.8715 35.6421C32.8676 32.1508 32.862 28.6593 32.8635 25.168C32.8637 24.9421 32.804 24.7763 32.6401 24.613C29.0366 21.0209 25.4379 17.4244 21.8426 13.8239C21.6994 13.6804 21.5544 13.6259 21.3569 13.6266C19.5148 13.633 17.6725 13.6318 15.8304 13.6337C15.7372 13.6337 15.6439 13.6424 15.5507 13.6471ZM20.7906 33.8076C20.7906 33.9853 20.7906 34.0857 20.7906 34.1862C20.7906 36.4055 20.7906 38.6249 20.7906 40.8442C20.7906 48.1777 20.7911 55.5113 20.7881 62.8448C20.7879 63.0525 20.7935 63.1754 21.0723 63.1751C27.4497 63.1683 33.8271 63.1714 40.2043 63.1787C40.4295 63.179 40.5099 63.1233 40.5082 62.8866C40.4982 61.5797 40.4982 60.2725 40.5084 58.9657C40.5103 58.7243 40.418 58.6659 40.1985 58.6728C39.5676 58.6929 38.9363 58.7043 38.305 58.708C34.0423 58.7323 29.7795 58.7537 25.517 58.7752C25.4156 58.7757 25.3143 58.7656 25.1773 58.7588C25.1773 51.1673 25.1773 43.6033 25.1773 36.0236C25.0369 36.0161 24.9332 36.006 24.8295 36.0059C24.3032 36.0047 23.7763 36.0174 23.2507 35.9986C23.111 35.9936 22.9418 35.9285 22.8424 35.8326C22.236 35.2485 21.6459 34.6474 21.0499 34.0524C20.9844 33.9871 20.9159 33.9258 20.7906 33.8076ZM62.7135 50.4673C62.7482 50.4455 62.7828 50.4239 62.8173 50.4022C62.8173 50.2719 62.8173 50.1419 62.8173 50.0117C62.8173 42.3547 62.8173 34.6979 62.8173 27.0409C62.8173 25.1641 62.816 23.2871 62.8196 21.4103C62.8199 21.2307 62.807 21.1242 62.5722 21.1244C56.1695 21.1297 49.7668 21.1281 43.3642 21.123C43.1772 21.1229 43.1002 21.1647 43.1014 21.3695C43.1092 22.7027 43.1084 24.0358 43.1019 25.369C43.1011 25.5572 43.1723 25.6167 43.3479 25.61C43.6806 25.5978 44.0138 25.5917 44.3468 25.5893C47.0565 25.5709 49.7661 25.5515 52.4759 25.5376C54.3264 25.5281 56.177 25.5262 58.0276 25.5232C58.4375 25.5225 58.4159 25.4682 58.416 25.898C58.4177 29.9149 58.4196 33.932 58.4205 37.949C58.4211 41.2993 58.4228 44.6499 58.4157 48.0002C58.4152 48.2304 58.4793 48.3074 58.7103 48.302C59.2713 48.2884 59.8332 48.2877 60.394 48.3032C60.5183 48.3066 60.6685 48.3683 60.7581 48.4541C61.2646 48.9395 61.7593 49.4376 62.2513 49.9377C62.4153 50.1045 62.56 50.2903 62.7135 50.4673ZM57.5368 70.6731C57.5681 70.6291 57.5995 70.5852 57.6308 70.5412C57.5392 70.4882 57.4309 70.452 57.3587 70.3799C54.2131 67.2379 51.0719 64.0916 47.9245 60.9515C47.7676 60.7949 47.7084 60.6394 47.7089 60.4216C47.7151 57.5015 47.7101 54.5814 47.7179 51.6613C47.7186 51.4114 47.6527 51.3319 47.3953 51.3348C46.2291 51.348 45.0627 51.3404 43.8965 51.3404C43.529 51.3404 43.5283 51.3407 43.5283 51.7132C43.5281 55.2647 43.5319 58.8161 43.5215 62.3676C43.5206 62.6653 43.6097 62.8713 43.8176 63.0784C46.2837 65.5357 48.7425 68 51.1985 70.4674C51.3463 70.6158 51.4943 70.6811 51.7044 70.6803C53.5634 70.6723 55.4225 70.6741 57.2816 70.673C57.3665 70.6731 57.4516 70.6731 57.5368 70.6731ZM35.8883 32.9556C36.0311 32.9556 36.1265 32.9556 36.2217 32.9556C37.3971 32.9557 38.5725 32.9481 39.7475 32.9619C40.0079 32.9649 40.0906 32.9035 40.0897 32.6298C40.0804 29.0162 40.0822 25.4026 40.0872 21.7889C40.0875 21.5979 40.0311 21.4613 39.8964 21.3269C37.3823 18.8173 34.8734 16.3027 32.3567 13.796C32.2634 13.7032 32.1019 13.631 31.9717 13.6303C30.0684 13.6209 28.1651 13.6254 26.2619 13.6279C26.1924 13.6281 26.123 13.6436 26.0076 13.6573C26.1138 13.769 26.1779 13.8391 26.2449 13.9062C29.3695 17.0334 32.4926 20.1617 35.6228 23.2832C35.811 23.4709 35.8951 23.6543 35.8943 23.9238C35.8849 26.8094 35.8885 29.6951 35.8885 32.5807C35.8883 32.6926 35.8883 32.8046 35.8883 32.9556ZM50.96 32.9559C50.96 33.1215 50.96 33.2432 50.96 33.3649C50.96 35.6803 50.9634 37.9959 50.9553 40.3113C50.9544 40.5597 51.0205 40.6435 51.2789 40.6409C52.5419 40.6282 53.805 40.6266 55.0677 40.6402C55.3355 40.6431 55.3866 40.5447 55.3863 40.305C55.3807 36.5074 55.3826 32.7096 55.3821 28.9119C55.3821 28.5646 55.3797 28.5607 55.0307 28.5633C53.637 28.573 52.2435 28.5866 50.8499 28.5964C48.3684 28.6141 45.8867 28.6342 43.4052 28.6415C43.1541 28.6421 43.0989 28.7248 43.1007 28.9572C43.1103 30.1849 43.1123 31.413 43.0994 32.6407C43.0967 32.8967 43.1733 32.9622 43.4237 32.9613C45.8182 32.9523 48.2125 32.9559 50.6069 32.9559C50.7101 32.9559 50.8135 32.9559 50.96 32.9559ZM34.3408 55.6992C34.3408 55.6825 34.3408 55.6657 34.3408 55.649C36.287 55.649 38.233 55.6456 40.179 55.6533C40.4251 55.6543 40.5115 55.586 40.5089 55.3281C40.4965 54.1093 40.4958 52.8904 40.5093 51.6717C40.5122 51.406 40.438 51.3334 40.1706 51.3346C37.7857 51.3455 35.4006 51.3414 33.0155 51.3417C32.6422 51.3417 32.6415 51.3416 32.6413 50.9764C32.641 48.6704 32.6413 46.3641 32.641 44.0581C32.641 43.663 32.6403 43.663 32.2359 43.6632C31.017 43.6639 29.7982 43.6644 28.5793 43.6652C28.224 43.6656 28.2232 43.6661 28.2232 44.0289C28.223 47.1417 28.223 50.2544 28.223 53.3673C28.223 54.0687 28.2273 54.7703 28.2206 55.4717C28.2188 55.6604 28.2723 55.7391 28.4768 55.7276C28.8702 55.7051 29.265 55.7012 29.6592 55.7005C31.22 55.6977 32.7804 55.6992 34.3408 55.6992ZM25.1846 32.9525C25.1846 32.8099 25.1846 32.7069 25.1846 32.6037C25.1846 31.0602 25.1807 29.5168 25.189 27.9734C25.1902 27.7621 25.1231 27.6159 24.9759 27.4691C21.1641 23.6661 17.3565 19.8591 13.5476 16.053C13.4845 15.9899 13.4177 15.9306 13.3161 15.835C13.3048 15.9656 13.2941 16.0334 13.294 16.1012C13.2931 17.9954 13.2902 19.8897 13.3004 21.7838C13.3011 21.9056 13.3737 22.0548 13.4611 22.1436C14.3713 23.0687 15.2913 23.9843 16.2086 24.9023C18.8244 27.5201 21.4398 30.1382 24.0584 32.7534C24.1405 32.8354 24.2483 32.9324 24.3525 32.9435C24.6117 32.9709 24.8757 32.9525 25.1846 32.9525ZM58.4205 51.3431C58.4205 51.482 58.4205 51.5848 58.4205 51.6877C58.4205 53.2226 58.4254 54.7577 58.4152 56.2927C58.4137 56.5239 58.4878 56.6828 58.6476 56.8421C62.4551 60.6387 66.2583 64.4394 70.0626 68.2392C70.1263 68.303 70.1925 68.3642 70.2931 68.4609C70.3045 68.3322 70.3157 68.2646 70.3157 68.1969C70.3167 66.3023 70.32 64.4076 70.3087 62.5131C70.3081 62.3855 70.2237 62.2301 70.1301 62.1354C68.8721 60.8629 67.6052 59.5992 66.3409 58.333C64.0787 56.0676 61.8171 53.8015 59.5522 51.5388C59.4704 51.457 59.3609 51.363 59.2564 51.3521C58.9968 51.3251 58.7326 51.3431 58.4205 51.3431ZM13.3149 40.6525C14.7753 40.6525 16.2141 40.6525 17.6589 40.6525C17.6589 39.0978 17.6589 37.5687 17.6589 36.0346C16.1982 36.0346 14.7587 36.0346 13.3149 36.0346C13.3149 37.5889 13.3149 39.1184 13.3149 40.6525ZM70.2946 43.7434C68.8386 43.7434 67.4046 43.7434 65.9555 43.7434C65.9555 45.2581 65.9555 46.7538 65.9555 48.2605C67.4096 48.2605 68.8493 48.2605 70.2946 48.2605C70.2946 46.7397 70.2946 45.2449 70.2946 43.7434ZM70.2948 51.3637C68.8333 51.3637 67.3997 51.3637 65.9404 51.3637C65.9404 52.0464 65.9311 52.7111 65.9481 53.3753C65.9516 53.5143 66.0176 53.6857 66.1142 53.7835C67.4277 55.111 68.7517 56.4283 70.0735 57.7479C70.1341 57.8085 70.1989 57.8652 70.2948 57.9544C70.2948 55.7352 70.2948 53.5587 70.2948 51.3637ZM13.4046 26.374C13.3742 26.391 13.3438 26.4078 13.3133 26.4248C13.3133 28.5922 13.3133 30.7595 13.3133 32.9304C14.7733 32.9304 16.2134 32.9304 17.6798 32.9304C17.6798 32.2618 17.6907 31.6139 17.6715 30.9671C17.667 30.8204 17.5939 30.6412 17.4914 30.5373C16.179 29.2094 14.8549 27.893 13.536 26.5714C13.481 26.5166 13.4478 26.4403 13.4046 26.374Z" fill="white"/>
</svg>
