<svg width="36" height="26" viewBox="0 0 36 26" fill="none" xmlns="http://www.w3.org/2000/svg">
<path d="M20.831 8.0953C21.3912 7.51994 21.8875 7.00994 22.3192 6.56656C22.7496 6.12434 23.16 5.73585 23.5482 5.40353C23.9364 5.07108 24.3246 4.72859 24.713 4.37334C25.575 3.62073 26.2867 3.08894 26.8478 2.77841C27.4076 2.46888 27.9474 2.31325 28.4651 2.31325C29.1977 2.31325 29.856 2.59068 30.4381 3.14397C31.0203 3.6984 31.3113 4.33007 31.3113 5.03812C31.3113 5.56976 31.171 6.11287 30.8909 6.66644C30.61 7.22102 30.1036 7.98524 29.3705 8.95911C26.0066 13.4784 24.3246 16.4026 24.3246 17.7317C24.3246 18.3081 24.6047 18.5958 25.1655 18.5958C25.5962 18.5958 26.0714 18.4077 26.589 18.0306C27.1063 17.6549 27.7746 17.0006 28.5944 16.0703C29.0249 15.5832 29.5537 14.9184 30.1792 14.0765C30.8041 13.2352 31.3539 12.4598 31.829 11.7505C32.3033 11.0421 32.7024 10.5541 33.0259 10.2885C33.3493 10.0225 33.7264 9.88971 34.158 9.88971C34.5888 9.88971 34.9556 10.0453 35.2576 10.3546C35.5591 10.6651 35.7106 11.0421 35.7106 11.4846C35.7106 12.3268 35.3327 13.4453 34.5784 14.8408C33.8235 16.2364 32.8417 17.6652 31.6348 19.1273C30.1248 20.9881 28.5832 22.4285 27.0095 23.447C25.4346 24.466 24.0011 24.9758 22.7075 24.9758C21.4993 24.9758 20.5078 24.5654 19.7313 23.7463C18.9549 22.9269 18.567 21.875 18.567 20.5896C18.567 19.9248 18.6206 19.2935 18.7287 18.6954C18.8359 18.0971 18.9975 17.4773 19.2137 16.8345C19.4291 16.1927 19.7313 15.5055 20.1196 14.7743C20.5078 14.0431 21.003 13.2352 21.6074 12.3486C21.65 12.2603 21.7582 12.0828 21.931 11.817C20.8088 12.7039 19.6991 13.8219 18.5992 15.1732C17.4996 16.525 16.3886 18.2635 15.2675 20.3901C14.4476 21.8085 13.8221 22.7494 13.3913 23.2145C12.9597 23.6798 12.4211 23.9123 11.7742 23.9123C11.0837 23.9123 10.5126 23.6581 10.0596 23.1482C9.6067 22.6392 9.38044 22.0078 9.38044 21.2539C9.38044 20.7671 9.43387 20.2903 9.54198 19.825C9.64925 19.36 9.87593 18.7286 10.2216 17.9312C10.4366 17.3111 10.7167 16.6352 11.0625 15.9039C11.4072 15.1732 11.7094 14.608 11.9682 14.2095L13.1973 12.0163C13.2832 11.928 13.4127 11.7068 13.5855 11.3517C12.7222 12.061 11.8813 12.8698 11.0625 13.7773C10.2425 14.686 9.45521 15.6278 8.70124 16.6021C7.94602 17.5769 7.27798 18.5624 6.69573 19.5594C6.11334 20.5562 5.62818 21.5197 5.24011 22.4503C4.72244 23.691 4.25946 24.5209 3.84907 24.9425C3.43993 25.363 2.91097 25.5737 2.26399 25.5737C1.6173 25.5737 1.07843 25.3079 0.646696 24.7764C0.216356 24.2447 0 23.5582 0 22.7161C0 21.0329 0.798327 18.1305 2.39345 14.01C3.29932 11.6622 4.2808 9.49076 5.33692 7.49716C6.39345 5.50341 7.43965 3.79828 8.47456 2.3796C9.07816 1.58227 9.59582 1.01724 10.0274 0.68521C10.4579 0.352752 10.933 0.186523 11.4507 0.186523C12.0107 0.186523 12.4959 0.385998 12.9063 0.784661C13.3157 1.18347 13.5208 1.67155 13.5208 2.24676C13.5208 2.69013 13.424 3.15543 13.2298 3.64251C13.0358 4.13059 12.5715 4.97162 11.8388 6.16776C11.7094 6.3903 11.5153 6.73279 11.2565 7.1978C10.9977 7.6631 10.6743 8.25106 10.2863 8.95911L9.57448 10.4211C10.8683 8.82613 12.0004 7.47523 12.9709 6.36723C13.9412 5.26023 14.7924 4.37334 15.5263 3.709C16.2593 3.04437 16.9173 2.55715 17.4996 2.24676C18.0815 1.93752 18.6093 1.78175 19.0844 1.78175C19.688 1.78175 20.2056 1.9924 20.6372 2.41299C21.0677 2.83458 21.2839 3.3549 21.2839 3.97454C21.2839 4.37334 21.197 4.81686 21.0252 5.30394C20.8523 5.79202 20.4853 6.54478 19.9255 7.56351L18.567 10.089L18.0495 11.0858L18.8255 10.222C19.6019 9.3807 20.2703 8.67137 20.831 8.0953Z" fill="#ECF2FF"/>
</svg>
