<svg width="150" height="150" viewBox="0 0 150 150" fill="none" xmlns="http://www.w3.org/2000/svg">
<path d="M141.141 140.796C141.141 140.841 111.39 140.874 74.7 140.874C38.01 140.874 8.25 140.841 8.25 140.796C8.25 140.751 37.995 140.718 74.7 140.718C111.405 140.718 141.141 140.754 141.141 140.796Z" fill="#263238"/>
<path d="M118.029 54.9452C115.122 56.3584 111.772 56.5591 108.717 55.5031C105.661 54.4472 103.15 52.221 101.736 49.3142C100.323 46.4068 100.122 43.0571 101.178 40.0018C102.234 36.9465 104.46 34.4356 107.367 33.0212C108.807 32.321 110.37 31.9113 111.968 31.8154C113.566 31.7194 115.167 31.9392 116.68 32.4621C118.193 32.985 119.588 33.8008 120.786 34.8629C121.983 35.925 122.96 37.2126 123.66 38.6522C124.36 40.0917 124.77 41.6551 124.866 43.253C124.962 44.8509 124.742 46.452 124.219 47.965C123.696 49.4779 122.88 50.8731 121.818 52.0708C120.756 53.2684 119.469 54.2452 118.029 54.9452Z" fill="#859ED3"/>
<path d="M109.686 46.7071C109.731 46.706 109.774 46.695 109.814 46.6749C109.854 46.6547 109.889 46.6259 109.916 46.5905C109.944 46.5551 109.963 46.5141 109.972 46.4704C109.982 46.4268 109.981 46.3815 109.971 46.3381C109.941 46.1911 109.86 45.8191 109.83 45.6661C109.788 45.4531 109.737 45.3961 109.53 45.3001C108.992 45.0529 108.565 44.616 108.33 44.0731C107.412 42.1831 108.003 39.8041 110.271 38.7031C112.278 37.7251 113.979 38.4031 114.771 40.0531C115.818 42.2101 115.749 44.4931 114.333 45.1831C114.156 45.2802 113.959 45.3346 113.758 45.3418C113.557 45.349 113.356 45.3088 113.173 45.2244C112.99 45.1401 112.83 45.0139 112.705 44.8561C112.579 44.6984 112.493 44.5134 112.452 44.3161C112.218 43.2601 112.152 42.0271 111.822 41.3431C111.522 40.7431 110.946 40.3801 110.268 40.7101C109.467 41.1001 109.227 42.2401 109.767 43.3471C109.959 43.7565 110.236 44.1204 110.58 44.4151C110.58 44.4151 111.45 48.2791 111.6 48.9571C111.9 50.3041 112.866 51.6571 112.959 51.8101C112.972 51.827 112.99 51.8399 113.01 51.8472C113.031 51.8545 113.053 51.8558 113.074 51.8511C113.095 51.8464 113.114 51.8358 113.129 51.8206C113.144 51.8053 113.155 51.7861 113.16 51.7651C113.187 51.6331 113.568 49.9951 113.319 48.6631C113.25 48.2851 112.845 46.3501 112.845 46.3501C113.346 46.7191 114.318 46.7881 115.125 46.3951C117.525 45.2251 118.095 42.2401 116.667 39.3061C115.59 37.0891 112.704 35.9371 109.851 37.3261C106.296 39.0541 105.744 42.4711 106.776 44.5951C107.4 45.8821 108.435 46.8001 109.686 46.7071Z" fill="white"/>
<path d="M130.2 89.3281C129.168 88.9346 128.224 88.3416 127.422 87.583C126.62 86.8244 125.975 85.915 125.524 84.9069C125.073 83.8987 124.826 82.8117 124.796 81.7079C124.766 80.6041 124.954 79.5052 125.349 78.4741C125.742 77.4424 126.335 76.4984 127.093 75.696C127.851 74.8935 128.76 74.2485 129.768 73.7977C130.776 73.3468 131.863 73.0991 132.966 73.0686C134.07 73.0382 135.169 73.2255 136.2 73.6201C137.232 74.0135 138.176 74.6065 138.978 75.3651C139.78 76.1238 140.425 77.0332 140.876 78.0413C141.326 79.0494 141.574 80.1364 141.604 81.2402C141.634 82.344 141.446 83.4429 141.051 84.4741C140.658 85.5057 140.065 86.4497 139.307 87.2522C138.549 88.0546 137.64 88.6997 136.632 89.1505C135.624 89.6013 134.537 89.849 133.434 89.8795C132.33 89.91 131.231 89.7226 130.2 89.3281Z" fill="#859ED3"/>
<path fill-rule="evenodd" clip-rule="evenodd" d="M137.592 82.9021C137.967 81.7993 137.902 80.5944 137.412 79.5381C136.921 78.4817 136.042 77.655 134.958 77.2301C133.873 76.8051 132.667 76.8144 131.589 77.2562C130.511 77.698 129.645 78.5382 129.171 79.6021C129.144 79.6621 129.12 79.7251 129.096 79.7851C128.802 80.5494 128.726 81.3799 128.874 82.1851L127.251 84.1441L129.879 84.2941C130.385 84.893 131.039 85.35 131.775 85.6204C132.512 85.8907 133.305 85.9651 134.079 85.8363C134.853 85.7074 135.58 85.3797 136.189 84.8854C136.798 84.391 137.268 83.7468 137.553 83.0161C137.568 82.9788 137.581 82.9408 137.592 82.9021ZM131.976 84.9211C131.28 84.6571 130.678 84.1938 130.245 83.5891L128.712 83.5021L129.657 82.3621C129.445 81.5941 129.484 80.7785 129.768 80.0341C129.813 79.9201 129.864 79.8061 129.918 79.6981C130.345 78.8515 131.073 78.1949 131.959 77.8569C132.845 77.5188 133.826 77.5236 134.708 77.8704C135.591 78.2172 136.313 78.8809 136.732 79.7317C137.151 80.5824 137.237 81.559 136.974 82.4701C136.947 82.5661 136.917 82.6591 136.881 82.7521C136.518 83.6897 135.797 84.4448 134.877 84.8514C133.958 85.2581 132.914 85.2832 131.976 84.9211Z" fill="white"/>
<path fill-rule="evenodd" clip-rule="evenodd" d="M134.94 82.9799C134.853 82.8899 134.442 82.4459 134.358 82.3799C134.274 82.3139 134.214 82.2659 134.106 82.3439C133.998 82.4219 133.707 82.5749 133.623 82.6199C133.539 82.6649 133.473 82.6499 133.389 82.5599C133.129 82.3222 132.913 82.0409 132.75 81.7289C132.604 81.4355 132.503 81.1221 132.45 80.7989C132.432 80.6729 132.504 80.6369 132.576 80.6069C132.648 80.5769 132.726 80.5259 132.801 80.4869L132.858 80.4509C132.897 80.4205 132.934 80.3875 132.969 80.3519C132.994 80.3295 133.014 80.3009 133.025 80.2688C133.036 80.2367 133.038 80.2022 133.032 80.1689C133.032 80.1089 133.011 79.5209 133.002 79.2839C132.993 79.0469 132.894 79.0469 132.834 79.0229C132.774 78.9989 132.708 78.9629 132.639 78.9389C132.586 78.9198 132.53 78.9118 132.473 78.9154C132.417 78.919 132.362 78.9342 132.312 78.9599C132.153 79.0264 132.01 79.1249 131.891 79.2493C131.773 79.3737 131.681 79.5213 131.622 79.6829C131.578 79.8017 131.551 79.9258 131.541 80.0519C131.524 80.3405 131.557 80.6299 131.64 80.9069C131.667 80.9939 131.922 82.3199 132.816 83.1359C133.71 83.9519 133.767 83.8139 133.965 83.8679C134.122 83.8985 134.284 83.8946 134.439 83.8562C134.595 83.8179 134.74 83.7461 134.865 83.6459C134.993 83.5192 135.079 83.3573 135.114 83.1809C135.081 83.1239 135.024 83.0699 134.94 82.9799Z" fill="white"/>
<path d="M20.889 50.4719C19.1887 50.4719 17.5581 49.7965 16.3558 48.5942C15.1535 47.3919 14.478 45.7612 14.478 44.0609C14.478 42.3606 15.1535 40.7299 16.3558 39.5276C17.5581 38.3253 19.1887 37.6499 20.889 37.6499C21.7309 37.6499 22.5646 37.8157 23.3424 38.1379C24.1202 38.4601 24.827 38.9323 25.4223 39.5276C26.0176 40.123 26.4898 40.8297 26.812 41.6075C27.1342 42.3853 27.3 43.219 27.3 44.0609C27.3 44.9028 27.1342 45.7365 26.812 46.5143C26.4898 47.2921 26.0176 47.9988 25.4223 48.5942C24.827 49.1895 24.1202 49.6617 23.3424 49.9839C22.5646 50.3061 21.7309 50.4719 20.889 50.4719Z" fill="#859ED3"/>
<path d="M14.411 96.822C12.7107 96.822 11.08 96.1466 9.87774 94.9443C8.67544 93.742 8 92.1113 8 90.411C8 88.7107 8.67544 87.08 9.87774 85.8777C11.08 84.6754 12.7107 84 14.411 84C15.2529 84 16.0866 84.1658 16.8644 84.488C17.6422 84.8102 18.3489 85.2824 18.9443 85.8777C19.5396 86.4731 20.0118 87.1798 20.334 87.9576C20.6562 88.7354 20.822 89.5691 20.822 90.411C20.822 91.2529 20.6562 92.0866 20.334 92.8644C20.0118 93.6422 19.5396 94.3489 18.9443 94.9443C18.3489 95.5396 17.6422 96.0118 16.8644 96.334C16.0866 96.6562 15.2529 96.822 14.411 96.822Z" fill="#859ED3"/>
<path d="M17.4749 46.1999C18.0906 46.5927 18.8023 46.8089 19.5324 46.8251C20.2625 46.8413 20.9831 46.6567 21.6156 46.2916C22.2481 45.9264 22.7682 45.3947 23.1194 44.7543C23.4705 44.114 23.6391 43.3895 23.6069 42.6599C23.8779 42.4631 24.1124 42.2204 24.2999 41.9429C24.043 42.0556 23.7712 42.1304 23.4929 42.1649C23.7862 41.9934 24.0078 41.7217 24.1169 41.3999C23.8392 41.565 23.5345 41.6798 23.2169 41.7389C23.0065 41.5087 22.7254 41.3552 22.4181 41.3025C22.1108 41.2497 21.7946 41.3008 21.5195 41.4476C21.2444 41.5945 21.026 41.8287 20.8988 42.1134C20.7716 42.3981 20.7427 42.717 20.8169 43.0199C20.2594 42.9912 19.7143 42.8458 19.2166 42.5931C18.719 42.3404 18.2799 41.986 17.9279 41.5529C17.7495 41.8619 17.6952 42.2272 17.7759 42.5747C17.8567 42.9223 18.0665 43.2262 18.3629 43.4249C18.1399 43.4191 17.9217 43.3594 17.7269 43.2509C17.7231 43.5776 17.8335 43.8953 18.0388 44.1494C18.2441 44.4035 18.5317 44.578 18.8519 44.6429C18.6455 44.6991 18.4289 44.7073 18.2189 44.6669C18.3087 44.9448 18.4829 45.1878 18.7174 45.3621C18.9519 45.5363 19.2348 45.6331 19.5269 45.6389C18.9425 46.0869 18.2059 46.2883 17.4749 46.1999Z" fill="white"/>
<path d="M32.4001 122.283C29.5529 122.959 26.5538 122.477 24.0618 120.943C21.5697 119.409 19.7887 116.948 19.1101 114.102C18.7736 112.691 18.7186 111.227 18.9482 109.794C19.1778 108.362 19.6875 106.989 20.4481 105.753C21.2087 104.518 22.2054 103.445 23.3811 102.595C24.5568 101.745 25.8885 101.135 27.3001 100.8C28.7105 100.464 30.1733 100.409 31.6049 100.638C33.0366 100.867 34.4091 101.376 35.644 102.136C36.879 102.895 37.9522 103.891 38.8024 105.065C39.6526 106.24 40.2631 107.57 40.5991 108.981C40.9354 110.393 40.99 111.857 40.7599 113.29C40.5297 114.723 40.0193 116.096 39.2577 117.332C38.4962 118.567 37.4985 119.641 36.3218 120.49C35.1451 121.34 33.8124 121.949 32.4001 122.283Z" fill="#455A64"/>
<path d="M28.7011 106.716C30.2731 106.341 30.4621 106.302 31.1011 106.182C31.475 106.098 31.8606 106.079 32.2411 106.125C32.5195 106.159 32.787 106.254 33.0241 106.404C33.2632 106.549 33.468 106.745 33.6241 106.977C33.8364 107.296 33.9926 107.649 34.0861 108.021C34.2631 108.636 34.3141 108.822 34.6861 110.394C35.0581 111.966 35.0971 112.155 35.2171 112.794C35.3026 113.168 35.3219 113.554 35.2741 113.934C35.2434 114.213 35.1479 114.481 34.9951 114.717C34.8518 114.957 34.6571 115.162 34.4251 115.317C34.1047 115.529 33.7507 115.685 33.3781 115.779C32.7781 115.956 32.5801 116.007 31.0081 116.379C29.4361 116.751 29.2471 116.793 28.6081 116.913C28.2333 116.998 27.8465 117.018 27.4651 116.97C27.1864 116.937 26.9187 116.842 26.6821 116.691C26.4452 116.541 26.2461 116.339 26.1001 116.1C25.8858 115.782 25.7285 115.428 25.6351 115.056C25.4611 114.441 25.4101 114.258 25.0351 112.686C24.6601 111.114 24.6211 110.925 24.5011 110.286C24.4187 109.911 24.3994 109.525 24.4441 109.143C24.4809 108.866 24.5759 108.599 24.7227 108.361C24.8695 108.123 25.0649 107.918 25.2961 107.76C25.6149 107.546 25.968 107.389 26.3401 107.295C26.9401 107.121 27.1411 107.07 28.7131 106.695L28.7011 106.716ZM28.4611 105.633C26.8621 106.014 26.6611 106.068 26.0401 106.248C25.5541 106.369 25.0925 106.572 24.6751 106.848C24.3209 107.093 24.0215 107.409 23.7958 107.775C23.5702 108.142 23.4231 108.552 23.3641 108.978C23.301 109.478 23.3234 109.985 23.4301 110.478C23.5531 111.111 23.5921 111.315 23.9731 112.914C24.3541 114.513 24.4081 114.714 24.5731 115.332C24.6931 115.818 24.896 116.28 25.1731 116.697C25.4172 117.064 25.74 117.373 26.1181 117.6C26.4819 117.829 26.8915 117.976 27.3181 118.029C27.8182 118.092 28.3254 118.07 28.8181 117.963C29.4511 117.843 29.6551 117.801 31.2541 117.42C32.8531 117.039 33.0541 116.985 33.6721 116.82C34.1573 116.697 34.6186 116.495 35.0371 116.22C35.3949 115.979 35.6958 115.662 35.9191 115.293C36.1468 114.928 36.2941 114.519 36.3511 114.093C36.4131 113.593 36.3898 113.086 36.2821 112.593C36.1621 111.957 36.1201 111.756 35.7391 110.157C35.3581 108.558 35.3041 108.357 35.1391 107.736C35.0158 107.251 34.8131 106.79 34.5391 106.371C34.2976 106.014 33.9813 105.714 33.6121 105.492C33.2488 105.261 32.839 105.114 32.4121 105.06C31.9119 104.997 31.4047 105.019 30.9121 105.126C30.2761 105.249 30.0751 105.288 28.4761 105.669" fill="white"/>
<path d="M29.13 108.519C28.5321 108.662 27.9899 108.978 27.5719 109.429C27.1538 109.879 26.8788 110.444 26.7816 111.051C26.6843 111.658 26.7692 112.28 27.0255 112.838C27.2819 113.397 27.6981 113.867 28.2215 114.189C28.745 114.512 29.3523 114.671 29.9665 114.648C30.5807 114.625 31.1744 114.421 31.6723 114.06C32.1703 113.7 32.5503 113.2 32.7642 112.624C32.9781 112.048 33.0163 111.421 32.874 110.823C32.6825 110.021 32.1806 109.329 31.4787 108.897C30.7767 108.465 29.932 108.329 29.13 108.519ZM30.33 113.508C29.9416 113.6 29.5346 113.574 29.1607 113.435C28.7867 113.295 28.4624 113.048 28.2288 112.725C27.9953 112.401 27.8629 112.015 27.8484 111.616C27.8339 111.218 27.9379 110.823 28.1474 110.484C28.3569 110.144 28.6624 109.874 29.0252 109.708C29.3881 109.541 29.7921 109.486 30.1862 109.55C30.5803 109.613 30.9468 109.792 31.2394 110.063C31.532 110.335 31.7375 110.687 31.83 111.075C31.8916 111.333 31.9016 111.601 31.8595 111.863C31.8174 112.125 31.724 112.377 31.5847 112.603C31.4453 112.829 31.2628 113.025 31.0475 113.18C30.8322 113.336 30.5884 113.447 30.33 113.508Z" fill="white"/>
<path d="M32.9521 107.484C32.9849 107.624 32.9756 107.77 32.9253 107.904C32.8751 108.039 32.7862 108.155 32.6698 108.239C32.5534 108.323 32.4148 108.37 32.2715 108.376C32.1281 108.381 31.9864 108.343 31.8643 108.268C31.7422 108.193 31.6451 108.083 31.5853 107.953C31.5256 107.822 31.5057 107.677 31.5284 107.535C31.551 107.394 31.6152 107.262 31.7126 107.157C31.8101 107.051 31.9366 106.977 32.0761 106.944C32.1691 106.921 32.2656 106.917 32.3602 106.932C32.4548 106.947 32.5454 106.981 32.6269 107.031C32.7084 107.081 32.7791 107.147 32.8349 107.225C32.8907 107.303 32.9306 107.391 32.9521 107.484Z" fill="white"/>
<path d="M116.043 112.566C115.367 112.566 114.697 112.434 114.072 112.175C113.447 111.916 112.879 111.537 112.401 111.059C111.923 110.581 111.543 110.014 111.284 109.389C111.025 108.764 110.892 108.094 110.892 107.418C110.892 106.742 111.025 106.072 111.284 105.447C111.543 104.823 111.923 104.255 112.401 103.777C112.879 103.299 113.447 102.92 114.072 102.661C114.697 102.403 115.367 102.27 116.043 102.27C116.72 102.269 117.39 102.401 118.016 102.659C118.642 102.917 119.21 103.297 119.689 103.775C120.168 104.253 120.548 104.821 120.807 105.446C121.067 106.071 121.2 106.741 121.2 107.418C121.2 108.095 121.067 108.765 120.807 109.39C120.548 110.015 120.168 110.583 119.689 111.061C119.21 111.54 118.642 111.919 118.016 112.177C117.39 112.435 116.72 112.567 116.043 112.566Z" fill="#455A64"/>
<path d="M124.151 70.296C123.475 70.2964 122.805 70.1635 122.18 69.905C121.555 69.6465 120.987 69.2673 120.509 68.7893C120.031 68.3112 119.651 67.7435 119.392 67.1188C119.133 66.494 119 65.8243 119 65.148C119 64.4717 119.133 63.802 119.392 63.1773C119.651 62.5525 120.031 61.9848 120.509 61.5068C120.987 61.0287 121.555 60.6496 122.18 60.391C122.805 60.1325 123.475 59.9996 124.151 60C124.828 59.9988 125.498 60.1311 126.124 60.3893C126.749 60.6475 127.318 61.0265 127.797 61.5046C128.276 61.9828 128.656 62.5507 128.915 63.1759C129.175 63.801 129.308 64.4712 129.308 65.148C129.308 65.8248 129.175 66.495 128.915 67.1201C128.656 67.7453 128.276 68.3132 127.797 68.7914C127.318 69.2695 126.749 69.6485 126.124 69.9067C125.498 70.1649 124.828 70.2972 124.151 70.296Z" fill="#455A64"/>
<g clip-path="url(#clip0)">
<path d="M122.195 66.7467L122.837 66.8518C122.925 66.8663 123.009 66.8063 123.023 66.7178L123.482 63.9139C123.497 63.8254 123.437 63.742 123.348 63.7275L122.707 63.6224C122.618 63.6079 122.535 63.6679 122.52 63.7564L122.061 66.5603C122.047 66.6487 122.107 66.7322 122.195 66.7467Z" fill="#ECF2FF"/>
<path d="M122.788 63.1297L123.429 63.2347C123.518 63.2492 123.601 63.1892 123.616 63.1007L123.709 62.5311C123.723 62.4426 123.663 62.3591 123.575 62.3447L122.933 62.2396C122.845 62.2251 122.761 62.2851 122.747 62.3736L122.654 62.9432C122.639 63.0317 122.699 63.1152 122.788 63.1297Z" fill="#ECF2FF"/>
<path d="M127.186 64.6903C127.116 64.5569 126.999 64.4375 126.835 64.3323C126.672 64.227 126.485 64.157 126.272 64.1223C125.841 64.0517 125.449 64.1564 125.096 64.4363C125.026 64.492 124.985 64.4706 124.999 64.3821L125.034 64.1685C125.049 64.08 124.989 63.9965 124.9 63.982L124.327 63.8882C124.239 63.8737 124.155 63.9337 124.141 64.0222L123.682 66.826C123.667 66.9145 123.727 66.998 123.816 67.0125L124.457 67.1175C124.546 67.132 124.629 67.072 124.644 66.9835L124.803 66.0084C124.87 65.6022 124.94 65.3278 125.014 65.1852C125.088 65.0426 125.198 64.9365 125.345 64.8669C125.493 64.7973 125.65 64.7761 125.816 64.8034C125.946 64.8247 126.052 64.8749 126.134 64.9539C126.216 65.033 126.268 65.1334 126.291 65.2554C126.313 65.3774 126.292 65.6347 126.228 66.0272L126.034 67.2111C126.019 67.2996 126.079 67.3831 126.168 67.3976L126.809 67.5026C126.898 67.5171 126.981 67.4571 126.996 67.3686L127.256 65.7808C127.302 65.5001 127.319 65.2815 127.309 65.1251C127.298 64.9687 127.257 64.8237 127.186 64.6903Z" fill="#ECF2FF"/>
</g>
<path d="M16.9959 35C16.0774 35.0005 15.1678 34.8199 14.319 34.4683C13.4702 34.1168 12.699 33.6012 12.0493 32.9512C11.3996 32.3011 10.8842 31.5293 10.5326 30.6797C10.181 29.8302 10 28.9196 10 28C10 27.0804 10.181 26.1698 10.5326 25.3203C10.8842 24.4707 11.3996 23.6989 12.0493 23.0488C12.699 22.3988 13.4702 21.8832 14.319 21.5317C15.1678 21.1801 16.0774 20.9995 16.9959 21C17.9151 20.9984 18.8256 21.1783 19.6753 21.5293C20.525 21.8804 21.2973 22.3958 21.9478 23.0459C22.5984 23.6961 23.1145 24.4683 23.4666 25.3184C23.8188 26.1685 24 27.0797 24 28C24 28.9203 23.8188 29.8315 23.4666 30.6816C23.1145 31.5317 22.5984 32.3039 21.9478 32.9541C21.2973 33.6042 20.525 34.1196 19.6753 34.4707C18.8256 34.8217 17.9151 35.0016 16.9959 35Z" fill="#455A64"/>
<path d="M37.9959 28C37.0774 28.0005 36.1678 27.8199 35.319 27.4683C34.4702 27.1168 33.699 26.6012 33.0493 25.9512C32.3996 25.3011 31.8842 24.5293 31.5326 23.6797C31.181 22.8302 31 21.9196 31 21C31 20.0804 31.181 19.1698 31.5326 18.3203C31.8842 17.4707 32.3996 16.6989 33.0493 16.0488C33.699 15.3988 34.4702 14.8832 35.319 14.5317C36.1678 14.1801 37.0774 13.9995 37.9959 14C38.9151 13.9984 39.8256 14.1783 40.6753 14.5293C41.525 14.8804 42.2973 15.3958 42.9478 16.0459C43.5984 16.6961 44.1145 17.4683 44.4666 18.3184C44.8188 19.1685 45 20.0797 45 21C45 21.9203 44.8188 22.8315 44.4666 23.6816C44.1145 24.5317 43.5984 25.3039 42.9478 25.9541C42.2973 26.6042 41.525 27.1196 40.6753 27.4707C39.8256 27.8217 38.9151 28.0016 37.9959 28Z" fill="#859ED3"/>
<path d="M130.151 124.296C129.475 124.296 128.805 124.164 128.18 123.905C127.555 123.646 126.987 123.267 126.509 122.789C126.031 122.311 125.651 121.744 125.392 121.119C125.133 120.494 125 119.824 125 119.148C125 118.472 125.133 117.802 125.392 117.177C125.651 116.552 126.031 115.985 126.509 115.507C126.987 115.029 127.555 114.65 128.18 114.391C128.805 114.132 129.475 114 130.151 114C130.828 113.999 131.498 114.131 132.124 114.389C132.749 114.647 133.318 115.026 133.797 115.505C134.276 115.983 134.656 116.551 134.915 117.176C135.175 117.801 135.308 118.471 135.308 119.148C135.308 119.825 135.175 120.495 134.915 121.12C134.656 121.745 134.276 122.313 133.797 122.791C133.318 123.27 132.749 123.649 132.124 123.907C131.498 124.165 130.828 124.297 130.151 124.296Z" fill="#455A64"/>
<g clip-path="url(#clip1)">
<path d="M37.2306 18.2436C36.9461 19.0719 36.677 19.8564 36.4071 20.641C36.1207 21.474 35.8325 22.3066 35.5502 23.141C35.5164 23.2409 35.4676 23.2866 35.3568 23.2996C35.0405 23.3367 34.725 23.385 34.3741 23.4338C35.2313 20.9641 36.0804 18.5192 36.943 16.0341C38.4058 18.1913 39.8495 20.3197 41.3073 22.4694C40.9342 22.5213 40.5904 22.5742 40.245 22.6112C40.197 22.6165 40.1237 22.5561 40.0912 22.508C39.3358 21.3867 38.5846 20.2627 37.8325 19.1392C37.6407 18.8529 37.448 18.567 37.2306 18.2436Z" fill="white"/>
<path d="M38.8472 22.8265C38.6211 23.5289 38.3983 24.2206 38.1632 24.9512C37.7257 24.3174 37.312 23.7179 36.8848 23.0991C37.5469 23.0071 38.1847 22.9185 38.8472 22.8265Z" fill="white"/>
</g>
<path d="M115.257 110.529H116.511V107.4H117.384L117.48 106.35H116.511V105.75C116.511 105.504 116.562 105.405 116.811 105.405H117.492V104.313H116.622C115.689 104.313 115.269 104.724 115.269 105.513V106.353H114.6V107.4H115.251L115.257 110.529Z" fill="white"/>
<path d="M98.481 141.015L57.114 141C54.7271 141 52.4379 140.052 50.7501 138.364C49.0622 136.676 48.114 134.387 48.114 132L48.132 28.2959C48.132 27.1125 48.3654 25.9407 48.8188 24.8476C49.2722 23.7545 49.9368 22.7615 50.7744 21.9256C51.612 21.0896 52.6063 20.4271 53.7003 19.9758C54.7943 19.5246 55.9666 19.2935 57.15 19.2959L98.514 19.3199C100.901 19.3199 103.19 20.2681 104.878 21.956C106.566 23.6438 107.514 25.933 107.514 28.3199L107.496 132C107.498 133.184 107.266 134.357 106.814 135.452C106.361 136.547 105.698 137.541 104.86 138.379C104.022 139.216 103.028 139.88 101.933 140.333C100.839 140.785 99.6654 141.017 98.481 141.015Z" fill="#263238"/>
<path d="M98.4692 22.9561H90.4472C89.9207 22.9687 89.4205 23.189 89.0558 23.5689C88.691 23.9488 88.4913 24.4575 88.5002 24.9841V26.4391C88.5061 26.7005 88.4605 26.9606 88.3658 27.2044C88.2712 27.4482 88.1294 27.671 87.9485 27.8599C87.7677 28.0488 87.5513 28.2002 87.3119 28.3054C87.0725 28.4107 86.8146 28.4676 86.5532 28.4731H70.9202C70.6585 28.4672 70.4007 28.4099 70.1612 28.3044C69.9218 28.1988 69.7054 28.0471 69.5246 27.858C69.3438 27.6688 69.2021 27.4459 69.1074 27.2019C69.0128 26.9579 68.9672 26.6977 68.9732 26.4361V24.9721C68.9836 24.4442 68.7847 23.9336 68.4199 23.5519C68.0551 23.1702 67.554 22.9485 67.0262 22.9351H64.2002H57.1832C56.3546 22.9331 55.5337 23.0946 54.7677 23.4103C54.0016 23.726 53.3053 24.1898 52.7187 24.775C52.1321 25.3602 51.6667 26.0554 51.3492 26.8207C51.0316 27.586 50.8682 28.4065 50.8682 29.2351L50.8472 130.458C50.8472 132.129 51.5109 133.731 52.6924 134.913C53.8739 136.094 55.4763 136.758 57.1472 136.758L98.4332 136.782C99.2605 136.782 100.08 136.619 100.844 136.303C101.608 135.986 102.303 135.522 102.888 134.937C103.473 134.352 103.937 133.657 104.254 132.893C104.57 132.129 104.733 131.309 104.733 130.482L104.754 29.2561C104.754 27.5878 104.092 25.9876 102.914 24.8066C101.736 23.6256 100.137 22.96 98.4692 22.9561Z" fill="white"/>
<path d="M99.0718 31.179C99.0718 31.206 98.0278 31.236 96.7438 31.245C95.4598 31.254 94.4128 31.245 94.4128 31.218C94.4128 31.191 95.4538 31.158 96.7408 31.149C98.0278 31.14 99.0718 31.152 99.0718 31.179Z" fill="#263238"/>
<path d="M99.0809 32.3701C99.0809 32.3971 98.0399 32.4271 96.7529 32.4391C95.4659 32.4511 94.4219 32.4391 94.4219 32.4091C94.4219 32.3791 95.4659 32.3521 96.7529 32.3401C98.0399 32.3281 99.0809 32.3431 99.0809 32.3701Z" fill="#263238"/>
<path d="M99.0932 33.561C99.0932 33.588 98.0492 33.621 96.7622 33.63C95.4752 33.639 94.4342 33.63 94.4312 33.6C94.4282 33.57 95.4752 33.543 96.7622 33.531C98.0492 33.519 99.0932 33.534 99.0932 33.561Z" fill="#263238"/>
<path d="M55.2 34.7251H55.323H55.662L56.916 34.6951L56.88 34.7281C56.88 34.4521 56.88 34.1491 56.865 33.8281C56.865 33.6601 56.865 33.5011 56.865 33.3061C56.8848 33.2053 56.9362 33.1134 57.0117 33.0438C57.0872 32.9743 57.183 32.9305 57.285 32.9191C57.489 32.9191 57.666 32.9191 57.885 32.9191C57.9998 32.9376 58.1041 32.9964 58.1795 33.0849C58.2548 33.1734 58.2961 33.2859 58.296 33.4021C58.296 33.8281 58.296 34.2691 58.311 34.7281L58.254 34.6711H59.835L59.775 34.7311C59.775 34.0951 59.775 33.4351 59.757 32.7601C59.757 32.5921 59.757 32.4271 59.757 32.2591C59.7502 32.1844 59.7267 32.1122 59.6883 32.0478C59.6499 31.9835 59.5975 31.9285 59.535 31.8871L58.845 31.2031L58.176 30.5461L57.855 30.2281C57.744 30.1201 57.657 30.0091 57.528 29.9821C57.4662 29.9658 57.4015 29.9636 57.3387 29.9755C57.2759 29.9874 57.2166 30.0133 57.165 30.0511C57.069 30.1321 56.967 30.2461 56.865 30.3511L56.295 30.9241C55.938 31.2931 55.566 31.6321 55.296 31.9531C55.2159 32.1422 55.1889 32.3497 55.218 32.5531C55.218 32.7481 55.218 32.9341 55.218 33.1081C55.218 33.4501 55.218 33.7501 55.218 34.0081C55.218 34.2661 55.218 34.4251 55.218 34.5811C55.2223 34.65 55.2223 34.7191 55.218 34.7881C55.2145 34.7251 55.2145 34.662 55.218 34.5991C55.218 34.4461 55.218 34.2571 55.218 34.0321C55.218 33.8071 55.218 33.4711 55.197 33.1321C55.197 32.9521 55.197 32.7631 55.197 32.5621C55.197 32.4601 55.197 32.3581 55.197 32.2621C55.1963 32.1463 55.2263 32.0324 55.284 31.9321C55.584 31.5751 55.926 31.2571 56.286 30.8761L56.85 30.2971C56.952 30.1981 57.033 30.0991 57.15 29.9971C57.2145 29.9479 57.2894 29.914 57.3689 29.8979C57.4484 29.8818 57.5305 29.8839 57.609 29.9041C57.7584 29.9589 57.8901 30.0533 57.99 30.1771L58.314 30.4951L58.983 31.1521L59.676 31.8301C59.741 31.8883 59.8002 31.9526 59.853 32.0221C59.905 32.1017 59.934 32.1941 59.937 32.2891C59.937 32.4571 59.937 32.6251 59.937 32.7931C59.937 33.4681 59.937 34.1281 59.952 34.7641V34.8241H59.892H58.311H58.2V34.7671C58.2 34.3081 58.2 33.8671 58.2 33.4411C58.202 33.3495 58.171 33.2604 58.1126 33.1898C58.0542 33.1193 57.9723 33.0722 57.882 33.0571C57.699 33.0571 57.483 33.0571 57.306 33.0571C57.2252 33.0652 57.1489 33.0985 57.0881 33.1523C57.0272 33.2062 56.9849 33.2778 56.967 33.3571C56.967 33.5161 56.967 33.6991 56.967 33.8611C56.967 34.1881 56.967 34.4941 56.967 34.7611V34.7971H56.931H55.656H55.323C55.2796 34.7774 55.2384 34.7533 55.2 34.7251Z" fill="#263238"/>
<path d="M82.5001 113.823C82.3562 113.846 82.2107 113.856 82.0651 113.853L80.8831 113.877C79.8871 113.892 78.5071 113.901 76.9831 113.901C75.4591 113.901 74.0791 113.901 73.0831 113.877L71.9011 113.853C71.7555 113.856 71.6099 113.846 71.4661 113.823C71.6097 113.799 71.7554 113.789 71.9011 113.793L73.0831 113.766C74.0791 113.766 75.4591 113.745 76.9831 113.745C78.5071 113.745 79.8841 113.745 80.8831 113.766L82.0651 113.793C82.2107 113.789 82.3564 113.799 82.5001 113.823Z" fill="#455A64"/>
<path d="M99.8311 116.535C99.8311 116.58 93.4801 116.613 85.6471 116.613C77.8141 116.613 71.4631 116.58 71.4631 116.535C71.4631 116.49 77.8141 116.457 85.6471 116.457C93.4801 116.457 99.8311 116.493 99.8311 116.535Z" fill="#455A64"/>
<path d="M90.9661 119.1C90.9661 119.145 86.6011 119.178 81.2161 119.178C75.8311 119.178 71.4631 119.145 71.4631 119.1C71.4631 119.055 75.8281 119.022 81.2161 119.022C86.6041 119.022 90.9661 119.046 90.9661 119.1Z" fill="#455A64"/>
<path d="M100.392 124.059L99.5102 123.174L98.6702 124.011V121.479H100.389L100.392 124.059ZM99.5102 123.063L99.5372 123.09L100.314 123.87V121.56H98.7512V123.825L99.5102 123.063Z" fill="#263238"/>
<path d="M76.9229 123.729L76.6229 123.591C76.4437 123.675 76.2396 123.69 76.0504 123.631C75.8612 123.573 75.7006 123.446 75.5999 123.276C75.4992 123.105 75.4658 122.904 75.5061 122.71C75.5463 122.516 75.6575 122.344 75.8178 122.228C75.978 122.112 76.1759 122.06 76.3726 122.082C76.5694 122.103 76.7508 122.198 76.8815 122.347C77.0122 122.495 77.0827 122.688 77.0793 122.885C77.0758 123.083 76.9987 123.273 76.8629 123.417L76.9229 123.729ZM76.1999 122.043C75.9948 122.057 75.8028 122.149 75.6633 122.3C75.5237 122.451 75.4471 122.65 75.449 122.856C75.4509 123.061 75.5312 123.258 75.6736 123.407C75.8159 123.555 76.0095 123.643 76.2149 123.654C76.3519 123.645 76.4846 123.602 76.6019 123.531L76.8329 123.633L76.7789 123.408C76.8846 123.292 76.9544 123.149 76.9795 122.994C77.0047 122.839 76.9841 122.681 76.9204 122.538C76.8567 122.395 76.7526 122.273 76.6208 122.189C76.4891 122.104 76.3355 122.06 76.1789 122.061L76.1999 122.043Z" fill="#263238"/>
<path d="M78.921 123.6L78.567 122.73L77.8979 122.13H79.518L78.921 123.6ZM78.0479 122.181L78.6179 122.703L78.918 123.444L79.428 122.169L78.0479 122.181Z" fill="#263238"/>
<path d="M79.484 122.111L78.5989 122.687L78.6316 122.737L79.5167 122.161L79.484 122.111Z" fill="#263238"/>
<path d="M74.37 122.298C74.3461 122.182 74.2821 122.078 74.1892 122.005C74.0964 121.932 73.9807 121.894 73.8626 121.898C73.7444 121.902 73.6315 121.948 73.5438 122.027C73.456 122.106 73.3991 122.214 73.383 122.331C73.3668 122.212 73.3088 122.103 73.2194 122.024C73.1301 121.945 73.0152 121.9 72.8957 121.898C72.7761 121.895 72.6597 121.936 72.5675 122.012C72.4754 122.088 72.4134 122.195 72.393 122.313C72.3699 122.485 72.4139 122.66 72.516 122.802C72.6173 122.941 72.7363 123.066 72.87 123.174C73.053 123.333 73.218 123.474 73.398 123.642C73.578 123.48 73.728 123.327 73.908 123.165C74.0399 123.054 74.1569 122.927 74.256 122.787C74.3563 122.645 74.3972 122.469 74.37 122.298Z" fill="#859ED3"/>
<path d="M102.198 126.3C102.198 126.3 102.198 126.201 102.198 126.018C102.198 125.835 102.198 125.556 102.198 125.196C102.198 124.473 102.198 123.396 102.183 122.028C102.183 119.271 102.168 115.26 102.156 110.229L102.207 110.28L54.234 110.307L54.312 110.229C54.312 115.815 54.312 121.23 54.312 126.3L54.237 126.225L88.566 126.258L98.586 126.279H101.286H101.982H102.222H101.991H101.304H98.631L88.626 126.3L54.246 126.336H54.168V126.3C54.168 121.23 54.168 115.815 54.168 110.229V110.151H54.252L102.225 110.178H102.276V110.229C102.276 115.272 102.255 119.295 102.249 122.061C102.249 123.435 102.249 124.494 102.249 125.217C102.249 125.571 102.249 125.841 102.249 126.027C102.249 126.213 102.198 126.3 102.198 126.3Z" fill="#263238"/>
<path d="M56.2206 112.916L56.1594 123.542L69.4492 123.618L69.5104 112.992L56.2206 112.916Z" fill="#EBEBEB"/>
<path d="M69.5069 112.986H69.2519H68.5259H65.7989L56.1989 112.965L56.2709 112.896C56.2559 116.061 56.2379 119.685 56.2199 123.519C56.2349 123.54 56.0729 123.372 56.1419 123.441H57.0569H57.9569H59.7569L63.2069 123.462L69.4289 123.507L69.3659 123.573C69.3959 120.381 69.4229 117.735 69.4439 115.875C69.4439 114.951 69.4649 114.225 69.4709 113.718C69.4709 113.475 69.4709 113.286 69.4709 113.148C69.4709 113.01 69.4709 112.947 69.4709 112.947C69.4709 112.947 69.4709 113.007 69.4709 113.133C69.4709 113.259 69.4709 113.454 69.4709 113.694C69.4709 114.195 69.4709 114.918 69.4709 115.836C69.4709 117.705 69.4709 120.366 69.4709 123.573V123.636H69.4049L63.1829 123.612L59.7329 123.594H57.9329H57.0329H56.1179L56.0369 123.513C56.0639 119.676 56.0849 116.052 56.1059 112.89V112.818H56.1779L65.8079 112.905L68.5079 112.941H69.2189H69.3989L69.5069 112.986Z" fill="#263238"/>
<path d="M56.6756 113.588L56.6221 122.875L68.9789 122.947L69.0324 113.659L56.6756 113.588Z" fill="#E0E0E0"/>
<path d="M56.616 122.868L60.966 117.12L63.618 120.747L65.442 118.827L68.973 122.94L56.616 122.868Z" fill="#F5F5F5"/>
<path d="M64.7789 116.436C64.7783 116.629 64.7204 116.817 64.6127 116.978C64.5049 117.138 64.3521 117.262 64.1735 117.335C63.9949 117.408 63.7987 117.427 63.6096 117.388C63.4205 117.35 63.2471 117.256 63.1113 117.119C62.9754 116.982 62.8834 116.808 62.8467 116.618C62.81 116.429 62.8303 116.233 62.9051 116.055C62.9799 115.877 63.1058 115.726 63.2669 115.619C63.4279 115.513 63.6169 115.457 63.8099 115.458C63.9378 115.458 64.0643 115.484 64.1823 115.533C64.3003 115.583 64.4073 115.655 64.4974 115.746C64.5874 115.837 64.6586 115.944 64.7069 116.063C64.7552 116.181 64.7796 116.308 64.7789 116.436Z" fill="#F5F5F5"/>
<path d="M78.6268 44.061C78.5792 44.0691 78.5305 44.0691 78.4828 44.061L78.0778 44.076L76.5778 44.103C75.3148 44.103 73.5778 44.124 71.6398 44.124C69.7018 44.124 67.9648 44.124 66.7018 44.103L65.2018 44.076L64.7938 44.061C64.7472 44.0694 64.6995 44.0694 64.6528 44.061C64.6989 44.0497 64.7464 44.0446 64.7938 44.046H65.2018L66.7018 44.022C67.9648 44.007 69.7018 43.998 71.6398 43.998C73.5778 43.998 75.3148 43.998 76.5778 44.022L78.0778 44.046H78.4828C78.5313 44.0448 78.5797 44.0498 78.6268 44.061Z" fill="#263238"/>
<path d="M98.2592 102.795L96.9512 101.481L95.7002 102.726V98.9639H98.2562L98.2592 102.795ZM96.9512 101.319L96.9902 101.358L98.1452 102.516V99.0839H95.8172V102.45L96.9512 101.319Z" fill="#263238"/>
<path d="M65.0011 102.399L64.4011 102.126C64.0517 102.289 63.6542 102.315 63.2865 102.2C62.9187 102.085 62.607 101.837 62.4123 101.504C62.2177 101.172 62.1541 100.779 62.2339 100.402C62.3137 100.025 62.5313 99.6912 62.844 99.4661C63.1568 99.241 63.5422 99.1406 63.925 99.1846C64.3078 99.2286 64.6605 99.4137 64.914 99.7039C65.1675 99.9941 65.3037 100.368 65.296 100.754C65.2882 101.139 65.1371 101.507 64.8721 101.787L65.0011 102.399ZM63.5701 99.0841C63.3621 99.0859 63.1564 99.1286 62.9649 99.2098C62.7734 99.2911 62.5998 99.4093 62.454 99.5576C62.3081 99.7059 62.1929 99.8815 62.115 100.074C62.037 100.267 61.9978 100.474 61.9996 100.682C62.0013 100.89 62.0441 101.095 62.1253 101.287C62.2066 101.478 62.3247 101.652 62.4731 101.798C62.6214 101.944 62.797 102.059 62.9899 102.137C63.1827 102.215 63.3891 102.254 63.5971 102.252C63.8669 102.236 64.1286 102.153 64.3591 102.012L64.3861 101.997L64.8361 102.198L64.7341 101.754L64.7551 101.733C64.9635 101.506 65.1008 101.222 65.1501 100.918C65.1994 100.613 65.1586 100.301 65.0326 100.019C64.9067 99.7378 64.7011 99.4992 64.4412 99.333C64.1813 99.1669 63.8785 99.0803 63.5701 99.0841Z" fill="#263238"/>
<path d="M68.9371 102.138L68.2351 100.425L66.9211 99.2247L70.1131 99.2007L68.9371 102.138ZM67.2181 99.3387L68.3401 100.368L68.9401 101.826L69.9421 99.3177L67.2181 99.3387Z" fill="#263238"/>
<path d="M70.0497 99.1954L68.3096 100.328L68.3734 100.426L70.1135 99.2935L70.0497 99.1954Z" fill="#263238"/>
<path d="M59.9789 99.5997C59.9336 99.37 59.8081 99.1639 59.6249 99.0182C59.4416 98.8725 59.2126 98.7967 58.9786 98.8042C58.7446 98.8118 58.521 98.9023 58.3475 99.0595C58.1741 99.2168 58.0622 99.4306 58.0319 99.6627C57.9975 99.4315 57.8821 99.2201 57.7064 99.066C57.5307 98.9119 57.306 98.8251 57.0724 98.8211C56.8387 98.8172 56.6112 98.8963 56.4303 99.0443C56.2495 99.1924 56.1271 99.3998 56.0849 99.6297C56.0398 99.969 56.1268 100.313 56.3279 100.59C56.5292 100.863 56.764 101.11 57.0269 101.325C57.3839 101.625 57.7109 101.925 58.0679 102.246C58.4159 101.928 58.7159 101.628 59.0669 101.307C59.3262 101.088 59.557 100.839 59.7539 100.563C59.9491 100.282 60.0296 99.9376 59.9789 99.5997Z" fill="#859ED3"/>
<path d="M59.688 46.227C60.8842 46.227 61.854 45.2573 61.854 44.061C61.854 42.8648 60.8842 41.895 59.688 41.895C58.4917 41.895 57.522 42.8648 57.522 44.061C57.522 45.2573 58.4917 46.227 59.688 46.227Z" fill="#EBEBEB"/>
<path d="M97.4428 90.3749C97.4428 90.4199 88.3649 90.4559 77.1688 90.4559C65.9728 90.4559 56.8918 90.4199 56.8918 90.3749C56.8918 90.3299 65.9698 90.2969 77.1688 90.2969C88.3679 90.2969 97.4428 90.3329 97.4428 90.3749Z" fill="#455A64"/>
<path d="M97.4428 86.9999C97.4428 87.0419 88.3649 87.0779 77.1688 87.0779C65.9728 87.0779 56.8918 87.0419 56.8918 86.9999C56.8918 86.9579 65.9698 86.9219 77.1688 86.9219C88.3679 86.9219 97.4428 86.9579 97.4428 86.9999Z" fill="#455A64"/>
<path d="M78.9628 93.7977C78.9628 93.8397 74.0218 93.8757 67.9288 93.8757C61.8358 93.8757 56.8918 93.8397 56.8918 93.7977C56.8918 93.7557 61.8328 93.7197 67.9288 93.7197C74.0248 93.7197 78.9628 93.7557 78.9628 93.7977Z" fill="#455A64"/>
<path d="M76.242 130.587C76.2391 130.758 76.1857 130.923 76.0887 131.064C75.9918 131.204 75.8555 131.312 75.697 131.375C75.5385 131.438 75.365 131.453 75.1983 131.417C75.0315 131.382 74.879 131.298 74.7599 131.176C74.6408 131.054 74.5605 130.899 74.529 130.731C74.4975 130.564 74.5164 130.391 74.5831 130.234C74.6498 130.077 74.7615 129.943 74.904 129.85C75.0465 129.756 75.2135 129.707 75.384 129.708C75.4981 129.709 75.6109 129.733 75.7158 129.778C75.8208 129.823 75.9158 129.888 75.9955 129.969C76.0753 130.051 76.1381 130.148 76.1804 130.254C76.2227 130.36 76.2436 130.473 76.242 130.587Z" fill="#263238"/>
<path d="M78.9 130.599C78.8965 130.768 78.8429 130.933 78.7461 131.072C78.6492 131.212 78.5133 131.319 78.3556 131.382C78.1978 131.444 78.0251 131.458 77.8592 131.423C77.6933 131.387 77.5416 131.304 77.4231 131.182C77.3046 131.061 77.2246 130.907 77.1931 130.74C77.1617 130.574 77.1802 130.401 77.2463 130.245C77.3124 130.089 77.4232 129.956 77.5648 129.862C77.7064 129.769 77.8724 129.719 78.042 129.72C78.1563 129.721 78.2692 129.744 78.3743 129.789C78.4795 129.833 78.5747 129.898 78.6545 129.98C78.7342 130.062 78.797 130.159 78.8392 130.265C78.8813 130.371 78.902 130.485 78.9 130.599Z" fill="#263238"/>
<path d="M81.579 130.611C81.5755 130.781 81.5219 130.945 81.425 131.085C81.3281 131.224 81.1923 131.331 81.0345 131.394C80.8767 131.456 80.7041 131.47 80.5382 131.435C80.3723 131.399 80.2205 131.316 80.102 131.194C79.9835 131.073 79.9036 130.919 79.8721 130.753C79.8407 130.586 79.8591 130.414 79.9253 130.257C79.9914 130.101 80.1022 129.968 80.2438 129.874C80.3853 129.781 80.5514 129.731 80.721 129.732C80.8351 129.733 80.9479 129.757 81.0528 129.802C81.1577 129.846 81.2528 129.912 81.3325 129.993C81.4122 130.075 81.475 130.172 81.5173 130.278C81.5596 130.384 81.5806 130.497 81.579 130.611Z" fill="#263238"/>
<path d="M102.486 48.3447H54.5068V77.6847H102.486V48.3447Z" fill="#E0E0E0"/>
<path d="M58.938 77.694L72.684 59.292L81.21 70.8L86.985 64.644L98.316 77.682L58.938 77.694Z" fill="#F5F5F5"/>
<path d="M84.8222 57.0331C84.8228 57.6467 84.6413 58.2468 84.3008 58.7573C83.9603 59.2678 83.4761 59.6658 82.9093 59.9011C82.3426 60.1363 81.7188 60.1982 81.1168 60.0788C80.5149 59.9595 79.9619 59.6643 79.5278 59.2306C79.0937 58.7969 78.7979 58.2442 78.678 57.6424C78.5581 57.0405 78.6193 56.4167 78.854 55.8497C79.0887 55.2827 79.4863 54.7981 79.9965 54.4571C80.5067 54.1161 81.1065 53.9341 81.7202 53.9341C82.5423 53.9341 83.3309 54.2605 83.9125 54.8416C84.4942 55.4227 84.8214 56.2109 84.8222 57.0331Z" fill="#F5F5F5"/>
<path d="M102.357 104.955C102.357 104.328 102.327 77.823 102.285 38.583L102.357 38.655H54.3839L54.4619 38.577C54.4619 63.399 54.4619 86.37 54.4619 104.949L54.3959 104.886L102.375 104.949L54.3959 105.015H54.3329V104.949C54.3329 86.37 54.3329 63.399 54.3179 38.577V38.499H54.4019H102.375H102.447V38.568C102.432 58.209 102.42 74.808 102.411 86.502C102.411 92.34 102.396 96.951 102.393 100.107C102.393 101.679 102.393 102.888 102.393 103.707C102.393 104.112 102.393 104.421 102.393 104.631C102.393 104.841 102.357 104.955 102.357 104.955Z" fill="#263238"/>
<path d="M67.9806 113.19L66.9206 109.623C66.7349 108.849 66.4894 107.937 66.16 106.896C65.8605 105.96 65.0999 104.976 64.4051 104.268C63.3241 103.167 62.809 103.161 62.0844 102.576C62.0185 102.534 61.9436 102.471 61.8807 102.438C61.7437 102.363 61.6235 102.261 61.5274 102.138C60.9015 101.46 61.5034 100.407 62.7761 100.509C63.7314 100.584 65.2945 100.857 67.8339 103.482C67.8668 103.524 67.8998 103.557 67.9297 103.596C69.2623 105.333 70.514 100.377 70.7416 98.5321C70.7858 98.2461 70.8936 97.9738 71.057 97.7352C71.2205 97.4967 71.4354 97.298 71.6859 97.154C71.9363 97.01 72.216 96.9242 72.504 96.9031C72.792 96.882 73.0811 96.9261 73.3499 97.0321L79.5366 99.9301C80.1267 99.7586 80.756 99.7796 81.3333 99.99C81.7663 100.142 82.127 100.451 82.3452 100.855C82.5634 101.259 82.6233 101.731 82.5132 102.177L80.0008 112.2L87.3704 136.77H71.4843L67.9806 113.19Z" fill="#FFBE9D"/>
<path d="M55.7626 90.624L60.6737 100.266L63.1292 99.582L75.4668 109.641C75.9703 110.054 76.6148 110.253 77.263 110.197C77.9112 110.141 78.5119 109.834 78.9375 109.341L83.6389 103.872C83.6389 103.872 74.1612 99.783 72.4093 96.399C70.6575 93.015 72.6819 92.244 72.6819 92.244L68.223 87.168L55.7626 90.624Z" fill="#859ED3"/>
<path d="M62.132 70.9321C62.132 70.9321 69.319 69.3391 79.4375 59.5951C89.5561 49.8511 94.3055 36.9001 95.5303 36.9721C96.755 37.0441 102.175 34.5211 112.458 56.9281C122.742 79.335 118.69 84.528 116.651 84.498C114.612 84.468 100.714 80.577 92.0356 81.564C83.3574 82.551 72.2027 87.084 72.2027 87.084L62.132 70.9321Z" fill="#859ED3"/>
<path d="M46.8628 83.1453L49.3154 87.8163L50.4144 89.9163C51.1397 91.2986 52.367 92.3494 53.843 92.8517C55.319 93.3541 56.9311 93.2698 58.3469 92.6163L73.7539 87.2373L64.7702 66.7173L49.3782 74.9343C47.9622 75.6934 46.9032 76.9825 46.432 78.5206C45.9608 80.0587 46.1156 81.7211 46.8628 83.1453Z" fill="#859ED3"/>
<g opacity="0.4">
<path opacity="0.4" d="M46.8628 83.1453L49.3154 87.8163L50.4144 89.9163C51.1397 91.2986 52.367 92.3494 53.843 92.8517C55.319 93.3541 56.9311 93.2698 58.3469 92.6163L73.7539 87.2373L64.7702 66.7173L49.3782 74.9343C47.9622 75.6934 46.9032 76.9825 46.432 78.5206C45.9608 80.0587 46.1156 81.7211 46.8628 83.1453Z" fill="black"/>
</g>
<path d="M111.638 57.3361C117.109 69.4741 119.388 80.2921 116.729 81.4951C114.069 82.6981 107.472 73.8361 102.001 61.6951C96.5303 49.5541 94.2515 38.7421 96.9106 37.5361C99.5698 36.3301 106.167 45.1981 111.638 57.3361Z" fill="#859ED3"/>
<g opacity="0.5">
<path opacity="0.5" d="M111.638 57.3361C117.109 69.4741 119.388 80.2921 116.729 81.4951C114.069 82.6981 107.472 73.8361 102.001 61.6951C96.5303 49.5541 94.2515 38.7421 96.9106 37.5361C99.5698 36.3301 106.167 45.1981 111.638 57.3361Z" fill="black"/>
</g>
<path d="M45.5394 89.8951L49.7168 88.5811L47.1325 83.6611L44.0002 85.6111L45.5394 89.8951Z" fill="#859ED3"/>
<g opacity="0.6">
<path opacity="0.6" d="M47.1325 83.6611L49.7168 88.5811L48.8574 88.8511L46.7582 83.8921L47.1325 83.6611Z" fill="black"/>
</g>
<path d="M50.0134 84.7949C50.0732 84.9299 52.1575 84.1199 54.6669 82.9949C57.1763 81.8699 59.1587 80.8259 59.1018 80.6909C59.0449 80.5559 56.9577 81.3689 54.4453 82.5059C51.9329 83.6429 49.9505 84.6599 50.0134 84.7949Z" fill="#859ED3"/>
<path d="M48.7257 81.864C48.7915 81.996 50.6781 81.201 52.939 80.085C55.1999 78.969 56.9787 77.958 56.9128 77.823C56.8469 77.688 54.9633 78.486 52.7024 79.602C50.4415 80.718 48.6598 81.729 48.7257 81.864Z" fill="#859ED3"/>
<path d="M51.6302 87.8702C51.6512 87.9422 52.1483 87.8282 52.9388 87.5702C53.3341 87.4472 53.8042 87.2912 54.3223 87.1142C54.8404 86.9372 55.3704 86.6552 55.9424 86.3942C58.2272 85.3322 59.973 84.2942 59.9161 84.1682C59.8592 84.0422 57.9816 84.8552 55.7238 85.9082C55.1548 86.1662 54.6277 86.4482 54.1306 86.6552C53.6336 86.8622 53.1874 87.0452 52.813 87.2132C52.0644 87.5582 51.6092 87.7982 51.6302 87.8702Z" fill="#859ED3"/>
<path d="M100.484 54.6389C100.484 54.6389 106.73 50.7569 110.147 59.2139C113.564 67.6709 106.994 69.0599 106.994 69.0599C104.156 64.584 101.965 59.729 100.484 54.6389Z" fill="#859ED3"/>
<g opacity="0.5">
<path opacity="0.5" d="M93.8383 44.5591C93.7994 44.5591 93.8892 45.1411 94.0809 46.1761C94.2725 47.2111 94.56 48.7081 94.9613 50.5501L95.8297 53.5111C95.9874 54.0411 96.1501 54.5901 96.3178 55.1581L96.5723 56.0191C96.6652 56.3191 96.7879 56.5921 96.8957 56.8831L98.3062 60.5311C98.4289 60.8491 98.5547 61.1671 98.6775 61.4881C98.8003 61.8091 98.9769 62.1151 99.1177 62.4331L100.046 64.3531L100.977 66.2701C101.136 66.5701 101.277 66.9061 101.447 67.2001C101.618 67.4941 101.798 67.8001 101.969 68.0851L103.96 71.4541C104.122 71.7181 104.259 71.9911 104.439 72.2431L104.957 72.9781L105.951 74.3821L107.748 76.8931C108.946 78.3421 109.946 79.4851 110.635 80.2801C110.973 80.7106 111.347 81.112 111.752 81.4801C111.47 81.0118 111.15 80.5682 110.793 80.1541C110.129 79.3051 109.191 78.1171 108.041 76.6561L106.32 74.1271L105.355 72.7201C105.188 72.4801 105.02 72.2341 104.849 71.9851C104.679 71.7361 104.55 71.4631 104.385 71.1961L102.418 67.8301L101.906 66.9481C101.729 66.6481 101.606 66.3481 101.441 66.0241L100.519 64.1191C100.22 63.4741 99.8993 62.8411 99.5938 62.2141C99.4501 61.9141 99.2764 61.5961 99.1566 61.2781L98.7823 60.3301L97.3509 56.7301C97.2401 56.4301 97.1143 56.1631 97.0185 55.8751C96.9227 55.5871 96.8418 55.3051 96.755 55.0231L96.2459 53.3941L95.3266 50.4691L94.2875 46.1491C94.1832 45.6072 94.033 45.0753 93.8383 44.5591Z" fill="black"/>
</g>
<g opacity="0.4">
<path opacity="0.4" d="M82.1475 103.2C81.5755 104.238 80.9946 105.3 80.1531 106.119C79.3116 106.938 78.1617 107.52 76.9639 107.4C75.7661 107.28 74.6731 106.302 74.6611 105.12C74.0981 105.543 73.2327 105.315 72.7655 104.784C72.2984 104.253 72.1457 103.518 72.0918 102.813C71.3251 103.266 70.2591 102.909 69.747 102.18C69.5119 101.8 69.3632 101.373 69.3114 100.929C69.2597 100.485 69.3061 100.036 69.4476 99.6119C69.7393 98.7684 70.1541 97.9728 70.6783 97.2509C70.0794 97.2989 69.4625 97.3409 68.9355 97.0739C68.4085 96.8069 68.0371 96.1049 68.3575 95.6009C68.568 95.3195 68.8735 95.1243 69.217 95.0519C70.1423 94.7519 70.7891 94.5299 71.7534 94.6409C71.975 94.6409 71.3671 97.1849 77.4071 100.659C80.9916 102.714 82.1475 103.2 82.1475 103.2Z" fill="black"/>
</g>
<path d="M68.5464 106.86C68.5464 106.887 68.9506 106.809 69.6034 106.827C70.4518 106.847 71.2861 107.048 72.0512 107.416C72.8163 107.783 73.4947 108.31 74.0414 108.96C74.4636 109.458 74.6403 109.821 74.6792 109.806C74.6543 109.712 74.6149 109.623 74.5624 109.542C74.4342 109.314 74.289 109.095 74.1282 108.888C73.5899 108.204 72.9021 107.652 72.1177 107.275C71.3333 106.899 70.4732 106.708 69.6034 106.716C69.3423 106.718 69.0818 106.742 68.8248 106.788C68.7285 106.795 68.6342 106.82 68.5464 106.86Z" fill="#EB996E"/>
<path d="M81.7556 101.577C80.7824 102.513 80.1176 103.548 79.0965 104.49C78.6323 104.919 77.8986 105.729 77.2997 105.837C76.7008 105.945 76.2816 105.864 76.036 105.282C75.8354 104.811 76.1947 104.166 76.4403 103.782C77.0901 102.759 77.713 101.961 78.1981 101.166C78.4287 100.794 78.1322 100.716 78.0244 100.89C77.5573 101.376 76.8565 101.79 76.4373 102.327C75.8623 103.05 75.7605 104.013 74.2573 103.707C74.0562 103.674 73.8655 103.595 73.7003 103.476C73.1343 103.041 73.1014 102.276 73.3469 101.676C73.5589 101.213 73.8418 100.786 74.1854 100.41C73.5446 101.133 72.8468 101.91 71.8287 101.976C71.5411 102.011 71.2497 101.956 70.9949 101.817C70.7401 101.679 70.5344 101.465 70.4063 101.205C70.1068 100.521 70.535 99.858 70.9692 99.324C71.7378 98.3745 72.593 97.4988 73.5236 96.708C73.8711 96.4155 74.3094 96.2532 74.7633 96.249C75.2904 96.249 75.9612 96.345 76.2606 96.801C76.4317 97.021 76.5563 97.2735 76.6268 97.5433C76.6973 97.813 76.7123 98.0943 76.6709 98.37C76.6709 98.37 77.9885 97.701 79.0485 98.4C79.7011 98.8592 80.17 99.5352 80.3721 100.308L81.7556 101.577Z" fill="#FFBE9D"/>
<path d="M74.7332 95.9609C74.9439 95.7158 75.0746 95.4119 75.1078 95.0901C75.141 94.7683 75.0751 94.444 74.9188 94.1609C74.6942 93.7199 74.4128 93.2909 74.1253 93.1949C72.8706 92.7719 67.3845 93.7229 67.4355 94.9409C67.4864 96.1589 67.8876 96.7409 70.8612 96.3119C71.3853 96.2369 72.2058 96.1349 72.2058 96.1349L72.9245 97.2149L74.7332 95.9609Z" fill="#FFBE9D"/>
<path d="M73.7509 101.067C74.4709 99.8779 75.5207 98.9241 76.7725 98.3223C76.5683 98.3552 76.3715 98.4243 76.1915 98.5263C75.2901 98.9629 74.5333 99.6503 74.0115 100.506C73.8907 100.675 73.8023 100.866 73.7509 101.067Z" fill="#EB996E"/>
<path d="M72.8285 97.32C72.8555 97.344 73.2178 97.05 73.7119 96.747C73.9186 96.6159 74.1325 96.4967 74.3527 96.39C74.5234 96.312 74.6372 96.291 74.6342 96.267C74.6312 96.243 74.5055 96.231 74.3168 96.288C74.0739 96.3663 73.8423 96.4762 73.6281 96.615C73.122 96.924 72.7896 97.287 72.8285 97.32Z" fill="#EB996E"/>
<path d="M71.9062 96.1862C72.2631 96.2278 72.6248 96.1868 72.9633 96.0662C73.2109 95.9903 73.4409 95.8659 73.6401 95.7002C73.7898 95.5712 73.8527 95.4662 73.8377 95.4512C73.5496 95.6378 73.2412 95.7908 72.9184 95.9072C72.5752 95.9775 72.237 96.0707 71.9062 96.1862Z" fill="#EB996E"/>
<path d="M77.2367 102.576C77.4258 102.377 77.5934 102.159 77.7368 101.925C78.0787 101.371 78.5109 100.878 79.0154 100.467C79.5384 100.084 80.1865 99.9124 80.8301 99.987C81.0942 100.034 81.3509 100.116 81.5938 100.23C81.5937 100.23 81.5398 100.167 81.4171 100.092C81.2422 99.9858 81.0494 99.9125 80.8481 99.876C80.5129 99.8218 80.1702 99.835 79.8402 99.9148C79.5101 99.9946 79.1992 100.14 78.9256 100.341C78.4045 100.761 77.9693 101.277 77.6439 101.862C77.4884 102.088 77.3522 102.327 77.2367 102.576Z" fill="#EB996E"/>
<path d="M73.0412 114.726C73.7798 114.883 74.5281 114.991 75.2811 115.047C76.0299 115.156 76.7854 115.212 77.542 115.215C76.8024 115.058 76.053 114.951 75.2991 114.894C74.5511 114.787 73.7967 114.731 73.0412 114.726Z" fill="#EB996E"/>
<path d="M121.989 14.9521L122.328 15.5731L122.946 15.9121L122.328 16.2511L121.989 16.8692L121.65 16.2511L121.032 15.9121L121.65 15.5731L121.989 14.9521Z" fill="#859ED3"/>
<path d="M129.072 30.3032L129.411 30.9242L130.029 31.2632L129.411 31.6022L129.072 32.2202L128.733 31.6022L128.112 31.2632L128.733 30.9242L129.072 30.3032Z" fill="#859ED3"/>
<path d="M15.57 71.2593L15.909 71.8803L16.53 72.2193L15.909 72.5553L15.57 73.1763L15.231 72.5553L14.613 72.2193L15.231 71.8803L15.57 71.2593Z" fill="#859ED3"/>
<path d="M112.698 18.7681L113.481 20.1991L114.912 20.9821L113.481 21.7621L112.698 23.1931L111.918 21.7621L110.487 20.9821L111.918 20.1991L112.698 18.7681Z" fill="#859ED3"/>
<path d="M21.9182 61.5303L22.6982 62.9553L24.1262 63.7353L22.6982 64.5183L21.9182 65.9433L21.1382 64.5183L19.7102 63.7353L21.1382 62.9553L21.9182 61.5303Z" fill="#859ED3"/>
<path d="M130.998 95.5684L131.778 96.9964L133.203 97.7764L131.778 98.5564L130.998 99.9844L130.218 98.5564L128.79 97.7764L130.218 96.9964L130.998 95.5684Z" fill="#859ED3"/>
<g clip-path="url(#clip2)">
<path d="M15.9847 87.239C14.9086 87.4161 12.5498 87.972 11.5091 88.2931C10.3823 88.641 10.4104 89.3645 10.8307 91.1873C11.2673 93.0029 11.5646 93.6661 12.7295 93.4746C13.8044 93.2974 16.163 92.7422 17.2051 92.4204C18.3319 92.0725 18.3039 91.349 17.8835 89.5262C17.4469 87.7106 17.1496 87.0474 15.9847 87.239ZM13.7524 91.7399L13.1987 89.3889L15.826 90.0086L13.7524 91.7399Z" fill="#FAFAFA"/>
</g>
<g style="mix-blend-mode:screen" clip-path="url(#clip3)">
<path d="M127.627 121.809C127.076 121.51 126.885 120.842 127.204 120.325L129.492 116.604C129.81 116.087 130.521 115.908 131.073 116.207C131.624 116.505 131.814 117.173 131.496 117.691L129.208 121.411C128.89 121.929 128.178 122.108 127.627 121.809Z" fill="white"/>
<path d="M128.204 122C127.999 122 127.793 121.951 127.603 121.849C127.325 121.698 127.126 121.454 127.043 121.161C126.959 120.868 127.001 120.563 127.162 120.302L129.45 116.582C129.61 116.321 129.87 116.134 130.182 116.055C130.494 115.977 130.819 116.017 131.097 116.167C131.375 116.318 131.574 116.562 131.657 116.855C131.741 117.148 131.699 117.453 131.538 117.714L129.25 121.434C129.027 121.797 128.621 122 128.204 122ZM127.652 121.77C128.181 122.056 128.86 121.886 129.166 121.389L131.454 117.668C131.602 117.428 131.64 117.148 131.564 116.879C131.487 116.609 131.304 116.385 131.048 116.246C130.793 116.108 130.494 116.071 130.207 116.144C129.921 116.216 129.681 116.388 129.534 116.627L127.246 120.348C127.098 120.587 127.06 120.868 127.136 121.137C127.213 121.407 127.396 121.631 127.652 121.77Z" fill="black"/>
<path d="M133.373 121.793C132.822 122.092 132.11 121.913 131.792 121.395L129.504 117.675C129.186 117.157 129.377 116.489 129.928 116.191C130.479 115.892 131.19 116.071 131.509 116.588L133.797 120.309C134.115 120.826 133.924 121.494 133.373 121.793Z" fill="white"/>
<path d="M132.796 121.984C132.379 121.984 131.973 121.781 131.75 121.418L129.462 117.698C129.302 117.437 129.259 117.132 129.343 116.839C129.427 116.546 129.626 116.302 129.903 116.151C130.181 116.001 130.506 115.961 130.818 116.039C131.13 116.118 131.39 116.305 131.551 116.566L133.839 120.286C134.171 120.827 133.973 121.52 133.397 121.832C133.208 121.935 133.001 121.984 132.796 121.984ZM130.504 116.091C130.317 116.091 130.126 116.136 129.952 116.23C129.423 116.517 129.241 117.155 129.546 117.652L131.834 121.372C132.039 121.706 132.413 121.893 132.796 121.893C132.984 121.893 133.175 121.848 133.349 121.753C133.878 121.466 134.06 120.829 133.755 120.332L131.466 116.611C131.261 116.278 130.888 116.091 130.504 116.091Z" fill="black"/>
<path d="M128.222 121.953C128.87 121.953 129.395 121.46 129.395 120.852C129.395 120.244 128.87 119.75 128.222 119.75C127.574 119.75 127.049 120.244 127.049 120.852C127.049 121.46 127.574 121.953 128.222 121.953Z" fill="white"/>
<path d="M128.222 121.999C127.548 121.999 127 121.485 127 120.852C127 120.22 127.548 119.705 128.222 119.705C128.896 119.705 129.444 120.22 129.444 120.852C129.444 121.485 128.896 121.999 128.222 121.999ZM128.222 119.796C127.602 119.796 127.097 120.27 127.097 120.852C127.097 121.434 127.602 121.908 128.222 121.908C128.842 121.908 129.346 121.434 129.346 120.852C129.346 120.27 128.842 119.796 128.222 119.796Z" fill="black"/>
</g>
<path d="M19.75 27.8001C19.5776 27.4953 19.3352 27.2508 19.032 27.0669C18.8055 26.9313 18.5706 26.8453 18.3059 26.8083V25.8396C18.5706 25.7241 18.7348 25.4684 18.7348 25.17C18.7348 24.7634 18.4176 24.4339 18.0223 24.4339C17.6268 24.4339 17.304 24.7634 17.304 25.17C17.304 25.4684 17.4588 25.7241 17.7235 25.8396V26.8087C17.5117 26.8402 17.2921 26.9081 17.0916 27.0123C16.682 26.6926 15.3388 25.6435 14.5531 25.0308C14.5717 24.9617 14.5861 24.8905 14.5861 24.8154C14.5861 24.3651 14.2313 24 13.793 24C13.3547 24 13 24.3651 13 24.8154C13 25.2658 13.355 25.6309 13.7933 25.6309C13.9428 25.6309 14.0811 25.586 14.2005 25.5121L14.3663 25.6414L16.6447 27.3288C16.5242 27.4425 16.4121 27.5718 16.3223 27.7169C16.1405 28.0127 16.0293 28.3381 16.0293 28.6931V28.7672C16.0293 29.0164 16.0754 29.2516 16.1539 29.4726C16.223 29.6656 16.324 29.841 16.4491 29.9997L15.6929 30.7789C15.5833 30.7369 15.4643 30.7283 15.3501 30.7541C15.2359 30.7798 15.1313 30.8388 15.0488 30.9241C14.9917 30.9825 14.9465 31.0519 14.9157 31.1284C14.8849 31.2049 14.8692 31.287 14.8694 31.3698C14.8695 31.5381 14.9333 31.6963 15.0491 31.8153C15.1059 31.874 15.1735 31.9206 15.2479 31.9523C15.3223 31.984 15.4021 32.0002 15.4826 32C15.5632 32.0002 15.643 31.984 15.7174 31.9523C15.7919 31.9206 15.8594 31.874 15.9163 31.8153C15.9733 31.7569 16.0186 31.6875 16.0494 31.611C16.0802 31.5345 16.0959 31.4525 16.0957 31.3698C16.0957 31.3046 16.0859 31.2411 16.0675 31.1806L16.8491 30.3771C16.9563 30.4532 17.072 30.5173 17.1964 30.5725C17.4418 30.6816 17.7126 30.748 18.0091 30.748H18.0634C18.3911 30.748 18.7002 30.6689 18.9908 30.507C19.297 30.336 19.5367 30.1021 19.7178 29.8035C19.8998 29.5041 20 29.1732 20 28.8093V28.7911C20 28.4331 19.9194 28.1027 19.75 27.8001ZM18.795 29.4857C18.5829 29.728 18.339 29.8773 18.0634 29.8773H18.018C17.8605 29.8773 17.7065 29.8325 17.5557 29.7512C17.3858 29.6616 17.2566 29.5338 17.1509 29.372C17.0416 29.2132 16.9823 29.0399 16.9823 28.856V28.8002C16.9823 28.6195 17.016 28.4481 17.1011 28.2862C17.192 28.1093 17.3147 27.9718 17.478 27.8624C17.6383 27.7537 17.8095 27.7005 18.0002 27.7005H18.018C18.1909 27.7005 18.3546 27.7355 18.509 27.8168C18.6664 27.9034 18.795 28.0218 18.8947 28.1775C18.9916 28.3332 19.0492 28.5012 19.0677 28.6842C19.0706 28.7223 19.0721 28.7612 19.0721 28.7985C19.0721 29.0468 18.9798 29.2769 18.795 29.4857Z" fill="#ECF2FF"/>
<defs>
<clipPath id="clip0">
<rect width="5" height="5" fill="white" transform="translate(122.808 62) rotate(9.29957)"/>
</clipPath>
<clipPath id="clip1">
<rect width="7" height="9" fill="white" transform="translate(33.4141 16.5244) rotate(-7.91021)"/>
</clipPath>
<clipPath id="clip2">
<rect width="7.24581" height="7.24581" fill="white" transform="translate(10 87.6611) rotate(-13.2532)"/>
</clipPath>
<clipPath id="clip3">
<rect width="7" height="6" fill="white" transform="translate(127 116)"/>
</clipPath>
</defs>
</svg>
