<svg width="34" height="38" viewBox="0 0 34 38" fill="none" xmlns="http://www.w3.org/2000/svg">
<g clip-path="url(#clip0)">
<path d="M33.23 18.5809C33.23 20.7417 30.5093 22.7895 26.338 24.0595C27.3006 28.2881 26.8728 31.6523 24.9877 32.7294C24.5532 32.9821 24.0451 33.1017 23.4903 33.1017V31.6191C23.7978 31.6191 24.0451 31.5592 24.2524 31.4462C25.1615 30.9276 25.5559 28.9529 25.2484 26.4131C25.1749 25.7881 25.0545 25.1299 24.9075 24.4584C23.5973 24.7775 22.1667 25.0235 20.6626 25.1831C19.7602 26.4131 18.8243 27.5301 17.8818 28.5075C20.061 30.522 22.1066 31.6257 23.497 31.6257V33.1084C21.6587 33.1084 19.2522 31.8052 16.8189 29.5447C14.3857 31.7919 11.9791 33.0818 10.1408 33.0818V31.5991C11.5246 31.5991 13.5768 30.5021 15.756 28.5008C14.8202 27.5235 13.8843 26.4131 12.9952 25.1831C11.4845 25.0235 10.0539 24.7775 8.74372 24.4517C8.58997 25.1166 8.47633 25.7615 8.39612 26.3799C8.08193 28.9197 8.46965 30.8944 9.37209 31.4196C9.57263 31.5393 9.83334 31.5925 10.1408 31.5925V33.0752C9.57932 33.0752 9.07128 32.9555 8.63008 32.7028C6.75167 31.6257 6.33053 28.2681 7.29982 24.0528C3.1419 22.7762 0.43457 20.7351 0.43457 18.5809C0.43457 16.42 3.15527 14.3722 7.32655 13.1023C6.36395 8.87371 6.79177 5.50945 8.67688 4.43235C9.11139 4.1797 9.61943 4.06002 10.1809 4.06002C12.0193 4.06002 14.4258 5.36318 16.859 7.62375C19.2923 5.37647 21.6988 4.08661 23.5371 4.08661C24.0986 4.08661 24.6067 4.20629 25.0478 4.45895C26.9263 5.53604 27.3474 8.89366 26.3781 13.109C30.5227 14.3789 33.23 16.4267 33.23 18.5809ZM24.5264 23.0156C24.2791 22.1579 23.9716 21.2736 23.624 20.3893C23.3499 20.9212 23.0625 21.4531 22.7483 21.985C22.4408 22.5169 22.1132 23.0355 21.7857 23.5409C22.7349 23.4012 23.6507 23.2284 24.5264 23.0156ZM21.4648 15.9347C20.9434 15.0371 20.4086 14.1861 19.8538 13.3949C18.8578 13.3084 17.8484 13.2619 16.8323 13.2619C15.8229 13.2619 14.8135 13.3084 13.8241 13.3882C13.2693 14.1794 12.7278 15.0238 12.2064 15.9147C11.6984 16.7857 11.2371 17.67 10.816 18.5609C11.2305 19.4519 11.6984 20.3428 12.1997 21.2138C12.7212 22.1114 13.2559 22.9624 13.8108 23.7536C14.8068 23.84 15.8162 23.8866 16.8323 23.8866C17.8417 23.8866 18.8511 23.84 19.8404 23.7603C20.3953 22.9691 20.9367 22.1247 21.4581 21.2337C21.9662 20.3627 22.4274 19.4785 22.8486 18.5875C22.4274 17.6966 21.9662 16.8057 21.4648 15.9347ZM23.624 16.799C23.985 15.9081 24.2925 15.0172 24.5465 14.1528C23.6708 13.9401 22.7483 13.7605 21.7924 13.6209C22.1199 14.1329 22.4475 14.6581 22.755 15.1967C23.0625 15.7286 23.3499 16.2671 23.624 16.799ZM16.8456 9.70481C16.224 10.3431 15.6023 11.0545 14.9873 11.8324C15.5889 11.8058 16.2039 11.7859 16.8256 11.7859C17.454 11.7859 18.0756 11.7992 18.684 11.8324C18.0823 11.0545 17.4606 10.3431 16.8456 9.70481ZM11.8722 13.6209C10.923 13.7605 10.0071 13.9334 9.13144 14.1462C9.37877 15.0039 9.68627 15.8881 10.0339 16.7724C10.308 16.2405 10.5954 15.7086 10.9096 15.1767C11.2238 14.6448 11.5446 14.1262 11.8722 13.6209ZM16.8122 27.457C17.4339 26.8187 18.0556 26.1073 18.6706 25.3294C18.069 25.356 17.454 25.3759 16.8323 25.3759C16.2039 25.3759 15.5822 25.3626 14.9739 25.3294C15.5755 26.1073 16.1972 26.8187 16.8122 27.457ZM11.8655 23.5409C11.538 23.0289 11.2104 22.5036 10.9029 21.9651C10.5954 21.4332 10.308 20.9013 10.0339 20.3694C9.6729 21.2603 9.36541 22.1513 9.11139 23.0156C9.98709 23.2217 10.9096 23.4012 11.8655 23.5409ZM5.8158 15.2166C3.4494 16.2206 1.91859 17.537 1.91859 18.5809C1.91859 19.6247 3.4494 20.9478 5.8158 21.9452C6.39069 22.1912 7.01906 22.4106 7.66748 22.6167C8.04851 21.3135 8.54986 19.9572 9.17155 18.5676C8.55655 17.1846 8.06188 15.835 7.68753 14.5384C7.02574 14.7446 6.39737 14.9706 5.8158 15.2166ZM9.4122 5.71556C8.50307 6.23416 8.10867 8.20884 8.41617 10.7487C8.4897 11.3736 8.61003 12.0319 8.75709 12.7034C10.0673 12.3843 11.4978 12.1382 13.0019 11.9787C13.9044 10.7487 14.8402 9.63167 15.7828 8.65431C13.6035 6.63973 11.558 5.53604 10.1676 5.53604C9.86676 5.54269 9.61274 5.60253 9.4122 5.71556ZM25.2684 10.7819C25.5826 8.24208 25.1949 6.2674 24.2925 5.74215C24.0919 5.62247 23.8312 5.56928 23.5237 5.56928C22.14 5.56928 20.0878 6.66633 17.9085 8.6676C18.8444 9.64497 19.7803 10.7553 20.6693 11.9853C22.1801 12.1449 23.6106 12.3909 24.9208 12.7167C25.0746 12.0452 25.1949 11.4002 25.2684 10.7819ZM27.8421 15.2166C27.2672 14.9706 26.6388 14.7512 25.9904 14.5451C25.6094 15.8482 25.108 17.2046 24.4863 18.5942C25.1013 19.9771 25.596 21.3268 25.9703 22.6233C26.6321 22.4172 27.2605 22.1912 27.8488 21.9452C30.2152 20.9412 31.746 19.6247 31.746 18.5809C31.7393 17.537 30.2085 16.2139 27.8421 15.2166Z" fill="white"/>
<path d="M16.8254 15.5422C18.5126 15.5422 19.8804 16.9026 19.8804 18.5807C19.8804 20.2588 18.5126 21.6191 16.8254 21.6191C15.1382 21.6191 13.7705 20.2588 13.7705 18.5807C13.7705 16.9026 15.1382 15.5422 16.8254 15.5422Z" fill="white"/>
</g>
<defs>
<clipPath id="clip0">
<rect width="32.7954" height="37.1681" fill="white" transform="matrix(1 0 0 -1 0.43457 37.168)"/>
</clipPath>
</defs>
</svg>
