<svg width="29" height="29" viewBox="0 0 29 29" fill="none" xmlns="http://www.w3.org/2000/svg">
<path d="M4.41025 0.540039H25.2716C27.3247 0.540039 29.0002 2.2073 29.0002 4.26865V25.1312C29.0002 27.1843 27.333 28.8586 25.2716 28.8586H4.41025C2.35716 28.8586 0.681641 27.1925 0.681641 25.1312V4.25921C0.681641 2.2073 2.34772 0.540039 4.41025 0.540039Z" fill="white"/>
<path d="M17.7921 6.86103V5.88994C17.7918 5.56404 17.6622 5.25158 17.4316 5.02125C17.201 4.79091 16.8885 4.66156 16.5626 4.66162H13.6965C13.3706 4.66156 13.058 4.79091 12.8274 5.02125C12.5969 5.25158 12.4672 5.56404 12.467 5.88994V6.88699C12.467 6.9979 12.5696 7.07578 12.6817 7.04982C13.4925 6.81573 14.3322 6.69735 15.1761 6.6982C15.9938 6.6982 16.8033 6.80911 17.5856 7.02386C17.6894 7.04982 17.7921 6.97313 17.7921 6.86103ZM9.93719 8.13183L9.44751 7.64215C9.33342 7.52798 9.19794 7.43741 9.04883 7.37561C8.89972 7.31382 8.73989 7.28201 8.57848 7.28201C8.41708 7.28201 8.25725 7.31382 8.10814 7.37561C7.95902 7.43741 7.82355 7.52798 7.70946 7.64215L7.12421 8.22622C7.00979 8.33994 6.919 8.47516 6.85704 8.6241C6.79508 8.77304 6.76318 8.93276 6.76318 9.09407C6.76318 9.25538 6.79508 9.4151 6.85704 9.56404C6.919 9.71298 7.00979 9.8482 7.12421 9.96192L7.60562 10.4433C7.6835 10.52 7.79559 10.5023 7.86403 10.4256C8.14806 10.0356 8.46167 9.6679 8.80208 9.32593C9.14536 8.98148 9.51632 8.66577 9.91123 8.38197C9.99713 8.33006 10.0056 8.2097 9.93719 8.13183ZM15.1676 11.215V15.4156C15.1676 15.536 15.2974 15.6221 15.4083 15.5619L19.1428 13.6292C19.2278 13.5867 19.2538 13.4829 19.2113 13.3979C18.4372 12.0398 17.0001 11.1124 15.3399 11.0522C15.2538 11.0522 15.1676 11.1206 15.1676 11.215ZM15.1676 21.3342C12.0538 21.3342 9.52397 18.8079 9.52397 15.6988C9.52397 12.5896 12.0538 10.0646 15.1676 10.0646C18.2827 10.0646 20.8115 12.5896 20.8115 15.6988C20.8115 18.8079 18.2912 21.3342 15.1676 21.3342ZM15.1676 7.69407C10.7452 7.69407 7.15819 11.2764 7.15819 15.6988C7.15819 20.1224 10.7452 23.6964 15.1676 23.6964C19.59 23.6964 23.1771 20.1141 23.1771 15.6905C23.1771 11.2669 19.5983 7.69407 15.1676 7.69407Z" fill="#432A95"/>
</svg>
