<svg width="26" height="29" viewBox="0 0 26 29" fill="none" xmlns="http://www.w3.org/2000/svg">
<g clip-path="url(#clip0)">
<path d="M22.4416 6.0831C22.4221 5.94454 22.2984 5.86796 22.196 5.85955C22.0939 5.85114 19.9327 5.69422 19.9327 5.69422C19.9327 5.69422 18.4318 4.23411 18.2671 4.07254C18.1022 3.91097 17.7803 3.96011 17.6554 3.99619C17.6369 4.0015 17.3274 4.09512 16.8154 4.25027C16.3139 2.83665 15.4292 1.53745 13.8724 1.53745C13.8295 1.53745 13.7852 1.53922 13.7409 1.54165C13.2982 0.967966 12.7498 0.71875 12.2761 0.71875C8.64985 0.71875 6.91736 5.1606 6.37412 7.41793C4.96509 7.84576 3.96399 8.14986 3.83614 8.18926C3.04963 8.43095 3.02478 8.4553 2.92156 9.18148C2.84363 9.73126 0.785645 25.3261 0.785645 25.3261L16.8219 28.2702L25.511 26.4283C25.511 26.4283 22.4608 6.22165 22.4416 6.0831ZM15.929 4.51897C15.5263 4.64114 15.0684 4.77991 14.5722 4.93042C14.5726 4.83679 14.5731 4.7445 14.5731 4.64379C14.5731 3.76512 14.4486 3.05775 14.2489 2.49691C15.051 2.59562 15.5852 3.48979 15.929 4.51897ZM13.2539 2.67109C13.4769 3.21866 13.6219 4.00438 13.6219 5.06476C13.6219 5.11899 13.6214 5.16857 13.621 5.21881C12.7385 5.48661 11.7796 5.77744 10.8185 6.06915C11.3581 4.0285 12.3696 3.04292 13.2539 2.67109ZM12.1765 1.67179C12.333 1.67179 12.4907 1.7238 12.6416 1.82562C11.4794 2.36145 10.2337 3.71111 9.70764 6.40624C8.93875 6.63952 8.18725 6.86748 7.49244 7.07841C8.10864 5.02271 9.57189 1.67179 12.1765 1.67179Z" fill="white"/>
<path d="M22.196 5.85854C22.0939 5.85013 19.9327 5.69321 19.9327 5.69321C19.9327 5.69321 18.4317 4.2331 18.267 4.07153C18.2054 4.01133 18.1222 3.98056 18.0353 3.96729L16.8228 28.269L25.511 26.4273C25.511 26.4273 22.4607 6.22063 22.4415 6.08208C22.4221 5.94353 22.2983 5.86695 22.196 5.85854Z" fill="#DBDBDB"/>
<path d="M13.8721 10.5633L12.8008 13.686C12.8008 13.686 11.862 13.1951 10.7114 13.1951C9.02456 13.1951 8.93963 14.2325 8.93963 14.4939C8.93963 15.9201 12.7339 16.4666 12.7339 19.8073C12.7339 22.4356 11.0326 24.1281 8.73859 24.1281C5.9858 24.1281 4.57812 22.4493 4.57812 22.4493L5.31517 20.0632C5.31517 20.0632 6.76215 21.2805 7.98325 21.2805C8.78106 21.2805 9.10565 20.665 9.10565 20.2152C9.10565 18.3547 5.99281 18.2717 5.99281 15.2148C5.99281 12.6418 7.87754 10.1519 11.682 10.1519C13.148 10.1519 13.8721 10.5633 13.8721 10.5633Z" fill="#432A95"/>
</g>
<defs>
<clipPath id="clip0">
<rect width="24.7788" height="27.6939" fill="white" transform="translate(0.782227 0.644043)"/>
</clipPath>
</defs>
</svg>
