<svg width="12" height="12" viewBox="0 0 12 12" fill="none" xmlns="http://www.w3.org/2000/svg">
<path d="M8.62 9.5801L9.52 10.4751L10.225 9.7701L9.33 8.8751L8.62 9.5801ZM10 6.7501L11.5 6.7501L11.5 5.7501L10 5.7501L10 6.7501ZM5.5 11.7251L6.5 11.7251L6.5 10.2501L5.5 10.2501L5.5 11.7251ZM1.775 9.7701L2.48 10.4751L3.375 9.5801L2.67 8.8751L1.775 9.7701ZM3.38 2.9201L2.485 2.0201L1.78 2.7251L2.68 3.6201L3.38 2.9201ZM2 6.7501L2 5.7501L0.500001 5.7501L0.5 6.7501L2 6.7501ZM6 9.2501C7.655 9.2501 9 7.9051 9 6.2501C9 4.5951 7.655 3.2501 6 3.2501C4.345 3.2501 3 4.5951 3 6.2501C3 7.9051 4.345 9.2501 6 9.2501ZM6.5 0.775096L5.5 0.775096L5.5 2.2501L6.5 2.2501L6.5 0.775096ZM10.225 2.7301L9.52 2.0251L8.625 2.9251L9.33 3.6301L10.225 2.7301Z" fill="white"/>
</svg>
