<svg width="70" height="126" viewBox="0 0 70 126" fill="none" xmlns="http://www.w3.org/2000/svg">
<path d="M41.5112 5.59863C40.1014 2.05857 37.743 0 35.0001 0C32.2571 0 29.8988 2.05857 28.4889 5.59863C13.2208 6.96248 0.875 10.6256 0.875 34.1251C0.875 49.1752 12.5234 83.8257 17.5274 98.0223C18.328 100.3 19.9111 102.107 21.8752 103.336V115.951C21.8752 118.053 22.6954 120.032 24.1823 121.519L26.356 123.693C27.8223 125.159 29.8525 126 31.9239 126H38.0762C40.1476 126 42.1779 125.159 43.6441 123.693L45.8179 121.519C47.3048 120.032 48.125 118.053 48.125 115.951V103.337C50.0888 102.108 51.6722 100.301 52.4727 98.0248C57.4766 83.8257 69.1252 49.1752 69.1252 34.1251C69.1252 10.6256 56.7794 6.96248 41.5112 5.59863ZM42.8751 115.951C42.8751 116.641 42.5931 117.318 42.106 117.807L39.9323 119.981C39.4453 120.471 38.7685 120.75 38.0762 120.75H31.9239C31.2316 120.75 30.5549 120.471 30.0679 119.981L27.8941 117.807C27.4071 117.318 27.1251 116.641 27.1251 115.951V115.5H42.8751V115.951ZM42.8751 110.25H27.1251V104.954C27.2257 104.957 27.3163 105 27.4174 105H42.583C42.6839 105 42.7747 104.957 42.8753 104.954V110.25H42.8751ZM47.5201 96.279C46.7921 98.3556 44.8079 99.7499 42.5827 99.7499H37.6249V69.0537L46.3664 65.9891C47.4226 65.6199 48.125 64.6279 48.125 63.5126C48.125 62.3973 47.4226 61.4053 46.3664 61.0362L37.6249 57.9706V54.3387L46.3664 51.2795C47.4226 50.9104 48.125 49.9157 48.125 48.8006C48.125 47.6829 47.4175 46.6909 46.3664 46.3217L37.6249 43.2707V39.6597L46.3664 36.6037C47.7354 36.1243 48.4582 34.6274 47.9764 33.2583C47.5046 31.8893 46.0024 31.1641 44.6337 31.6459L37.6252 34.097V23.625C37.6252 22.174 36.451 20.9999 35.0001 20.9999C33.5491 20.9999 32.375 22.174 32.375 23.625V35.9331L23.6335 38.9904C22.5824 39.3595 21.8749 40.3542 21.8749 41.4693C21.8749 42.587 22.5824 43.579 23.6335 43.9482L32.375 46.9992V50.6121L23.6335 53.6713C22.5824 54.0405 21.8749 55.0352 21.8749 56.1502C21.8749 57.2653 22.5773 58.2575 23.6335 58.6267L32.375 61.693V65.3325L23.6335 68.3988C22.2645 68.8782 21.5417 70.3752 22.0236 71.7442C22.403 72.8233 23.4182 73.5001 24.5 73.5001C24.7872 73.5001 25.0793 73.4538 25.3665 73.3514L32.375 70.8944V99.7502H27.4172C25.192 99.7502 23.208 98.3556 22.4798 96.2766C18.6449 85.3997 6.12492 48.765 6.12492 34.1251C6.12492 14.0608 15.3842 11.8868 30.6317 10.6871C31.7339 10.6 32.6619 9.83341 32.9592 8.76955C33.6872 6.12921 34.7742 5.24992 34.9998 5.24992C35.2255 5.24992 36.3122 6.12921 37.0404 8.76955C37.3377 9.83341 38.2657 10.6 39.368 10.6871C54.6155 11.8868 63.8747 14.0606 63.8747 34.1251C63.875 48.765 51.355 85.3997 47.5201 96.279Z" fill="url(#paint0_linear)"/>
<defs>
<linearGradient id="paint0_linear" x1="57.2103" y1="126" x2="16.7229" y2="126" gradientUnits="userSpaceOnUse">
<stop stop-color="#77216B"/>
<stop offset="1" stop-color="#2A2FA9"/>
</linearGradient>
</defs>
</svg>
