<svg width="86" height="19" viewBox="0 0 86 19" fill="none" xmlns="http://www.w3.org/2000/svg">
<g clip-path="url(#clip0)">
<path fill-rule="evenodd" clip-rule="evenodd" d="M64.5186 6.94707C64.8288 6.94707 64.8942 7.13562 64.8942 7.29416V7.87784H64.3014C64.0046 7.87784 63.9424 7.69829 63.9424 7.54766V6.94761H64.5186V6.94707ZM64.4683 8.85936C64.7141 8.85936 64.8442 8.98488 64.8442 9.2231V14.1223H64.3097V14.1032C64.1183 14.0857 63.9925 13.9449 63.9925 13.7416V8.85936H64.4683ZM36.1783 12.6793C36.3614 12.8477 36.4139 12.9178 36.4158 12.9208L36.4371 12.9495L36.4128 12.9754C35.5884 13.8505 34.7604 14.2238 33.6441 14.2238C31.6403 14.2238 30.129 12.6488 30.129 10.5602C30.129 8.49617 31.6804 6.87939 33.6608 6.87939C35.02 6.87939 35.7699 7.42187 36.3778 8.008L36.4074 8.03638L36.38 8.06694C36.3786 8.06858 36.2273 8.23885 36.0782 8.39002C35.9085 8.5813 35.678 8.53437 35.5369 8.40912C34.9613 7.91959 34.3598 7.69147 33.6441 7.69147C32.1446 7.69147 31.014 8.91039 31.014 10.5261C31.014 12.1344 32.1694 13.3945 33.6441 13.3945C34.3872 13.3945 34.9457 13.1817 35.5711 12.6597C35.7252 12.521 35.9839 12.4823 36.1783 12.6793ZM48.8723 8.72402C50.0724 8.72402 50.8177 9.53773 50.8177 10.8478V14.0884H50.375C50.0293 14.0884 49.9827 13.8701 49.9827 13.6567V11.017C49.9827 10.0543 49.5169 9.50252 48.7054 9.50252C48.0196 9.50252 47.3276 9.98633 47.3276 11.0677V14.0884H46.8685C46.6262 14.0884 46.4926 13.9531 46.4926 13.7075V11.0001C46.4926 10.0622 46.0152 9.50252 45.2156 9.50252C44.4172 9.50252 43.8381 10.1678 43.8381 11.0846V13.7075C43.8381 14.0118 43.7064 14.0715 43.4789 14.0715H43.0031V8.80861H43.4622C43.7115 8.80861 43.8545 8.95323 43.8545 9.20618V9.57811C44.1749 9.12241 44.6272 8.69045 45.466 8.69045C46.4407 8.69045 46.9062 9.28368 47.1084 9.6818C47.5599 9.03782 48.1378 8.72402 48.872 8.72402H48.8723ZM54.9003 8.74094C56.1023 8.74094 57.3799 9.69872 57.3799 11.4738C57.3799 13.2491 56.1023 14.2069 54.9001 14.2069C54.1254 14.2069 53.4992 13.8753 52.9884 13.194V15.6962H52.5126C52.2775 15.6962 52.1534 15.5644 52.1534 15.3153V8.84244H52.5627C52.8411 8.84244 52.9881 8.9857 52.9881 9.25694V9.79996C53.4994 9.08748 54.126 8.74094 54.9003 8.74094ZM56.5116 11.4738C56.5116 10.1795 55.6252 9.50252 54.7498 9.50252C53.8594 9.50252 52.9383 10.2336 52.9383 11.4568C52.9383 12.6908 53.8591 13.4284 54.7498 13.4284C55.7873 13.4284 56.5116 12.6247 56.5116 11.4738ZM70.3542 9.22338C70.3542 8.96687 70.586 8.82553 70.7465 8.82553H71.2056V13.1492C71.2056 14.7785 70.247 15.7128 68.5758 15.7128C67.7001 15.7128 66.9115 15.4653 66.2306 14.9775L66.2015 14.9564L66.2176 14.924C66.2195 14.9199 66.2699 14.8184 66.4029 14.5993C66.474 14.4819 66.5652 14.4273 66.6668 14.4287C66.7505 14.4309 66.8434 14.4677 66.978 14.5515C67.4613 14.8249 68.0056 14.9685 68.5591 14.9684C69.7104 14.9684 70.3706 14.3114 70.3706 13.1661V12.6779C69.8238 13.3533 69.1805 13.6821 68.4088 13.6821C67.223 13.6821 65.9627 12.813 65.9627 11.2028C65.9627 10.4846 66.2319 9.83488 66.7211 9.37373C67.1708 8.94996 67.7858 8.70683 68.4088 8.70683C69.3905 8.70683 70.0007 9.20837 70.3542 9.67007V9.22338ZM70.3876 11.2369C70.3876 10.1102 69.4454 9.50225 68.5593 9.50225C67.5577 9.50225 66.8307 10.2248 66.8307 11.22C66.8307 12.2089 67.5739 12.9544 68.5593 12.9544C69.4581 12.9544 70.3876 12.312 70.3876 11.2369ZM75.1383 8.74094C76.3502 8.74094 77.1335 9.56774 77.1335 10.8475V14.1051H76.624C76.3906 14.1051 76.2821 13.9899 76.2821 13.7416V11.0339C76.2821 10.0854 75.767 9.51944 74.9043 9.51944C74.0244 9.51944 73.41 10.17 73.41 11.1016L73.4269 14.1051H72.575V8.84244H73.0341C73.2295 8.84244 73.4266 8.95487 73.4266 9.20618V9.65424C73.8343 9.04792 74.4094 8.74094 75.1383 8.74094ZM60.5108 8.77477C61.9317 8.77477 62.7233 9.52244 62.7402 10.8811V14.0884H62.2809C62.0359 14.0884 61.9217 13.9782 61.9217 13.7416V13.3855C61.4642 13.9236 60.8404 14.2069 60.1101 14.2069C58.7736 14.2069 58.1645 13.3427 58.1645 12.5399C58.1645 11.4806 58.9771 10.8732 60.3939 10.8732H61.2537V11.1692C61.2537 11.414 61.1309 11.533 60.8781 11.533H60.4607C59.5291 11.533 59.0162 11.8847 59.0162 12.523C59.0162 13.2032 59.661 13.5129 60.2601 13.5129C61.223 13.5129 61.9214 12.9399 61.9214 12.1508V10.8983C61.9214 10.0196 61.3969 9.53609 60.444 9.53609C60.0146 9.53609 59.6276 9.61358 59.1901 9.78713C59.031 9.84089 58.8374 9.83625 58.7687 9.66188C58.7164 9.52677 58.6662 9.39087 58.6179 9.25421L58.605 9.21764L58.64 9.20127C59.2808 8.9063 59.8579 8.77477 60.5108 8.77477ZM39.488 8.77477C40.9086 8.77477 41.7004 9.52244 41.7174 10.8811V14.0884H41.2581C41.013 14.0884 40.8989 13.9782 40.8989 13.7416V13.3855C40.4417 13.9236 39.8178 14.2069 39.0873 14.2069C37.7508 14.2069 37.142 13.3427 37.142 12.5399C37.142 11.4806 37.9546 10.8732 39.3714 10.8732H40.2249V11.1692C40.2249 11.414 40.1019 11.533 39.8493 11.533H39.4379C38.5063 11.533 37.9936 11.8847 37.9936 12.523C37.9936 13.2032 38.6385 13.5129 39.2376 13.5129C40.2004 13.5129 40.8989 12.9399 40.8989 12.1508V10.8983C40.8989 10.0196 40.3741 9.53609 39.4212 9.53609C38.9917 9.53609 38.6051 9.61358 38.1673 9.78713C38.0074 9.84143 37.8146 9.83625 37.7462 9.66188C37.6938 9.52682 37.6435 9.39091 37.5954 9.25421L37.5819 9.2171L37.6177 9.20127C38.1134 8.9797 38.6829 8.77477 39.488 8.77477ZM85.7162 10.7291C85.9041 10.8628 86 11.0282 86 11.22V11.3152C85.9978 11.4634 85.9453 11.6719 85.7162 11.8462L85.7154 11.8468C85.605 11.9267 84.4814 12.7156 83.2918 13.5511C82.1281 14.3684 80.8169 15.2893 80.6567 15.4042V15.5371L80.5788 15.4045C80.5751 15.3977 80.5716 15.3919 80.5756 15.3827H80.5732V14.689C80.5732 14.4524 80.599 14.3387 80.8589 14.1632C81.0759 14.0219 84.511 11.6077 84.9669 11.2879C84.5145 10.9695 81.1235 8.58376 80.8912 8.4113L80.8637 8.39111C80.6919 8.26504 80.5568 8.16572 80.5568 7.90321V7.0775L80.6219 7.12389C80.8247 7.26687 85.5835 10.6284 85.7162 10.7291ZM82.7418 11.6629C82.6241 11.6629 82.5075 11.6214 82.3847 11.5387C82.0875 11.3376 80.5627 10.263 80.5473 10.2521L80.5296 10.2396V9.70964C80.5296 9.58793 80.5813 9.49161 80.672 9.44495C80.7692 9.39474 80.8906 9.41111 80.9967 9.48915C81.2261 9.63869 83.4448 11.199 83.4671 11.2151L83.5175 11.2503L83.4663 11.2849C83.4663 11.2849 83.3163 11.3862 83.1499 11.504C83.0075 11.6099 82.8742 11.6629 82.7418 11.6629ZM11.9161 12.899C12.079 13.0641 12.1625 13.1323 12.1633 13.1331L12.1969 13.1604L12.1689 13.1937C11.7632 13.6731 11.1579 14.2238 10.0666 14.2238C8.59809 14.2238 7.40314 12.9978 7.40314 11.4907C7.40314 9.94867 8.57305 8.74094 10.0666 8.74094C10.9059 8.74094 11.5437 9.02691 12.1345 9.66816L12.1603 9.69654L12.1347 9.72519C12.0418 9.82943 11.9468 9.93175 11.8493 10.0316C11.6856 10.197 11.5138 10.1874 11.292 10.0002C10.9926 9.75411 10.61 9.50225 10.0499 9.50225C9.05286 9.50225 8.27148 10.3684 8.27148 11.4738C8.27148 12.5794 9.07467 13.4455 10.0997 13.4455C10.5728 13.4455 11.0071 13.2668 11.3911 12.9148C11.5039 12.8231 11.7384 12.7189 11.9161 12.8993V12.899ZM17.4638 6.94734C17.6921 6.94734 17.8394 7.10342 17.8394 7.34519V7.87811H17.2468C16.9501 7.87811 16.8876 7.69856 16.8876 7.54793V6.94761H17.4638V6.94734ZM17.397 8.85964C17.6429 8.85964 17.7726 8.98516 17.7726 9.22338V14.1225H17.2384V14.1034C17.0467 14.086 16.921 13.9452 16.921 13.7419V8.85936H17.397V8.85964ZM22.8855 9.13878C22.9676 8.93904 23.1168 8.84217 23.3414 8.84217H23.9229L23.8974 8.90138C23.8769 8.94886 21.8591 13.642 21.7765 13.8262C21.6889 14.0216 21.5627 14.1051 21.3545 14.1051H21.2541C21.0392 14.1051 20.9057 14.0633 20.8149 13.8423C20.7328 13.6589 18.7148 8.93195 18.6946 8.88419L18.6693 8.82498H19.267C19.4951 8.82498 19.6542 8.93086 19.7398 9.13878C19.8004 9.32297 21.0656 12.434 21.3042 13.021C21.5433 12.4343 22.8104 9.32161 22.8855 9.13878ZM28.1171 11.1608C28.1656 11.1608 28.2014 11.1477 28.2221 11.1218C28.2512 11.0871 28.2582 11.0241 28.2429 10.9395C28.1739 10.0679 27.553 9.48506 26.6976 9.48506C25.8489 9.48506 25.1863 10.1932 25.0861 11.2069C25.0859 11.2099 25.0697 11.3267 25.0697 11.4904C25.0697 11.6378 25.0859 11.7543 25.0859 11.7554C25.1925 12.7868 25.9003 13.4788 26.8479 13.4788C27.3979 13.4788 27.8476 13.311 28.2224 12.9653C28.322 12.8643 28.5113 12.8018 28.7108 12.9634C28.8454 13.0829 28.9623 13.1844 28.9623 13.1844L28.9952 13.2128L28.9661 13.245C28.3573 13.9217 27.699 14.2235 26.8312 14.2235C25.3511 14.2235 24.2347 13.0411 24.2347 11.4738C24.2347 9.90583 25.308 8.72374 26.731 8.72374C28.0301 8.72374 28.9863 9.61604 29.1104 10.9449C29.1311 11.229 29.0679 11.4598 28.9273 11.6132C28.7911 11.7619 28.5859 11.8375 28.3174 11.8375C27.8608 11.8375 26.7585 11.8391 25.8091 11.8544L25.7668 11.855V11.5242C25.7668 11.2967 25.9009 11.1605 26.1257 11.1605H28.1171V11.1608ZM4.10989 7.20821C4.20898 7.42596 7.11961 13.9793 7.14923 14.0453L7.17562 14.1051H6.67696C6.57087 14.1051 6.24831 14.1051 6.12122 13.8265C6.02914 13.6237 3.89987 8.72593 3.58754 8.00745L2.06572 11.4653H4.3183V11.8462C4.3183 12.0943 4.14059 12.2607 3.87591 12.2607H1.7278C1.64676 12.4419 1.14621 13.5571 1.05413 13.7591C0.924887 14.0025 0.774105 14.1054 0.54874 14.1054H0L0.0263869 14.0453C0.0560048 13.9787 2.99949 7.34273 3.06546 7.19211C3.157 7.02456 3.30429 6.93015 3.47095 6.93015H3.67128C3.89664 6.93015 4.00704 7.00028 4.10935 7.20739L4.10989 7.20848V7.20821ZM15.6824 13.3601C15.7295 13.3956 15.7856 13.4671 15.7856 13.6057C15.7856 13.7921 15.7694 13.9424 15.7689 13.949L15.7662 13.9716L15.746 13.982C15.481 14.1165 15.0575 14.2066 14.6918 14.2066C13.739 14.2066 13.2142 13.6745 13.2142 12.7088V6.96399H13.6234C13.8819 6.96399 14.0489 7.12007 14.0489 7.36183V8.85936H15.2263C15.4393 8.85936 15.6687 8.98379 15.6687 9.25694V9.62068H14.0491L14.0658 12.5906C14.0658 13.1353 14.3383 13.4114 14.8755 13.4114C15.0518 13.4114 15.1784 13.3801 15.3655 13.3285C15.4894 13.2908 15.6052 13.3023 15.6824 13.3604V13.3601Z" fill="white"/>
</g>
<defs>
<clipPath id="clip0">
<rect width="86" height="19" fill="white"/>
</clipPath>
</defs>
</svg>
