<svg width="162" height="162" viewBox="0 0 162 162" fill="none" xmlns="http://www.w3.org/2000/svg">
<path d="M28.5122 124.416C57.4972 139.56 104.497 139.56 133.488 124.416C162.48 109.272 162.476 84.7194 133.488 69.5756C104.5 54.4318 57.5037 54.4318 28.5122 69.5756C-0.479313 84.7194 -0.472832 109.285 28.5122 124.416Z" fill="#F5F5F5"/>
<path d="M26.8659 99.0824C30.978 99.0824 34.3114 97.494 34.3114 95.5346C34.3114 93.5752 30.978 91.9868 26.8659 91.9868C22.7539 91.9868 19.4204 93.5752 19.4204 95.5346C19.4204 97.494 22.7539 99.0824 26.8659 99.0824Z" fill="#EBEBEB"/>
<path d="M111.832 103.819C117.32 103.819 121.769 101.699 121.769 99.0826C121.769 96.4665 117.32 94.3457 111.832 94.3457C106.344 94.3457 101.895 96.4665 101.895 99.0826C101.895 101.699 106.344 103.819 111.832 103.819Z" fill="#EBEBEB"/>
<path d="M141.54 79.5938C141.54 79.5938 142.307 77.2221 144.805 74.6949C145.907 73.5804 146.626 72.8028 146.396 72.1386C146.189 71.5521 145.489 71.2476 144.488 71.7206C143.066 72.3945 142.107 73.6452 141.54 76.1562V79.5938Z" fill="#B0296B"/>
<path opacity="0.1" d="M141.54 79.5938C141.54 79.5938 142.307 77.2221 144.805 74.6949C145.907 73.5804 146.626 72.8028 146.396 72.1386C146.189 71.5521 145.489 71.2476 144.488 71.7206C143.066 72.3945 142.107 73.6452 141.54 76.1562V79.5938Z" fill="black"/>
<path d="M141.381 78.1032H141.351C141.32 78.0949 141.294 78.0745 141.277 78.0466C141.261 78.0188 141.256 77.9855 141.264 77.9542C142.155 74.5133 144.459 72.3814 145.434 71.8889C145.463 71.8751 145.497 71.8732 145.528 71.8834C145.558 71.8937 145.584 71.9154 145.599 71.944C145.613 71.9729 145.615 72.0059 145.604 72.0361C145.594 72.0664 145.572 72.0914 145.544 72.106C144.601 72.5823 142.369 74.6559 141.501 78.0158C141.493 78.0414 141.477 78.0638 141.455 78.0796C141.434 78.0954 141.407 78.1037 141.381 78.1032Z" fill="white"/>
<path d="M141.54 82.5392C141.54 82.5392 142.606 80.4494 143.892 79.3381C145.178 78.2268 146.83 77.0928 145.431 76.2245C144.031 75.3561 141.727 77.0604 141.543 78.7419L141.54 82.5392Z" fill="#B0296B"/>
<path d="M141.381 81.0519H141.355C141.324 81.0442 141.297 81.0246 141.28 80.9974C141.263 80.9702 141.257 80.9374 141.264 80.9061C141.87 78.3141 144.044 76.8496 144.767 76.6066C144.796 76.6004 144.827 76.6055 144.854 76.6208C144.88 76.6361 144.9 76.6607 144.909 76.6897C144.918 76.7186 144.916 76.75 144.904 76.7778C144.891 76.8055 144.869 76.8276 144.841 76.8399C144.193 77.0602 142.074 78.502 141.501 80.9611C141.493 80.9874 141.478 81.0105 141.456 81.0269C141.434 81.0433 141.408 81.0521 141.381 81.0519Z" fill="white"/>
<path d="M46.7827 103.544C46.7827 103.544 46.2902 102.449 44.2328 101.985C42.2305 101.535 41.2358 101.985 39.8848 101.752C38.5337 101.519 38.8868 98.9949 42.5221 99.2574C45.8496 99.4971 46.7827 102.115 46.7827 102.115V103.544Z" fill="#B0296B"/>
<path d="M46.9799 102.941C46.9563 102.941 46.9334 102.933 46.9139 102.92C46.8944 102.907 46.8791 102.888 46.8698 102.867C46.5458 102.092 45.347 100.829 43.6589 100.443C41.5626 99.9667 40.4481 100.443 40.4384 100.443C40.4094 100.453 40.3778 100.451 40.3497 100.439C40.3217 100.427 40.2992 100.405 40.2867 100.377C40.2742 100.349 40.2725 100.317 40.2819 100.288C40.2914 100.259 40.3114 100.235 40.3379 100.219C40.3865 100.2 41.54 99.6978 43.7108 100.194C45.5867 100.621 46.7823 101.995 47.0933 102.763C47.0997 102.778 47.103 102.793 47.1032 102.809C47.1034 102.825 47.1004 102.841 47.0943 102.856C47.0883 102.871 47.0794 102.884 47.0681 102.895C47.0568 102.907 47.0433 102.916 47.0285 102.922L46.9799 102.941Z" fill="white"/>
<path d="M46.7825 102.297C46.3724 101.562 45.8474 100.898 45.2273 100.33C43.2833 98.4442 40.6913 97.8512 39.3953 96.8209C37.9697 95.7096 39.6966 94.4266 41.5305 94.5076C42.5803 94.5562 43.6883 95.2495 44.2975 95.7485C46.4423 97.5013 46.7955 100.33 46.7955 100.33L46.7825 102.297Z" fill="#B0296B"/>
<path opacity="0.5" d="M46.7825 102.297C46.3724 101.562 45.8474 100.898 45.2273 100.33C43.2833 98.4442 40.6913 97.8512 39.3953 96.8209C37.9697 95.7096 39.6966 94.4266 41.5305 94.5076C42.5803 94.5562 43.6883 95.2495 44.2975 95.7485C46.4423 97.5013 46.7955 100.33 46.7955 100.33L46.7825 102.297Z" fill="white"/>
<path d="M46.98 102.105C46.951 102.105 46.9231 102.094 46.9012 102.075C46.8793 102.056 46.8647 102.03 46.8602 102.002C46.6048 100.639 45.987 99.3712 45.0717 98.3306C43.5424 96.5907 40.9277 95.6576 40.8985 95.6479C40.869 95.6369 40.8448 95.615 40.8309 95.5866C40.817 95.5583 40.8146 95.5257 40.824 95.4956C40.8291 95.4803 40.8372 95.4662 40.8478 95.4542C40.8585 95.4421 40.8715 95.4323 40.886 95.4253C40.9005 95.4184 40.9162 95.4144 40.9323 95.4137C40.9484 95.413 40.9645 95.4155 40.9795 95.4211C41.0897 95.4567 43.6817 96.3931 45.2531 98.1686C46.2061 99.2422 46.846 100.557 47.1032 101.969C47.1054 101.985 47.1044 102.001 47.1002 102.017C47.096 102.033 47.0887 102.047 47.0787 102.06C47.0687 102.073 47.0563 102.083 47.0421 102.091C47.0279 102.099 47.0123 102.104 46.9962 102.105H46.98Z" fill="white"/>
<path d="M91.248 122.433C91.248 122.433 91.7988 121.364 93.8789 121.011C95.9007 120.668 96.8694 121.157 98.2335 121.011C99.5975 120.865 99.3772 118.309 95.7322 118.377C92.3982 118.438 91.3258 121.001 91.3258 121.001L91.248 122.433Z" fill="#B0296B"/>
<path opacity="0.1" d="M91.248 122.433C91.248 122.433 91.7988 121.364 93.8789 121.011C95.9007 120.668 96.8694 121.157 98.2335 121.011C99.5975 120.865 99.3772 118.309 95.7322 118.377C92.3982 118.438 91.3258 121.001 91.3258 121.001L91.248 122.433Z" fill="black"/>
<path d="M91.0892 121.921C91.0639 121.92 91.0393 121.913 91.018 121.899C91.0049 121.89 90.9937 121.878 90.9852 121.865C90.9766 121.851 90.9708 121.836 90.9681 121.821C90.9653 121.805 90.9658 121.789 90.9693 121.773C90.9729 121.758 90.9795 121.743 90.9888 121.73C91.7632 120.622 93.1726 119.786 94.7634 119.508C96.8078 119.142 98.0034 119.79 98.0552 119.832C98.0691 119.839 98.0812 119.85 98.0911 119.862C98.1009 119.874 98.1082 119.889 98.1126 119.904C98.117 119.919 98.1183 119.935 98.1165 119.951C98.1147 119.966 98.1099 119.981 98.1022 119.995C98.0946 120.009 98.0842 120.021 98.0719 120.031C98.0595 120.041 98.0453 120.048 98.0301 120.053C98.0149 120.057 97.999 120.058 97.9833 120.057C97.9676 120.055 97.9524 120.05 97.9386 120.042C97.9386 120.042 96.7625 119.41 94.8055 119.76C93.2795 120.033 91.9252 120.826 91.1897 121.883C91.1767 121.896 91.161 121.906 91.1437 121.913C91.1264 121.92 91.1078 121.923 91.0892 121.921Z" fill="white"/>
<path d="M91.394 120.933C91.8645 120.341 92.3991 119.803 92.9881 119.329C95.039 117.554 97.6342 117.265 99.008 116.306C100.492 115.273 98.8363 113.899 96.9992 113.883C95.9495 113.883 94.8057 114.508 94.1675 114.975C92.8073 115.994 91.7902 117.403 91.2515 119.015L91.394 120.933Z" fill="#B0296B"/>
<path opacity="0.5" d="M91.394 120.933C91.8645 120.341 92.3991 119.803 92.9881 119.329C95.039 117.554 97.6342 117.265 99.008 116.306C100.492 115.273 98.8363 113.899 96.9992 113.883C95.9495 113.883 94.8057 114.508 94.1675 114.975C92.8073 115.994 91.7902 117.403 91.2515 119.015L91.394 120.933Z" fill="white"/>
<path d="M91.0896 120.907H91.0443C91.0146 120.896 90.9901 120.874 90.9757 120.846C90.9613 120.818 90.9581 120.785 90.9665 120.755C91.4729 119.364 92.273 118.099 93.3123 117.045C94.4397 115.882 95.9041 115.104 97.4984 114.819C97.514 114.817 97.5298 114.818 97.5451 114.822C97.5603 114.826 97.5745 114.833 97.5869 114.843C97.5993 114.852 97.6097 114.864 97.6173 114.878C97.6249 114.892 97.6296 114.907 97.6312 114.923C97.6335 114.939 97.6325 114.955 97.6283 114.971C97.6241 114.986 97.6168 115.001 97.6068 115.014C97.5968 115.026 97.5843 115.037 97.5702 115.045C97.556 115.052 97.5404 115.057 97.5243 115.059C95.9893 115.35 94.5798 116.103 93.484 117.217C92.4774 118.242 91.7038 119.472 91.216 120.823C91.2074 120.849 91.1903 120.871 91.1674 120.887C91.1445 120.902 91.1171 120.909 91.0896 120.907Z" fill="white"/>
<path d="M59.9404 103.816V79.3379H46.7827V103.819C46.7827 104.791 47.4307 105.763 48.7267 106.502C51.296 107.986 55.4627 107.986 58.032 106.502C59.328 105.76 59.9566 104.791 59.9598 103.819L59.9404 103.816Z" fill="#37474F"/>
<path d="M48.7102 82.189C46.1376 80.7051 46.1376 78.301 48.7102 76.8139C51.2827 75.3267 55.4461 75.3299 58.0155 76.8139C60.5848 78.2978 60.5848 80.7019 58.0155 82.189C55.4461 83.6762 51.2795 83.6697 48.7102 82.189Z" fill="#455A64"/>
<path d="M75.7351 112.936V95.1162H62.5742V112.936C62.5742 113.908 63.2222 114.88 64.5182 115.619C67.0875 117.103 71.2542 117.103 73.8235 115.619C75.1195 114.88 75.7513 113.908 75.7513 112.936H75.7351Z" fill="#37474F"/>
<path d="M64.5017 97.9708C61.9324 96.4869 61.9324 94.0828 64.5017 92.5956C67.071 91.1084 71.2376 91.1117 73.807 92.5956C76.3763 94.0795 76.3795 96.4836 73.807 97.9708C71.2344 99.4579 67.0678 99.4677 64.5017 97.9708Z" fill="#455A64"/>
<path d="M91.53 122.054V108.216H78.3691V122.057C78.3691 123.029 79.0171 124.001 80.3131 124.743C82.8825 126.227 87.0491 126.227 89.6184 124.743C90.9144 124.001 91.543 123.029 91.5462 122.057L91.53 122.054Z" fill="#37474F"/>
<path d="M84.9496 112.175C88.5839 112.175 91.53 110.473 91.53 108.374C91.53 106.275 88.5839 104.574 84.9496 104.574C81.3153 104.574 78.3691 106.275 78.3691 108.374C78.3691 110.473 81.3153 112.175 84.9496 112.175Z" fill="#455A64"/>
<path d="M45.9401 112.448L42.8329 110.656L44.5534 108.427C44.7737 108.142 44.67 107.986 44.3233 108.074L40.2021 109.136L37.0949 107.341C36.8339 107.209 36.5453 107.14 36.2525 107.14C35.9597 107.14 35.6711 107.209 35.4101 107.341L30.5145 110.16C30.0479 110.429 30.0479 110.863 30.5145 111.132L39.3597 116.238C39.6207 116.371 39.9093 116.44 40.2021 116.44C40.4948 116.44 40.7835 116.371 41.0445 116.238L45.9401 113.41C46.4034 113.151 46.4034 112.717 45.9401 112.448Z" fill="#B0296B"/>
<path d="M40.9701 111.349C41.0207 111.344 41.0717 111.344 41.1224 111.349C41.1727 111.355 41.2212 111.372 41.2649 111.397L41.7088 111.653C41.7388 111.668 41.762 111.694 41.7736 111.725C41.7736 111.751 41.7736 111.773 41.7282 111.79C41.7176 111.792 41.7065 111.792 41.6958 111.79C41.6799 111.793 41.6632 111.793 41.6472 111.79L35.4912 112.276H35.3163C35.2658 112.268 35.2173 112.25 35.1737 112.224L34.7298 111.968C34.6999 111.953 34.6767 111.928 34.665 111.896C34.665 111.871 34.665 111.848 34.7104 111.832C34.721 111.829 34.7322 111.829 34.7428 111.832H34.7914L40.9701 111.349ZM38.9872 110.937C38.8555 111.025 38.718 111.104 38.5757 111.174C38.4608 111.232 38.3403 111.279 38.2161 111.313C38.0858 111.346 37.9519 111.362 37.8176 111.362C37.5177 111.363 37.2232 111.282 36.9654 111.129C36.8425 111.068 36.7324 110.985 36.6414 110.882C36.5824 110.815 36.5491 110.729 36.5475 110.639C36.5487 110.555 36.5797 110.473 36.635 110.409C36.6994 110.326 36.7784 110.254 36.8682 110.199C36.9297 110.154 36.9935 110.113 37.0594 110.076C37.121 110.04 37.1955 110.001 37.2765 109.962C37.3931 109.903 37.5159 109.858 37.6426 109.826C37.9117 109.759 38.1932 109.759 38.4623 109.826C38.612 109.867 38.7558 109.927 38.89 110.004C39.0069 110.065 39.1104 110.149 39.1946 110.251C39.2543 110.318 39.2887 110.404 39.2918 110.494C39.2876 110.578 39.257 110.658 39.2043 110.724C39.1449 110.807 39.0715 110.879 38.9872 110.937ZM39.5996 113.471C39.4741 113.565 39.342 113.649 39.2043 113.724C39.0885 113.782 38.9669 113.828 38.8414 113.86C38.7116 113.896 38.5775 113.913 38.4429 113.912C38.2994 113.911 38.1567 113.892 38.0184 113.853C37.8684 113.815 37.7244 113.756 37.5908 113.678C37.4751 113.616 37.372 113.532 37.2862 113.432C37.2264 113.364 37.1931 113.277 37.1922 113.186C37.1948 113.102 37.2243 113.022 37.2765 112.956C37.3425 112.873 37.4225 112.803 37.513 112.749C37.5732 112.702 37.6371 112.661 37.7042 112.625C37.774 112.583 37.8465 112.545 37.9212 112.512C38.0368 112.453 38.1585 112.408 38.2841 112.376C38.4146 112.344 38.5483 112.327 38.6826 112.324C38.9814 112.324 39.2747 112.405 39.5315 112.557C39.6551 112.617 39.7653 112.7 39.8555 112.804C39.9127 112.869 39.9442 112.953 39.9442 113.04C39.9442 113.127 39.9127 113.211 39.8555 113.277C39.7818 113.356 39.6953 113.421 39.5996 113.471ZM37.5357 110.555C37.4713 110.592 37.4185 110.645 37.3834 110.711C37.3834 110.756 37.3834 110.801 37.4774 110.847C37.5474 110.889 37.629 110.908 37.7106 110.902C37.8048 110.887 37.8957 110.856 37.9796 110.811C38.1024 110.752 38.2204 110.684 38.3327 110.607C38.3987 110.571 38.4528 110.517 38.4882 110.451C38.4882 110.406 38.472 110.361 38.3943 110.315C38.3233 110.272 38.2402 110.254 38.1578 110.263C38.0647 110.277 37.9747 110.306 37.8921 110.351C37.7683 110.405 37.6491 110.469 37.5357 110.542V110.555ZM38.1513 113.089C38.0853 113.124 38.0312 113.178 37.9958 113.244C37.9958 113.286 37.9958 113.332 38.0897 113.377C38.1598 113.422 38.2434 113.442 38.3262 113.432C38.4189 113.418 38.5086 113.388 38.5919 113.345C38.7161 113.287 38.8353 113.218 38.9483 113.141C39.0136 113.105 39.0666 113.051 39.1006 112.985C39.1006 112.94 39.1006 112.894 39.0066 112.849C38.9366 112.807 38.855 112.787 38.7734 112.794C38.6802 112.808 38.5903 112.839 38.5077 112.885C38.3839 112.939 38.2647 113.003 38.1513 113.076V113.089Z" fill="white"/>
<path d="M63.0539 122.323L59.9403 120.528L61.6607 118.302C61.8778 118.017 61.7741 117.858 61.4274 117.949L57.3061 119.008L54.199 117.216C53.9385 117.084 53.6504 117.015 53.3582 117.015C53.0659 117.015 52.7778 117.084 52.5174 117.216L47.6283 120.042C47.1649 120.311 47.1649 120.748 47.6283 121.014L56.4735 126.123C56.7349 126.254 57.0234 126.322 57.3159 126.322C57.6083 126.322 57.8968 126.254 58.1583 126.123L63.0539 123.295C63.5205 123.026 63.5205 122.592 63.0539 122.323Z" fill="#B0296B"/>
<path d="M58.0835 121.224H58.239C58.2894 121.233 58.3378 121.25 58.3816 121.276L58.8222 121.532C58.8611 121.555 58.8838 121.578 58.887 121.604C58.8903 121.629 58.887 121.649 58.8449 121.668C58.8342 121.671 58.8232 121.671 58.8125 121.668H58.7639L52.6079 122.154C52.5562 122.159 52.5041 122.159 52.4524 122.154C52.4018 122.147 52.3532 122.13 52.3098 122.103L51.8692 121.85C51.8303 121.827 51.8076 121.801 51.8044 121.779C51.8033 121.764 51.8068 121.75 51.8144 121.738C51.822 121.725 51.8332 121.716 51.8465 121.71H51.8789H51.9275L58.0835 121.224ZM56.1006 120.813C55.9705 120.902 55.834 120.981 55.6924 121.05C55.5766 121.108 55.455 121.153 55.3295 121.186C55.1997 121.221 55.0656 121.239 54.931 121.237C54.7875 121.237 54.6448 121.217 54.5065 121.179C54.3565 121.141 54.2126 121.082 54.0789 121.004C53.9624 120.941 53.8581 120.858 53.7711 120.758C53.7123 120.693 53.6798 120.608 53.6798 120.52C53.6798 120.432 53.7123 120.347 53.7711 120.282C53.8366 120.2 53.9155 120.13 54.0043 120.074C54.0655 120.029 54.1294 119.988 54.1955 119.951C54.2669 119.909 54.3404 119.872 54.4158 119.838C54.5314 119.779 54.6531 119.733 54.7787 119.702C54.9883 119.648 55.2064 119.637 55.4205 119.668C55.6346 119.699 55.8404 119.772 56.0261 119.883C56.1433 119.945 56.2477 120.029 56.3339 120.129C56.3934 120.196 56.4268 120.283 56.4279 120.372C56.4254 120.457 56.3945 120.538 56.3404 120.602C56.274 120.687 56.1927 120.758 56.1006 120.813ZM56.7162 123.347C56.5846 123.435 56.4472 123.514 56.3047 123.583C56.1904 123.642 56.0697 123.688 55.9451 123.719C55.8148 123.752 55.6809 123.768 55.5466 123.768C55.2467 123.769 54.9522 123.688 54.6945 123.535C54.5775 123.474 54.4731 123.391 54.3867 123.292C54.3269 123.223 54.2936 123.136 54.2927 123.045C54.2964 122.961 54.3271 122.881 54.3802 122.815C54.4455 122.732 54.5244 122.661 54.6135 122.605C54.6783 122.559 54.7431 122.52 54.8046 122.482C54.8662 122.443 54.9407 122.407 55.0217 122.368C55.1384 122.309 55.2611 122.264 55.3878 122.232C55.5187 122.202 55.6522 122.186 55.7863 122.184C55.9286 122.183 56.0702 122.202 56.2075 122.239C56.3579 122.277 56.5019 122.337 56.6352 122.417C56.7524 122.479 56.8568 122.562 56.943 122.663C57.0015 122.728 57.0339 122.812 57.0339 122.9C57.0339 122.987 57.0015 123.071 56.943 123.136C56.8796 123.218 56.803 123.29 56.7162 123.347ZM54.6523 120.431C54.5864 120.466 54.5323 120.52 54.4968 120.586C54.4968 120.628 54.513 120.674 54.5908 120.719C54.6609 120.764 54.7445 120.784 54.8273 120.774C54.9199 120.759 55.0095 120.729 55.093 120.687C55.2179 120.629 55.3372 120.559 55.4494 120.479C55.5141 120.445 55.5672 120.392 55.6017 120.327C55.6017 120.282 55.5855 120.236 55.5077 120.191C55.4383 120.147 55.3562 120.128 55.2744 120.136C55.1802 120.15 55.0892 120.181 55.0055 120.227C54.8828 120.281 54.7647 120.344 54.6523 120.418V120.431ZM55.2647 122.964C55.2013 123.001 55.1488 123.053 55.1124 123.117C55.1124 123.162 55.1286 123.207 55.2064 123.253C55.2758 123.297 55.3579 123.316 55.4397 123.308C55.5334 123.293 55.6242 123.264 55.7086 123.22C55.8312 123.16 55.9492 123.091 56.0617 123.013C56.1266 122.977 56.1804 122.925 56.2173 122.861C56.2335 122.815 56.2173 122.77 56.1233 122.725C56.0526 122.681 55.9695 122.661 55.8868 122.67C55.7942 122.685 55.7046 122.714 55.6211 122.757C55.4982 122.814 55.3792 122.879 55.2647 122.951V122.964Z" fill="white"/>
<path d="M80.1545 132.192L77.0473 130.4L78.771 128.168C78.9881 127.886 78.8844 127.727 78.5377 127.818L74.4164 128.877L71.3093 127.086C71.0483 126.953 70.7596 126.884 70.4669 126.884C70.1741 126.884 69.8855 126.953 69.6245 127.086L64.7288 129.924C64.2655 130.193 64.2655 130.63 64.7288 130.896L73.574 136.005C73.8355 136.136 74.124 136.205 74.4164 136.205C74.7089 136.205 74.9974 136.136 75.2588 136.005L80.1545 133.164C80.621 132.905 80.621 132.47 80.1545 132.192Z" fill="#B0296B"/>
<path d="M75.1843 131.103H75.3366C75.3871 131.111 75.4355 131.128 75.4791 131.155L75.923 131.411C75.9619 131.433 75.9846 131.456 75.9878 131.482C75.991 131.508 75.9878 131.527 75.9457 131.547H75.9133H75.8647L69.7087 132.033C69.658 132.038 69.607 132.038 69.5564 132.033C69.5057 132.026 69.457 132.008 69.4138 131.981L68.9732 131.728C68.9343 131.706 68.9116 131.68 68.9084 131.657C68.9073 131.643 68.9108 131.628 68.9184 131.616C68.926 131.604 68.9372 131.594 68.9505 131.589H68.9829C68.9989 131.585 69.0155 131.585 69.0315 131.589L75.1843 131.103ZM73.2014 130.691C73.0706 130.781 72.933 130.86 72.7899 130.928C72.6755 130.987 72.5549 131.032 72.4303 131.064C72.3005 131.1 72.1664 131.117 72.0318 131.116C71.8873 131.115 71.7435 131.096 71.6041 131.058C71.455 131.02 71.3121 130.961 71.1796 130.883C71.0631 130.82 70.9589 130.736 70.8718 130.636C70.8121 130.568 70.7787 130.481 70.7779 130.39C70.7816 130.306 70.8123 130.225 70.8654 130.16C70.9316 130.078 71.0103 130.007 71.0986 129.95C71.1634 129.904 71.2282 129.865 71.2898 129.83C71.3514 129.794 71.4259 129.755 71.5069 129.713C71.7452 129.596 72.0062 129.533 72.2715 129.528C72.5702 129.529 72.8632 129.61 73.1204 129.762C73.2376 129.824 73.342 129.907 73.4282 130.008C73.4868 130.075 73.52 130.161 73.5222 130.251C73.518 130.335 73.4874 130.415 73.4347 130.481C73.3702 130.565 73.2912 130.636 73.2014 130.691ZM73.8138 133.225C73.6829 133.313 73.5465 133.392 73.4055 133.462C73.2909 133.52 73.1703 133.565 73.0459 133.598C72.7748 133.667 72.4908 133.667 72.2197 133.598C72.0705 133.558 71.9277 133.499 71.7952 133.42C71.6717 133.36 71.5614 133.276 71.4712 133.173C71.4112 133.107 71.3777 133.02 71.3773 132.93C71.3791 132.846 71.4088 132.765 71.4615 132.7C71.5289 132.618 71.6087 132.547 71.698 132.49C71.7595 132.445 71.8233 132.404 71.8892 132.367C71.9508 132.331 72.0253 132.292 72.1063 132.253C72.3428 132.131 72.605 132.068 72.8709 132.068C73.0131 132.068 73.1548 132.087 73.2921 132.124C73.4413 132.163 73.5841 132.223 73.7166 132.302C73.8401 132.361 73.9504 132.445 74.0406 132.548C74.1006 132.615 74.1341 132.701 74.1345 132.791C74.1327 132.875 74.1031 132.956 74.0503 133.021C73.9839 133.102 73.9039 133.171 73.8138 133.225ZM71.7499 130.309C71.6855 130.346 71.6327 130.4 71.5976 130.465C71.5976 130.507 71.6138 130.552 71.6916 130.598C71.7611 130.641 71.8431 130.66 71.9248 130.653C72.0186 130.638 72.1094 130.608 72.1938 130.565C72.3183 130.506 72.4376 130.437 72.5502 130.358C72.6149 130.323 72.6679 130.27 72.7024 130.205C72.7186 130.16 72.7024 130.115 72.6085 130.069C72.5378 130.026 72.4547 130.006 72.372 130.014C72.2789 130.029 72.1891 130.06 72.1063 130.105C71.9829 130.16 71.8637 130.224 71.7499 130.296V130.309ZM72.3655 132.843C72.3014 132.879 72.2478 132.932 72.21 132.995C72.21 133.04 72.21 133.086 72.3072 133.131C72.3765 133.175 72.4587 133.195 72.5404 133.186C72.6331 133.172 72.7229 133.142 72.8061 133.099C72.9298 133.038 73.0489 132.969 73.1625 132.891C73.2274 132.856 73.2812 132.803 73.318 132.739C73.3353 132.694 73.3029 132.648 73.2208 132.603C73.1515 132.559 73.0693 132.54 72.9876 132.548C72.8949 132.563 72.8052 132.592 72.7219 132.635C72.5983 132.695 72.4792 132.763 72.3655 132.84V132.843Z" fill="white"/>
<path d="M124.432 78.7414L119.167 75.7022V60.5034L124.432 63.5425V78.7414Z" fill="#37474F"/>
<path d="M124.433 78.7414L129.698 75.7022V60.5034L124.433 63.5425V78.7414Z" fill="#455A64"/>
<path d="M119.167 60.504L124.432 63.5431L129.697 60.504L124.432 57.4648L119.167 60.504Z" fill="#455A64"/>
<path d="M112.587 71.9018L107.322 68.8627V38.4683L112.587 41.5074V71.9018Z" fill="#37474F"/>
<path d="M112.587 71.9018L117.852 68.8627V38.4683L112.587 41.5074V71.9018Z" fill="#455A64"/>
<path d="M107.322 38.4683L112.587 41.5075L117.852 38.4683L112.587 35.4292L107.322 38.4683Z" fill="#455A64"/>
<path d="M100.742 65.0623L95.4766 62.0232V51.3862L100.742 54.4253V65.0623Z" fill="#37474F"/>
<path d="M100.741 65.0623L106.006 62.0232V51.3862L100.741 54.4253V65.0623Z" fill="#455A64"/>
<path d="M95.4766 51.3863L100.742 54.4254L106.007 51.3863L100.742 48.3472L95.4766 51.3863Z" fill="#455A64"/>
<path d="M136.278 85.581L131.013 82.5386V53.667L136.274 56.7061L136.278 85.581Z" fill="#37474F"/>
<path d="M136.274 85.581L141.539 82.5386V53.667L136.274 56.7061V85.581Z" fill="#455A64"/>
<path d="M131.013 53.6674L136.274 56.7065L141.539 53.6674L136.278 50.625L131.013 53.6674Z" fill="#455A64"/>
<g opacity="0.3">
<path opacity="0.3" d="M99.4679 83.3747L99.4128 49.7176C99.4014 49.5228 99.3445 49.3334 99.2466 49.1645C99.1486 48.9957 99.0125 48.8522 98.849 48.7456L59.1396 25.9198C58.8156 25.7416 58.5791 25.8874 58.5791 26.2438L58.6439 59.888C58.6545 60.083 58.7111 60.2727 58.8091 60.4416C58.9071 60.6106 59.0437 60.7539 59.2077 60.86L98.9203 83.702C99.2216 83.8802 99.4679 83.7344 99.4679 83.3747Z" fill="white"/>
</g>
<path d="M99.1635 83.9386C99.049 83.9341 98.9376 83.9007 98.8395 83.8414L59.1268 60.9994C58.9373 60.88 58.7794 60.7167 58.6665 60.5232C58.5537 60.3297 58.4893 60.1118 58.4788 59.888L58.4173 26.2439C58.4037 26.1452 58.4198 26.0447 58.4635 25.9552C58.5072 25.8657 58.5765 25.7913 58.6626 25.7412C58.7488 25.6912 58.8478 25.668 58.9472 25.6744C59.0466 25.6808 59.1418 25.7166 59.2208 25.7773L98.9335 48.5999C99.1227 48.7196 99.2803 48.8831 99.3931 49.0765C99.5058 49.2699 99.5705 49.4876 99.5815 49.7112L99.6366 83.3683C99.6443 83.4665 99.626 83.5651 99.5833 83.6538C99.5406 83.7426 99.4751 83.8185 99.3936 83.8738C99.324 83.9155 99.2446 83.9379 99.1635 83.9386ZM58.8903 25.9912C58.8691 25.9855 58.8467 25.9855 58.8255 25.9912C58.7939 26.0184 58.7696 26.0532 58.7549 26.0922C58.7402 26.1313 58.7355 26.1734 58.7413 26.2147L58.7964 59.8718C58.8056 60.0421 58.8554 60.2077 58.9416 60.3548C59.0278 60.5019 59.148 60.6263 59.2921 60.7175L99.0048 83.5595C99.102 83.6146 99.1862 83.6308 99.238 83.5984C99.2899 83.566 99.3223 83.4882 99.3223 83.3748L99.2672 49.7177C99.2568 49.5518 99.2081 49.3905 99.1249 49.2466C99.0417 49.1027 98.9263 48.98 98.7877 48.8882L59.0588 26.0462C59.0082 26.0139 58.9502 25.9949 58.8903 25.9912Z" fill="#B0296B"/>
<path d="M95.6967 75.9489C94.6437 75.2005 94.0281 74.5233 93.6102 69.3199L93.5745 68.876C93.1825 63.9869 92.9265 60.7598 90.6974 59.4282C89.6282 58.7802 88.7729 59.4282 87.8689 60.1313C87.0492 60.7566 86.2068 61.3981 85.2575 60.857C83.5889 59.885 83.3134 57.9605 82.795 54.4483C82.7302 54.0141 82.6654 53.5573 82.5909 53.0778C82.4775 52.3293 82.3803 51.6327 82.2896 50.9783C81.7777 47.2911 81.4666 45.062 79.581 43.9248C79.3953 43.7932 79.1814 43.7068 78.9564 43.6725C78.7314 43.6382 78.5015 43.6569 78.285 43.7271C76.8561 44.2261 75.7383 47.249 74.5557 50.4534C74.465 50.6899 74.3775 50.9394 74.2836 51.1889C73.425 53.5508 72.453 56.2303 71.1084 56.726C70.9182 56.7956 70.7148 56.8213 70.5134 56.8011C70.312 56.7809 70.1177 56.7153 69.9452 56.6094C68.6071 55.8512 68.3673 53.7776 68.1373 51.7688C67.9072 49.76 67.6837 47.7415 66.4201 46.9801C66.3129 46.9108 66.1904 46.869 66.0633 46.8582C65.9361 46.8475 65.8083 46.8682 65.6911 46.9185C64.1229 47.5277 62.733 52.1673 62.72 52.2127L62.396 52.122C62.4543 51.9243 63.8443 47.2847 65.5582 46.614C65.7219 46.5462 65.8995 46.5188 66.076 46.534C66.2525 46.5492 66.4227 46.6066 66.5724 46.7015C67.9688 47.5374 68.2118 49.6661 68.4483 51.7235C68.6848 53.7809 68.8987 55.6439 70.0975 56.321C70.2282 56.4041 70.3763 56.4558 70.5303 56.4721C70.6843 56.4884 70.84 56.4688 70.9852 56.415C72.1873 55.9711 73.1755 53.256 73.9693 51.0722C74.0632 50.8195 74.1507 50.5733 74.2414 50.3335C75.505 46.9153 76.5969 43.9637 78.1683 43.4129C78.4288 43.3284 78.7052 43.3053 78.9761 43.3452C79.247 43.3851 79.505 43.487 79.73 43.6429C81.7453 44.8611 82.066 47.1453 82.5909 50.9297C82.6816 51.5777 82.7788 52.2775 82.8922 53.0227C82.9668 53.5055 83.0316 53.9623 83.0964 54.3932C83.5921 57.8082 83.8675 59.6874 85.4 60.5687C86.1614 61.0061 86.8515 60.4779 87.6518 59.8688C88.559 59.1755 89.5958 58.3946 90.8432 59.1431C93.2117 60.5622 93.4773 63.8573 93.8758 68.8436L93.9115 69.2875C94.3392 74.5946 94.9807 75.0482 95.8555 75.68L95.6967 75.9489Z" fill="#B0296B"/>
<g opacity="0.4">
<path opacity="0.4" d="M95.6967 75.9489C94.6437 75.2005 94.0281 74.5233 93.6102 69.3199L93.5745 68.876C93.1825 63.9869 92.9265 60.7598 90.6974 59.4282C89.6282 58.7802 88.7729 59.4282 87.8689 60.1313C87.0492 60.7566 86.2068 61.3981 85.2575 60.857C83.5889 59.885 83.3134 57.9605 82.795 54.4483C82.7302 54.0141 82.6654 53.5573 82.5909 53.0778C82.4775 52.3293 82.3803 51.6327 82.2896 50.9783C81.7777 47.2911 81.4666 45.062 79.581 43.9248C79.3953 43.7932 79.1814 43.7068 78.9564 43.6725C78.7314 43.6382 78.5015 43.6569 78.285 43.7271C76.8561 44.2261 75.7383 47.249 74.5557 50.4534C74.465 50.6899 74.3775 50.9394 74.2836 51.1889C73.425 53.5508 72.453 56.2303 71.1084 56.726C70.9182 56.7956 70.7148 56.8213 70.5134 56.8011C70.312 56.7809 70.1177 56.7153 69.9452 56.6094C68.6071 55.8512 68.3673 53.7776 68.1373 51.7688C67.9072 49.76 67.6837 47.7415 66.4201 46.9801C66.3129 46.9108 66.1904 46.869 66.0633 46.8582C65.9361 46.8475 65.8083 46.8682 65.6911 46.9185C64.1229 47.5277 62.733 52.1673 62.72 52.2127L62.396 52.122C62.4543 51.9243 63.8443 47.2847 65.5582 46.614C65.7219 46.5462 65.8995 46.5188 66.076 46.534C66.2525 46.5492 66.4227 46.6066 66.5724 46.7015C67.9688 47.5374 68.2118 49.6661 68.4483 51.7235C68.6848 53.7809 68.8987 55.6439 70.0975 56.321C70.2282 56.4041 70.3763 56.4558 70.5303 56.4721C70.6843 56.4884 70.84 56.4688 70.9852 56.415C72.1873 55.9711 73.1755 53.256 73.9693 51.0722C74.0632 50.8195 74.1507 50.5733 74.2414 50.3335C75.505 46.9153 76.5969 43.9637 78.1683 43.4129C78.4288 43.3284 78.7052 43.3053 78.9761 43.3452C79.247 43.3851 79.505 43.487 79.73 43.6429C81.7453 44.8611 82.066 47.1453 82.5909 50.9297C82.6816 51.5777 82.7788 52.2775 82.8922 53.0227C82.9668 53.5055 83.0316 53.9623 83.0964 54.3932C83.5921 57.8082 83.8675 59.6874 85.4 60.5687C86.1614 61.0061 86.8515 60.4779 87.6518 59.8688C88.559 59.1755 89.5958 58.3946 90.8432 59.1431C93.2117 60.5622 93.4773 63.8573 93.8758 68.8436L93.9115 69.2875C94.3392 74.5946 94.9807 75.0482 95.8555 75.68L95.6967 75.9489Z" fill="black"/>
</g>
<path d="M90.2181 57.9958C90.4591 58.1537 90.6598 58.3656 90.8044 58.6148C90.949 58.864 91.0333 59.1435 91.0508 59.4311C91.0508 59.9592 90.6782 60.173 90.2213 59.9106C89.9793 59.7539 89.7777 59.5421 89.633 59.2927C89.4883 59.0433 89.4046 58.7632 89.3887 58.4753C89.3887 57.9601 89.7483 57.7463 90.2181 57.9958Z" fill="#B0296B"/>
<g opacity="0.2">
<path opacity="0.2" d="M90.2181 57.9958C90.4591 58.1537 90.6598 58.3656 90.8044 58.6148C90.949 58.864 91.0333 59.1435 91.0508 59.4311C91.0508 59.9592 90.6782 60.173 90.2213 59.9106C89.9793 59.7539 89.7777 59.5421 89.633 59.2927C89.4883 59.0433 89.4046 58.7632 89.3887 58.4753C89.3887 57.9601 89.7483 57.7463 90.2181 57.9958Z" fill="black"/>
</g>
<path d="M79.6654 42.8293C79.9066 42.9866 80.1074 43.1985 80.2515 43.4479C80.3956 43.6973 80.479 43.977 80.4948 44.2646C80.4948 44.7927 80.1255 45.0066 79.6686 44.7441C79.4264 44.5876 79.2247 44.3759 79.08 44.1264C78.9352 43.877 78.8516 43.5968 78.8359 43.3088C78.8359 42.7677 79.2053 42.5669 79.6654 42.8293Z" fill="#B0296B"/>
<g opacity="0.5">
<path opacity="0.5" d="M79.6654 42.8293C79.9066 42.9866 80.1074 43.1985 80.2515 43.4479C80.3956 43.6973 80.479 43.977 80.4948 44.2646C80.4948 44.7927 80.1255 45.0066 79.6686 44.7441C79.4264 44.5876 79.2247 44.3759 79.08 44.1264C78.9352 43.877 78.8516 43.5968 78.8359 43.3088C78.8359 42.7677 79.2053 42.5669 79.6654 42.8293Z" fill="white"/>
</g>
<path d="M66.5079 45.8909C66.75 46.0467 66.9517 46.2578 67.0965 46.5067C67.2412 46.7557 67.3249 47.0354 67.3405 47.323C67.3405 47.8543 66.9712 48.0682 66.5111 47.8057C66.27 47.6482 66.0694 47.4363 65.9253 47.1869C65.7812 46.9376 65.6977 46.6579 65.6817 46.3704C65.6784 45.8423 66.051 45.6252 66.5079 45.8909Z" fill="#B0296B"/>
<path opacity="0.65" d="M78.3661 81.8907V48.2336C78.3553 48.039 78.299 47.8497 78.2016 47.6808C78.1043 47.512 77.9686 47.3684 77.8056 47.2616L43.3935 27.3939C43.0695 27.2157 42.833 27.3615 42.833 27.7179V61.375C42.8435 61.5697 42.8998 61.7591 42.9971 61.928C43.0945 62.0969 43.2303 62.2404 43.3935 62.347L77.8056 82.2147C78.1166 82.3962 78.3661 82.2504 78.3661 81.8907Z" fill="white"/>
<path d="M78.0581 82.4549C77.9436 82.4504 77.8321 82.417 77.7341 82.3577L43.3123 62.49C43.1233 62.3693 42.9658 62.2052 42.8531 62.0113C42.7404 61.8175 42.6756 61.5994 42.6643 61.3754V27.7183C42.6516 27.6199 42.6682 27.5199 42.7122 27.431C42.7562 27.342 42.8255 27.2681 42.9115 27.2185C42.9975 27.1689 43.0962 27.146 43.1952 27.1524C43.2942 27.1589 43.3891 27.1946 43.4679 27.255L77.8799 47.1227C78.0689 47.2426 78.2264 47.4061 78.3391 47.5995C78.4519 47.7928 78.5166 48.0104 78.5279 48.234V81.8911C78.5357 81.9893 78.5173 82.0878 78.4746 82.1766C78.4319 82.2654 78.3665 82.3413 78.2849 82.3965C78.2157 82.4355 78.1375 82.4556 78.0581 82.4549ZM43.1439 27.4818C43.1226 27.4763 43.1003 27.4763 43.0791 27.4818C43.0474 27.509 43.0232 27.5438 43.0084 27.5828C42.9937 27.6219 42.989 27.664 42.9948 27.7053V61.3754C43.005 61.5418 43.0536 61.7036 43.1368 61.8481C43.22 61.9926 43.3355 62.1158 43.4743 62.2081L77.8864 82.0758C77.9194 82.1016 77.9583 82.1187 77.9997 82.1255C78.041 82.1323 78.0834 82.1286 78.1229 82.1147C78.1747 82.0855 78.2039 82.0045 78.2039 81.8911V48.234C78.194 48.068 78.1455 47.9065 78.0622 47.7625C77.979 47.6186 77.8633 47.496 77.7244 47.4045L43.3123 27.5401C43.2627 27.5053 43.2044 27.4851 43.1439 27.4818Z" fill="#B0296B"/>
<path d="M72.4462 74.2415V52.0929C72.4406 51.9954 72.4122 51.9007 72.3632 51.8162C72.3142 51.7318 72.2461 51.6601 72.1643 51.6069L68.7785 49.6629C68.6229 49.5721 68.4966 49.6434 68.4966 49.8249V71.9605C68.5014 72.0582 68.5295 72.1532 68.5785 72.2378C68.6275 72.3223 68.6961 72.3939 68.7785 72.4465L72.1643 74.3905C72.3198 74.4942 72.4462 74.4197 72.4462 74.2415Z" fill="#B0296B"/>
<g opacity="0.3">
<path opacity="0.3" d="M72.4462 74.2415V52.0929C72.4406 51.9954 72.4122 51.9007 72.3632 51.8162C72.3142 51.7318 72.2461 51.6601 72.1643 51.6069L68.7785 49.6629C68.6229 49.5721 68.4966 49.6434 68.4966 49.8249V71.9605C68.5014 72.0582 68.5295 72.1532 68.5785 72.2378C68.6275 72.3223 68.6961 72.3939 68.7785 72.4465L72.1643 74.3905C72.3198 74.4942 72.4462 74.4197 72.4462 74.2415Z" fill="black"/>
</g>
<path d="M65.8661 70.4408V58.9323C65.8605 58.8349 65.8321 58.7401 65.7831 58.6557C65.7342 58.5713 65.666 58.4996 65.5842 58.4463L62.1951 56.5023C62.0429 56.4149 61.9165 56.5023 61.9165 56.6643V68.1761C61.9222 68.2731 61.9503 68.3675 61.9987 68.4518C62.047 68.5362 62.1143 68.6081 62.1951 68.6621L65.5842 70.6061C65.7397 70.6935 65.8661 70.632 65.8661 70.4408Z" fill="#B0296B"/>
<g opacity="0.2">
<path opacity="0.2" d="M65.8661 70.4408V58.9323C65.8605 58.8349 65.8321 58.7401 65.7831 58.6557C65.7342 58.5713 65.666 58.4996 65.5842 58.4463L62.1951 56.5023C62.0429 56.4149 61.9165 56.5023 61.9165 56.6643V68.1761C61.9222 68.2731 61.9503 68.3675 61.9987 68.4518C62.047 68.5362 62.1143 68.6081 62.1951 68.6621L65.5842 70.6061C65.7397 70.6935 65.8661 70.632 65.8661 70.4408Z" fill="white"/>
</g>
<path d="M59.2918 66.6433V49.0533C59.2863 48.9559 59.2579 48.8611 59.2089 48.7767C59.1599 48.6922 59.0918 48.6205 59.01 48.5673L55.6209 46.6233C55.4686 46.5326 55.3423 46.6039 55.3423 46.7853V64.372C55.3475 64.4692 55.3754 64.5638 55.4238 64.6482C55.4722 64.7326 55.5397 64.8045 55.6209 64.858L59.01 66.802C59.159 66.8928 59.2918 66.8215 59.2918 66.6433Z" fill="#B0296B"/>
<g opacity="0.2">
<path opacity="0.2" d="M59.2918 66.6433V49.0533C59.2863 48.9559 59.2579 48.8611 59.2089 48.7767C59.1599 48.6922 59.0918 48.6205 59.01 48.5673L55.6209 46.6233C55.4686 46.5326 55.3423 46.6039 55.3423 46.7853V64.372C55.3475 64.4692 55.3754 64.5638 55.4238 64.6482C55.4722 64.7326 55.5397 64.8045 55.6209 64.858L59.01 66.802C59.159 66.8928 59.2918 66.8215 59.2918 66.6433Z" fill="black"/>
</g>
<path d="M52.7017 62.8557V37.6549C52.6967 37.5577 52.6689 37.463 52.6205 37.3786C52.5721 37.2942 52.5044 37.2223 52.4231 37.1689L49.034 35.2249C48.8817 35.1342 48.7554 35.2249 48.7554 35.3869V60.5747C48.7611 60.6717 48.7892 60.7661 48.8376 60.8505C48.8859 60.9348 48.9531 61.0067 49.034 61.0607L52.4231 63.0047C52.5786 63.0954 52.7017 63.0209 52.7017 62.8557Z" fill="#B0296B"/>
<path d="M122.676 66.8838C122.631 66.6408 121.441 63.8738 120.952 62.7852L118.474 63.9451L119.423 66.1191L121.989 68.1052C122.239 68.0292 122.449 67.8597 122.577 67.6322C122.705 67.4047 122.741 67.1366 122.676 66.8838Z" fill="#FFA8A7"/>
<path d="M117.738 95.8652H115.827V98.6516H117.738V95.8652Z" fill="#FFA8A7"/>
<path d="M111.004 92.424L109.094 92.4897L109.19 95.2745L111.1 95.2088L111.004 92.424Z" fill="#FFA8A7"/>
<path d="M111.482 55.9614C110.79 55.9775 110.114 56.1683 109.515 56.5162C108.917 56.864 108.417 57.3575 108.061 57.9508C107.004 59.5222 105.145 62.2081 105.145 62.2081L108.628 63.313L111.482 55.9614Z" fill="#B0296B"/>
<g opacity="0.7">
<path opacity="0.7" d="M111.482 55.9614C110.79 55.9775 110.114 56.1683 109.515 56.5162C108.917 56.864 108.417 57.3575 108.061 57.9508C107.004 59.5222 105.145 62.2081 105.145 62.2081L108.628 63.313L111.482 55.9614Z" fill="white"/>
</g>
<path d="M117.612 68.688C117.612 70.5153 117.849 82.3316 117.849 82.3316C117.894 82.8565 118.387 83.8253 118.28 85.8438C118.134 88.5881 117.897 96.2118 117.897 96.2118C117.897 96.2118 117 97.1028 115.733 96.2118C115.733 96.2118 114 85.86 113.659 83.1416C113.358 80.7699 112.853 74.3288 112.853 74.3288L111.08 81.9137C111.08 81.9137 111.404 83.6957 111.459 84.9528C111.515 86.2099 111.135 93.4805 111.135 93.4805C110.825 93.6742 110.47 93.7836 110.105 93.7978C109.739 93.812 109.376 93.7306 109.052 93.5615C109.052 93.5615 107.516 82.9407 107.319 81.8035C107.121 80.6663 108.667 68.688 108.667 68.688H117.612Z" fill="#B0296B"/>
<path opacity="0.2" d="M117.612 68.688C117.612 70.5153 117.849 82.3316 117.849 82.3316C117.894 82.8565 118.387 83.8253 118.28 85.8438C118.134 88.5881 117.897 96.2118 117.897 96.2118C117.897 96.2118 117 97.1028 115.733 96.2118C115.733 96.2118 114 85.86 113.659 83.1416C113.358 80.7699 112.853 74.3288 112.853 74.3288L111.08 81.9137C111.08 81.9137 111.404 83.6957 111.459 84.9528C111.515 86.2099 111.135 93.4805 111.135 93.4805C110.825 93.6742 110.47 93.7836 110.105 93.7978C109.739 93.812 109.376 93.7306 109.052 93.5615C109.052 93.5615 107.516 82.9407 107.319 81.8035C107.121 80.6663 108.667 68.688 108.667 68.688H117.612Z" fill="black"/>
<path d="M114.735 56.0196C116.449 56.4311 118.623 57.1244 119.387 58.7056C120.152 60.2867 121.331 62.8495 121.331 62.8495L118.493 64.5279L117.612 63.0115V68.688C116.271 70.146 111.592 70.8264 108.663 68.688V59.3438C108.663 57.8567 109.493 56.065 111.777 55.9321L114.735 56.0196Z" fill="#B0296B"/>
<path opacity="0.7" d="M114.735 56.0196C116.449 56.4311 118.623 57.1244 119.387 58.7056C120.152 60.2867 121.331 62.8495 121.331 62.8495L118.493 64.5279L117.612 63.0115V68.688C116.271 70.146 111.592 70.8264 108.663 68.688V59.3438C108.663 57.8567 109.493 56.065 111.777 55.9321L114.735 56.0196Z" fill="white"/>
<path d="M115.38 48.3929C115.534 48.3752 115.689 48.3928 115.835 48.4445C115.981 48.4962 116.114 48.5805 116.222 48.691C116.585 49.0603 116.51 49.7472 116.222 51.3219L115.101 51.4515L115.38 48.3929Z" fill="#263238"/>
<path d="M108.864 47.9521C108.623 47.9551 108.385 47.9076 108.164 47.8128C107.821 47.6151 107.73 48.0039 107.918 48.3441C108.042 48.5868 108.227 48.7936 108.453 48.945C108.68 49.0964 108.942 49.1874 109.214 49.2092C109.214 49.1606 109.538 48.3344 109.538 48.3344L108.864 47.9521Z" fill="#263238"/>
<path d="M114.855 51.4514C115.02 51.5518 115.257 51.2311 115.461 51.0172C115.541 50.9252 115.644 50.8552 115.759 50.8138C115.874 50.7723 115.998 50.7608 116.119 50.7802C116.24 50.7996 116.353 50.8494 116.45 50.9249C116.546 51.0003 116.622 51.099 116.669 51.2116C117.01 51.9277 116.238 52.8835 115.785 53.1977C115.658 53.3073 115.5 53.3741 115.333 53.3886C115.166 53.4031 114.999 53.3647 114.855 53.2787L114.735 56.0198C114.535 56.459 114.229 56.8417 113.844 57.1335C113.46 57.4253 113.009 57.6171 112.532 57.6916C110.912 57.9087 111.252 56.5835 111.78 55.9323V54.9344C111.378 55.0215 110.964 55.0434 110.555 54.9992C110.345 54.9441 109.846 54.3512 109.522 53.6611C109.159 52.8997 108.55 51.5486 109.094 49.2644C109.671 46.8117 112.305 46.7372 113.88 47.7254C115.454 48.7136 114.855 51.4514 114.855 51.4514Z" fill="#FFA8A7"/>
<path d="M114.855 51.7301C114.936 51.7301 115.257 51.2052 115.461 51.0173C115.749 50.7548 115.38 48.3929 115.38 48.3929C115.38 48.3929 115.668 47.4986 115.101 46.9025C114.534 46.3063 113.439 46.41 112.635 46.3808C111.649 46.3858 110.672 46.1896 109.765 45.8041C108.624 45.3084 108.54 45.2501 108.397 45.7523C108.255 46.2545 108.203 47.3982 108.883 48.1661L109.45 48.3767C109.45 48.3767 109.755 48.6456 110.818 48.7752C111.8 48.8498 112.787 48.8314 113.766 48.7201C114.074 48.678 114.139 48.9761 114.304 49.7925C114.453 50.5118 114.573 51.7268 114.855 51.7301Z" fill="#263238"/>
<path d="M115.376 48.5772L116.381 48.0361C116.349 47.9687 116.303 47.9084 116.248 47.859C116.192 47.8096 116.126 47.7721 116.055 47.7488C115.984 47.7255 115.909 47.7168 115.835 47.7233C115.761 47.7298 115.688 47.7514 115.623 47.7866C115.488 47.8614 115.387 47.9853 115.341 48.1326C115.295 48.2798 115.308 48.4391 115.376 48.5772Z" fill="#263238"/>
<path d="M111.78 54.9345C112.467 54.805 113.141 54.612 113.792 54.3578C114.099 54.1991 114.35 53.9504 114.512 53.645C114.433 53.9504 114.295 54.2368 114.103 54.4874C113.721 54.9734 111.78 55.3331 111.78 55.3331V54.9345Z" fill="#F28F8F"/>
<path d="M112.143 51.0789C112.142 51.1189 112.148 51.1587 112.163 51.196C112.177 51.2333 112.199 51.2673 112.227 51.296C112.255 51.3247 112.288 51.3476 112.325 51.3632C112.361 51.3787 112.401 51.3868 112.441 51.3867C112.507 51.3919 112.572 51.377 112.629 51.344C112.686 51.3109 112.732 51.2614 112.76 51.2018C112.788 51.1423 112.797 51.0756 112.786 51.0107C112.775 50.9457 112.745 50.8856 112.699 50.8383C112.654 50.7911 112.594 50.7589 112.53 50.746C112.465 50.7331 112.398 50.7402 112.338 50.7664C112.278 50.7925 112.227 50.8364 112.192 50.8922C112.157 50.9481 112.14 51.0132 112.143 51.0789Z" fill="#263238"/>
<path d="M112.457 49.9513L113.105 50.3045C113.15 50.2167 113.159 50.1151 113.132 50.0205C113.104 49.9259 113.041 49.8455 112.956 49.7958C112.913 49.7714 112.866 49.756 112.818 49.7507C112.769 49.7453 112.719 49.7501 112.673 49.7647C112.626 49.7793 112.582 49.8034 112.545 49.8355C112.508 49.8676 112.478 49.9071 112.457 49.9513Z" fill="#263238"/>
<path d="M112.166 53.104L111.482 53.36C111.497 53.4054 111.521 53.4474 111.553 53.4835C111.585 53.5195 111.623 53.5489 111.666 53.57C111.709 53.5911 111.756 53.6035 111.804 53.6063C111.852 53.6092 111.9 53.6025 111.945 53.5868C112.037 53.5498 112.111 53.4791 112.152 53.3893C112.193 53.2995 112.198 53.1974 112.166 53.104Z" fill="#F28F8F"/>
<path d="M109.48 50.2007L110.06 49.7504C110.032 49.7112 109.997 49.6779 109.957 49.6526C109.916 49.6273 109.871 49.6105 109.824 49.6032C109.776 49.596 109.728 49.5984 109.682 49.6103C109.636 49.6222 109.592 49.6434 109.554 49.6726C109.476 49.7341 109.425 49.8233 109.411 49.9217C109.397 50.0201 109.422 50.1201 109.48 50.2007Z" fill="#263238"/>
<path d="M109.658 50.9943C109.658 51.0335 109.665 51.0722 109.68 51.1084C109.695 51.1446 109.717 51.1774 109.745 51.2051C109.773 51.2328 109.806 51.2547 109.842 51.2697C109.878 51.2847 109.917 51.2924 109.956 51.2924C109.995 51.2924 110.034 51.2847 110.07 51.2697C110.106 51.2547 110.139 51.2328 110.167 51.2051C110.194 51.1774 110.216 51.1446 110.231 51.1084C110.246 51.0722 110.254 51.0335 110.254 50.9943C110.255 50.9544 110.248 50.9146 110.234 50.8773C110.22 50.84 110.198 50.806 110.17 50.7772C110.142 50.7485 110.109 50.7257 110.072 50.7101C110.035 50.6945 109.996 50.6865 109.956 50.6865C109.876 50.6882 109.799 50.7215 109.743 50.7791C109.688 50.8368 109.657 50.9141 109.658 50.9943Z" fill="#263238"/>
<path d="M111.177 50.7095L111.08 52.5077L110.144 52.1869L111.177 50.7095Z" fill="#F28F8F"/>
<path d="M103.375 61.5312L111.015 63.5433L113.27 73.0268L106.006 70.9175L103.375 61.5312Z" fill="#B0296B"/>
<path d="M106.706 67.8071C106.572 68.0472 106.368 68.2413 106.122 68.3643C105.876 68.4873 105.599 68.5337 105.326 68.4973L105.216 68.1052L106.706 67.8071Z" fill="#B0296B"/>
<path d="M108.414 68.105C108.446 68.3577 108.968 68.8243 109.846 69.1159C110.844 69.4399 112.376 69.2746 112.376 69.2746L112.24 68.8016L108.414 68.105Z" fill="#B0296B"/>
<path opacity="0.43" d="M105.624 62.9045L105.559 62.6129C105.527 62.4509 105.974 62.4444 106.564 62.5967L107.688 62.8883C108.278 63.0438 108.78 63.2966 108.815 63.4586L108.88 63.7502L105.624 62.9045Z" fill="#455A64"/>
<path d="M105.08 61.8066C105.06 61.7061 105.242 61.6802 105.488 61.7482L105.948 61.8843C105.948 61.8843 105.815 61.2363 106.806 61.4728C107.071 61.5119 107.321 61.6186 107.532 61.7826C107.743 61.9467 107.909 62.1625 108.012 62.4092L108.488 62.5453C108.75 62.6198 108.987 62.7591 109.019 62.8693L109.074 63.0507L105.138 62.0139L105.08 61.8066Z" fill="#37474F"/>
<path d="M105.624 62.1209C105.984 62.2083 106.133 62.2569 106.188 62.5032C106.243 62.7494 106.275 62.9957 106.275 62.9957L108.015 63.4557C108.015 63.4557 107.931 63.0961 107.905 62.9568C107.879 62.8175 107.938 62.7332 108.229 62.8045L108.252 62.6943L105.521 62.001L105.624 62.1209Z" fill="#37474F"/>
<path d="M105.563 62.9338L105.501 62.6422C105.465 62.4802 105.912 62.4737 106.502 62.626L107.626 62.9176C108.216 63.0699 108.722 63.3226 108.757 63.4846L108.819 63.7762L105.563 62.9338Z" fill="#37474F"/>
<path d="M121.989 68.1051L119.423 66.1189C119.423 66.1189 114.045 67.1298 113.439 67.1784C112.833 67.227 112.354 66.6276 112.124 66.0315C111.894 65.4353 111.427 65.5098 111.427 65.5098C111.427 65.5098 111.605 66.268 111.664 66.5077C111.722 66.7475 110.319 66.9451 109.512 66.673C108.705 66.4008 107.536 66.7961 108.258 67.8977C108.981 68.9993 110.394 69.1224 111.372 69.1257C111.782 69.1216 112.19 69.0935 112.597 69.0414C112.921 69.0025 113.245 68.9701 113.546 68.9475C115.548 68.8049 121.079 68.3902 121.989 68.1051Z" fill="#FFA8A7"/>
<path d="M104.15 64.3046L104.49 65.5131C104.555 65.7464 105.442 66.1611 106.006 66.3231C106.57 66.4851 107.182 66.6471 106.917 67.4474C106.67 68.1699 105.747 68.3351 105.277 68.3157C104.961 68.2622 104.665 68.1223 104.423 67.9113C104.181 67.7002 104.003 67.4265 103.907 67.1201C103.583 66.1967 103.758 65.2085 103.628 64.6675C103.499 64.1264 103.871 63.9838 104.15 64.3046Z" fill="#F28F8F"/>
<path d="M115.827 97.7092V97.4338C115.645 97.5148 115.218 99.138 114.459 99.8281C113.857 100.379 113.034 101.017 112.839 101.63C112.645 102.242 113.986 102.621 114.55 102.521C115.198 102.404 116.342 101.944 116.627 101.516C116.912 101.088 117.045 100.457 117.275 100.142C117.505 99.8281 118.04 99.4944 118.166 99.1186C118.204 98.7797 118.166 98.4368 118.056 98.1142C117.968 97.774 117.871 97.4046 117.758 97.4338C117.758 97.4759 117.758 97.6443 117.758 97.6443C117.48 97.8595 117.137 97.9738 116.786 97.9683C116.504 97.9781 115.823 97.923 115.827 97.7092Z" fill="#37474F"/>
<path d="M109.188 94.6796C109.087 94.6796 109.006 94.8221 108.789 95.0587C108.462 95.3899 108.08 95.6637 107.662 95.8687C106.946 96.2283 105.556 96.7791 104.924 97.0642C104.529 97.2424 104.548 97.7122 104.957 97.9876C105.365 98.263 106.346 98.4542 107.526 98.1885C108.174 98.046 109.007 97.453 109.535 97.4822C110.063 97.5114 111.054 97.5081 111.446 97.2392C111.838 96.9703 111.679 96.3936 111.569 95.8978C111.459 95.4021 111.278 94.5338 111.1 94.5694V94.7411C110.869 95.0878 109.697 95.2304 109.191 94.9744L109.188 94.6796Z" fill="#37474F"/>
<path d="M26.3445 93.5162L27.54 95.1783C26.995 95.43 26.4004 95.5562 25.8001 95.5477C24.7309 95.5898 24.4361 95.2237 24.3972 95.1524C24.2158 94.7668 24.4977 94.067 24.5754 93.4644L26.3445 93.5162Z" fill="#37474F"/>
<path d="M24.397 91.8439C24.397 91.8439 24.5784 93.3537 24.5914 93.6777C24.6043 94.0017 26.0656 94.1087 26.3442 93.5157L26.3863 91.6689L24.397 91.8439Z" fill="#F28F8F"/>
<path d="M24.397 62.0977C23.3991 63.6529 22.453 65.0137 22.2456 66.7697C21.8179 70.4601 23.2176 74.6786 23.5189 77.4067C22.9524 78.1851 22.6248 79.1116 22.5761 80.0732C22.5761 81.2007 24.397 91.8441 24.397 91.8441C24.397 91.8441 25.7189 92.2491 26.3863 91.6691L27.637 72.0898L26.989 69.7052L24.397 62.0977Z" fill="#B0296B"/>
<path opacity="0.5" d="M24.397 62.0977C23.3991 63.6529 22.453 65.0137 22.2456 66.7697C21.8179 70.4601 23.2176 74.6786 23.5189 77.4067C22.9524 78.1851 22.6248 79.1116 22.5761 80.0732C22.5761 81.2007 24.397 91.8441 24.397 91.8441C24.397 91.8441 25.7189 92.2491 26.3863 91.6691L27.637 72.0898L26.989 69.7052L24.397 62.0977Z" fill="white"/>
<path d="M33.6214 54.8047L40.2018 57.9637L36.2523 66.8445L30.1157 63.3032L33.6214 54.8047Z" fill="#B0296B"/>
<path d="M39.4273 58.1252L36.0188 65.6938L31.2949 62.9722L33.9744 55.5234L39.4273 58.1252Z" fill="#B0296B"/>
<path d="M33.9747 55.5234L39.4276 58.1252L35.7469 65.7748L30.5889 62.8296L33.9747 55.5234Z" fill="white"/>
<path d="M35.1602 56.6189L35.2865 56.3467C35.3578 56.1977 35.8082 56.2592 36.2942 56.4893L37.224 56.9299C37.71 57.1567 38.0438 57.4677 37.9757 57.6168L37.8461 57.8889L35.1602 56.6189Z" fill="#E0E0E0"/>
<path d="M22.1648 57.9961C21.6852 59.3634 20.7359 61.5342 21.0405 61.9716C21.345 62.409 23.1724 62.315 24.1898 62.2761C25.4858 62.2275 26.5614 62.1757 26.5614 62.1757L26.3444 59.9077H24.504L25.314 57.6138L22.1648 57.9961Z" fill="#F28F8F"/>
<path d="M24.0084 53.1357C23.3377 54.2373 21.9834 58.1253 21.9834 58.1253C22.3597 58.5521 22.8588 58.852 23.4122 58.9839C23.8956 59.1323 24.4092 59.1524 24.9026 59.0423L26.3995 55.3163L24.0084 53.1357Z" fill="#B0296B"/>
<path opacity="0.4" d="M24.0084 53.1357C23.3377 54.2373 21.9834 58.1253 21.9834 58.1253C22.3597 58.5521 22.8588 58.852 23.4122 58.9839C23.8956 59.1323 24.4092 59.1524 24.9026 59.0423L26.3995 55.3163L24.0084 53.1357Z" fill="black"/>
<path d="M30.7052 53.8291C31.8813 54.1823 32.5974 54.2438 33.8966 56.2429C35.1959 58.242 38.0406 62.2077 38.3225 62.684C38.7145 63.332 38.883 64.1355 38.546 64.7447C38.2091 65.3538 37.3116 65.0687 36.0221 63.9314C34.7325 62.7942 32.3025 59.7453 32.3025 59.7453C32.3025 59.7453 29.7689 56.8909 30.7052 53.8291Z" fill="#FFA8A7"/>
<path d="M29.7658 51.2371L29.4482 54.0462L26.6748 54.3669L27.0766 50.6377L29.7658 51.2371Z" fill="#FFA8A7"/>
<path d="M23.8335 47.1325C24.0635 44.5405 25.4535 43.4681 26.5583 43.2121C28.7518 42.6937 30.7088 43.4908 31.5965 45.0298C31.8298 45.4348 32.2219 46.9511 31.441 47.8453C30.6602 48.7396 23.8335 47.1325 23.8335 47.1325Z" fill="#263238"/>
<path d="M31.8136 48.0459C31.8136 48.0459 32.3903 49.0179 32.3028 49.1281C32.1495 49.2171 31.9817 49.2785 31.8071 49.3095L31.8136 48.0459Z" fill="#F28F8F"/>
<path d="M30.0641 44.9193C30.6602 45.2725 31.6841 45.9172 31.8234 48.1852C31.9692 50.5148 31.5253 51.2308 31.1754 51.5159C30.9518 51.7103 29.8049 51.6455 29.2314 51.4349C28.5283 51.1693 26.9634 50.4467 26.2895 49.2091C25.5119 47.7543 25.4438 45.8719 26.4741 45.1947C26.9994 44.8466 27.605 44.6386 28.2333 44.5904C28.8616 44.5422 29.4918 44.6554 30.0641 44.9193Z" fill="#FFA8A7"/>
<path d="M30.2387 45.0356C30.2387 45.0356 30.6502 47.1773 29.9374 48.4733C29.9374 48.4733 29.6134 47.6276 28.8876 47.8253C28.1619 48.0229 28.1716 48.9755 28.7062 49.4939C28.8416 49.6414 29.016 49.7476 29.2091 49.8004C29.4023 49.8531 29.6065 49.8502 29.7981 49.792C29.6973 50.459 29.3863 51.0765 28.9103 51.5545C28.1547 51.7293 27.3651 51.687 26.6324 51.4325C25.8998 51.178 25.2541 50.7216 24.7696 50.116C23.1496 48.1914 23.574 44.932 26.1433 44.2321C28.7127 43.5323 30.2387 45.0356 30.2387 45.0356Z" fill="#263238"/>
<path d="M27.472 94.3807C27.472 94.3807 28.9235 94.2868 29.9247 94.1604C30.9258 94.034 31.7196 94.5233 31.4831 94.938C31.2466 95.3527 30.6958 95.6929 29.8372 95.9813C29.1017 96.2308 28.2172 96.409 27.4525 96.6293C26.6879 96.8496 26.1565 97.1347 25.7127 96.9824C25.2169 96.8107 25.0031 96.6131 25.0452 96.2502C25.1534 95.734 25.2875 95.2236 25.447 94.7209L27.472 94.3807Z" fill="#37474F"/>
<path d="M25.8681 92.7739L25.3465 95.0646C25.3465 95.0646 25.2979 95.3432 26.4902 95.5214C27.6825 95.6996 29.5552 94.8993 29.876 94.7341C30.1967 94.5689 30.2324 94.2481 29.0595 94.3129C27.8866 94.3777 27.4719 94.3809 27.4719 94.3809L27.8639 93.3636L25.8681 92.7739Z" fill="#FFA8A7"/>
<path d="M27.6373 72.0896L26.9893 69.7049C25.7486 69.3783 24.5519 68.9029 23.4253 68.2891C23.4253 68.2891 24.0992 69.517 26.0173 70.1877L27.0249 73.2527L27.1124 80.2641L27.6373 72.0896Z" fill="#B0296B"/>
<path d="M24.3974 62.0977C23.8628 62.9692 22.5862 64.4629 22.8551 65.8949C23.1791 67.6348 24.122 68.8531 26.9796 69.7052L29.6624 79.4252C29.6624 79.4252 28.2659 80.7212 27.8382 81.9751C27.4106 83.2289 25.8683 92.7837 25.8683 92.7837C25.8683 92.7837 26.3446 93.5613 27.8512 93.3734C27.8512 93.3734 33.1033 81.3854 33.4759 80.6045C33.9204 79.8183 34.0773 78.9019 33.9197 78.0125C33.7545 76.7522 31.9757 62.9919 31.9757 62.9919L24.3974 62.0977Z" fill="#B0296B"/>
<path opacity="0.5" d="M24.3974 62.0977C23.8628 62.9692 22.5862 64.4629 22.8551 65.8949C23.1791 67.6348 24.122 68.8531 26.9796 69.7052L29.6624 79.4252C29.6624 79.4252 28.2659 80.7212 27.8382 81.9751C27.4106 83.2289 25.8683 92.7837 25.8683 92.7837C25.8683 92.7837 26.3446 93.5613 27.8512 93.3734C27.8512 93.3734 33.1033 81.3854 33.4759 80.6045C33.9204 79.8183 34.0773 78.9019 33.9197 78.0125C33.7545 76.7522 31.9757 62.9919 31.9757 62.9919L24.3974 62.0977Z" fill="white"/>
<path d="M23.911 53.3369C24.1184 52.7861 24.7794 52.326 25.3755 52.488C27.245 52.9967 30.1513 53.6674 30.7053 53.8294C30.7053 53.8294 30.4591 58.0414 32.6104 59.2985C32.51 60.0988 31.9624 62.9694 31.9624 62.9694C31.9624 62.9694 29.3704 64.2265 27.245 63.6174C25.1196 63.0083 24.397 62.1076 24.397 62.1076L25.463 60.3709C25.2362 59.8039 24.3549 57.8891 23.7879 56.1071C23.5794 55.1894 23.6219 54.2325 23.911 53.3369Z" fill="#B0296B"/>
<path opacity="0.2" d="M23.911 53.3369C24.1184 52.7861 24.7794 52.326 25.3755 52.488C27.245 52.9967 30.1513 53.6674 30.7053 53.8294C30.7053 53.8294 30.4591 58.0414 32.6104 59.2985C32.51 60.0988 31.9624 62.9694 31.9624 62.9694C31.9624 62.9694 29.3704 64.2265 27.245 63.6174C25.1196 63.0083 24.397 62.1076 24.397 62.1076L25.463 60.3709C25.2362 59.8039 24.3549 57.8891 23.7879 56.1071C23.5794 55.1894 23.6219 54.2325 23.911 53.3369Z" fill="black"/>
<path opacity="0.25" d="M25.1714 59.6772C26.0574 60.2102 26.9862 60.6686 27.9481 61.0478C27.0752 61.0309 26.2206 60.7947 25.463 60.3609L25.1714 59.6772Z" fill="#B0296B"/>
<path d="M25.7223 43.7884C25.7223 43.7884 24.8346 42.2754 22.6605 42.6674C20.4865 43.0594 19.6052 45.3663 19.6376 46.8276C19.67 48.2888 20.1592 49.3094 18.8503 51.0396C18.5923 51.3808 18.4105 51.7733 18.3172 52.1908C18.2238 52.6082 18.2211 53.0409 18.3093 53.4594C18.3974 53.878 18.5743 54.2728 18.8281 54.6172C19.0818 54.9616 19.4065 55.2475 19.7802 55.4557C21.5265 56.4277 21.951 54.7364 21.546 53.2914C21.0794 51.6357 22.8128 51.3474 23.2761 50.0935C23.7394 48.8396 22.829 46.2055 23.4122 45.3112C24.0602 44.3392 24.935 44.4753 25.3562 44.8058L25.7223 43.7884Z" fill="#263238"/>
<path d="M30.7053 53.8291C31.2863 53.9526 31.8539 54.1327 32.3998 54.3669C33.1126 54.7169 35.8925 59.0811 35.8925 59.0811C35.8925 59.0811 35.6949 60.7238 33.4204 61.3751L32.0758 59.6773C32.0758 59.6773 30.0994 56.7257 30.7053 53.8291Z" fill="#B0296B"/>
<path opacity="0.1" d="M30.7053 53.8291C31.2863 53.9526 31.8539 54.1327 32.3998 54.3669C33.1126 54.7169 35.8925 59.0811 35.8925 59.0811C35.8925 59.0811 35.6949 60.7238 33.4204 61.3751L32.0758 59.6773C32.0758 59.6773 30.0994 56.7257 30.7053 53.8291Z" fill="black"/>
<path d="M32.4712 60.1892C31.8737 59.4938 31.423 58.6849 31.146 57.811C31.146 57.811 31.146 59.6967 32.3869 60.672L32.4712 60.1892Z" fill="#B0296B"/>
<path opacity="0.4" d="M32.4712 60.1892C31.8737 59.4938 31.423 58.6849 31.146 57.811C31.146 57.811 31.146 59.6967 32.3869 60.672L32.4712 60.1892Z" fill="black"/>
<path d="M35.3972 55.446C35.4393 55.3521 35.637 55.3586 35.8379 55.446L36.2007 55.6242C36.2007 55.6242 36.4826 55.0378 37.325 55.391C38.1674 55.7441 37.9082 56.4213 37.9082 56.4213L38.2938 56.6189C38.5076 56.7259 38.6502 56.8911 38.6178 56.9883L38.553 57.16L35.313 55.6048L35.3972 55.446Z" fill="#455A64"/>
<path d="M35.7276 55.8153C36.0321 55.9514 36.1488 56.0162 36.0516 56.2495C35.9544 56.4828 35.8151 56.7063 35.8151 56.7063L37.2471 57.3932C37.2471 57.3932 37.3994 57.0692 37.4642 56.9266C37.529 56.7841 37.6457 56.729 37.8725 56.8392L37.9697 56.742L35.7017 55.689L35.7276 55.8153Z" fill="#455A64"/>
<path d="M35.1343 56.5378L35.2639 56.2656C35.3352 56.1133 35.7855 56.1781 36.2715 56.4082L37.2014 56.8488C37.6842 57.0756 38.0211 57.3834 37.9498 57.5357L37.8202 57.8078L35.1343 56.5378Z" fill="#455A64"/>
</svg>
