<svg width="126" height="126" viewBox="0 0 126 126" fill="none" xmlns="http://www.w3.org/2000/svg">
<g clip-path="url(#clip0)">
<path d="M125.459 78.205L115.934 68.6797C114.674 67.4202 113 66.7262 111.218 66.7262C109.911 66.7262 108.661 67.1012 107.591 67.7979L99.4595 59.667L102.279 56.8482C105.284 53.839 105.284 48.9429 102.277 45.932C100.979 44.6373 99.303 43.8599 97.4989 43.7039C98.2766 41.0773 97.6311 38.1138 95.5622 36.043C94.3543 34.8351 92.8153 34.0774 91.1485 33.8537C91.4945 32.969 91.6754 32.0181 91.6754 31.0394C91.6754 28.9776 90.8721 27.0396 89.4145 25.5835C88.0708 24.2398 86.3509 23.4964 84.5906 23.3529C85.3384 20.7426 84.6865 17.8113 82.6346 15.7574C81.1768 14.2996 79.238 13.4966 77.1755 13.4966C75.6564 13.4966 74.2047 13.9341 72.9621 14.7475L72.4549 13.7838C71.2744 11.5411 68.7953 10.2676 66.2841 10.6188L54.6483 12.2405C53.2823 11.0246 51.5409 10.3589 49.6964 10.3589C47.7023 10.3589 45.8273 11.1356 44.4165 12.5467C43.0736 13.8911 42.3525 15.6253 42.2504 17.389C41.7343 17.2778 41.2032 17.219 40.6628 17.219C38.6687 17.219 36.7942 17.9954 35.3844 19.4053V19.4055C33.3428 21.4471 32.7354 24.3862 33.5581 26.9638C31.9558 27.1563 30.4044 27.8638 29.1774 29.0908C29.1774 29.0908 29.1774 29.0908 29.1774 29.091C27.2578 31.0106 26.605 33.7243 27.2177 36.1847C25.5094 36.3203 23.8391 37.0382 22.5353 38.3417V38.342C19.625 41.2523 19.625 45.9876 22.5353 48.8982L25.4432 51.806C25.7638 52.1267 26.1076 52.4097 26.4676 52.6597C26.7905 54.7987 27.6393 56.8214 28.9313 58.5448L18.4098 69.068C15.8265 67.3926 12.3293 67.6854 10.0667 69.9483L0.54265 79.4733C-0.623343 80.6396 0.218052 82.6243 1.84768 82.6243C2.31994 82.6243 2.79244 82.4442 3.15272 82.0839L12.678 72.5586C13.8391 71.3975 15.7281 71.397 16.8892 72.5586L22.8154 78.4848C23.5362 79.2053 24.7049 79.2053 25.4254 78.4848C26.1462 77.7637 26.1462 76.5953 25.4254 75.8745L21.1252 71.5742L32.7548 59.9426C33.4757 59.2218 33.4754 58.0533 32.7548 57.3328C31.8 56.3779 31.0725 55.2336 30.6067 53.9861C30.6453 53.9866 30.684 53.9888 30.7226 53.9888C32.6343 53.9888 34.5457 53.2612 36.0011 51.806C37.2539 50.5531 38.0053 48.9331 38.1573 47.1885C38.7696 47.3483 39.4058 47.4322 40.0552 47.4322C42.0491 47.4322 43.9236 46.6557 45.3334 45.2456C46.526 44.0531 47.2291 42.5539 47.4442 40.9995C48.2356 41.2798 49.0775 41.4263 49.9418 41.4263C51.9356 41.4263 53.8101 40.6498 55.22 39.2397C57.7961 36.6636 58.0902 32.6584 56.1059 29.754C57.4351 29.438 58.655 28.7618 59.6455 27.7712C59.6684 27.7484 59.6891 27.7233 59.7117 27.7001C60.0518 27.675 60.3926 27.6352 60.7335 27.5756L65.0101 26.829C65.5375 26.8545 66.058 26.6569 66.4315 26.2684L66.465 26.2349C66.4653 26.2346 66.4655 26.2344 66.4658 26.2341L68.2605 24.4394L73.7218 18.9783C73.7405 18.9599 73.7587 18.9409 73.7765 18.9215L74.3299 18.3683C75.0906 17.6073 76.1015 17.1885 77.1765 17.1885C78.2529 17.1885 79.2646 17.6073 80.0248 18.3675C81.5939 19.9383 81.5941 22.4925 80.0255 24.0611L78.5022 25.5842C77.7814 26.305 77.7814 27.4737 78.5022 28.1943C79.2233 28.9153 80.3917 28.9151 81.1125 28.1945L81.1187 28.1884C82.689 26.6252 85.2383 26.6274 86.8061 28.195C87.5663 28.9547 87.9852 29.9649 87.9852 31.0401C87.9852 32.1155 87.5663 33.1267 86.8056 33.8874L84.6607 36.0326C84.6565 36.0368 84.6526 36.0407 84.6486 36.0447C83.9288 36.7662 83.9298 37.9342 84.6508 38.6543C85.3717 39.3741 86.5396 39.3738 87.2604 38.6535L87.2676 38.6464C88.0233 37.8921 89.0313 37.4764 90.107 37.4764C91.1837 37.4764 92.1944 37.8943 92.9526 38.6528C94.5217 40.2236 94.5219 42.7778 92.9531 44.3466L91.3658 45.934C90.6452 46.6545 90.645 47.8225 91.3653 48.5435C92.0853 49.2641 93.2535 49.2651 93.9749 48.5455C94.7365 47.7856 95.748 47.367 96.8226 47.367C97.8973 47.367 98.9088 47.7856 99.6682 48.5435C101.237 50.1141 101.237 52.6698 99.669 54.2396L95.5658 58.3425C95.559 58.3491 95.5513 58.3548 95.5447 58.3617C95.5378 58.3686 95.5321 58.376 95.5255 58.3829L71.8365 82.0696C70.2283 83.6778 68.0905 84.5635 65.8168 84.5635C63.5434 84.5635 61.4066 83.6781 59.7991 82.0696L59.4644 81.7349C58.7436 81.0144 57.5749 81.0144 56.8543 81.7349L44.0707 94.5185L30.6741 81.1219C29.9533 80.4014 28.7846 80.4014 28.0641 81.1219C27.3432 81.843 27.3432 83.0114 28.0641 83.7322L43.0861 98.7543C44.2472 99.9154 44.2472 101.804 43.0861 102.965L33.5603 112.49C32.8395 113.211 32.8395 114.38 33.5603 115.101C33.9206 115.461 34.3931 115.641 34.8653 115.641C35.3376 115.641 35.8101 115.461 36.1704 115.101L45.6957 105.575C47.9583 103.313 48.2511 99.8157 46.5762 97.2327L58.2123 85.5966C60.3651 87.3193 63.0187 88.2547 65.8161 88.2547C69.0758 88.2547 72.1407 86.9851 74.4456 84.6799L96.8497 62.2778L104.878 70.3058L81.9342 93.2494L77.1477 88.4629C76.4269 87.7423 75.2582 87.7423 74.5376 88.4629C73.8168 89.1839 73.8168 90.3524 74.5376 91.0732L79.4275 95.9631C78.7301 97.0341 78.3548 98.2835 78.3548 99.5917C78.3548 101.373 79.0485 103.048 80.3083 104.307L89.8336 113.833C90.5546 114.554 91.7231 114.554 92.4437 113.833C93.1645 113.112 93.1645 111.943 92.4437 111.223L82.9184 101.697C82.356 101.135 82.0462 100.387 82.0462 99.5917C82.0462 98.7964 82.356 98.0485 82.9184 97.4862L109.114 71.291C109.676 70.7284 110.424 70.4186 111.219 70.4186C112.015 70.4186 112.762 70.7284 113.325 71.291L122.85 80.8163C123.571 81.5368 124.74 81.5368 125.46 80.8163C126.18 80.0945 126.18 78.926 125.459 78.205ZM47.0283 15.1565C47.6888 14.496 48.5518 14.1145 49.4767 14.0614C49.4462 14.0995 49.4132 14.1349 49.3841 14.1743C48.745 15.0371 48.4854 16.0966 48.6535 17.1567L48.9727 19.1717C49.4011 21.8773 50.8646 24.2442 53.0933 25.8367C53.27 25.963 53.4503 26.0813 53.6329 26.1955C52.905 26.0525 52.2356 25.6979 51.6991 25.1604L49.1307 22.5934L47.0192 20.482C45.5596 19.0096 45.5625 16.6237 47.0283 15.1565ZM33.391 49.1954C31.9198 50.6666 29.5261 50.6668 28.0547 49.1954L25.1469 46.2878C23.6757 44.8164 23.6757 42.4227 25.1469 40.9513V40.9515C26.617 39.4811 29.0088 39.4806 30.48 40.9483L32.3074 42.7758L33.391 43.8594C34.1037 44.5721 34.4962 45.5193 34.4962 46.5273C34.4962 47.5355 34.1037 48.4827 33.391 49.1954ZM42.7231 42.6353C42.0104 43.348 41.063 43.7403 40.055 43.7403C39.0472 43.7403 38.0995 43.3478 37.3868 42.6351L34.9175 40.1658L33.0932 38.3412C33.0913 38.3393 33.089 38.3373 33.0871 38.3353L31.7887 37.0369C30.3175 35.5655 30.3175 33.1718 31.7887 31.7004V31.7006C33.2593 30.23 35.6519 30.2295 37.1233 31.6989L42.7241 37.2995C44.194 38.7711 44.194 41.1644 42.7231 42.6353ZM52.6097 36.6294C51.897 37.3421 50.9493 37.7344 49.9415 37.7344C48.9338 37.7344 47.9861 37.3418 47.2734 36.6291L45.3344 34.6904C45.3339 34.6899 45.3334 34.6894 45.3329 34.6889L39.7346 29.0906C39.7318 29.0879 39.7289 29.0854 39.7262 29.0827L37.9952 27.3517C36.524 25.8803 36.524 23.4865 37.9952 22.0151V22.0154C39.4663 20.544 41.8601 20.544 43.3315 22.0154L44.3993 23.0832C44.4057 23.0896 44.4116 23.0965 44.418 23.1029L46.4426 25.1262L52.6097 31.2931C54.0806 32.7645 54.0806 35.1582 52.6097 36.6294ZM68.8504 18.6286L64.2657 23.2114L60.0978 23.9393C58.3826 24.2391 56.6562 23.8463 55.2387 22.8336C53.8212 21.8207 52.8905 20.3153 52.6181 18.5947L52.2989 16.5794C52.2839 16.4849 52.3183 16.4143 52.3498 16.3719C52.3813 16.3294 52.4387 16.276 52.5336 16.2627L66.794 14.2755C66.9016 14.2602 67.0086 14.2531 67.1152 14.2531C67.9745 14.2531 68.7815 14.7295 69.189 15.5037L70.1498 17.329L68.8504 18.6286Z" fill="white"/>
</g>
<defs>
<clipPath id="clip0">
<rect width="126" height="126" fill="white"/>
</clipPath>
</defs>
</svg>
