<svg width="25" height="24" viewBox="0 0 25 24" fill="none" xmlns="http://www.w3.org/2000/svg">
<g clip-path="url(#clip0)">
<path d="M5.98492 14.5036L5.14952 17.6223L2.09613 17.6869C1.18361 15.9944 0.666016 14.0579 0.666016 12.0001C0.666016 10.0102 1.14995 8.13374 2.00777 6.48145H2.00842L4.7268 6.97982L5.91761 9.68188C5.66838 10.4085 5.53253 11.1885 5.53253 12.0001C5.53263 12.881 5.69219 13.725 5.98492 14.5036Z" fill="white"/>
<path d="M24.4572 9.7583C24.595 10.4842 24.6668 11.2339 24.6668 12C24.6668 12.8592 24.5765 13.6972 24.4044 14.5056C23.8203 17.2563 22.2939 19.6583 20.1794 21.3581L20.1788 21.3574L16.7548 21.1827L16.2702 18.1576C17.6733 17.3348 18.7698 16.0471 19.3474 14.5056H12.9307V9.7583H19.441H24.4572Z" fill="white"/>
<path d="M20.1775 21.3572L20.1781 21.3579C18.1217 23.0109 15.5093 23.9999 12.6656 23.9999C8.0957 23.9999 4.12253 21.4456 2.0957 17.6867L5.9845 14.5034C6.99789 17.208 9.60691 19.1333 12.6656 19.1333C13.9803 19.1333 15.212 18.7779 16.2689 18.1575L20.1775 21.3572Z" fill="white"/>
<path d="M20.3256 2.76262L16.4381 5.94525C15.3443 5.26153 14.0513 4.86656 12.6661 4.86656C9.53814 4.86656 6.88033 6.88017 5.9177 9.68175L2.00847 6.48131H2.00781C4.00497 2.63077 8.02825 0 12.6661 0C15.5777 0 18.2474 1.03716 20.3256 2.76262Z" fill="white"/>
</g>
<defs>
<clipPath id="clip0">
<rect width="24" height="24" fill="white" transform="translate(0.666016)"/>
</clipPath>
</defs>
</svg>
