<svg width="120" height="60" viewBox="0 0 120 60" fill="none" xmlns="http://www.w3.org/2000/svg">
<path d="M48.0927 36.2279L50.4807 42.4979H45.8537L48.0937 36.2279H48.0927ZM47.1967 34.1279L41.9727 47.8579H43.9127L45.2557 44.1279H51.0757L52.4187 47.8579H54.3587L49.1347 34.1279H47.1947H47.1967ZM75.3967 47.8699H77.1967V34.1379H75.3967V47.8679V47.8699ZM57.0467 39.7999C57.6437 38.9039 58.8467 38.1579 60.0317 38.1579C62.4197 38.1579 63.6137 39.7999 63.6137 42.1879V48.0079H61.8137V42.4859C61.8137 40.5459 60.7687 39.7989 59.4257 39.7989C57.9327 39.7989 56.8887 41.2919 56.8887 42.6349V47.8589H55.0887V38.3199H56.8887L57.0387 39.8129L57.0467 39.7999ZM65.1067 45.0339C65.1067 42.9339 67.0467 41.7499 69.2867 41.7499C70.6297 41.7499 71.5267 42.0499 71.8237 42.3469V42.0469C71.8237 40.5539 70.6297 39.8069 69.4357 39.8069C68.3907 39.8069 67.4957 40.2549 67.1957 41.1499L65.5537 40.4039C65.8537 39.5079 67.0467 38.1639 69.4337 38.1639C71.6737 38.1639 73.6137 39.5069 73.6137 42.1939V47.8659H71.9717V46.5229H71.8217C71.3737 47.2689 70.3287 48.1649 68.6877 48.1649C66.7477 48.1649 65.1057 46.9709 65.1057 45.0309L65.1067 45.0339ZM71.8217 43.8369C71.8217 43.8369 71.0757 43.2399 69.5817 43.2399C67.7817 43.2399 67.0447 44.2849 67.0447 45.0399C67.0447 46.0849 68.0897 46.5329 68.9847 46.5329C70.3277 46.5329 71.8207 45.3389 71.8207 43.8459" fill="white"/>
<path fill-rule="evenodd" clip-rule="evenodd" d="M79.7345 52.0498L81.8345 47.1248L78.1045 38.4678H79.9045L82.7405 45.0348L85.5765 38.4678H87.3765L81.5565 52.0498H79.7565H79.7345ZM106.004 41.5998C105.556 40.4058 104.511 39.6598 103.467 39.6598C101.974 39.6598 100.631 41.0028 100.631 42.9438C100.631 44.8848 101.974 46.2278 103.467 46.2278C104.512 46.2278 105.567 45.4818 106.004 44.4278L107.497 45.3238C106.751 46.9658 105.257 48.0108 103.467 48.0108C100.93 48.0108 98.8405 45.7708 98.8405 42.9358C98.8405 39.9508 100.94 37.8608 103.467 37.8608C105.267 37.8608 106.751 38.9058 107.497 40.5478L106.004 41.5928V41.5998Z" fill="white"/>
<path d="M112.421 48.1678C114.809 48.1678 116.003 46.8248 116.003 45.1828C116.003 41.6008 110.779 42.9428 110.779 40.8548C110.779 40.1088 111.376 39.6608 112.421 39.6608C113.466 39.6608 114.521 40.1088 114.958 40.8548L116.003 39.8098C115.406 39.0638 113.763 38.0098 112.273 38.0098C110.033 38.0098 108.84 39.3528 108.84 40.9948C108.84 44.4278 114.213 43.2348 114.213 45.0248C114.213 45.9208 113.616 46.5178 112.413 46.5178C111.21 46.5178 110.613 45.7718 110.025 45.0248L108.699 46.0798C109.595 46.9758 110.939 48.1798 112.429 48.1798L112.421 48.1678ZM95.4062 47.8698H97.2063V38.3178H95.4062V47.8698Z" fill="white"/>
<path fill-rule="evenodd" clip-rule="evenodd" d="M96.1527 33.7002C96.8987 33.7002 97.3467 34.2972 97.3467 34.8942C97.3467 35.6402 96.7497 36.0882 96.1527 36.0882C95.5557 36.0882 94.9587 35.4912 94.9587 34.8942C94.9587 34.2972 95.5557 33.7002 96.1527 33.7002ZM93.6157 46.3872L93.9157 47.7302H92.1157C90.4737 47.7302 89.7277 46.5362 89.7277 44.7452V40.1002H87.9277V38.3002H89.7277V35.4822H91.5277V38.3182H93.6277V40.1182H91.5277V45.0432C91.5277 46.3862 92.5727 46.3862 93.6277 46.3862L93.6157 46.3872Z" fill="white"/>
<path d="M51.0473 18.958V21.198H56.2713C56.1213 22.392 55.6743 23.298 55.0773 23.885C54.3313 24.631 53.1373 25.527 51.0473 25.527C47.9133 25.527 45.3753 22.99 45.3753 19.707C45.3753 16.573 47.9123 13.887 51.0473 13.887C52.8473 13.887 54.0323 14.633 54.9273 15.38L56.4203 13.887C55.0773 12.693 53.4353 11.647 51.0473 11.647C46.7193 11.647 42.9873 15.229 42.9873 19.547C42.9873 23.865 46.7173 27.447 51.0473 27.447C53.4353 27.447 55.2273 26.701 56.5693 25.207C58.0623 23.714 58.5093 21.774 58.5093 20.132C58.5093 19.684 58.5093 19.087 58.3593 18.789H51.0463L51.0473 18.958ZM64.3293 17.158C61.4933 17.158 59.2543 19.258 59.2543 22.233C59.2543 25.208 61.4943 27.308 64.3293 27.308C64.9974 27.314 65.6601 27.1868 66.2785 26.9339C66.8969 26.681 67.4588 26.3074 67.9313 25.8349C68.4037 25.3625 68.7773 24.8006 69.0302 24.1822C69.2831 23.5637 69.4103 22.9011 69.4043 22.233C69.4043 19.248 67.1643 17.158 64.3293 17.158ZM64.3293 25.358C62.8363 25.358 61.4933 24.015 61.4933 22.224C61.4933 20.433 62.8363 19.1 64.3293 19.1C65.8223 19.1 67.1663 20.3 67.1663 22.23C67.1663 24.16 65.8233 25.364 64.3303 25.364L64.3293 25.358ZM88.7993 18.202C88.2023 17.605 87.3063 17.008 85.9633 17.008C83.4263 17.008 81.1873 19.248 81.1873 22.083C81.1873 24.918 83.4273 27.158 85.9633 27.158C87.1573 27.158 88.2033 26.561 88.6503 25.964H88.8003V26.71C88.8003 28.65 87.7553 29.695 86.1133 29.695C84.7703 29.695 83.8733 28.65 83.5763 27.895L81.6363 28.641C82.2333 29.984 83.7363 31.626 86.1143 31.626C88.8013 31.626 91.0393 30.133 91.0393 26.253V17H88.9393V18.194L88.7993 18.202ZM86.2623 25.366C84.7693 25.366 83.5753 24.023 83.5753 22.232C83.5753 20.441 84.7693 19.098 86.2623 19.098C87.7553 19.098 88.9493 20.441 88.9493 22.232C88.9493 24.023 87.7553 25.366 86.2623 25.366ZM75.3653 17.166C72.5293 17.166 70.2903 19.266 70.2903 22.241C70.2903 25.216 72.5303 27.316 75.3653 27.316C76.0334 27.322 76.6961 27.1948 77.3145 26.9419C77.9329 26.689 78.4948 26.3154 78.9673 25.8429C79.4397 25.3705 79.8133 24.8086 80.0662 24.1902C80.3191 23.5717 80.4463 22.9091 80.4403 22.241C80.5903 19.256 78.2003 17.166 75.3653 17.166ZM75.3653 25.366C73.8723 25.366 72.5293 24.023 72.5293 22.232C72.5293 20.441 73.8723 19.098 75.3653 19.098C76.8583 19.098 78.2013 20.292 78.2013 22.232C78.2013 24.172 76.8583 25.366 75.3653 25.366ZM92.6993 11.794H94.9393V27.316H92.6993V11.794ZM101.057 25.376C99.8633 25.376 99.1173 24.779 98.5203 23.883L105.386 21.047L105.086 20.45C104.638 19.256 103.286 17.166 100.758 17.166C98.0713 17.166 95.9823 19.266 95.9823 22.241C95.9763 22.9091 96.1035 23.5717 96.3564 24.1902C96.6093 24.8086 96.9829 25.3705 97.4554 25.8429C97.9278 26.3154 98.4897 26.689 99.1081 26.9419C99.7265 27.1948 100.389 27.322 101.057 27.316C103.445 27.316 104.787 25.823 105.385 25.076L103.585 23.882C102.988 24.778 102.242 25.375 101.048 25.375L101.057 25.376ZM100.907 19.106C101.803 19.106 102.549 19.554 102.847 20.3L98.2203 22.24C98.2203 20 99.7133 19.106 100.907 19.106Z" fill="white"/>
<path d="M28.9482 16.6719V42.8892C28.9482 45.8228 30.9741 47.4574 33.1192 47.4574C35.1054 47.4574 37.2902 46.0671 37.2902 42.8892V16.8705C37.2902 14.1813 35.304 12.501 33.1192 12.501C30.9344 12.501 28.9482 14.3541 28.9482 16.6719Z" fill="white"/>
<path d="M18.0244 29.979V42.8891C18.0244 45.8226 20.0503 47.4572 22.1954 47.4572C24.1815 47.4572 26.3663 46.0669 26.3663 42.8891V30.1777C26.3663 27.4884 24.3802 25.8081 22.1954 25.8081C20.0106 25.8081 18.0244 27.6612 18.0244 29.979Z" fill="white"/>
<path d="M11.2715 47.4571C13.5751 47.4571 15.4425 45.5897 15.4425 43.2862C15.4425 40.9826 13.5751 39.1152 11.2715 39.1152C8.96799 39.1152 7.10059 40.9826 7.10059 43.2862C7.10059 45.5897 8.96799 47.4571 11.2715 47.4571Z" fill="white"/>
</svg>
