<svg width="47" height="48" viewBox="0 0 47 48" fill="none" xmlns="http://www.w3.org/2000/svg">
<g clip-path="url(#clip0)">
<path d="M30.6541 23.8949C30.5704 20.2596 27.577 17.3673 23.9398 17.4101H6.62695V30.3778H17.8401V41.2837C17.6456 44.7926 20.3317 47.7957 23.8406 47.9902C23.9164 47.9941 23.9942 47.998 24.0701 47.998C27.7423 47.9611 30.6891 44.956 30.6521 41.2837L30.6541 23.8949Z" fill="white"/>
<path d="M6.55094 30.5233C10.1689 30.5233 13.1019 27.5903 13.1019 23.9723C13.1019 20.3543 10.1689 17.4214 6.55094 17.4214C2.93295 17.4214 0 20.3543 0 23.9723C0 27.5903 2.93295 30.5233 6.55094 30.5233Z" fill="#C7C7C7"/>
<path d="M46.6384 6.51784C46.6034 2.90784 43.6663 0 40.0563 0H22.3485C18.9835 0.338438 16.4238 3.16848 16.4238 6.55091C16.4238 9.93334 18.9835 12.7614 22.3485 13.0999H33.6921V23.9941C33.5462 27.573 36.3296 30.5917 39.9065 30.7375C43.4854 30.8834 46.5042 28.1001 46.6501 24.5231C46.6578 24.3481 46.6578 24.1711 46.6501 23.996L46.6384 6.51784Z" fill="white"/>
</g>
<defs>
<clipPath id="clip0">
<rect width="46.656" height="48" fill="white"/>
</clipPath>
</defs>
</svg>
