<svg width="76" height="22" viewBox="0 0 76 22" fill="none" xmlns="http://www.w3.org/2000/svg">
<g clip-path="url(#clip0)">
<path d="M0.00878906 4.09131H2.6587V9.94374H8.24751V4.09131H10.9008V18.4572H8.24751V12.4819H2.6587V18.4572H0.00878906V4.09131ZM19.2957 13.778C19.2957 14.9806 18.3101 15.9592 17.1006 15.9592C15.8907 15.9592 14.9057 14.9806 14.9057 13.778V7.593H12.3926V13.778C12.3926 16.3584 14.5047 18.4572 17.1006 18.4572C19.6959 18.4572 21.8079 16.3584 21.8079 13.778V7.593H19.2957V13.778ZM28.8233 7.66545C27.5767 7.66545 26.7066 8.02504 25.8663 8.84502V4.09131H23.3451V12.9012C23.3451 16.1988 25.7435 18.4572 28.4381 18.4572C31.4337 18.4572 34.0584 16.1586 34.0584 13.0615C34.0584 10.0036 31.6381 7.66545 28.8233 7.66545ZM28.886 16.1386C27.1776 16.1386 25.8712 14.7203 25.8712 13.0615C25.8712 11.4023 27.1776 9.98358 28.886 9.98358C30.3335 9.98358 31.6407 11.4023 31.6407 13.0615C31.6407 14.7203 30.3335 16.1386 28.886 16.1386ZM38.2929 8.29685C38.2929 7.037 39.1374 6.63756 40.0618 6.63756C40.8061 6.63756 41.791 7.1971 42.4337 7.87675L44.0818 5.95835C43.2581 4.85935 41.5898 4.09972 40.2227 4.09972C37.4884 4.09972 35.5182 5.67858 35.5182 8.29685C35.5182 13.153 41.5294 11.6136 41.5294 14.3322C41.5294 15.1707 40.7054 15.9108 39.7611 15.9108C38.2729 15.9108 37.7901 15.1913 37.1069 14.4317L35.2771 16.31C36.4438 17.729 37.8908 18.4488 39.6199 18.4488C42.2131 18.4488 44.304 16.85 44.304 14.3516C44.304 8.95598 38.2929 10.6349 38.2929 8.29685ZM50.9412 7.52468C48.247 7.52468 45.8482 9.78172 45.8482 13.0801V21.9127H48.3693V17.1364C49.2097 17.9558 50.0794 18.316 51.3264 18.316C54.1411 18.316 56.5617 15.9781 56.5617 12.9203C56.5617 9.82274 53.9363 7.52468 50.9412 7.52468ZM51.3892 15.9982C49.681 15.9982 48.3745 14.5779 48.3745 12.9203C48.3745 11.2611 49.681 9.84236 51.3892 9.84236C52.8365 9.84236 54.1438 11.2611 54.1438 12.9203C54.1438 14.5779 52.8365 15.9982 51.3892 15.9982ZM75.1195 16.1386C73.6324 16.1386 73.2103 15.4994 73.2103 14.5198V10.1834H75.5218V7.98535H73.2103V5.08732L70.6579 6.22617V15.0594C70.6579 17.3179 72.2254 18.4572 74.3755 18.4572C74.6972 18.4572 75.14 18.4366 75.3815 18.3774L76.0048 16.0994C75.7233 16.1187 75.4018 16.1386 75.1195 16.1386Z" fill="white"/>
<path d="M68.4714 10.3111C67.9881 9.4845 67.3082 8.82182 66.4583 8.32293C65.8231 7.95536 65.1645 7.72207 64.4223 7.62188V4.99536C65.1645 4.68209 65.6251 3.98872 65.6251 3.17981C65.6251 2.07726 64.7357 1.1838 63.6274 1.1838C62.5183 1.1838 61.6133 2.07726 61.6133 3.17981C61.6133 3.98872 62.0473 4.68209 62.7895 4.99536V7.62306C62.1958 7.70835 61.58 7.89235 61.0178 8.17507C59.8693 7.30803 56.1034 4.46356 53.9005 2.80221C53.9527 2.61496 53.9929 2.42196 53.9929 2.21833C53.9929 0.99714 52.9981 0.00732422 51.7692 0.00732422C50.5403 0.00732422 49.5459 0.99714 49.5459 2.21833C49.5459 3.43936 50.5413 4.42947 51.7702 4.42947C52.1894 4.42947 52.5771 4.30759 52.9117 4.10721L53.3766 4.45781L59.7648 9.03327C59.4271 9.34152 59.1126 9.69211 58.861 10.0855C58.3511 10.8875 58.0395 11.7699 58.0395 12.7324V12.9332C58.0395 13.6089 58.1686 14.2468 58.3886 14.846C58.5823 15.3692 58.8656 15.845 59.2163 16.2751L57.0962 18.3878C56.7889 18.2741 56.4552 18.2508 56.135 18.3206C55.8147 18.3904 55.5215 18.5504 55.2903 18.7815C55.1302 18.9399 55.0033 19.1282 54.917 19.3357C54.8307 19.5431 54.7866 19.7655 54.7874 19.99C54.7875 20.4464 54.9664 20.8753 55.2912 21.1981C55.4504 21.3573 55.6398 21.4836 55.8484 21.5695C56.057 21.6555 56.2807 21.6995 56.5066 21.6989C56.7325 21.6994 56.9563 21.6555 57.165 21.5695C57.3737 21.4835 57.5631 21.3573 57.7224 21.1981C57.8824 21.0397 58.0093 20.8514 58.0956 20.6441C58.182 20.4367 58.2262 20.2144 58.2256 19.99C58.2256 19.8134 58.1982 19.641 58.1465 19.4772L60.3379 17.2986C60.6383 17.5048 60.9628 17.6785 61.3117 17.8283C61.9997 18.124 62.7591 18.3042 63.5902 18.3042H63.7425C64.6613 18.3042 65.528 18.0896 66.3428 17.6508C67.2014 17.187 67.8733 16.5528 68.381 15.7432C68.8913 14.9313 69.1723 14.0343 69.1723 13.0474V12.9981C69.1723 12.0274 68.9463 11.1317 68.4714 10.3111ZM65.7939 14.8814C65.1991 15.5385 64.5154 15.9432 63.7425 15.9432H63.6151C63.1737 15.9432 62.7419 15.8219 62.3191 15.6013C61.8426 15.3585 61.4804 15.012 61.184 14.5733C60.8776 14.1427 60.7114 13.6726 60.7114 13.1742V13.0228C60.7114 12.5327 60.8059 12.0681 61.0443 11.6292C61.2992 11.1495 61.6434 10.7765 62.1012 10.4799C62.5507 10.1854 63.0307 10.0409 63.5654 10.0409H63.6151C64.0999 10.0409 64.5589 10.136 64.992 10.3563C65.4333 10.5912 65.7939 10.9121 66.0734 11.3343C66.3449 11.7566 66.5064 12.2121 66.5583 12.7083C66.5665 12.8115 66.5707 12.9171 66.5707 13.0181C66.5707 13.6915 66.3118 14.3152 65.7939 14.8814Z" fill="white"/>
</g>
<defs>
<clipPath id="clip0">
<rect width="76" height="22" fill="white"/>
</clipPath>
</defs>
</svg>
