<svg width="24" height="24" viewBox="0 0 24 24" fill="none" xmlns="http://www.w3.org/2000/svg">
<g clip-path="url(#clip0)">
<path d="M1.49971 1.62222C-0.386289 3.56883 -0.000289023 5.63666 -0.000289023 11.9186C-0.000289023 17.1354 -0.916289 22.3651 3.87771 23.5963C5.37471 23.9788 18.6387 23.9788 20.1337 23.5943C22.1297 23.0825 23.7537 21.4738 23.9757 18.6687C24.0067 18.2771 24.0067 5.5671 23.9747 5.16764C23.7387 2.17967 21.8877 0.457642 19.4487 0.108863C18.8897 0.0283758 18.7777 0.00452773 15.9097 -0.000440627C5.73671 0.00452773 3.50671 -0.445605 1.49971 1.62222Z" fill="white"/>
<path d="M11.9978 3.11934C8.36682 3.11934 4.91881 2.79838 3.60181 6.15699C3.05781 7.54415 3.13681 9.34568 3.13681 11.9253C3.13681 14.1888 3.06381 16.3163 3.60181 17.6925C4.91581 21.0531 8.39182 20.7312 11.9958 20.7312C15.4728 20.7312 19.0578 21.0909 20.3908 17.6925C20.9358 16.2914 20.8558 14.5167 20.8558 11.9253C20.8558 8.48516 21.0468 6.26431 19.3678 4.59693C17.6678 2.90769 15.3688 3.11934 11.9938 3.11934H11.9978ZM11.2038 4.70623C18.7778 4.69431 19.7418 3.85764 19.2098 15.4806C19.0208 19.5914 15.8708 19.1403 11.9988 19.1403C4.93881 19.1403 4.73581 18.9396 4.73581 11.9213C4.73581 4.8215 5.29581 4.71021 11.2038 4.70424V4.70623ZM16.7278 6.16792C16.1408 6.16792 15.6648 6.64091 15.6648 7.22419C15.6648 7.80748 16.1408 8.28046 16.7278 8.28046C17.3148 8.28046 17.7908 7.80748 17.7908 7.22419C17.7908 6.64091 17.3148 6.16792 16.7278 6.16792ZM11.9978 7.40305C9.48482 7.40305 7.44782 9.42815 7.44782 11.9253C7.44782 14.4223 9.48482 16.4465 11.9978 16.4465C14.5108 16.4465 16.5468 14.4223 16.5468 11.9253C16.5468 9.42815 14.5108 7.40305 11.9978 7.40305ZM11.9978 8.98995C15.9028 8.98995 15.9078 14.8606 11.9978 14.8606C8.09382 14.8606 8.08782 8.98995 11.9978 8.98995Z" fill="#682477"/>
</g>
<defs>
<clipPath id="clip0">
<rect width="24" height="23.8481" fill="white"/>
</clipPath>
</defs>
</svg>
