<svg width="26" height="30" viewBox="0 0 26 30" fill="none" xmlns="http://www.w3.org/2000/svg">
<g clip-path="url(#clip0)">
<path d="M2.37451 26.5773L0.00683594 0.375977L25.5141 0.385977L23.1663 26.5573L12.7405 29.5175L2.37451 26.5773ZM21.2463 25.1472L23.226 2.70609H12.7803L12.8599 27.4574L21.2463 25.1472ZM11.8054 5.99626H9.26862L9.23878 19.4269L4.31441 18.0769L4.32436 21.147L11.8054 23.1771V5.99626Z" fill="white"/>
<path d="M12.7812 2.69434H23.2269L21.2472 25.1355L12.7812 27.4456V2.69434ZM20.71 21.3753L21.3964 12.9849L16.3228 13.5549V9.07466L21.7346 9.05466L21.9535 5.9945L13.786 6.03451L13.8954 17.1751L18.8298 16.325L18.7601 18.8052L13.786 20.1352L13.8358 23.1754L20.71 21.3753Z" fill="white"/>
</g>
<defs>
<clipPath id="clip0">
<rect width="25.5075" height="29.1515" fill="white" transform="translate(0.00878906 0.373047)"/>
</clipPath>
</defs>
</svg>
