<svg width="24" height="24" viewBox="0 0 24 24" fill="none" xmlns="http://www.w3.org/2000/svg">
<g clip-path="url(#clip0)">
<path d="M0.78008 22.962H3.90012C4.33056 22.962 4.67947 22.613 4.67947 22.1826V8.54497C4.67947 8.11449 4.33056 7.76563 3.90012 7.76563H0.78008C0.349594 7.76562 0.000732422 8.11449 0.000732422 8.54497V22.1826C0.000732422 22.613 0.349594 22.962 0.78008 22.962Z" fill="white"/>
<path d="M0.78008 5.36788H3.90012C4.33056 5.36788 4.67947 5.01898 4.67947 4.58853V1.81792C4.67947 1.38748 4.33056 1.03857 3.90012 1.03857H0.78008C0.349594 1.03857 0.000732422 1.38748 0.000732422 1.81792V4.58853C0.000732422 5.01898 0.349594 5.36788 0.78008 5.36788Z" fill="white"/>
<path d="M22.8269 9.34718C22.3885 8.77007 21.742 8.29547 20.8872 7.92347C20.0324 7.55172 19.0888 7.36572 18.0565 7.36572C15.9608 7.36572 14.185 8.16552 12.7292 9.76542C12.4395 10.0838 12.2289 10.0142 12.2289 9.58367V8.54473C12.2289 8.11424 11.8799 7.76538 11.4495 7.76538H8.6624C8.23192 7.76538 7.88306 8.11424 7.88306 8.54473V22.1824C7.88306 22.6128 8.23196 22.9617 8.6624 22.9617H11.7824C12.2129 22.9617 12.5618 22.6128 12.5618 22.1824V17.4395C12.5618 15.4637 12.6811 14.1094 12.9197 13.3768C13.1583 12.6442 13.5996 12.0559 14.2434 11.6119C14.8873 11.1679 15.6143 10.9457 16.4248 10.9457C17.0574 10.9457 17.5986 11.1012 18.0483 11.4121C18.4979 11.7229 18.8226 12.1584 19.0224 12.7191C19.2223 13.2797 19.3221 14.5146 19.3221 16.424V22.1823C19.3221 22.6128 19.671 22.9617 20.1014 22.9617H23.2215C23.6519 22.9617 24.0008 22.6128 24.0008 22.1823V14.4591C24.0008 13.0938 23.9147 12.0448 23.7428 11.3122C23.571 10.5796 23.2656 9.92459 22.8269 9.34718Z" fill="white"/>
</g>
<defs>
<clipPath id="clip0">
<rect width="24" height="24" fill="white" transform="translate(0.000732422)"/>
</clipPath>
</defs>
</svg>
