<svg width="400" height="85" viewBox="0 0 400 85" fill="none" xmlns="http://www.w3.org/2000/svg">
<path d="M86.728 32.816H89.968V50H86.728V32.816ZM96.7191 39.776H96.9111C97.2791 39.184 97.7751 38.72 98.3991 38.384C99.0231 38.032 99.7351 37.856 100.535 37.856C101.271 37.856 101.919 37.976 102.479 38.216C103.039 38.456 103.495 38.8 103.847 39.248C104.215 39.68 104.487 40.208 104.663 40.832C104.855 41.44 104.951 42.12 104.951 42.872V50H101.807V43.256C101.807 42.408 101.615 41.784 101.231 41.384C100.863 40.968 100.319 40.76 99.5991 40.76C99.1671 40.76 98.7831 40.856 98.4471 41.048C98.1271 41.224 97.8471 41.472 97.6071 41.792C97.3831 42.096 97.2071 42.464 97.0791 42.896C96.9671 43.312 96.9111 43.76 96.9111 44.24V50H93.7671V38.24H96.7191V39.776ZM113.575 55.568C112.743 55.568 111.999 55.456 111.343 55.232C110.703 55.024 110.143 54.744 109.663 54.392C109.183 54.056 108.783 53.68 108.463 53.264C108.143 52.848 107.911 52.432 107.767 52.016L110.767 50.816C110.991 51.44 111.359 51.92 111.871 52.256C112.383 52.608 112.951 52.784 113.575 52.784C114.567 52.784 115.351 52.472 115.927 51.848C116.503 51.24 116.791 50.384 116.791 49.28V48.464H116.599C116.231 48.976 115.743 49.384 115.135 49.688C114.543 49.976 113.839 50.12 113.023 50.12C112.319 50.12 111.631 49.976 110.959 49.688C110.303 49.4 109.719 48.992 109.207 48.464C108.695 47.92 108.279 47.272 107.959 46.52C107.639 45.768 107.479 44.928 107.479 44C107.479 43.072 107.639 42.232 107.959 41.48C108.279 40.712 108.695 40.064 109.207 39.536C109.719 38.992 110.303 38.576 110.959 38.288C111.631 38 112.319 37.856 113.023 37.856C113.839 37.856 114.543 38.008 115.135 38.312C115.743 38.6 116.231 39 116.599 39.512H116.791V38.24H119.791V49.16C119.791 50.152 119.639 51.04 119.335 51.824C119.031 52.624 118.607 53.296 118.063 53.84C117.519 54.4 116.863 54.824 116.095 55.112C115.343 55.416 114.503 55.568 113.575 55.568ZM113.695 47.288C114.079 47.288 114.455 47.216 114.823 47.072C115.207 46.928 115.543 46.72 115.831 46.448C116.119 46.16 116.351 45.816 116.527 45.416C116.703 45 116.791 44.528 116.791 44C116.791 43.472 116.703 43 116.527 42.584C116.351 42.168 116.119 41.824 115.831 41.552C115.543 41.264 115.207 41.048 114.823 40.904C114.455 40.76 114.079 40.688 113.695 40.688C113.311 40.688 112.935 40.76 112.567 40.904C112.199 41.048 111.871 41.264 111.583 41.552C111.295 41.84 111.063 42.192 110.887 42.608C110.711 43.008 110.623 43.472 110.623 44C110.623 44.528 110.711 45 110.887 45.416C111.063 45.816 111.295 46.16 111.583 46.448C111.871 46.72 112.199 46.928 112.567 47.072C112.935 47.216 113.311 47.288 113.695 47.288ZM134.21 47.168C133.666 48.128 132.93 48.904 132.002 49.496C131.09 50.088 129.97 50.384 128.642 50.384C127.746 50.384 126.914 50.232 126.146 49.928C125.394 49.608 124.738 49.168 124.178 48.608C123.618 48.048 123.178 47.392 122.858 46.64C122.554 45.872 122.402 45.032 122.402 44.12C122.402 43.272 122.554 42.472 122.858 41.72C123.162 40.952 123.586 40.288 124.13 39.728C124.674 39.152 125.314 38.696 126.05 38.36C126.802 38.024 127.626 37.856 128.522 37.856C129.466 37.856 130.306 38.016 131.042 38.336C131.778 38.64 132.394 39.072 132.89 39.632C133.386 40.176 133.762 40.824 134.018 41.576C134.274 42.328 134.402 43.144 134.402 44.024C134.402 44.136 134.402 44.232 134.402 44.312C134.386 44.408 134.378 44.496 134.378 44.576C134.362 44.656 134.354 44.744 134.354 44.84H125.498C125.562 45.32 125.69 45.736 125.882 46.088C126.09 46.424 126.338 46.712 126.626 46.952C126.93 47.176 127.258 47.344 127.61 47.456C127.962 47.552 128.322 47.6 128.69 47.6C129.41 47.6 130.002 47.44 130.466 47.12C130.946 46.784 131.322 46.368 131.594 45.872L134.21 47.168ZM131.354 42.608C131.338 42.4 131.266 42.168 131.138 41.912C131.026 41.656 130.85 41.416 130.61 41.192C130.386 40.968 130.098 40.784 129.746 40.64C129.41 40.496 129.002 40.424 128.522 40.424C127.85 40.424 127.258 40.616 126.746 41C126.234 41.384 125.874 41.92 125.666 42.608H131.354ZM140.082 39.776H140.274C140.642 39.184 141.138 38.72 141.762 38.384C142.386 38.032 143.098 37.856 143.898 37.856C144.634 37.856 145.282 37.976 145.842 38.216C146.402 38.456 146.858 38.8 147.21 39.248C147.578 39.68 147.85 40.208 148.026 40.832C148.218 41.44 148.314 42.12 148.314 42.872V50H145.17V43.256C145.17 42.408 144.978 41.784 144.594 41.384C144.226 40.968 143.682 40.76 142.962 40.76C142.53 40.76 142.146 40.856 141.81 41.048C141.49 41.224 141.21 41.472 140.97 41.792C140.746 42.096 140.57 42.464 140.442 42.896C140.33 43.312 140.274 43.76 140.274 44.24V50H137.13V38.24H140.082V39.776ZM153.383 36.536C153.111 36.536 152.847 36.488 152.591 36.392C152.351 36.28 152.135 36.136 151.943 35.96C151.767 35.768 151.623 35.552 151.511 35.312C151.415 35.072 151.367 34.808 151.367 34.52C151.367 34.232 151.415 33.968 151.511 33.728C151.623 33.488 151.767 33.28 151.943 33.104C152.135 32.912 152.351 32.768 152.591 32.672C152.847 32.56 153.111 32.504 153.383 32.504C153.943 32.504 154.423 32.704 154.823 33.104C155.223 33.488 155.423 33.96 155.423 34.52C155.423 35.08 155.223 35.56 154.823 35.96C154.423 36.344 153.943 36.536 153.383 36.536ZM151.823 50V38.24H154.967V50H151.823ZM169.581 47.168C169.037 48.128 168.301 48.904 167.373 49.496C166.461 50.088 165.341 50.384 164.013 50.384C163.117 50.384 162.285 50.232 161.517 49.928C160.765 49.608 160.109 49.168 159.549 48.608C158.989 48.048 158.549 47.392 158.229 46.64C157.925 45.872 157.773 45.032 157.773 44.12C157.773 43.272 157.925 42.472 158.229 41.72C158.533 40.952 158.957 40.288 159.501 39.728C160.045 39.152 160.685 38.696 161.421 38.36C162.173 38.024 162.997 37.856 163.893 37.856C164.837 37.856 165.677 38.016 166.413 38.336C167.149 38.64 167.765 39.072 168.261 39.632C168.757 40.176 169.133 40.824 169.389 41.576C169.645 42.328 169.773 43.144 169.773 44.024C169.773 44.136 169.773 44.232 169.773 44.312C169.757 44.408 169.749 44.496 169.749 44.576C169.733 44.656 169.725 44.744 169.725 44.84H160.869C160.933 45.32 161.061 45.736 161.253 46.088C161.461 46.424 161.709 46.712 161.997 46.952C162.301 47.176 162.629 47.344 162.981 47.456C163.333 47.552 163.693 47.6 164.061 47.6C164.781 47.6 165.373 47.44 165.837 47.12C166.317 46.784 166.693 46.368 166.965 45.872L169.581 47.168ZM166.725 42.608C166.709 42.4 166.637 42.168 166.509 41.912C166.397 41.656 166.221 41.416 165.981 41.192C165.757 40.968 165.469 40.784 165.117 40.64C164.781 40.496 164.373 40.424 163.893 40.424C163.221 40.424 162.629 40.616 162.117 41C161.605 41.384 161.245 41.92 161.037 42.608H166.725ZM172.501 38.24H175.453V39.872H175.645C175.789 39.584 175.981 39.32 176.221 39.08C176.461 38.84 176.725 38.632 177.013 38.456C177.317 38.28 177.637 38.144 177.973 38.048C178.325 37.952 178.669 37.904 179.005 37.904C179.421 37.904 179.773 37.944 180.061 38.024C180.365 38.104 180.621 38.208 180.829 38.336L179.989 41.192C179.797 41.096 179.581 41.024 179.341 40.976C179.117 40.912 178.837 40.88 178.501 40.88C178.069 40.88 177.677 40.968 177.325 41.144C176.973 41.304 176.669 41.536 176.413 41.84C176.173 42.144 175.981 42.504 175.837 42.92C175.709 43.32 175.645 43.76 175.645 44.24V50H172.501V38.24ZM183.475 35.888L184.483 32.624H188.155L185.995 35.888H183.475ZM183.187 50V38.24H186.331V50H183.187ZM197.056 48.752H196.864C196.496 49.2 196.048 49.584 195.52 49.904C195.008 50.224 194.344 50.384 193.528 50.384C192.92 50.384 192.344 50.28 191.8 50.072C191.272 49.88 190.808 49.608 190.408 49.256C190.008 48.904 189.696 48.48 189.472 47.984C189.248 47.488 189.136 46.944 189.136 46.352C189.136 45.744 189.256 45.2 189.496 44.72C189.736 44.224 190.072 43.8 190.504 43.448C190.936 43.096 191.44 42.832 192.016 42.656C192.608 42.464 193.248 42.368 193.936 42.368C194.704 42.368 195.336 42.432 195.832 42.56C196.328 42.672 196.736 42.792 197.056 42.92V42.56C197.056 41.936 196.808 41.424 196.312 41.024C195.816 40.608 195.2 40.4 194.464 40.4C193.376 40.4 192.456 40.856 191.704 41.768L189.424 40.208C190.672 38.64 192.376 37.856 194.536 37.856C196.36 37.856 197.752 38.288 198.712 39.152C199.672 40 200.152 41.264 200.152 42.944V50H197.056V48.752ZM197.056 45.224C196.688 45.048 196.304 44.912 195.904 44.816C195.52 44.704 195.096 44.648 194.632 44.648C193.88 44.648 193.296 44.816 192.88 45.152C192.48 45.472 192.28 45.872 192.28 46.352C192.28 46.832 192.472 47.216 192.856 47.504C193.256 47.792 193.712 47.936 194.224 47.936C194.64 47.936 195.024 47.864 195.376 47.72C195.728 47.56 196.024 47.36 196.264 47.12C196.52 46.864 196.712 46.576 196.84 46.256C196.984 45.92 197.056 45.576 197.056 45.224ZM209.75 32.816H215.558C216.918 32.816 218.142 33.024 219.23 33.44C220.318 33.856 221.246 34.448 222.014 35.216C222.782 35.968 223.366 36.872 223.766 37.928C224.182 38.984 224.39 40.144 224.39 41.408C224.39 42.688 224.182 43.856 223.766 44.912C223.366 45.968 222.782 46.872 222.014 47.624C221.246 48.376 220.318 48.96 219.23 49.376C218.142 49.792 216.918 50 215.558 50H209.75V32.816ZM215.414 46.928C216.358 46.928 217.19 46.8 217.91 46.544C218.63 46.272 219.23 45.896 219.71 45.416C220.19 44.936 220.55 44.36 220.79 43.688C221.03 43 221.15 42.24 221.15 41.408C221.15 40.576 221.03 39.824 220.79 39.152C220.55 38.464 220.19 37.88 219.71 37.4C219.23 36.92 218.63 36.552 217.91 36.296C217.19 36.024 216.358 35.888 215.414 35.888H212.99V46.928H215.414ZM229.088 36.536C228.816 36.536 228.552 36.488 228.296 36.392C228.056 36.28 227.84 36.136 227.648 35.96C227.472 35.768 227.328 35.552 227.216 35.312C227.12 35.072 227.072 34.808 227.072 34.52C227.072 34.232 227.12 33.968 227.216 33.728C227.328 33.488 227.472 33.28 227.648 33.104C227.84 32.912 228.056 32.768 228.296 32.672C228.552 32.56 228.816 32.504 229.088 32.504C229.648 32.504 230.128 32.704 230.528 33.104C230.928 33.488 231.128 33.96 231.128 34.52C231.128 35.08 230.928 35.56 230.528 35.96C230.128 36.344 229.648 36.536 229.088 36.536ZM227.528 50V38.24H230.672V50H227.528ZM239.573 55.568C238.741 55.568 237.997 55.456 237.341 55.232C236.701 55.024 236.141 54.744 235.661 54.392C235.181 54.056 234.781 53.68 234.461 53.264C234.141 52.848 233.909 52.432 233.765 52.016L236.765 50.816C236.989 51.44 237.357 51.92 237.869 52.256C238.381 52.608 238.949 52.784 239.573 52.784C240.565 52.784 241.349 52.472 241.925 51.848C242.501 51.24 242.789 50.384 242.789 49.28V48.464H242.597C242.229 48.976 241.741 49.384 241.133 49.688C240.541 49.976 239.837 50.12 239.021 50.12C238.317 50.12 237.629 49.976 236.957 49.688C236.301 49.4 235.717 48.992 235.205 48.464C234.693 47.92 234.277 47.272 233.957 46.52C233.637 45.768 233.477 44.928 233.477 44C233.477 43.072 233.637 42.232 233.957 41.48C234.277 40.712 234.693 40.064 235.205 39.536C235.717 38.992 236.301 38.576 236.957 38.288C237.629 38 238.317 37.856 239.021 37.856C239.837 37.856 240.541 38.008 241.133 38.312C241.741 38.6 242.229 39 242.597 39.512H242.789V38.24H245.789V49.16C245.789 50.152 245.637 51.04 245.333 51.824C245.029 52.624 244.605 53.296 244.061 53.84C243.517 54.4 242.861 54.824 242.093 55.112C241.341 55.416 240.501 55.568 239.573 55.568ZM239.693 47.288C240.077 47.288 240.453 47.216 240.821 47.072C241.205 46.928 241.541 46.72 241.829 46.448C242.117 46.16 242.349 45.816 242.525 45.416C242.701 45 242.789 44.528 242.789 44C242.789 43.472 242.701 43 242.525 42.584C242.349 42.168 242.117 41.824 241.829 41.552C241.541 41.264 241.205 41.048 240.821 40.904C240.453 40.76 240.077 40.688 239.693 40.688C239.309 40.688 238.933 40.76 238.565 40.904C238.197 41.048 237.869 41.264 237.581 41.552C237.293 41.84 237.061 42.192 236.885 42.608C236.709 43.008 236.621 43.472 236.621 44C236.621 44.528 236.709 45 236.885 45.416C237.061 45.816 237.293 46.16 237.581 46.448C237.869 46.72 238.197 46.928 238.565 47.072C238.933 47.216 239.309 47.288 239.693 47.288ZM250.942 36.536C250.67 36.536 250.406 36.488 250.15 36.392C249.91 36.28 249.694 36.136 249.502 35.96C249.326 35.768 249.182 35.552 249.07 35.312C248.974 35.072 248.926 34.808 248.926 34.52C248.926 34.232 248.974 33.968 249.07 33.728C249.182 33.488 249.326 33.28 249.502 33.104C249.694 32.912 249.91 32.768 250.15 32.672C250.406 32.56 250.67 32.504 250.942 32.504C251.502 32.504 251.982 32.704 252.382 33.104C252.782 33.488 252.982 33.96 252.982 34.52C252.982 35.08 252.782 35.56 252.382 35.96C251.982 36.344 251.502 36.536 250.942 36.536ZM249.382 50V38.24H252.526V50H249.382ZM257.299 40.928H255.235V38.24H257.299V34.64H260.443V38.24H263.323V40.928H260.443V45.488C260.443 45.76 260.467 46.016 260.515 46.256C260.579 46.48 260.691 46.672 260.851 46.832C261.075 47.088 261.395 47.216 261.811 47.216C262.083 47.216 262.299 47.192 262.459 47.144C262.619 47.08 262.771 47 262.915 46.904L263.803 49.664C263.435 49.84 263.035 49.968 262.603 50.048C262.187 50.144 261.723 50.192 261.211 50.192C260.619 50.192 260.083 50.104 259.603 49.928C259.139 49.736 258.747 49.48 258.427 49.16C257.675 48.44 257.299 47.416 257.299 46.088V40.928ZM273.37 48.752H273.178C272.81 49.2 272.362 49.584 271.834 49.904C271.322 50.224 270.658 50.384 269.842 50.384C269.234 50.384 268.658 50.28 268.114 50.072C267.586 49.88 267.122 49.608 266.722 49.256C266.322 48.904 266.01 48.48 265.786 47.984C265.562 47.488 265.45 46.944 265.45 46.352C265.45 45.744 265.57 45.2 265.81 44.72C266.05 44.224 266.386 43.8 266.818 43.448C267.25 43.096 267.754 42.832 268.33 42.656C268.922 42.464 269.562 42.368 270.25 42.368C271.018 42.368 271.65 42.432 272.146 42.56C272.642 42.672 273.05 42.792 273.37 42.92V42.56C273.37 41.936 273.122 41.424 272.626 41.024C272.13 40.608 271.514 40.4 270.778 40.4C269.69 40.4 268.77 40.856 268.018 41.768L265.738 40.208C266.986 38.64 268.69 37.856 270.85 37.856C272.674 37.856 274.066 38.288 275.026 39.152C275.986 40 276.466 41.264 276.466 42.944V50H273.37V48.752ZM273.37 45.224C273.002 45.048 272.618 44.912 272.218 44.816C271.834 44.704 271.41 44.648 270.946 44.648C270.194 44.648 269.61 44.816 269.194 45.152C268.794 45.472 268.594 45.872 268.594 46.352C268.594 46.832 268.786 47.216 269.17 47.504C269.57 47.792 270.026 47.936 270.538 47.936C270.954 47.936 271.338 47.864 271.69 47.72C272.042 47.56 272.338 47.36 272.578 47.12C272.834 46.864 273.026 46.576 273.154 46.256C273.298 45.92 273.37 45.576 273.37 45.224ZM279.686 50V32.816H282.83V50H279.686ZM289.314 48.512C289.314 48.96 289.154 49.344 288.834 49.664C288.53 49.984 288.146 50.144 287.682 50.144C287.234 50.144 286.85 49.984 286.53 49.664C286.21 49.344 286.05 48.96 286.05 48.512C286.05 48.048 286.21 47.664 286.53 47.36C286.85 47.04 287.234 46.88 287.682 46.88C288.146 46.88 288.53 47.04 288.834 47.36C289.154 47.664 289.314 48.048 289.314 48.512ZM294.748 50H292.54V38.24H294.652V39.872H294.748C295.084 39.296 295.596 38.816 296.284 38.432C296.988 38.048 297.684 37.856 298.372 37.856C299.236 37.856 299.996 38.056 300.652 38.456C301.308 38.856 301.788 39.408 302.092 40.112C303.068 38.608 304.42 37.856 306.148 37.856C307.508 37.856 308.556 38.272 309.292 39.104C310.028 39.936 310.396 41.12 310.396 42.656V50H308.188V42.992C308.188 41.888 307.988 41.096 307.588 40.616C307.188 40.12 306.516 39.872 305.572 39.872C304.724 39.872 304.012 40.232 303.436 40.952C302.86 41.672 302.572 42.52 302.572 43.496V50H300.364V42.992C300.364 41.888 300.164 41.096 299.764 40.616C299.364 40.12 298.692 39.872 297.748 39.872C296.9 39.872 296.188 40.232 295.612 40.952C295.036 41.672 294.748 42.52 294.748 43.496V50ZM319.172 44.024L323.372 50H320.78L317.876 45.656L315.02 50H312.428L316.58 44.024L312.524 38.24H315.02L317.924 42.392L320.684 38.24H323.276L319.172 44.024Z" fill="url(#paint0_linear)"/>
<path d="M10.2249 73.7297C10.2249 52.6754 10.2249 31.6212 10.2249 10.5669C31.2792 10.5669 52.3334 10.5669 73.3877 10.5669C73.3877 31.6212 73.3877 52.6754 73.3877 73.7297C52.3334 73.7297 31.2792 73.7297 10.2249 73.7297ZM47.0205 70.6786C47.029 70.6529 47.0375 70.6274 47.046 70.6017C46.9814 70.5331 46.9185 70.4627 46.8519 70.396C45.5437 69.087 44.2303 67.7835 42.9318 66.4648C42.7341 66.264 42.5381 66.1941 42.2651 66.1945C34.2487 66.2048 26.2322 66.2084 18.2159 66.2118C17.6853 66.212 17.7525 66.2632 17.7523 65.7496C17.7509 58.5225 17.7514 51.2955 17.7513 44.0685C17.7513 43.7232 17.7502 43.7227 17.4068 43.7229C16.1526 43.7234 14.8985 43.7242 13.6442 43.7251C13.5412 43.7251 13.438 43.7251 13.3132 43.7251C13.3056 43.8475 13.2944 43.9416 13.2944 44.0358C13.2935 52.8065 13.2947 61.5773 13.2883 70.3479C13.2881 70.6072 13.3682 70.667 13.6162 70.667C24.6585 70.6668 35.7009 70.6731 46.7431 70.6786C46.8354 70.6786 46.9279 70.6786 47.0205 70.6786ZM70.317 40.6744C70.317 40.5051 70.317 40.3671 70.317 40.229C70.317 31.7125 70.317 23.1962 70.317 14.6797C70.317 14.4165 70.3068 14.1529 70.32 13.8906C70.3299 13.6973 70.2665 13.6315 70.0676 13.6337C69.2519 13.6425 68.4363 13.6354 67.6206 13.6351C57.3764 13.6298 47.132 13.6247 36.8878 13.6206C36.7823 13.6206 36.6769 13.6347 36.5145 13.6463C36.627 13.7661 36.6898 13.8368 36.7566 13.9037C38.0709 15.2189 39.3885 16.531 40.6963 17.8526C40.8655 18.0234 41.0357 18.0874 41.2726 18.0868C45.456 18.0758 49.6395 18.0712 53.8229 18.0681C57.7346 18.0653 61.6465 18.0654 65.5582 18.0653C65.6512 18.0653 65.744 18.0758 65.8557 18.0826C65.8557 18.2325 65.8557 18.3544 65.8557 18.4763C65.8557 25.7649 65.857 33.0533 65.8504 40.3419C65.8502 40.6 65.906 40.6877 66.1819 40.6841C67.4535 40.6678 68.7253 40.6754 69.997 40.6746C70.091 40.6744 70.1849 40.6744 70.317 40.6744ZM68.0612 70.6449C68.0793 70.6124 68.0975 70.58 68.1155 70.5475C68.0238 70.4802 67.9215 70.4236 67.8419 70.344C63.7735 66.2751 59.7081 62.203 55.6363 58.1375C55.4537 57.9553 55.3774 57.7756 55.3777 57.5184C55.3845 53.0275 55.3828 48.5364 55.3825 44.0455C55.3825 43.6635 55.3815 43.6628 55.0165 43.6628C48.6836 43.6623 42.3508 43.6622 36.0178 43.6618C35.9144 43.6618 35.8112 43.6618 35.6866 43.6618C35.6771 43.8133 35.6631 43.9337 35.663 44.0542C35.6614 45.3348 35.6618 46.6154 35.6621 47.896C35.6623 48.3018 35.663 48.3023 36.0592 48.3025C40.8046 48.3032 45.5498 48.3033 50.2952 48.3045C50.8096 48.3047 50.7381 48.2724 50.7382 48.7341C50.7399 52.2164 50.7401 55.6987 50.7369 59.1808C50.7367 59.3642 50.7693 59.5097 50.9096 59.6495C54.5247 63.254 58.1355 66.8626 61.7439 70.4737C61.8766 70.6065 62.0092 70.6731 62.2029 70.6723C64.0712 70.6634 65.9395 70.6639 67.8078 70.6607C67.8923 70.6605 67.9768 70.6504 68.0612 70.6449ZM15.551 13.6471C15.5372 13.6759 15.5236 13.7046 15.5098 13.7333C15.6026 13.812 15.7017 13.8844 15.7874 13.9701C19.8503 18.0333 23.9105 22.0988 27.978 26.1573C28.1631 26.3419 28.2287 26.5241 28.2284 26.7784C28.2219 31.2787 28.2241 35.7789 28.2222 40.2792C28.2221 40.4847 28.2064 40.6391 28.5123 40.6387C34.8898 40.6311 41.2674 40.6338 47.6449 40.6411C47.88 40.6414 47.9405 40.5676 47.9389 40.3402C47.9292 39.0069 47.9343 37.6734 47.9341 36.3401C47.9341 35.9974 47.9334 35.9957 47.5844 35.9948C45.8827 35.9904 44.1808 35.9843 42.4791 35.9838C39.3912 35.9829 36.3034 35.9856 33.2155 35.9865C32.8723 35.9867 32.8721 35.9856 32.8717 35.6421C32.8678 32.1508 32.8622 28.6593 32.8638 25.168C32.8639 24.9421 32.8043 24.7763 32.6404 24.613C29.0369 21.0209 25.4382 17.4244 21.8428 13.8239C21.6997 13.6804 21.5547 13.6259 21.3571 13.6266C19.515 13.633 17.6727 13.6318 15.8306 13.6337C15.7374 13.6337 15.6441 13.6424 15.551 13.6471ZM20.7909 33.8076C20.7909 33.9853 20.7909 34.0857 20.7909 34.1862C20.7909 36.4055 20.7909 38.6249 20.7909 40.8442C20.7909 48.1777 20.7914 55.5113 20.7883 62.8448C20.7881 63.0525 20.7938 63.1754 21.0726 63.1751C27.4499 63.1683 33.8273 63.1714 40.2045 63.1787C40.4298 63.179 40.5102 63.1233 40.5085 62.8866C40.4985 61.5797 40.4985 60.2725 40.5087 58.9657C40.5105 58.7243 40.4182 58.6659 40.1987 58.6728C39.5679 58.6929 38.9365 58.7043 38.3053 58.708C34.0425 58.7323 29.7798 58.7537 25.5172 58.7752C25.4159 58.7757 25.3146 58.7656 25.1775 58.7588C25.1775 51.1673 25.1775 43.6033 25.1775 36.0236C25.0371 36.0161 24.9334 36.006 24.8297 36.0059C24.3034 36.0047 23.7766 36.0174 23.2509 35.9986C23.1112 35.9936 22.942 35.9285 22.8426 35.8326C22.2362 35.2485 21.6461 34.6474 21.0501 34.0524C20.9847 33.9871 20.9162 33.9258 20.7909 33.8076ZM62.7137 50.4673C62.7484 50.4455 62.7831 50.4239 62.8176 50.4022C62.8176 50.2719 62.8176 50.1419 62.8176 50.0117C62.8176 42.3547 62.8176 34.6979 62.8176 27.0409C62.8176 25.1641 62.8162 23.2871 62.8198 21.4103C62.8201 21.2307 62.8072 21.1242 62.5725 21.1244C56.1697 21.1297 49.767 21.1281 43.3645 21.123C43.1775 21.1229 43.1005 21.1647 43.1017 21.3695C43.1095 22.7027 43.1086 24.0358 43.1022 25.369C43.1013 25.5572 43.1726 25.6167 43.3482 25.61C43.6809 25.5978 44.0141 25.5917 44.3471 25.5893C47.0567 25.5709 49.7664 25.5515 52.4762 25.5376C54.3266 25.5281 56.1772 25.5262 58.0278 25.5232C58.4377 25.5225 58.4161 25.4682 58.4163 25.898C58.418 29.9149 58.4199 33.932 58.4207 37.949C58.4214 41.2993 58.4231 44.6499 58.416 48.0002C58.4154 48.2304 58.4795 48.3074 58.7106 48.302C59.2716 48.2884 59.8334 48.2877 60.3942 48.3032C60.5185 48.3066 60.6688 48.3683 60.7584 48.4541C61.2648 48.9395 61.7595 49.4376 62.2515 49.9377C62.4155 50.1045 62.5602 50.2903 62.7137 50.4673ZM57.5371 70.6731C57.5683 70.6291 57.5998 70.5852 57.6311 70.5412C57.5394 70.4882 57.4311 70.452 57.3589 70.3799C54.2134 67.2379 51.0721 64.0916 47.9247 60.9515C47.7678 60.7949 47.7087 60.6394 47.7092 60.4216C47.7153 57.5015 47.7104 54.5814 47.7182 51.6613C47.7189 51.4114 47.6529 51.3319 47.3955 51.3348C46.2293 51.348 45.063 51.3404 43.8968 51.3404C43.5292 51.3404 43.5285 51.3407 43.5285 51.7132C43.5284 55.2647 43.5321 58.8161 43.5217 62.3676C43.5209 62.6653 43.61 62.8713 43.8179 63.0784C46.2839 65.5357 48.7428 68 51.1988 70.4674C51.3465 70.6158 51.4946 70.6811 51.7047 70.6803C53.5636 70.6723 55.4228 70.6741 57.2819 70.673C57.3667 70.6731 57.4519 70.6731 57.5371 70.6731ZM35.8886 32.9556C36.0314 32.9556 36.1267 32.9556 36.2219 32.9556C37.3973 32.9557 38.5727 32.9481 39.7477 32.9619C40.0082 32.9649 40.0908 32.9035 40.0899 32.6298C40.0806 29.0162 40.0825 25.4026 40.0874 21.7889C40.0877 21.5979 40.0313 21.4613 39.8967 21.3269C37.3825 18.8173 34.8737 16.3027 32.357 13.796C32.2637 13.7032 32.1022 13.631 31.9719 13.6303C30.0686 13.6209 28.1653 13.6254 26.2621 13.6279C26.1926 13.6281 26.1233 13.6436 26.0078 13.6573C26.1141 13.769 26.1782 13.8391 26.2451 13.9062C29.3697 17.0334 32.4928 20.1617 35.623 23.2832C35.8112 23.4709 35.8954 23.6543 35.8945 23.9238C35.8852 26.8094 35.8887 29.6951 35.8887 32.5807C35.8886 32.6926 35.8886 32.8046 35.8886 32.9556ZM50.9603 32.9559C50.9603 33.1215 50.9603 33.2432 50.9603 33.3649C50.9603 35.6803 50.9637 37.9959 50.9555 40.3113C50.9546 40.5597 51.0208 40.6435 51.2792 40.6409C52.5421 40.6282 53.8052 40.6266 55.068 40.6402C55.3357 40.6431 55.3869 40.5447 55.3866 40.305C55.3809 36.5074 55.3828 32.7096 55.3823 28.9119C55.3823 28.5646 55.3799 28.5607 55.0309 28.5633C53.6373 28.573 52.2438 28.5866 50.8501 28.5964C48.3686 28.6141 45.887 28.6342 43.4055 28.6415C43.1544 28.6421 43.0991 28.7248 43.101 28.9572C43.1105 30.1849 43.1125 31.413 43.0996 32.6407C43.0969 32.8967 43.1736 32.9622 43.424 32.9613C45.8184 32.9523 48.2127 32.9559 50.6072 32.9559C50.7104 32.9559 50.8137 32.9559 50.9603 32.9559ZM34.3411 55.6992C34.3411 55.6825 34.3411 55.6657 34.3411 55.649C36.2872 55.649 38.2332 55.6456 40.1792 55.6533C40.4254 55.6543 40.5117 55.586 40.5092 55.3281C40.4968 54.1093 40.4961 52.8904 40.5095 51.6717C40.5124 51.406 40.4383 51.3334 40.1709 51.3346C37.7859 51.3455 35.4008 51.3414 33.0157 51.3417C32.6424 51.3417 32.6417 51.3416 32.6416 50.9764C32.6412 48.6704 32.6416 46.3641 32.6412 44.0581C32.6412 43.663 32.6405 43.663 32.2361 43.6632C31.0172 43.6639 29.7985 43.6644 28.5796 43.6652C28.2243 43.6656 28.2234 43.6661 28.2234 44.0289C28.2233 47.1417 28.2233 50.2544 28.2233 53.3673C28.2233 54.0687 28.2275 54.7703 28.2209 55.4717C28.219 55.6604 28.2726 55.7391 28.4771 55.7276C28.8705 55.7051 29.2652 55.7012 29.6594 55.7005C31.2202 55.6977 32.7806 55.6992 34.3411 55.6992ZM25.1849 32.9525C25.1849 32.8099 25.1849 32.7069 25.1849 32.6037C25.1849 31.0602 25.1809 29.5168 25.1893 27.9734C25.1905 27.7621 25.1233 27.6159 24.9761 27.4691C21.1644 23.6661 17.3567 19.8591 13.5478 16.053C13.4848 15.9899 13.418 15.9306 13.3163 15.835C13.3051 15.9656 13.2944 16.0334 13.2942 16.1012C13.2934 17.9954 13.2905 19.8897 13.3007 21.7838C13.3013 21.9056 13.3739 22.0548 13.4613 22.1436C14.3715 23.0687 15.2915 23.9843 16.2089 24.9023C18.8246 27.5201 21.4401 30.1382 24.0586 32.7534C24.1407 32.8354 24.2485 32.9324 24.3527 32.9435C24.612 32.9709 24.876 32.9525 25.1849 32.9525ZM58.4207 51.3431C58.4207 51.482 58.4207 51.5848 58.4207 51.6877C58.4207 53.2226 58.4256 54.7577 58.4154 56.2927C58.4139 56.5239 58.488 56.6828 58.6478 56.8421C62.4553 60.6387 66.2586 64.4394 70.0628 68.2392C70.1266 68.303 70.1927 68.3642 70.2933 68.4609C70.3047 68.3322 70.316 68.2646 70.316 68.1969C70.317 66.3023 70.3202 64.4076 70.309 62.5131C70.3083 62.3855 70.224 62.2301 70.1303 62.1354C68.8723 60.8629 67.6055 59.5992 66.3412 58.333C64.079 56.0676 61.8173 53.8015 59.5524 51.5388C59.4706 51.457 59.3612 51.363 59.2566 51.3521C58.997 51.3251 58.7328 51.3431 58.4207 51.3431ZM13.3151 40.6525C14.7756 40.6525 16.2143 40.6525 17.6591 40.6525C17.6591 39.0978 17.6591 37.5687 17.6591 36.0346C16.1985 36.0346 14.7589 36.0346 13.3151 36.0346C13.3151 37.5889 13.3151 39.1184 13.3151 40.6525ZM70.2949 43.7434C68.8388 43.7434 67.4049 43.7434 65.9558 43.7434C65.9558 45.2581 65.9558 46.7538 65.9558 48.2605C67.4098 48.2605 68.8495 48.2605 70.2949 48.2605C70.2949 46.7397 70.2949 45.2449 70.2949 43.7434ZM70.295 51.3637C68.8336 51.3637 67.3999 51.3637 65.9407 51.3637C65.9407 52.0464 65.9313 52.7111 65.9483 53.3753C65.9519 53.5143 66.0178 53.6857 66.1144 53.7835C67.428 55.111 68.752 56.4283 70.0737 57.7479C70.1344 57.8085 70.1992 57.8652 70.295 57.9544C70.295 55.7352 70.295 53.5587 70.295 51.3637ZM13.4049 26.374C13.3744 26.391 13.344 26.4078 13.3136 26.4248C13.3136 28.5922 13.3136 30.7595 13.3136 32.9304C14.7735 32.9304 16.2136 32.9304 17.68 32.9304C17.68 32.2618 17.6909 31.6139 17.6717 30.9671C17.6673 30.8204 17.5942 30.6412 17.4917 30.5373C16.1793 29.2094 14.8551 27.893 13.5363 26.5714C13.4812 26.5166 13.4481 26.4403 13.4049 26.374Z" fill="url(#paint1_linear)"/>
<defs>
<linearGradient id="paint0_linear" x1="345.008" y1="54" x2="158.144" y2="54" gradientUnits="userSpaceOnUse">
<stop stop-color="#77216B"/>
<stop offset="1" stop-color="#2A2FA9"/>
</linearGradient>
<linearGradient id="paint1_linear" x1="62.361" y1="73.7297" x2="24.8915" y2="73.7297" gradientUnits="userSpaceOnUse">
<stop stop-color="#77216B"/>
<stop offset="1" stop-color="#2A2FA9"/>
</linearGradient>
</defs>
</svg>
