<svg width="25" height="24" viewBox="0 0 25 24" fill="none" xmlns="http://www.w3.org/2000/svg">
<g clip-path="url(#clip0)">
<path d="M12.668 24.001C19.2954 24.001 24.668 18.6284 24.668 12.001C24.668 5.37356 19.2954 0.000976562 12.668 0.000976562C6.04055 0.000976562 0.667969 5.37356 0.667969 12.001C0.667969 18.6284 6.04055 24.001 12.668 24.001Z" fill="white"/>
<path d="M13.6353 16.0687C12.7281 15.9986 12.3469 15.5487 11.6355 15.1169C11.2445 17.1684 10.7666 19.1351 9.3512 20.1625C8.91376 17.0617 9.99249 14.7327 10.4935 12.2606C9.63954 10.8231 10.5961 7.92985 12.3972 8.6428C14.6139 9.51938 10.4781 13.9877 13.2545 14.5457C16.1532 15.1284 17.3365 9.51618 15.5388 7.69071C12.9416 5.05518 7.97878 7.63081 8.58905 11.4037C8.73772 12.326 9.69088 12.606 8.96981 13.8788C7.30755 13.5106 6.81171 12.1996 6.87546 10.4518C6.97834 7.59081 9.44617 5.58759 11.9215 5.31037C15.052 4.95999 17.9902 6.45989 18.3958 9.40452C18.852 12.728 16.9825 16.3271 13.6353 16.0687Z" fill="#682477"/>
</g>
<defs>
<clipPath id="clip0">
<rect width="24" height="24" fill="white" transform="translate(0.666992)"/>
</clipPath>
</defs>
</svg>
