<svg width="162" height="162" viewBox="0 0 162 162" fill="none" xmlns="http://www.w3.org/2000/svg">
<path d="M162 123.897H0V123.978H162V123.897Z" fill="#EBEBEB"/>
<path d="M56.1231 125.965H48.6128V126.046H56.1231V125.965Z" fill="#EBEBEB"/>
<path d="M148.641 127.701H130.28V127.782H148.641V127.701Z" fill="#EBEBEB"/>
<path d="M32.2019 127.701H13.8408V127.782H32.2019V127.701Z" fill="#EBEBEB"/>
<path d="M76.7878 109.447H14.2267C13.7366 109.446 13.2669 109.251 12.9206 108.904C12.5744 108.557 12.3799 108.087 12.3799 107.597V19.6537C12.3841 19.1664 12.5805 18.7004 12.9263 18.3571C13.2721 18.0137 13.7394 17.8207 14.2267 17.8198H76.7878C77.2785 17.8198 77.7491 18.0147 78.096 18.3617C78.443 18.7086 78.6379 19.1792 78.6379 19.6699V107.597C78.6379 108.088 78.443 108.558 78.096 108.905C77.7491 109.252 77.2785 109.447 76.7878 109.447ZM14.2267 17.8846C13.7581 17.8855 13.3089 18.0722 12.9779 18.4039C12.6468 18.7356 12.4609 19.185 12.4609 19.6537V107.597C12.4609 108.066 12.6468 108.515 12.9779 108.847C13.3089 109.178 13.7581 109.365 14.2267 109.366H76.7878C77.2565 109.364 77.7055 109.177 78.0369 108.846C78.3683 108.515 78.5552 108.066 78.5569 107.597V19.6537C78.5552 19.185 78.3683 18.736 78.0369 18.4047C77.7055 18.0733 77.2565 17.8863 76.7878 17.8846H14.2267Z" fill="#EBEBEB"/>
<path d="M146.872 109.447H84.308C83.8179 109.445 83.3483 109.25 83.0018 108.903C82.6552 108.557 82.4597 108.087 82.458 107.597V19.6537C82.4631 19.1661 82.6602 18.7002 83.0065 18.3569C83.3528 18.0136 83.8204 17.8206 84.308 17.8198H146.872C147.359 17.8215 147.826 18.015 148.171 18.3582C148.516 18.7015 148.712 19.1669 148.716 19.6537V107.597C148.716 107.84 148.669 108.08 148.577 108.304C148.484 108.528 148.349 108.732 148.177 108.904C148.006 109.076 147.803 109.212 147.579 109.305C147.355 109.398 147.115 109.447 146.872 109.447ZM84.308 17.8846C83.8394 17.8863 83.3904 18.0733 83.059 18.4047C82.7276 18.736 82.5407 19.185 82.539 19.6537V107.597C82.5407 108.066 82.7276 108.515 83.059 108.846C83.3904 109.177 83.8394 109.364 84.308 109.366H146.872C147.341 109.364 147.79 109.177 148.121 108.846C148.453 108.515 148.64 108.066 148.641 107.597V19.6537C148.64 19.185 148.453 18.736 148.121 18.4047C147.79 18.0733 147.341 17.8863 146.872 17.8846H84.308Z" fill="#EBEBEB"/>
<path d="M102.083 98.1816H94.6016V124.072H102.083V98.1816Z" fill="#E6E6E6"/>
<path d="M96.7854 98.1816H89.3042V124.072H96.7854V98.1816Z" fill="#E6E6E6"/>
<path d="M95.3662 124.072H96.7853V120.029H93.8726L95.3662 124.072Z" fill="#F0F0F0"/>
<path d="M59.1784 98.1816H51.6973V124.072H59.1784V98.1816Z" fill="#E6E6E6"/>
<path d="M96.7885 98.1816H57.9409V122.083H96.7885V98.1816Z" fill="#F0F0F0"/>
<path d="M94.3684 116.705H79.1403C78.7482 116.703 78.3725 116.546 78.0952 116.269C77.8179 115.992 77.6614 115.616 77.6597 115.224V100.673C77.6605 100.281 77.8169 99.9053 78.0945 99.6283C78.3721 99.3514 78.7482 99.1958 79.1403 99.1958H94.3522C94.7443 99.1958 95.1204 99.3514 95.398 99.6283C95.6756 99.9053 95.832 100.281 95.8328 100.673V115.224C95.8312 115.613 95.6769 115.987 95.403 116.264C95.1292 116.54 94.7577 116.699 94.3684 116.705ZM79.1403 99.5328C78.8356 99.5328 78.5432 99.6534 78.327 99.8683C78.1109 100.083 77.9886 100.375 77.9869 100.68V115.231C77.9852 115.382 78.0133 115.532 78.0697 115.673C78.1261 115.814 78.2097 115.942 78.3156 116.05C78.4215 116.158 78.5477 116.245 78.687 116.304C78.8263 116.364 78.9759 116.395 79.1274 116.397H94.3554C94.6608 116.399 94.9543 116.279 95.1718 116.065C95.3892 115.85 95.5127 115.559 95.5153 115.253V100.673C95.5153 100.522 95.4855 100.373 95.4277 100.234C95.3699 100.094 95.2851 99.9676 95.1782 99.8611C95.0714 99.7545 94.9446 99.6701 94.805 99.6127C94.6655 99.5552 94.516 99.5259 94.3651 99.5263L79.1403 99.5328Z" fill="#E0E0E0"/>
<path d="M75.5695 116.705H60.3415C59.9493 116.703 59.5737 116.546 59.2964 116.269C59.0191 115.992 58.8625 115.616 58.8608 115.224V100.673C58.8617 100.281 59.0181 99.9053 59.2957 99.6283C59.5733 99.3514 59.9494 99.1958 60.3415 99.1958H75.5695C75.9617 99.1958 76.3378 99.3514 76.6154 99.6283C76.893 99.9053 77.0493 100.281 77.0502 100.673V115.224C77.0493 115.616 76.8931 115.993 76.6156 116.27C76.3381 116.548 75.962 116.704 75.5695 116.705ZM60.3415 99.5328C60.1906 99.5323 60.0411 99.5617 59.9016 99.6191C59.7621 99.6766 59.6353 99.761 59.5284 99.8676C59.4216 99.9741 59.3368 100.101 59.2789 100.24C59.2211 100.379 59.1913 100.529 59.1913 100.68V115.231C59.1913 115.382 59.2211 115.531 59.2789 115.671C59.3367 115.81 59.4214 115.937 59.5282 116.044C59.635 116.151 59.7618 116.235 59.9014 116.293C60.0409 116.351 60.1905 116.381 60.3415 116.381H75.5695C75.8746 116.38 76.167 116.259 76.383 116.043C76.5991 115.828 76.7213 115.536 76.723 115.231V100.673C76.7212 100.368 76.599 100.077 76.3828 99.8618C76.1667 99.6469 75.8743 99.5263 75.5695 99.5263L60.3415 99.5328Z" fill="#E0E0E0"/>
<path d="M74.1574 103.793C73.8749 103.793 73.5988 103.71 73.3639 103.553C73.129 103.396 72.9458 103.173 72.8376 102.912C72.7293 102.651 72.7009 102.364 72.7557 102.087C72.8106 101.81 72.9464 101.555 73.1459 101.355C73.3454 101.155 73.5997 101.019 73.8766 100.963C74.1536 100.908 74.4408 100.936 74.7019 101.043C74.9631 101.151 75.1864 101.334 75.3438 101.568C75.5012 101.803 75.5856 102.079 75.5862 102.361C75.5862 102.74 75.4358 103.104 75.1679 103.373C74.9 103.641 74.5366 103.792 74.1574 103.793Z" fill="#FAFAFA"/>
<path d="M80.566 103.793C80.2834 103.795 80.0066 103.713 79.7705 103.558C79.5345 103.402 79.3499 103.18 79.24 102.92C79.13 102.66 79.0998 102.373 79.153 102.095C79.2063 101.818 79.3406 101.562 79.5391 101.361C79.7376 101.16 79.9912 101.022 80.268 100.965C80.5448 100.908 80.8323 100.934 81.0941 101.041C81.3559 101.147 81.5803 101.329 81.7389 101.562C81.8975 101.796 81.9832 102.072 81.9851 102.355V102.384C81.9808 102.758 81.8297 103.115 81.5642 103.379C81.2987 103.643 80.9402 103.792 80.566 103.793Z" fill="#FAFAFA"/>
<path d="M59.3604 124.072H57.938V120.029H60.8507L59.3604 124.072Z" fill="#F0F0F0"/>
<path d="M56.7971 98.1816H49.3159V124.072H56.7971V98.1816Z" fill="#E6E6E6"/>
<path d="M55.3747 124.072H56.797V120.029H53.8843L55.3747 124.072Z" fill="#F0F0F0"/>
<path d="M56.7973 98.1816H17.9497V122.083H56.7973V98.1816Z" fill="#F0F0F0"/>
<path d="M54.3771 116.705H39.1491C38.7564 116.705 38.3798 116.549 38.1021 116.271C37.8245 115.993 37.6685 115.617 37.6685 115.224V100.673C37.6693 100.281 37.8257 99.9053 38.1033 99.6283C38.3809 99.3514 38.757 99.1958 39.1491 99.1958H54.3609C54.7531 99.1958 55.1292 99.3514 55.4068 99.6283C55.6844 99.9053 55.8408 100.281 55.8416 100.673V115.224C55.8416 115.614 55.6879 115.988 55.4137 116.265C55.1395 116.543 54.767 116.7 54.3771 116.705ZM39.1491 99.5328C38.9982 99.5323 38.8487 99.5617 38.7092 99.6191C38.5697 99.6766 38.4429 99.761 38.336 99.8676C38.2292 99.9741 38.1444 100.101 38.0866 100.24C38.0287 100.379 37.9989 100.529 37.9989 100.68V115.231C37.9972 115.382 38.0254 115.532 38.0818 115.673C38.1381 115.814 38.2217 115.942 38.3276 116.05C38.4335 116.158 38.5597 116.245 38.699 116.304C38.8383 116.364 38.9879 116.395 39.1394 116.397H54.3674C54.6731 116.399 54.967 116.279 55.1849 116.065C55.4029 115.851 55.5272 115.559 55.5306 115.253V100.673C55.5289 100.369 55.407 100.078 55.1916 99.863C54.9762 99.6481 54.6846 99.5271 54.3804 99.5263L39.1491 99.5328Z" fill="#E0E0E0"/>
<path d="M35.5784 116.705H20.3698C19.9771 116.705 19.6005 116.549 19.3228 116.271C19.0452 115.993 18.8892 115.617 18.8892 115.224V100.673C18.8892 100.479 18.9275 100.287 19.0019 100.107C19.0764 99.9276 19.1855 99.7646 19.323 99.6274C19.4606 99.4902 19.6238 99.3814 19.8035 99.3073C19.9831 99.2333 20.1755 99.1954 20.3698 99.1958H35.5784C35.7727 99.1954 35.9652 99.2333 36.1448 99.3073C36.3244 99.3814 36.4877 99.4902 36.6252 99.6274C36.7627 99.7646 36.8719 99.9276 36.9463 100.107C37.0208 100.287 37.0591 100.479 37.0591 100.673V115.224C37.0582 115.617 36.902 115.993 36.6245 116.27C36.347 116.548 35.9708 116.704 35.5784 116.705ZM20.3698 99.5328C20.2187 99.5319 20.0688 99.5609 19.9289 99.6182C19.789 99.6755 19.6618 99.7598 19.5546 99.8664C19.4474 99.973 19.3624 100.1 19.3043 100.239C19.2463 100.379 19.2164 100.529 19.2164 100.68V115.231C19.2147 115.382 19.2428 115.532 19.2992 115.673C19.3556 115.814 19.4391 115.942 19.545 116.05C19.651 116.158 19.7772 116.245 19.9165 116.304C20.0557 116.364 20.2054 116.395 20.3569 116.397H35.5849C35.7362 116.397 35.8861 116.368 36.026 116.31C36.166 116.253 36.2931 116.168 36.4003 116.061C36.5074 115.954 36.5925 115.827 36.6505 115.688C36.7085 115.548 36.7383 115.398 36.7383 115.247V100.667C36.7383 100.516 36.7084 100.366 36.6504 100.226C36.5924 100.087 36.5073 99.96 36.4001 99.8534C36.2929 99.7469 36.1657 99.6625 36.0258 99.6052C35.8859 99.548 35.736 99.519 35.5849 99.5198L20.3698 99.5328Z" fill="#E0E0E0"/>
<path d="M34.1689 103.793C33.8863 103.794 33.6099 103.711 33.3745 103.554C33.1392 103.398 32.9556 103.175 32.8468 102.914C32.7381 102.653 32.7091 102.366 32.7636 102.089C32.8181 101.812 32.9537 101.557 33.153 101.356C33.3524 101.156 33.6067 101.019 33.8837 100.964C34.1608 100.908 34.4481 100.936 34.7095 101.043C34.9708 101.151 35.1944 101.333 35.3519 101.568C35.5094 101.802 35.5938 102.079 35.5945 102.361C35.5953 102.549 35.5591 102.735 35.4878 102.909C35.4166 103.082 35.3117 103.24 35.1792 103.373C35.0468 103.506 34.8893 103.612 34.7159 103.684C34.5426 103.756 34.3567 103.793 34.1689 103.793Z" fill="#FAFAFA"/>
<path d="M40.5777 103.793C40.2951 103.795 40.0183 103.713 39.7823 103.558C39.5462 103.402 39.3616 103.18 39.2517 102.92C39.1418 102.66 39.1115 102.373 39.1648 102.095C39.218 101.818 39.3523 101.562 39.5508 101.361C39.7493 101.16 40.0029 101.022 40.2797 100.965C40.5565 100.908 40.844 100.934 41.1058 101.041C41.3676 101.147 41.592 101.329 41.7506 101.562C41.9092 101.796 41.9949 102.072 41.9968 102.355V102.384C41.9926 102.758 41.8414 103.115 41.5759 103.379C41.3104 103.643 40.9519 103.792 40.5777 103.793Z" fill="#FAFAFA"/>
<path d="M19.3688 124.072H17.9497V120.029H20.8592L19.3688 124.072Z" fill="#F0F0F0"/>
<path d="M86.5987 26.4121H72.6797V40.3311H86.5987V26.4121Z" fill="#EBEBEB"/>
<path d="M87.2177 26.4155H86.6021V40.3346H87.2177V26.4155Z" fill="#E0E0E0"/>
<path d="M84.7165 28.3013H74.5688V38.4489H84.7165V28.3013Z" fill="white"/>
<path d="M81.34 35.0694C81.117 35.2929 80.8521 35.4702 80.5605 35.5911C80.2689 35.7121 79.9563 35.7744 79.6406 35.7744C79.3249 35.7744 79.0123 35.7121 78.7207 35.5911C78.4291 35.4702 78.1642 35.2929 77.9412 35.0694C77.4917 34.6188 77.2393 34.0082 77.2393 33.3717C77.2393 32.7351 77.4917 32.1246 77.9412 31.6739C78.3924 31.2242 79.0035 30.9717 79.6406 30.9717C80.2777 30.9717 80.8888 31.2242 81.34 31.6739C81.7895 32.1246 82.0419 32.7351 82.0419 33.3717C82.0419 34.0082 81.7895 34.6188 81.34 35.0694Z" fill="#F5F5F5"/>
<path d="M72.9649 44.3101H56.645V60.6299H72.9649V44.3101Z" fill="#EBEBEB"/>
<path d="M73.6874 44.3135H72.9648V60.6334H73.6874V44.3135Z" fill="#E0E0E0"/>
<path d="M70.7552 46.5229H58.8579V58.4202H70.7552V46.5229Z" fill="white"/>
<path d="M67.34 49.9316H62.2661V55.0055H67.34V49.9316Z" fill="#F5F5F5"/>
<path d="M145.962 39.0615H137.126V41.1254H145.962V39.0615Z" fill="#E6E6E6"/>
<path d="M137.127 39.0615H100.554V41.1254H137.127V39.0615Z" fill="#F5F5F5"/>
<path d="M121.335 28.1035H111.038V39.0644H121.335V28.1035Z" fill="#E0E0E0"/>
<path d="M111.038 28.1035H108.401V39.0644H111.038V28.1035Z" fill="#F0F0F0"/>
<path d="M124.034 26.4121H116.3V39.0611H124.034V26.4121Z" fill="#E6E6E6"/>
<path d="M116.303 26.4121H114.067V39.0611H116.303V26.4121Z" fill="#F0F0F0"/>
<path d="M125.103 28.1035H118.581V39.0644H125.103V28.1035Z" fill="#F0F0F0"/>
<path d="M118.581 28.1035H117.09V39.0644H118.581V28.1035Z" fill="#FAFAFA"/>
<path d="M132.471 29.957H123.917V39.0614H132.471V29.957Z" fill="#E6E6E6"/>
<path d="M123.917 29.957H121.727V39.0614H123.917V29.957Z" fill="#FAFAFA"/>
<path d="M134.713 28.5542H128.288V39.0648H134.713V28.5542Z" fill="#E6E6E6"/>
<path d="M128.288 28.5542H126.431V39.0648H128.288V28.5542Z" fill="#F0F0F0"/>
<path d="M136.42 29.957H130.18V39.0614H136.42V29.957Z" fill="#F0F0F0"/>
<path d="M130.18 29.957H128.942V39.0614H130.18V29.957Z" fill="#FAFAFA"/>
<path d="M131.897 100.252C134.664 96.6362 141.251 95.2916 143.529 93.0106C146.51 90.0201 146.497 85.5327 143.957 83.9127C141.753 82.5065 134.444 92.0127 133.624 93.0819C130.789 96.7398 129.969 99.4517 129.438 102.079C129.5 99.847 129.558 97.7928 129.607 96.2117C129.759 91.0504 129.95 89.3883 130.041 88.8796C130.365 88.6269 130.708 88.3385 130.916 88.183C132.685 86.8643 136.605 85.2929 138.565 83.3781C141.429 80.5787 140.966 77.2221 138.957 75.9812C136.861 74.6852 133.148 77.7599 131.181 80.8152C129.215 83.8706 130.054 86.7995 129.503 89.317C129.386 89.816 129.266 91.7049 129.156 94.326C128.69 91.743 127.261 89.4331 125.158 87.8622C122.446 85.6979 120.104 83.0606 117.868 83.4008C115.632 83.741 116.847 87.2304 118.604 89.6799C120.178 91.8604 127.951 94.0377 129.095 95.7905C128.959 99.3545 128.839 103.842 128.754 108.034C128.142 105.87 128.563 105.689 126.052 102.364C124.562 100.395 118.438 97.9581 117.713 99.3189C116.987 100.68 118.092 103.233 120.402 105.025C122.265 106.47 126.383 106.466 127.358 107.364C127.582 107.571 128.33 108.375 128.738 108.838C128.638 113.951 128.596 118.464 128.644 120.006L129.046 120.022C129.027 119.624 129.072 117.022 129.153 113.578C130.157 111.748 136.929 110.662 139.006 108.77C141.19 106.777 142.758 104.451 141.821 102.893C141.041 101.597 134.894 103.359 132.377 105.511C130.711 106.943 129.694 108.475 129.228 110.529C129.283 108.184 129.351 105.669 129.412 103.288C129.924 102.708 131.068 101.337 131.897 100.252Z" fill="#E6E6E6"/>
<path d="M132.487 124.005H125.469C125.084 124.005 124.753 123.506 124.679 122.812L124.18 118.276H133.773L133.278 122.812C133.197 123.506 132.869 124.005 132.487 124.005Z" fill="#F0F0F0"/>
<path d="M133.974 120.029H123.979C123.739 120.029 123.538 119.705 123.512 119.258L123.308 115.901C123.275 115.386 123.493 114.929 123.774 114.929H134.181C134.46 114.929 134.677 115.38 134.645 115.901L134.441 119.258C134.418 119.698 134.214 120.029 133.974 120.029Z" fill="#F0F0F0"/>
<path d="M81.0001 138.529C115.695 138.529 143.82 136.887 143.82 134.862C143.82 132.836 115.695 131.194 81.0001 131.194C46.3053 131.194 18.1797 132.836 18.1797 134.862C18.1797 136.887 46.3053 138.529 81.0001 138.529Z" fill="#F5F5F5"/>
<path d="M69.4949 50.4402C68.7788 52.1801 64.5636 52.0602 60.1475 50.2393C55.7314 48.4184 52.7279 45.5316 53.4439 43.7917C53.6124 43.39 54.0919 41.8834 54.5714 41.676C56.2174 40.9794 59.3504 42.5443 62.7427 43.944C65.9017 45.24 69.5143 46.0856 70.0748 47.7996C70.4118 48.8429 69.699 49.9445 69.4949 50.4402Z" fill="#B0296B"/>
<path opacity="0.2" d="M70.0748 47.7995C70.3438 49.1635 69.7508 49.818 69.4949 50.4401C69.2389 51.0622 68.4905 51.4704 67.444 51.613C67.3131 51.6352 67.1812 51.6504 67.0487 51.6583C66.2462 51.7055 65.4409 51.6631 64.6478 51.532C64.5344 51.532 64.421 51.4963 64.3044 51.4769C63.3734 51.3098 62.4561 51.0737 61.5601 50.7706L61.2361 50.6604C60.8765 50.5341 60.5071 50.3947 60.1378 50.2425C59.7684 50.0902 59.4185 49.9185 59.0718 49.7662L58.7737 49.6236C57.9569 49.2197 57.1698 48.7585 56.4182 48.2434L56.1525 48.0555C55.4965 47.5917 54.8954 47.0547 54.3608 46.4549C54.2798 46.3642 54.2053 46.2767 54.134 46.186C53.4374 45.3047 53.162 44.4623 53.4374 43.7916C53.6189 43.3607 54.0077 41.8865 54.565 41.6727C55.2504 41.4796 55.9758 41.4796 56.6612 41.6727L56.9852 41.7504C58.6052 42.1651 60.6464 43.0885 62.7298 43.9471C65.1857 44.9613 68.092 46.0143 69.5176 47.2293C69.6024 47.3007 69.6835 47.3763 69.7606 47.4561C69.8743 47.562 69.9794 47.6768 70.0748 47.7995Z" fill="black"/>
<g opacity="0.2">
<path opacity="0.2" d="M57.1473 41.4719L56.9983 41.7441L54.3674 46.4518C54.2864 46.3611 54.2119 46.2736 54.1406 46.1829L56.6678 41.6663L56.8655 41.3164L57.1473 41.4719Z" fill="black"/>
</g>
<g opacity="0.2">
<path opacity="0.2" d="M59.1367 43.3937L56.4249 48.2537L56.1592 48.0657L58.8549 43.2446L59.1367 43.3937Z" fill="black"/>
</g>
<g opacity="0.2">
<path opacity="0.2" d="M64.1227 46.18L61.5598 50.7711L61.2358 50.6609L63.8278 46.0083L64.1227 46.18Z" fill="black"/>
</g>
<g opacity="0.2">
<path opacity="0.2" d="M61.8032 44.8836L59.0784 49.7663L58.7803 49.6238L61.5213 44.7119L61.8032 44.8836Z" fill="black"/>
</g>
<g opacity="0.2">
<path opacity="0.2" d="M67.1457 47.0678L64.6476 51.5325C64.5342 51.5325 64.4208 51.4968 64.3042 51.4774L66.8606 46.9058L67.1457 47.0678Z" fill="black"/>
</g>
<path d="M70.0553 48.9238C69.3393 50.6637 65.1759 50.5957 60.7565 48.7715C56.3372 46.9474 53.3369 44.0638 54.0562 42.3239C54.7755 40.5841 58.9356 40.6553 63.355 42.4762C67.7744 44.2971 70.7714 47.1742 70.0553 48.9238Z" fill="#B0296B"/>
<path opacity="0.2" d="M68.5523 48.2921C68.0469 49.5201 64.8004 49.3484 61.3044 47.9066C57.8085 46.4648 55.385 44.2972 55.8904 43.0693C56.3958 41.8413 59.6423 42.013 63.1415 43.4548C66.6407 44.8966 69.061 47.0642 68.5523 48.2921Z" fill="white"/>
<path d="M91.8248 34.7133C92.9783 36.2005 90.7816 39.8001 87.0005 42.7259C83.2194 45.6516 79.2245 46.818 78.0743 45.3179C77.8086 44.9744 76.7329 43.8242 76.7977 43.2864C77.0148 41.5141 79.9276 39.5766 82.8306 37.328C85.5328 35.235 88.0567 32.5199 89.8225 32.886C90.895 33.1225 91.4976 34.2921 91.8248 34.7133Z" fill="#B0296B"/>
<path opacity="0.2" d="M89.8226 32.8989C91.1413 33.346 91.4134 34.1949 91.8249 34.7133C92.2364 35.2317 92.2202 36.0968 91.8249 37.0785C91.7795 37.1984 91.7245 37.3183 91.6661 37.4414C91.3111 38.1617 90.8764 38.8399 90.3701 39.4632C90.3021 39.5539 90.2276 39.6414 90.1531 39.7321C89.5437 40.4588 88.8809 41.1389 88.1702 41.7668L87.9207 41.9839C87.6323 42.2334 87.3278 42.4829 87.0135 42.7259C86.6992 42.9689 86.3849 43.1989 86.0674 43.416C85.9799 43.4808 85.886 43.5423 85.7985 43.6039C85.0415 44.1117 84.2489 44.5643 83.4268 44.9582C83.3264 45.0101 83.2292 45.0522 83.1352 45.0975C82.4048 45.4354 81.6385 45.6897 80.851 45.8557C80.7344 45.8816 80.621 45.9011 80.5076 45.9173C79.3963 46.0825 78.5279 45.9173 78.0841 45.3308C77.7989 44.9615 76.7135 43.889 76.8075 43.3026C76.977 42.6093 77.3373 41.9774 77.8475 41.4785C77.9188 41.3975 77.9966 41.3165 78.0776 41.2322C79.2472 40.0205 81.0584 38.7212 82.8404 37.3442C84.9431 35.7242 87.3019 33.7186 89.0612 33.0901C89.1674 33.0511 89.2755 33.0176 89.3852 32.9896C89.5286 32.9488 89.6748 32.9185 89.8226 32.8989Z" fill="black"/>
<g opacity="0.2">
<path opacity="0.2" d="M77.9058 40.9668L78.0678 41.2325L80.8412 45.856C80.7246 45.8819 80.6112 45.9013 80.4978 45.9175L77.8377 41.4722L77.6304 41.1482L77.9058 40.9668Z" fill="black"/>
</g>
<g opacity="0.2">
<path opacity="0.2" d="M80.5594 40.1953L83.4171 44.9581C83.3166 45.01 83.2194 45.0521 83.1255 45.0974L80.2808 40.3606L80.5594 40.1953Z" fill="black"/>
</g>
<g opacity="0.2">
<path opacity="0.2" d="M85.4554 37.2603L88.1608 41.7703L87.9113 41.9874L85.1768 37.4255L85.4554 37.2603Z" fill="black"/>
</g>
<g opacity="0.2">
<path opacity="0.2" d="M83.1808 38.624L86.0579 43.416C85.9704 43.4808 85.8765 43.5423 85.789 43.6039L82.8989 38.7893L83.1808 38.624Z" fill="black"/>
</g>
<g opacity="0.2">
<path opacity="0.2" d="M87.7298 35.0732L90.3607 39.4634C90.2927 39.5542 90.2181 39.6416 90.1436 39.7324L87.4512 35.2417L87.7298 35.0732Z" fill="black"/>
</g>
<path d="M86.02 41.4545C89.7986 38.5278 91.9281 34.9499 90.7765 33.4631C89.6249 31.9762 85.6281 33.1435 81.8495 36.0703C78.071 38.997 75.9414 42.5749 77.093 44.0618C78.2447 45.5486 82.2414 44.3813 86.02 41.4545Z" fill="#B0296B"/>
<path opacity="0.2" d="M85.5512 40.5526C88.5419 38.2361 90.3062 35.5062 89.4921 34.4551C88.6779 33.404 85.5936 34.4298 82.603 36.7462C79.6124 39.0626 77.848 41.7925 78.6621 42.8436C79.4763 43.8947 82.5606 42.869 85.5512 40.5526Z" fill="white"/>
<path d="M76.1854 27.7472C75.816 29.8791 71.0338 30.7798 65.6165 29.8078C60.1992 28.8358 56.1136 26.3313 56.4926 24.1994C56.5801 23.7037 56.7324 21.899 57.2411 21.5393C58.9226 20.3535 62.8301 21.3449 66.9902 22.0837C70.8782 22.7738 75.1324 22.8289 76.1854 24.6206C76.8236 25.7222 76.2923 27.1381 76.1854 27.7472Z" fill="#B0296B"/>
<path opacity="0.2" d="M76.1856 24.6242C76.8337 26.0952 76.3185 26.9732 76.1856 27.7379C76.0528 28.5025 75.3109 29.1408 74.1704 29.562C74.031 29.6171 73.8853 29.6624 73.7362 29.7078C72.8441 29.9585 71.927 30.1096 71.0016 30.1582C70.8688 30.1582 70.7392 30.1582 70.6031 30.1808C69.513 30.2209 68.4214 30.1809 67.3372 30.061L66.9581 30.0124C66.5207 29.9573 66.0704 29.8925 65.62 29.8115C65.1696 29.7305 64.7323 29.6398 64.3013 29.5393C64.1782 29.5134 64.0551 29.481 63.932 29.4518C62.914 29.2005 61.9156 28.8756 60.9447 28.4798C60.8248 28.4345 60.7114 28.3826 60.598 28.3373C59.7458 27.9745 58.9372 27.517 58.1874 26.9732C58.074 26.8922 57.9704 26.8112 57.8634 26.727C56.859 25.9073 56.3439 25.026 56.4897 24.2063C56.5869 23.6749 56.6646 21.9383 57.2349 21.5462C57.8051 21.1542 58.6216 21.0311 59.5936 21.0278H59.9824C61.9264 21.0926 64.4309 21.6337 66.9873 22.0873C70.0005 22.6252 73.5289 23.095 75.4275 24.1123C75.5389 24.1713 75.647 24.2362 75.7515 24.3067C75.9043 24.4011 76.0494 24.5072 76.1856 24.6242Z" fill="black"/>
<g opacity="0.2">
<path opacity="0.2" d="M60.089 20.6973L59.9853 21.0375L58.1839 26.9796C58.0705 26.8986 57.9668 26.8176 57.8599 26.7334L59.59 21.0342L59.7261 20.5903L60.089 20.6973Z" fill="black"/>
</g>
<g opacity="0.2">
<path opacity="0.2" d="M62.7974 22.3561L60.9409 28.4764C60.821 28.4311 60.7076 28.3792 60.5942 28.3339L62.441 22.2427L62.7974 22.3561Z" fill="black"/>
</g>
<g opacity="0.2">
<path opacity="0.2" d="M69.093 24.2737L67.3337 30.0701L66.9546 30.0215L68.7333 24.1636L69.093 24.2737Z" fill="black"/>
</g>
<g opacity="0.2">
<path opacity="0.2" d="M66.1676 23.3862L64.2981 29.5422C64.175 29.5162 64.0518 29.4839 63.9287 29.4547L65.8079 23.2695L66.1676 23.3862Z" fill="black"/>
</g>
<g opacity="0.2">
<path opacity="0.2" d="M72.7121 24.5268L70.9981 30.1677C70.8653 30.1677 70.7357 30.1677 70.5996 30.1904L72.3524 24.4199L72.7121 24.5268Z" fill="black"/>
</g>
<path d="M76.438 25.8862C76.8173 23.7545 72.7318 21.2447 67.3127 20.2804C61.8936 19.3161 57.1931 20.2624 56.8138 22.3941C56.4345 24.5258 60.52 27.0356 65.9391 27.9999C71.3581 28.9642 76.0587 28.0179 76.438 25.8862Z" fill="#B0296B"/>
<path opacity="0.2" d="M74.5933 25.5603C74.8613 24.054 71.6025 22.2144 67.3144 21.4513C63.0264 20.6883 59.333 21.2908 59.0649 22.7971C58.7969 24.3033 62.0557 26.143 66.3438 26.906C70.6318 27.6691 74.3252 27.0666 74.5933 25.5603Z" fill="white"/>
<path d="M104.47 82.1764L71.1276 84.1204C69.9498 84.1898 68.7941 84.4707 67.7159 84.9499L31.4992 101.15C30.8637 101.429 30.3433 101.918 30.0249 102.535C29.7065 103.152 29.6093 103.859 29.7496 104.539L35.7339 132.84C35.835 133.296 36.0391 133.723 36.3304 134.087C36.6217 134.452 36.9926 134.746 37.4147 134.945C37.8367 135.144 38.2988 135.245 38.7656 135.238C39.2324 135.232 39.6915 135.119 40.1079 134.907L75.8548 117.061L108.864 115.957C109.27 115.946 109.669 115.849 110.035 115.671C110.401 115.494 110.724 115.241 110.985 114.929C111.245 114.617 111.436 114.253 111.544 113.862C111.653 113.47 111.677 113.06 111.615 112.658L107.199 85.559C106.969 84.1593 105.906 82.1343 104.47 82.1764Z" fill="#B0296B"/>
<path opacity="0.1" d="M104.47 82.1764L71.1276 84.1204C69.9498 84.1898 68.7941 84.4707 67.7159 84.9499L31.4992 101.15C30.8637 101.429 30.3433 101.918 30.0249 102.535C29.7065 103.152 29.6093 103.859 29.7496 104.539L35.7339 132.84C35.835 133.296 36.0391 133.723 36.3304 134.087C36.6217 134.452 36.9926 134.746 37.4147 134.945C37.8367 135.144 38.2988 135.245 38.7656 135.238C39.2324 135.232 39.6915 135.119 40.1079 134.907L75.8548 117.061L108.864 115.957C109.27 115.946 109.669 115.849 110.035 115.671C110.401 115.494 110.724 115.241 110.985 114.929C111.245 114.617 111.436 114.253 111.544 113.862C111.653 113.47 111.677 113.06 111.615 112.658L107.199 85.559C106.969 84.1593 105.906 82.1343 104.47 82.1764Z" fill="black"/>
<path d="M37.5447 63.7484L20.0469 79.8779L51.4473 113.942L68.9451 97.8125L37.5447 63.7484Z" fill="#B0296B"/>
<path opacity="0.5" d="M68.9407 97.8158L51.4415 113.945L20.0459 79.8825L31.5285 69.2974L37.5451 63.7505L38.5463 64.8391L68.9407 97.8158Z" fill="#FAFAFA"/>
<path d="M37.6573 65.8313L22.2178 80.0635L51.5892 111.926L67.0287 97.6942L37.6573 65.8313Z" stroke="#B0296B" stroke-miterlimit="10"/>
<path d="M48.0972 92.6512C49.8682 91.0188 49.6442 87.895 47.597 85.6741C45.5497 83.4532 42.4545 82.9762 40.6836 84.6087C38.9127 86.2411 39.1367 89.3648 41.1839 91.5857C43.2311 93.8066 46.3263 94.2836 48.0972 92.6512Z" fill="#B0296B"/>
<path opacity="0.1" d="M51.2567 100.119L45.0391 102.268L31.5283 69.2974L37.545 63.7505L38.5462 64.8391L51.2567 100.119Z" fill="black"/>
<path d="M52.4683 50.4036L30.0957 58.5156L45.8879 102.07L68.2604 93.9577L52.4683 50.4036Z" fill="#B0296B"/>
<path opacity="0.5" d="M52.4683 50.4036L30.0957 58.5156L45.8879 102.07L68.2604 93.9577L52.4683 50.4036Z" fill="#FAFAFA"/>
<path d="M51.7653 52.3671L32.0244 59.5249L46.7961 100.265L66.5369 93.1068L51.7653 52.3671Z" stroke="#B0296B" stroke-miterlimit="10"/>
<path d="M51.0301 81.1355C53.2944 80.3145 54.2953 77.3469 53.2656 74.5073C52.236 71.6677 49.5658 70.0313 47.3015 70.8523C45.0372 71.6733 44.0363 74.6408 45.0659 77.4804C46.0955 80.3201 48.7658 81.9565 51.0301 81.1355Z" fill="#B0296B"/>
<path d="M104.688 83.3262L71.8019 85.1795C70.6361 85.2434 69.4924 85.5236 68.429 86.0057L32.7437 102.115C32.1151 102.399 31.6023 102.889 31.2901 103.504C30.9778 104.119 30.8848 104.822 31.0265 105.498L37.0107 133.812C37.1071 134.265 37.3061 134.69 37.5923 135.054C37.8785 135.418 38.2444 135.711 38.6617 135.912C39.0791 136.112 39.537 136.215 40 136.211C40.4631 136.207 40.919 136.097 41.3329 135.889L76.5517 118.143L109.107 117.113C109.51 117.1 109.906 117.002 110.268 116.824C110.63 116.646 110.95 116.393 111.206 116.082C111.462 115.771 111.649 115.408 111.754 115.019C111.86 114.63 111.881 114.222 111.816 113.824L107.387 86.7282C107.157 85.3156 106.107 83.2874 104.688 83.3262Z" fill="#B0296B"/>
<path opacity="0.2" d="M73.1396 90.137L101.357 88.4004" stroke="black" stroke-width="2" stroke-linecap="round" stroke-linejoin="round"/>
<path opacity="0.2" d="M69.7607 90.8662L74.9156 114.544" stroke="black" stroke-width="2" stroke-linecap="round" stroke-linejoin="round"/>
<path opacity="0.2" d="M35.3906 112.244L39.0259 130.456C39.0259 130.456 41.8123 123.23 35.3906 112.244Z" fill="#FAFAFA"/>
<path opacity="0.2" d="M35.8667 112.457C35.9931 112.781 68.1565 98.979 68.1565 98.979C68.2437 102.108 67.4613 105.2 65.8963 107.912C64.3314 110.623 62.0452 112.847 59.2919 114.337C49.6108 119.764 35.8667 112.457 35.8667 112.457Z" fill="#FAFAFA"/>
<path d="M57.2316 112.995C58.001 112.995 58.6248 112.372 58.6248 111.602C58.6248 110.833 58.001 110.209 57.2316 110.209C56.4621 110.209 55.8384 110.833 55.8384 111.602C55.8384 112.372 56.4621 112.995 57.2316 112.995Z" fill="#B0296B"/>
<path opacity="0.2" d="M68.1729 98.979C68.1729 98.979 72.1613 104.983 71.1958 115.208L68.1729 98.979Z" fill="black"/>
<g opacity="0.2">
<path opacity="0.2" d="M33.8516 105.09L34.5935 104.763" stroke="#FAFAFA" stroke-linecap="round" stroke-linejoin="round"/>
<path opacity="0.2" d="M36.1323 104.082L66.1671 90.8047" stroke="#FAFAFA" stroke-linecap="round" stroke-linejoin="round" stroke-dasharray="5.2 5.2"/>
<path opacity="0.2" d="M66.9385 90.4644L67.6772 90.1372" stroke="#FAFAFA" stroke-linecap="round" stroke-linejoin="round"/>
</g>
<path opacity="0.2" d="M74.0859 95.4606L102.303 93.7207" stroke="black" stroke-width="2" stroke-linecap="round" stroke-linejoin="round"/>
<path opacity="0.2" d="M75.356 102.099L103.573 100.359" stroke="black" stroke-width="2" stroke-linecap="round" stroke-linejoin="round"/>
<path d="M97.388 54.9375C97.388 54.9375 96.6785 62.4964 93.8694 63.1477C92.1298 63.5234 90.3161 63.342 88.6854 62.6293L86.4012 60.8732L85.2866 64.7612C85.2866 64.7612 86.5049 66.4168 89.0483 65.2699C89.0483 65.2699 93.5843 67.2657 96.092 65.2699C98.5998 63.274 99.4033 57.7984 99.4033 57.7984L97.388 54.9375Z" fill="#B97964"/>
<path d="M99.6461 51.2762C99.6461 51.2762 97.6859 47.9357 98.5769 41.8802C99.4679 35.8246 104.545 35.0762 106.505 35.5136C108.465 35.951 110.069 37.8334 111.404 41.4169C112.739 45.0003 113.231 45.9334 115.457 45.3048C117.683 44.6763 123.606 42.7129 125.255 44.4592C125.729 44.9362 126.079 45.5228 126.273 46.167C126.467 46.8112 126.499 47.4932 126.366 48.1528C126.366 48.1528 134.606 46.1505 133.893 53.4988C133.18 60.8471 121.289 67.7062 109.979 60.4454C98.6677 53.1845 99.6461 51.2762 99.6461 51.2762Z" fill="#263238"/>
<path d="M99.5553 69.0609C99.5553 69.0609 97.3165 88.3162 97.391 97.3461C97.4655 106.376 100.673 127.656 100.673 127.656H104.629C104.629 127.656 104.107 110.64 104.182 104.817C104.257 98.9952 105.3 89.3627 105.3 89.3627C105.3 89.3627 106.567 98.02 108.06 101.079C109.554 104.137 117.839 114.962 123.586 118.322L126.272 115.856C126.272 115.856 120.301 108.469 118.062 104.811C115.823 101.153 113.811 100.116 112.988 93.3123C112.165 86.5083 113.588 75.6251 111.2 69.0576L99.5553 69.0609Z" fill="#263238"/>
<path opacity="0.2" d="M105.3 89.3623L103.58 77.1572C103.58 77.1572 102.222 84.4926 104.895 93.4512L105.3 89.3623Z" fill="black"/>
<path d="M101.487 128.735L101.62 132.516L104.273 132.736L104.406 132.383V128.469L101.487 128.735Z" fill="#B97964"/>
<path d="M100.226 127.296L100.469 128.712L105.025 128.822L105.313 127.121L100.226 127.296Z" fill="#B0296B"/>
<path d="M122.339 118.584L126.561 114.65L127.491 116.131L123.865 119.449L122.339 118.584Z" fill="#B0296B"/>
<path d="M124.374 118.584L127.16 120.93L128.949 118.827L126.661 116.462L124.374 118.584Z" fill="#B97964"/>
<path d="M129.49 118.665L131.175 119.702C131.252 119.749 131.317 119.813 131.367 119.888C131.416 119.963 131.449 120.048 131.462 120.138C131.475 120.227 131.469 120.318 131.444 120.404C131.418 120.491 131.374 120.571 131.314 120.638C130.093 122.018 126.972 125.524 126.661 125.77C126.276 126.094 125.809 125.55 125.689 125.064C125.689 125.064 126.574 123.891 126.661 123.14C126.698 122.559 126.698 121.977 126.661 121.396C126.655 121.251 126.703 121.109 126.798 120.998L128.68 118.788C128.777 118.673 128.913 118.597 129.062 118.574C129.211 118.552 129.363 118.584 129.49 118.665Z" fill="#263238"/>
<path d="M104.921 132.84L105.271 134.784C105.287 134.873 105.283 134.964 105.26 135.051C105.237 135.139 105.195 135.22 105.138 135.289C105.08 135.359 105.008 135.415 104.926 135.454C104.844 135.492 104.755 135.512 104.665 135.513C102.821 135.513 98.1296 135.532 97.7375 135.467C97.2483 135.386 97.3358 134.687 97.6241 134.278C97.6241 134.278 99.0854 134.155 99.6977 133.711C100.153 133.354 100.586 132.969 100.994 132.558C101.098 132.456 101.237 132.397 101.383 132.393L104.282 132.325C104.433 132.319 104.58 132.368 104.698 132.463C104.815 132.558 104.894 132.691 104.921 132.84Z" fill="#263238"/>
<path d="M111.625 58.3816L115.668 55.5434C115.668 55.5434 114.592 51.2407 112.998 51.0268C111.404 50.813 103.492 49.3064 98.4604 51.0268C98.4604 51.0268 96.6525 51.542 96.0952 56.6191L98.2466 57.3059C98.2466 57.3059 99.0177 66.8121 99.494 68.2766H110.977C110.977 68.2766 111.106 60.1021 111.625 58.3816Z" fill="#B0296B"/>
<path d="M112.496 57.769C112.496 57.769 114.028 62.143 114.301 64.4952C114.301 64.4952 110.659 63.0437 109.719 62.3795L109.006 59.8199L106.596 58.6438L105.88 60.5878L107.892 63.0826C107.892 63.0826 113.377 68.2147 116.157 67.0418C118.937 65.869 115.059 55.9805 115.059 55.9805L112.496 57.769Z" fill="#B97964"/>
<path d="M102.209 38.6173C102.209 38.6173 100.806 41.4166 100.913 43.6943C101.02 45.9721 102.17 46.9019 104.357 47.2227C104.357 47.2227 105.29 50.1387 102.841 50.4335C102.653 50.4562 102.588 51.1982 102.601 51.3181C102.666 51.7911 103.136 52.0503 103.573 52.1605C104.034 52.2625 104.504 52.3146 104.976 52.316C105.472 52.3331 105.964 52.2372 106.417 52.0357C106.87 51.8342 107.272 51.5323 107.591 51.1528C107.643 51.0913 108.135 50.4627 108.135 50.4627C108.135 50.4627 106.965 49.8827 107.377 46.0855C107.935 45.7221 108.364 45.1913 108.602 44.5691C108.825 44.4505 109.023 44.2886 109.183 44.0928C109.343 43.897 109.463 43.6712 109.535 43.4287C109.71 42.6705 109.039 41.6207 107.814 42.6705C107.814 42.6705 105.507 41.5041 104.633 37.4185C103.984 38.0811 103.129 38.5038 102.209 38.6173Z" fill="#B97964"/>
<path d="M102.867 43.0726L103.064 41.5757L102.005 42.7486C102.114 42.8649 102.249 42.9546 102.398 43.0108C102.548 43.0669 102.708 43.0881 102.867 43.0726Z" fill="#A24E3F"/>
<path d="M103.482 44.1679C103.482 44.1679 104.6 44.3396 105.138 43.6235" stroke="#222221" stroke-width="0.75" stroke-linecap="round" stroke-linejoin="round"/>
<path d="M104.6 39.4796C104.854 39.4075 105.122 39.4053 105.377 39.4731C105.632 39.541 105.864 39.6764 106.048 39.8652" stroke="#222221" stroke-linecap="round" stroke-linejoin="round"/>
<path d="M102.666 39.1552C102.666 39.1552 102.018 39.0547 101.729 39.4209" stroke="#222221" stroke-linecap="round" stroke-linejoin="round"/>
<path d="M105.051 41.4493C105.022 41.6761 104.876 41.8414 104.727 41.8219C104.578 41.8025 104.477 41.6049 104.507 41.3781C104.536 41.1513 104.681 40.986 104.831 41.0055C104.98 41.0249 105.08 41.2225 105.051 41.4493Z" fill="#222221"/>
<path d="M102.464 40.9476C102.494 40.7222 102.395 40.5236 102.244 40.504C102.093 40.4844 101.947 40.6513 101.918 40.8766C101.889 41.102 101.988 41.3005 102.138 41.3201C102.289 41.3397 102.435 41.1729 102.464 40.9476Z" fill="#222221"/>
<path d="M104.833 41.0053L104.321 40.7817C104.328 40.8378 104.349 40.8911 104.383 40.9364C104.417 40.9817 104.462 41.0174 104.513 41.04C104.565 41.0625 104.622 41.0712 104.678 41.0652C104.734 41.0591 104.788 41.0384 104.833 41.0053Z" fill="#222221"/>
<path d="M102.293 40.5258L101.781 40.3022C101.788 40.3583 101.809 40.4116 101.843 40.4569C101.877 40.5022 101.922 40.5379 101.973 40.5605C102.025 40.583 102.082 40.5917 102.138 40.5856C102.194 40.5796 102.247 40.5589 102.293 40.5258Z" fill="#222221"/>
<path d="M99.0923 67.7709V69.122L111.534 69.2257L111.2 67.6187L99.0923 67.7709Z" fill="#B0296B"/>
<path opacity="0.4" d="M99.0923 67.7709V69.122L111.534 69.2257L111.2 67.6187L99.0923 67.7709Z" fill="white"/>
<path d="M99.2444 61.2135L92.4015 85.0145C92.174 85.8116 91.7128 86.5222 91.0776 87.0547C90.4423 87.5872 89.6621 87.917 88.8375 88.0018C88.3126 88.052 87.7829 88.0036 87.2758 87.8592L74.1959 84.0976C73.1385 83.7925 72.2453 83.0806 71.712 82.1179C71.1788 81.1552 71.049 80.0204 71.3512 78.9622L78.1973 55.1547C78.5031 54.0987 79.2149 53.2071 80.1769 52.6751C81.1389 52.1431 82.2726 52.0141 83.3295 52.3164L96.4191 56.0748C97.4741 56.3833 98.3638 57.0973 98.8934 58.0604C99.423 59.0236 99.5492 60.1574 99.2444 61.2135Z" fill="#B0296B"/>
<path opacity="0.2" d="M99.2444 61.2135L92.4015 85.0145C92.174 85.8116 91.7128 86.5222 91.0776 87.0547C90.4423 87.5872 89.6621 87.917 88.8375 88.0018C88.3126 88.052 87.7829 88.0036 87.2758 87.8592L74.1959 84.0976C73.1385 83.7925 72.2453 83.0806 71.712 82.1179C71.1788 81.1552 71.049 80.0204 71.3512 78.9622L78.1973 55.1547C78.5031 54.0987 79.2149 53.2071 80.1769 52.6751C81.1389 52.1431 82.2726 52.0141 83.3295 52.3164L96.4191 56.0748C97.4741 56.3833 98.3638 57.0973 98.8934 58.0604C99.423 59.0236 99.5492 60.1574 99.2444 61.2135Z" fill="black"/>
<path d="M98.1071 61.4954L91.2642 85.2997C91.0912 85.9057 90.7821 86.4641 90.3604 86.9324C89.9387 87.4007 89.4156 87.7665 88.831 88.0019C88.3061 88.0521 87.7764 88.0037 87.2693 87.8593L74.1959 84.0977C73.1385 83.7926 72.2453 83.0806 71.712 82.118C71.1788 81.1553 71.049 80.0205 71.3512 78.9623L78.1973 55.1547C78.3705 54.5496 78.6798 53.9922 79.1016 53.5249C79.5233 53.0577 80.0463 52.6931 80.6306 52.4591C81.1554 52.4056 81.6857 52.454 82.1922 52.6016L95.2559 56.3762C96.3113 56.6794 97.2037 57.3881 97.738 58.3474C98.2723 59.3067 98.405 60.4385 98.1071 61.4954Z" fill="#B0296B"/>
<path opacity="0.5" d="M98.1071 61.4954L91.2642 85.2997C91.0912 85.9057 90.7821 86.4641 90.3604 86.9324C89.9387 87.4007 89.4156 87.7665 88.831 88.0019C88.3061 88.0521 87.7764 88.0037 87.2693 87.8593L74.1959 84.0977C73.1385 83.7926 72.2453 83.0806 71.712 82.118C71.1788 81.1553 71.049 80.0205 71.3512 78.9623L78.1973 55.1547C78.3705 54.5496 78.6798 53.9922 79.1016 53.5249C79.5233 53.0577 80.0463 52.6931 80.6306 52.4591C81.1554 52.4056 81.6857 52.454 82.1922 52.6016L95.2559 56.3762C96.3113 56.6794 97.2037 57.3881 97.738 58.3474C98.2723 59.3067 98.405 60.4385 98.1071 61.4954Z" fill="#FAFAFA"/>
<path d="M79.7108 63.5196L78.3105 63.125L73.2708 81.0065L74.671 81.4012L79.7108 63.5196Z" fill="#FAFAFA"/>
<path d="M76.6809 81.9691L75.2812 81.5641L80.3195 63.689L81.7159 64.0907L76.6809 81.9691Z" fill="#FAFAFA"/>
<path d="M78.7156 82.5522L77.3159 82.1505L82.3541 64.2754L83.7538 64.6771L78.7156 82.5522Z" fill="#FAFAFA"/>
<path opacity="0.5" d="M91.9017 67.0196L90.5015 66.625L85.4617 84.5065L86.8619 84.9011L91.9017 67.0196Z" fill="black"/>
<path d="M91.724 61.9652L91.0436 64.392L90.2141 64.1587C89.8123 64.0448 89.4721 63.7761 89.2681 63.4117C89.064 63.0473 89.0127 62.6169 89.1255 62.2147L89.5791 60.5947L91.2542 61.0742C91.4345 61.1302 91.5853 61.2555 91.6734 61.4226C91.7615 61.5896 91.7797 61.7848 91.724 61.9652Z" fill="#FAFAFA"/>
<path d="M91.326 60.7761L89.6509 60.2966L90.1531 58.521C90.2091 58.3219 90.3039 58.1357 90.432 57.9731C90.5601 57.8106 90.7189 57.6749 90.8994 57.5738C91.08 57.4727 91.2787 57.4082 91.4842 57.3839C91.6897 57.3596 91.8979 57.3761 92.0971 57.4324L92.9589 57.6754L92.2072 60.2901C92.1823 60.3805 92.1395 60.465 92.0814 60.5386C92.0233 60.6122 91.9511 60.6735 91.869 60.7188C91.7869 60.7641 91.6965 60.7925 91.6033 60.8023C91.51 60.8121 91.4157 60.8032 91.326 60.7761Z" fill="#FAFAFA"/>
<path d="M92.9131 61.5601L94.598 62.0429L94.1508 63.6273C94.0955 63.8269 94.0012 64.0136 93.8733 64.1766C93.7455 64.3396 93.5865 64.4756 93.4058 64.5769C93.225 64.6781 93.026 64.7425 92.8202 64.7664C92.6144 64.7902 92.406 64.7731 92.2068 64.7159L91.332 64.4697L92.0286 62.0461C92.0543 61.9558 92.0977 61.8716 92.1562 61.7981C92.2147 61.7247 92.2871 61.6637 92.3694 61.6184C92.4517 61.5732 92.5421 61.5448 92.6354 61.5348C92.7288 61.5248 92.8232 61.5334 92.9131 61.5601Z" fill="#FAFAFA"/>
<path d="M95.1941 59.9402L94.6855 61.7416L93.0007 61.2588C92.8203 61.2061 92.668 61.0843 92.577 60.9198C92.4859 60.7554 92.4635 60.5617 92.5147 60.3808L93.2663 57.7661L94.1055 58.0026C94.3042 58.0584 94.49 58.1527 94.6523 58.2802C94.8145 58.4078 94.95 58.566 95.0511 58.7459C95.1522 58.9258 95.2169 59.1239 95.2414 59.3288C95.266 59.5337 95.2499 59.7415 95.1941 59.9402Z" fill="#FAFAFA"/>
</svg>
