<svg width="29" height="29" viewBox="0 0 29 29" fill="none" xmlns="http://www.w3.org/2000/svg">
<path d="M2.26416 14.4975C2.26416 19.2021 4.99813 23.2674 8.96222 25.1941L3.29316 9.66064C2.63391 11.1387 2.26416 12.7744 2.26416 14.4975Z" fill="white"/>
<path d="M22.1723 13.8979C22.1723 12.4289 21.6449 11.4119 21.192 10.6203C20.5901 9.64144 20.0254 8.81213 20.0254 7.83329C20.0254 6.74075 20.8538 5.72369 22.0208 5.72369C22.0734 5.72369 22.1236 5.73038 22.1751 5.73325C20.0598 3.79611 17.2427 2.61328 14.1486 2.61328C9.99625 2.61328 6.34363 4.74342 4.21875 7.97039C4.49774 7.97899 4.76096 7.98424 4.98357 7.98424C6.22659 7.98424 8.15131 7.83329 8.15131 7.83329C8.79193 7.79555 8.86741 8.73665 8.22775 8.81213C8.22775 8.81213 7.58378 8.88808 6.86721 8.92535L11.1953 21.7988L13.7965 13.9982L11.9444 8.92535C11.3042 8.88761 10.698 8.81213 10.698 8.81213C10.0574 8.77439 10.1329 7.79555 10.773 7.83329C10.773 7.83329 12.7355 7.98424 13.9035 7.98424C15.1465 7.98424 17.0708 7.83329 17.0708 7.83329C17.7118 7.79555 17.7873 8.73665 17.1472 8.81213C17.1472 8.81213 16.5023 8.88808 15.7871 8.92535L20.0823 21.7014L21.2665 17.7402C21.781 16.0963 22.1723 14.9154 22.1723 13.8979Z" fill="white"/>
<path d="M14.3577 15.5371L10.792 25.8983C11.8568 26.2117 12.9823 26.3827 14.1494 26.3827C15.5333 26.3827 16.8604 26.1429 18.0963 25.7091C18.0638 25.6585 18.0351 25.6045 18.0117 25.5453L14.3577 15.5371Z" fill="white"/>
<path d="M24.5773 8.7959C24.6284 9.17425 24.6571 9.58126 24.6571 10.0179C24.6571 11.2241 24.432 12.5799 23.7532 14.2748L20.123 24.7707C23.6567 22.7103 26.0334 18.8824 26.0334 14.4979C26.0334 12.4318 25.5055 10.4884 24.5773 8.7959Z" fill="white"/>
<path d="M14.1487 0.644043C6.51001 0.644043 0.294922 6.85865 0.294922 14.4978C0.294922 22.1375 6.50953 28.3525 14.1487 28.3525C21.7874 28.3525 28.0034 22.1379 28.0034 14.4978C28.0034 6.85865 21.7879 0.644043 14.1487 0.644043ZM14.1487 27.7167C6.86065 27.7167 0.930285 21.7868 0.930285 14.4978C0.930285 7.2093 6.86018 1.27941 14.1487 1.27941C21.4372 1.27941 27.3671 7.20882 27.3671 14.4973C27.3671 21.7868 21.4372 27.7167 14.1487 27.7167Z" fill="white"/>
</svg>
